<svg xmlns="http://www.w3.org/2000/svg" viewBox="0 0 512 512"><path d="M226.444 232.637H200.18v-9.431h25.589v-9.426H200.18v-8.754h26.264v-10.099h-37.709v47.808h37.709zM285.707 194.927h11.448v47.137h-11.448zM399.501 293.912h-6.061c-1.347 0-2.69 0-4.04-.675-1.347-.668-2.69-1.342-2.69-3.363 0-1.345 0-2.694 1.343-3.368 1.347-.674 2.697-.674 4.716-.674h20.871v-11.446h-22.219c-12.124 0-16.162 7.408-16.162 14.143 0 14.812 12.794 14.139 23.568 14.812 2.019 0 3.368.675 4.042 1.347.674.675 1.343 2.016 1.343 3.365 0 1.348-.669 2.693-1.343 3.367-1.347 1.348-2.699 1.348-4.714 1.348h-21.551v10.1h21.551c11.444 0 17.507-4.717 17.507-14.816 0-4.713-1.347-8.08-3.368-10.101-2.694-2.692-6.734-4.039-12.793-4.039zM450.476 294.991c-2.038-.716-4.263-1.079-7.207-1.079H437.213c-1.349 0-2.697 0-4.04-.675-2.023-.668-2.699-1.342-2.699-3.363 0-1.345.676-2.694 1.352-3.368 1.347-.674 2.69-.674 4.714-.674h20.874v-11.446h-22.221c-1.248 0-2.39.097-3.472.246-9.032 1.717-12.69 7.497-12.69 13.898 0 14.812 12.796 14.139 23.568 14.812 2.019 0 3.364.675 4.038 1.347.674.675 1.347 2.016 1.347 3.365 0 1.348-.674 2.693-1.347 3.367-1.343 1.348-2.693 1.348-4.716 1.348H420.38v10.1h21.541c6.739 0 11.455-2.02 14.145-4.717 2.693-2.69 4.038-6.057 4.038-10.099 0-.874-.086-1.661-.206-2.417-1.384-7.207-7.558-9.971-9.422-10.645zM332.167 322.869h37.709v-10.1h-26.265v-9.428h25.59v-9.429h-25.59v-8.755h26.265v-10.098h-37.709z"/><path d="M503.916 153.88a8.082 8.082 0 0 0 8.084-8.084v-31.459c0-20.619-16.774-37.394-37.393-37.394H37.393C16.775 76.942 0 93.716 0 114.337v283.326c0 20.62 16.775 37.395 37.393 37.395h437.214c20.619 0 37.393-16.775 37.393-37.395V172.026a8.082 8.082 0 0 0-8.084-8.084 8.082 8.082 0 0 0-8.084 8.084v225.637c0 11.705-9.522 21.227-21.225 21.227H37.393c-11.704 0-21.225-9.522-21.225-21.227V114.337c0-11.704 9.521-21.226 21.225-21.226h437.214c11.703 0 21.225 9.522 21.225 21.226v31.459a8.082 8.082 0 0 0 8.084 8.084z"/><path d="M148.768 242.064v.001H152.865l15.665-35.511v.018l.675-1.545v37.038H179.98v-47.138h-18.183l-13.467 32.321-.216.698-6.101-13.854-8.496-18.491h-.025l-.317-.675h-17.84v45.115l-18.853-45.114H79.648l-19.922 47.138h11.836l2.478-5.311 2.236-4.79h22.898l4.714 10.101h22.893v-37.039l16.16 37.038h5.827zm-68.45-20.203l7.409-18.854 7.406 18.854H80.318zM324.754 242.734h12.796l4.04-10.771h23.57l1.962 4.906 2.078 5.195h11.446v.028h11.377v-6.161l.069.07v-29.629l21.547 35.691h14.817V195.6h-11.45v32.994L397.479 195.6h-16.833v45.115l-4.964-11.879-13.893-33.237h-16.834l-13.903 33.247-1.586 3.79h-4.714c-3.364 0-6.057-.674-8.08-2.697-2.69-2.693-3.366-6.059-3.366-11.447 0-4.713 1.347-8.753 3.366-10.771 2.697-2.023 4.716-2.695 8.756-2.695h10.775v-10.1h-10.775c-7.405.002-13.468 1.345-16.833 5.388-4.716 5.385-6.059 12.123-6.059 18.857 0 8.753 2.017 14.14 6.059 18.18 4.039 4.038 10.776 5.383 16.159 5.383zm28.956-39.728l7.411 18.854h-15.49l8.079-18.854zM245.294 231.972v-6.741h12.123c3.174 0 5.091.011 6.099.664a6.136 6.136 0 0 1 1.979 1.354c.848 1.129 1.328 2.495 1.615 3.899v.002c.296 1.457.382 2.946.4 4.264v.019c.006.434.009.856.009 1.243v5.389h10.099v-9.427c0-.41-.011-.788-.025-1.159l.002-.058c0-.037-.004-.069-.004-.107-.004-.064-.009-.127-.011-.191a18.854 18.854 0 0 0-.083-1.474c-.012-.127-.03-.245-.045-.37-.04-.346-.086-.686-.146-1.008-.021-.111-.044-.217-.065-.326-.07-.337-.148-.662-.236-.972-.019-.068-.037-.135-.057-.202-.111-.37-.232-.723-.364-1.055a10.576 10.576 0 0 0-1.392-2.489 7.599 7.599 0 0 0-.659-.798c-.019-.015-.042-.026-.059-.041-2.017-2.096-4.261-2.549-4.261-2.549 3.307-1.326 7.907-5.258 8.064-12.424-.078-5.203-2.07-8.49-5.37-10.471-3.368-2.02-7.411-2.02-13.467-2.02h-25.59v47.139h11.445v-10.091zm0-26.946h13.47c2.019 0 4.04 0 5.387.672.857.431 1.712 1.139 2.046 2.293l.004-.001c.017.055.015.102.027.156.046.196.084.397.101.614.377 2.374-.324 4.111-.935 5.078-.15.273-.331.511-.526.721-.091.105-.157.177-.157.177l-.004-.009a2.48 2.48 0 0 1-.556.4c-1.347.675-3.368.675-5.387.675h-13.47v-10.776z"/><path d="M480.988 292.837v-26.53c0-.335-.011-.67-.029-1.001v-1.022c0-8.929-7.24-16.168-16.168-16.168h-10.065v-62.617c0-8.929-7.238-16.168-16.168-16.168h-30.304c-.687 0-1.362.043-2.025.125a16.198 16.198 0 0 0-2.015-.125h-31.646c-.687 0-1.362.043-2.025.125a16.437 16.437 0 0 0-2.017-.125H325.43c-4.501 0-8.733.395-12.741 1.195a16.115 16.115 0 0 0-6.114-1.195h-30.303c-1.686 0-3.313.259-4.844.737-2.529-.49-5.181-.737-7.949-.737H155.066c-2.631 0-5.162.639-7.408 1.797a16.141 16.141 0 0 0-7.408-1.797h-34.343c-.57 0-1.133.029-1.688.087a16.133 16.133 0 0 0-1.679-.087H72.912a16.168 16.168 0 0 0-14.877 9.837l-13.401 31.491-15.415 34.185c-.056.122-.11.247-.162.371l-.285.675a16.168 16.168 0 0 0 14.9 22.444H78.73c3.091 0 6.033-.879 8.539-2.439a16.15 16.15 0 0 0 8.539 2.439h25.581v63.967c0 8.929 7.238 16.168 16.168 16.168h59.257c3.264 0 6.426-.987 9.089-2.796a16.17 16.17 0 0 0 9.089 2.796h37.711c3.315 0 6.396-.997 8.961-2.709a16.097 16.097 0 0 0 9.895 3.381h30.305c.568 0 1.129-.029 1.683-.086a16.4 16.4 0 0 0 1.682.086h91.579c2.596 0 6.185-.184 10.086-.924a16.15 16.15 0 0 0 5.402.924h28.955c6.779 0 16.676-.613 24.789-5.859 10.476-6.42 17.065-17.377 18.15-30.173.038-.304.071-.608.099-.916a16.25 16.25 0 0 0 .055-1.996c.005-.251.01-.515.01-.792 0-5.652-1.2-11.465-3.366-16.568zm-346.127-48.753v8.08H95.808l-4.04-10.774h-8.754l-4.041 10.099-.244.675H43.672l.285-.675 15.486-34.342 13.469-31.648h29.628l3.367 8.081v-8.081h34.343l7.406 16.835 7.411-16.835H263.48c5.389 0 9.427 1.348 12.794 4.041v-4.041h30.303v4.041c5.385-2.693 11.448-4.041 18.855-4.041h43.094l4.042 8.081v-8.081h31.646l4.04 8.081v-8.081h30.303v65.991h-31.646l-6.063-10.099v10.099H361.79l-4.04-10.771h-9.425l-4.04 10.771h-20.202c-8.082 0-14.139-2.017-18.181-4.04v4.04h-48.484v-14.814c0-2.021 0-2.021-1.345-2.021h-1.347v17.51H161.124v-8.08l-3.366 8.08h-19.526l-3.371-8.081zm333.241 67.361c-.581 7.854-4.488 14.436-10.688 18.157-4.038 2.696-10.103 3.368-16.162 3.368h-28.957V328.926c-3.368 2.694-9.425 4.043-15.488 4.043h-91.579V317.48c0-2.02 0-2.02-2.021-2.02h-1.343v17.509h-30.305v-18.183c-4.711 2.023-10.775 2.023-15.486 2.023h-3.37v15.488H214.993l-8.44-9.74-9.738 9.74h-59.257v-68.015H198.16l8.755 10.102 9.429-10.102h40.398c3.758 0 11.008.586 14.711 3.374h.001c.279.21.542.429.778.665v-4.039h36.364c3.364 0 10.775.675 14.815 4.039v-4.038h55.213v4.039c2.699-2.69 8.756-4.039 13.469-4.039h30.977v4.039s.02-.017.061-.047l.006-.005c.124-.095.417-.316.838-.608l.006-.004c1.651-1.146 5.262-3.374 8.383-3.374h32.425v2.023h.029v30.301c2.021 3.366 3.366 8.081 3.366 12.795 0 .44-.019.872-.04 1.306l.041.039c-.021.233-.054.465-.083.697z"/><path d="M257.416 275.734h-35.688l-14.142 15.486-.342.354-2.514-2.742-11.958-13.098h-43.77v47.136h43.096l14.813-15.49.628.724.045-.05 12.882 14.816h22.133v-7.408h.001v-10.099h13.469c10.097 0 19.526-2.696 19.526-16.163 0-1.762-.206-3.313-.558-4.709-2.936-7.047-10.692-8.757-17.621-8.757zm-70.703 37.71h-27.607v-10.103h24.915v-9.429h-24.915v-8.755h28.281l12.121 14.143-12.795 14.144zm44.445 5.382l-17.51-19.526 17.509-18.856v38.382zm26.259-21.548h-14.815v-12.121h14.139c4.042 0 6.737 2.023 7.411 6.063 0 4.039-2.695 6.058-6.735 6.058zM325.43 287.855c0-5.387-2.693-8.755-6.059-10.777-3.371-2.018-8.084-2.018-13.469-2.018h-25.587v47.811h11.446V305.364h12.12c4.04 0 6.737 0 8.08 2.016 2.023 2.023 2.023 6.734 2.023 9.432v6.059h11.446v-9.425c0-.457-.013-.891-.029-1.315l-.026-.45a23.775 23.775 0 0 0-.053-.752c-.017-.181-.033-.359-.053-.534-.022-.189-.046-.37-.071-.551-.027-.196-.054-.395-.086-.582-.015-.091-.036-.175-.053-.263a13.504 13.504 0 0 0-.594-2.191c-.012-.031-.023-.065-.036-.096a11.404 11.404 0 0 0-.28-.673c-.221-.48-.462-.933-.738-1.35-.674-1.347-2.695-2.698-6.063-4.04 3.369-1.348 8.082-5.389 8.082-12.794zm-12.122 3.365c0 2.017-.674 4.039-2.021 4.714-1.343.674-3.366.674-5.385.674h-13.469v-10.776h13.469c2.019 0 4.042 0 5.385.674 1.348.674 2.696 2.023 2.021 4.714z"/></svg>