<svg xmlns="http://www.w3.org/2000/svg" viewBox="0 0 512 512"><path d="M503.916 133.4a8.084 8.084 0 0 0 8.084-8.084v-10.979c0-20.619-16.775-37.394-37.393-37.394H37.393C16.775 76.943 0 93.719 0 114.337v283.326c0 20.62 16.775 37.395 37.393 37.395h437.212c20.619 0 37.393-16.776 37.393-37.395V151.547a8.084 8.084 0 0 0-8.084-8.084H16.168v-29.125c0-11.704 9.522-21.226 21.225-21.226h437.212c11.703 0 21.225 9.522 21.225 21.226v10.979a8.085 8.085 0 0 0 8.086 8.083zM16.168 229.373h479.663v26.982H16.168v-26.982zm458.439 189.516H37.393c-11.703 0-21.225-9.522-21.225-21.227v-125.14h479.663v125.14h.001c0 11.705-9.522 21.227-21.225 21.227zm21.225-259.258v53.573H16.168v-53.573h479.664z"/><path d="M417.55 290.845c-10.342 0-20.491 2.989-29.169 8.491-8.677-5.502-18.825-8.491-29.169-8.491-30.015 0-54.434 24.419-54.434 54.435s24.419 54.435 54.434 54.435c10.342 0 20.491-2.988 29.169-8.491 8.677 5.502 18.827 8.491 29.169 8.491 30.016 0 54.436-24.419 54.436-54.435s-24.42-54.435-54.436-54.435zm-54.358 57.231c.014.284.037.565.055.848.044.661.098 1.319.166 1.976a53.184 53.184 0 0 0 .394 3.02c.033.211.06.424.097.635.154.9.331 1.794.529 2.682.049.216.106.428.156.643.161.68.333 1.356.52 2.028.081.292.166.581.251.871.184.623.38 1.242.587 1.857.088.262.172.525.264.785a55.5 55.5 0 0 0 .961 2.542l.041.095c.332.806.689 1.602 1.06 2.391.12.255.247.508.371.761a54.59 54.59 0 0 0 1.309 2.51c.345.62.703 1.231 1.073 1.838.107.175.206.351.315.525.48.767.979 1.522 1.497 2.266.13.188.269.37.402.556a53.722 53.722 0 0 0 1.803 2.38c.167.209.327.423.498.628-5.049 2.395-10.574 3.636-16.329 3.636-21.1 0-38.265-17.167-38.265-38.266 0-21.102 17.166-38.268 38.266-38.268 5.755 0 11.28 1.241 16.33 3.636-.17.206-.329.418-.496.626a48.844 48.844 0 0 0-1.803 2.379c-.134.188-.274.371-.405.56a53.703 53.703 0 0 0-1.496 2.266c-.108.174-.208.35-.315.525-.37.606-.728 1.218-1.073 1.838-.146.262-.287.526-.429.79a52.493 52.493 0 0 0-.88 1.72c-.124.253-.25.504-.371.76-.372.79-.729 1.588-1.062 2.395l-.04.091a51.847 51.847 0 0 0-.961 2.543c-.092.26-.176.522-.264.784a54.893 54.893 0 0 0-.588 1.859c-.085.29-.17.579-.251.87-.187.673-.359 1.35-.52 2.031-.051.213-.108.426-.155.64a54.813 54.813 0 0 0-.53 2.683c-.036.21-.064.423-.097.633a53.026 53.026 0 0 0-.56 4.998c-.018.282-.041.565-.055.848-.047.928-.078 1.858-.078 2.793s.031 1.866.078 2.793zm34.228-.82c-.011.204-.027.407-.041.611a39.077 39.077 0 0 1-.189 2.042c-.056.465-.122.927-.195 1.388-.029.187-.055.374-.087.559-.11.638-.234 1.273-.376 1.903-.017.074-.038.147-.055.221a38.988 38.988 0 0 1-.424 1.656c-.056.199-.116.397-.176.594a40.618 40.618 0 0 1-.618 1.903c-.16.447-.329.891-.504 1.332-.064.16-.123.32-.189.479a37.12 37.12 0 0 1-.778 1.755c-.053.111-.111.219-.164.329-.227.467-.464.93-.71 1.387-.102.19-.208.376-.314.564a38 38 0 0 1-1.813 2.915c-.092.135-.18.272-.274.405a38.84 38.84 0 0 1-1.141 1.535c-.105.134-.217.264-.323.397-.218.272-.443.538-.669.803a39.183 39.183 0 0 1-.694-.832c-.097-.121-.198-.238-.293-.36a38.07 38.07 0 0 1-1.151-1.549c-.087-.124-.169-.251-.255-.376a39.03 39.03 0 0 1-.819-1.24c-.115-.182-.227-.368-.34-.552-.232-.38-.456-.765-.674-1.154a30.058 30.058 0 0 1-.308-.555c-.248-.46-.485-.925-.714-1.395-.053-.109-.11-.216-.162-.324a37.631 37.631 0 0 1-.779-1.756c-.066-.158-.125-.319-.189-.478a32.197 32.197 0 0 1-.717-1.953 35.997 35.997 0 0 1-.405-1.283c-.059-.198-.121-.397-.176-.596a38.711 38.711 0 0 1-.423-1.65c-.017-.075-.039-.15-.056-.225a38.698 38.698 0 0 1-.376-1.901c-.032-.186-.058-.374-.087-.562a40.152 40.152 0 0 1-.268-2.055 39.077 39.077 0 0 1-.115-1.373c-.014-.204-.03-.406-.041-.611-.033-.655-.055-1.313-.055-1.974s.021-1.322.054-1.977c.011-.205.027-.407.041-.611a39.02 39.02 0 0 1 .189-2.042c.056-.464.122-.926.194-1.385.029-.188.055-.375.087-.562.11-.638.234-1.272.376-1.901.017-.075.039-.15.056-.225.128-.554.269-1.104.423-1.649.056-.201.117-.399.177-.598a40.502 40.502 0 0 1 .617-1.9c.16-.448.329-.893.504-1.333.064-.16.123-.32.189-.477.245-.592.503-1.177.778-1.756.052-.11.11-.217.163-.327.229-.469.465-.933.712-1.393.1-.186.206-.371.309-.556.218-.388.442-.772.673-1.152.112-.185.224-.371.341-.554.264-.418.537-.83.818-1.237.086-.125.168-.253.255-.377a40.04 40.04 0 0 1 1.151-1.549c.096-.122.196-.239.293-.36.225-.281.459-.557.694-.832.227.267.454.536.674.808.106.13.214.259.318.39.394.503.776 1.016 1.144 1.537.093.133.18.267.272.401.275.401.544.805.803 1.215.117.186.232.374.346.563.23.377.452.759.667 1.144.105.187.21.373.313.562.247.458.483.922.71 1.389.054.11.111.218.164.328.275.578.534 1.164.778 1.756.066.157.124.318.188.476a32.197 32.197 0 0 1 .717 1.953c.143.425.278.853.406 1.284.059.198.12.396.176.594.153.549.295 1.102.425 1.658.017.073.038.146.054.219.142.63.265 1.264.376 1.904.032.185.058.373.087.558a40.273 40.273 0 0 1 .269 2.057c.047.456.084.914.115 1.373.014.204.03.406.041.611.033.655.055 1.313.055 1.974s-.022 1.321-.055 1.975zm20.128 36.291c-5.755 0-11.28-1.241-16.329-3.636.175-.211.337-.43.509-.643a52.92 52.92 0 0 0 1.82-2.404c.121-.168.246-.334.364-.503a54.417 54.417 0 0 0 1.516-2.294c.094-.15.18-.303.272-.453.386-.633.76-1.272 1.12-1.919.136-.244.267-.489.399-.735.317-.592.622-1.189.917-1.793.114-.233.231-.465.341-.7a53.914 53.914 0 0 0 2.078-5.064c.086-.245.165-.492.248-.738a57.268 57.268 0 0 0 .845-2.744c.191-.687.366-1.379.531-2.075.047-.203.101-.403.147-.607.199-.893.377-1.791.532-2.696.034-.203.06-.406.093-.609.113-.709.215-1.421.3-2.136a54.38 54.38 0 0 0 .264-2.882c.018-.282.041-.563.055-.846.047-.928.078-1.858.078-2.794a55.17 55.17 0 0 0-.077-2.793c-.014-.282-.037-.564-.055-.846a53.954 53.954 0 0 0-.166-1.981c-.031-.301-.061-.6-.098-.9a52.237 52.237 0 0 0-.3-2.136c-.032-.203-.058-.407-.093-.61a55.578 55.578 0 0 0-.532-2.696c-.045-.204-.099-.404-.148-.608a56.17 56.17 0 0 0-.53-2.073c-.078-.279-.159-.556-.24-.834a54.957 54.957 0 0 0-.604-1.91c-.083-.246-.162-.494-.248-.738a53.896 53.896 0 0 0-2.078-5.063c-.111-.235-.227-.468-.342-.702a52.003 52.003 0 0 0-1.315-2.526 52.684 52.684 0 0 0-1.12-1.919c-.092-.151-.178-.304-.272-.453-.485-.776-.99-1.54-1.514-2.293-.119-.17-.246-.337-.367-.507a53.826 53.826 0 0 0-1.818-2.403c-.17-.213-.334-.431-.508-.642 5.05-2.395 10.575-3.636 16.329-3.636 21.101 0 38.267 17.167 38.267 38.266-.003 21.107-17.17 38.274-38.271 38.274zM163.093 304.448H61.771c-4.466 0-8.084 3.618-8.084 8.084s3.618 8.084 8.084 8.084h101.322a8.082 8.082 0 0 0 8.084-8.084 8.084 8.084 0 0 0-8.084-8.084zM163.093 338.052H61.771a8.082 8.082 0 0 0-8.084 8.084 8.083 8.083 0 0 0 8.084 8.084h101.322a8.083 8.083 0 0 0 8.084-8.084 8.084 8.084 0 0 0-8.084-8.084zM163.093 371.655H61.771a8.082 8.082 0 0 0-8.084 8.084 8.082 8.082 0 0 0 8.084 8.084h101.322a8.082 8.082 0 0 0 8.084-8.084 8.084 8.084 0 0 0-8.084-8.084z"/></svg>