<svg xmlns="http://www.w3.org/2000/svg" viewBox="0 0 511.999 511.999"><path d="M503.915 153.88a8.084 8.084 0 0 0 8.084-8.084v-31.459c0-20.619-16.774-37.394-37.393-37.394H37.393C16.775 76.942 0 93.716 0 114.337v283.325c0 20.62 16.775 37.395 37.393 37.395h437.214c20.619 0 37.393-16.775 37.392-37.395V172.024a8.084 8.084 0 0 0-8.084-8.084 8.082 8.082 0 0 0-8.084 8.084V397.66c0 11.705-9.522 21.227-21.225 21.227H37.393c-11.704 0-21.225-9.522-21.225-21.227V114.336c0-11.704 9.521-21.226 21.225-21.225h437.212c11.703 0 21.225 9.522 21.225 21.226v31.459a8.084 8.084 0 0 0 8.085 8.084z"/><path d="M194.033 376.384c0 8.411 5.877 14.285 14.29 14.285h38.69c9.418 0 16.644-5.974 18.859-15.589.04-.172.073-.347.102-.522l7.759-48.115c.03-.189.055-.378.071-.568.115-1.307.728-3.499 3.516-3.499h3.96c22.575 0 41.128-5.076 55.144-15.085 16.179-11.556 26.42-29.64 30.439-53.756 2.543-15.282 1.976-28.421-1.687-39.051a5.914 5.914 0 0 0-.043-.122c-2.932-8.091-7.909-15.172-14.5-20.723.835-20.04-3.447-33.256-14.676-46.094-12.415-14.192-34.306-21.388-65.065-21.388h-77.613c-8.818 0-16.13 7.641-18.532 14.832a8.026 8.026 0 0 0-.324 1.342l-31.044 203.336a8.165 8.165 0 0 0-.093 1.22c0 8.737 6.409 15.845 14.289 15.845h38.589l-2.023 12.342a8.105 8.105 0 0 0-.108 1.31zm142.075-135.785c.397-.633.779-1.283 1.163-1.93.287-.484.581-.961.86-1.454.412-.725.806-1.471 1.202-2.215.233-.437.474-.863.702-1.307.59-1.149 1.16-2.32 1.712-3.51.112-.243.218-.493.329-.736.475-1.048.943-2.105 1.39-3.185.197-.475.379-.967.571-1.448.329-.827.66-1.651.972-2.496.203-.549.393-1.112.59-1.669.282-.8.566-1.599.833-2.414.194-.591.377-1.195.564-1.795.181-.581.373-1.151.547-1.74a32.959 32.959 0 0 1 2.366 5.108c2.719 7.944 3.068 18.686 1.008 31.073-6.204 37.228-28.981 55.326-69.634 55.326h-3.96c-13.006 0-18.794 10.58-19.589 17.901l-7.67 47.566c-.713 2.825-1.952 2.825-3.049 2.825H210.62l2.97-18.118c.031-.142.058-.286.082-.429l11.516-70.341c.018-.033.033-.07.051-.104.027-.05.05-.102.075-.153.023-.044.044-.089.067-.135.04-.083.085-.163.122-.247.102-.232.196-.47.277-.714.645-1.933 2.487-3.583 3.283-3.787h23.201c1.636 0 3.251-.026 4.848-.072.534-.015 1.055-.046 1.584-.068 1.056-.042 2.113-.083 3.152-.146.62-.037 1.227-.089 1.84-.134.93-.068 1.86-.134 2.777-.219.648-.059 1.285-.133 1.925-.201.863-.092 1.727-.184 2.577-.291.653-.082 1.298-.176 1.945-.267.818-.115 1.635-.234 2.441-.364.65-.105 1.291-.219 1.934-.333.785-.14 1.565-.285 2.338-.439a112.283 112.283 0 0 0 4.159-.913c.622-.149 1.242-.302 1.856-.46.736-.19 1.465-.39 2.19-.594.604-.17 1.206-.341 1.801-.52.718-.217 1.426-.445 2.132-.675.582-.19 1.166-.378 1.741-.578a90.736 90.736 0 0 0 2.091-.764c.554-.207 1.111-.41 1.657-.626.705-.279 1.395-.576 2.086-.87.515-.22 1.037-.431 1.545-.66.733-.329 1.448-.677 2.166-1.024.447-.216.903-.422 1.345-.645a83.788 83.788 0 0 0 4.006-2.172 83.549 83.549 0 0 0 2.611-1.555c.429-.269.844-.555 1.266-.832.632-.413 1.267-.822 1.884-1.253.455-.316.896-.649 1.343-.974.567-.413 1.135-.822 1.69-1.249.454-.349.897-.714 1.343-1.073.528-.426 1.055-.85 1.572-1.289.444-.377.878-.766 1.314-1.154.499-.444.996-.889 1.483-1.346.43-.403.852-.815 1.273-1.229.473-.465.943-.933 1.406-1.411.413-.427.82-.859 1.224-1.297a78.917 78.917 0 0 0 2.507-2.841c.432-.514.857-1.038 1.277-1.566.373-.467.744-.935 1.108-1.411.416-.545.821-1.102 1.226-1.66.348-.481.698-.96 1.038-1.451.403-.582.793-1.178 1.185-1.774.319-.488.644-.973.958-1.472zm-107.619 23.714l9.95-64.654c.628-2.798 2.01-2.966 3.08-3.011h47.33c.181 0 .36-.006.539-.018h21.537c.115.009.233.014.349.017 3.393.084 12.169.654 20.545 4.095.623.276 1.397.646 2.268 1.112.017.031.03.066.048.097-.108.486-.227.958-.34 1.439-.089.385-.18.768-.273 1.15-.094.385-.179.779-.276 1.16-.136.533-.285 1.048-.427 1.572-.085.316-.17.632-.259.945-.114.41-.22.829-.337 1.233-.157.539-.329 1.061-.493 1.592l-.197.635c-.147.465-.285.94-.435 1.398-.18.545-.375 1.071-.563 1.608-.044.126-.088.252-.134.378-.178.503-.348 1.016-.534 1.512-.205.55-.425 1.08-.638 1.62l-.077.193c-.206.52-.404 1.048-.618 1.559-.231.551-.476 1.083-.716 1.624-.24.542-.473 1.093-.721 1.625-.249.532-.514 1.047-.772 1.569-.255.518-.504 1.046-.769 1.553-.271.52-.557 1.021-.838 1.53-.269.489-.53.988-.808 1.468-.292.504-.599.988-.901 1.482-.284.465-.558.938-.85 1.392-.315.49-.647.961-.971 1.441-.295.435-.582.881-.885 1.306-.34.479-.697.937-1.047 1.403-.305.406-.602.822-.914 1.22-.362.46-.742.901-1.113 1.349-.318.384-.628.776-.954 1.151-.385.442-.786.865-1.181 1.294-.331.36-.654.731-.993 1.082-.41.426-.838.832-1.258 1.245-.341.335-.674.68-1.022 1.007-.433.406-.884.792-1.327 1.186-.354.314-.7.638-1.061.943-.456.386-.929.752-1.397 1.125-.366.292-.723.595-1.096.88-.483.369-.983.716-1.477 1.07-.375.269-.742.55-1.124.812-.508.348-1.034.676-1.553 1.01-.386.249-.763.508-1.156.749-.539.331-1.096.641-1.647.958-.39.224-.772.46-1.168.678-.57.313-1.159.605-1.742.903-.396.203-.781.415-1.182.611-.589.287-1.196.553-1.798.826-.414.188-.817.386-1.236.567-.609.262-1.236.503-1.857.751-.429.171-.849.354-1.284.518-.63.238-1.277.455-1.919.679-.445.155-.881.321-1.332.47-.642.211-1.305.402-1.961.599-.468.141-.926.293-1.4.427-.661.187-1.34.352-2.012.525-.487.125-.964.261-1.457.379-.697.167-1.414.313-2.125.466-.486.105-.961.22-1.454.318-.723.143-1.466.266-2.202.396-.497.087-.985.185-1.489.266-.744.12-1.507.218-2.265.323-.513.071-1.015.154-1.535.219-.773.096-1.565.171-2.352.253-.521.054-1.031.12-1.559.167-.785.071-1.589.121-2.386.178-.547.039-1.082.089-1.635.122-.873.052-1.767.081-2.656.115-.494.019-.977.05-1.475.065-1.396.04-2.81.06-4.243.06h-23.285l-.485.013zm-68.891 82.254l30.679-200.952c.763-1.707 2.361-3.099 3.089-3.288h77.525c25.526 0 43.816 5.486 52.896 15.864 6.761 7.731 10.003 15.356 10.656 26.275-8.893-3.046-17.37-3.808-22.212-3.967a8.041 8.041 0 0 0-.778-.038h-22.636c-.181 0-.36.006-.539.018h-46.914a9.49 9.49 0 0 0-.293.005c-9.441.343-16.533 6.505-18.505 16.081a7.869 7.869 0 0 0-.072.402l-12.365 80.35-11.307 69.248h-39.224z"/></svg>