<svg xmlns="http://www.w3.org/2000/svg" viewBox="0 0 512 512"><path d="M512 145.796v-31.459c0-20.619-16.775-37.394-37.395-37.394H37.395C16.775 76.943 0 93.718 0 114.337v283.325c0 20.62 16.775 37.395 37.395 37.395h437.209c20.62 0 37.395-16.776 37.395-37.395V172.026c0-4.465-3.618-8.084-8.084-8.084s-8.084 3.62-8.084 8.084V357.8H16.168V153.88h487.747a8.083 8.083 0 0 0 8.085-8.084zm-16.168 228.172v23.693c0 11.705-9.522 21.227-21.227 21.227H37.395c-11.705 0-21.227-9.522-21.227-21.227v-23.693h479.664zM16.168 137.712v-23.375c0-11.704 9.522-21.226 21.227-21.226h437.209c11.705 0 21.227 9.522 21.227 21.226v23.375H16.168z"/><path d="M179.611 324.568a8.085 8.085 0 0 0 6.177 2.869h34.431c3.94 0 7.305-2.84 7.969-6.723l21.597-126.403a8.082 8.082 0 0 0-7.969-9.446h-34.488a8.086 8.086 0 0 0-7 4.038c-.061-.103-.113-.212-.18-.315a8.084 8.084 0 0 0-6.752-3.638h-36.501a8.084 8.084 0 0 0-7.528 5.138l-24.222 61.892-10.738-51.509a7.726 7.726 0 0 0-.087-.372c-1.836-7.107-7.231-15.711-22.504-16.352a9.483 9.483 0 0 0-.338-.006H38.099a8.083 8.083 0 0 0-7.947 6.602l-.475 2.551a8.085 8.085 0 0 0 6.043 9.339c10.152 2.461 19.59 5.898 28.17 10.187a8.067 8.067 0 0 0 .196 3.694L94.93 321.538a8.084 8.084 0 0 0 7.759 5.814h.01l36.469-.042a8.085 8.085 0 0 0 7.418-4.891l50.504-117.497-19.27 113.073a8.086 8.086 0 0 0 1.791 6.573zM91.299 199.909c6.153.29 6.83 2.176 7.321 4.053l3.25 15.591c-7.757-7.554-16.819-14.157-26.984-19.643h16.413zm42.529 111.239l-25.086.028L86.688 235.8c12.059 11.415 21.261 24.052 25.218 33.117l3.455 12.49a8.086 8.086 0 0 0 15.32.79l31.731-81.079h18.709l-47.293 110.03zm80.323-110.115h18.083L213.4 311.269h-18.032l18.783-110.236zM330.945 323.81a8.083 8.083 0 0 0 6.773 3.671h36.211a8.086 8.086 0 0 0 7.563-5.228c.042-.112 3.037-8.039 5.215-13.759l14.3.016 17.807.018c1.254 5.65 2.737 12.484 2.759 12.583a8.082 8.082 0 0 0 7.9 6.369h31.99a8.082 8.082 0 0 0 8.084-8.084 8.09 8.09 0 0 0-.342-2.337l-27.773-125.725a8.083 8.083 0 0 0-7.893-6.34h-26.607c-4.618 0-18.672 0-25.435 15.286l-33.29 75.362c-.845-16.501-11.834-29.368-33.527-39.267-4.477-2.167-12.429-6.022-14.455-8.29.99-.939 4.271-2.826 11.405-2.826l.124-.001c10.163-.147 17.358 2.155 22.471 4.193l2.933 1.345a8.086 8.086 0 0 0 11.339-5.988l4.674-27.384a8.087 8.087 0 0 0-5.142-8.934c-7.072-2.642-18.662-5.789-33.716-5.789-38.786 0-66.055 20.444-66.313 49.692-.301 25.473 26.181 37.747 34.9 41.789 11.678 5.375 12.972 7.63 13.113 8.022 0 .001.011.051.008.213-.017 1.741-5.277 4.326-12.508 4.326-12.799 0-19.124-1.755-29.21-5.951l-4.274-1.963a8.081 8.081 0 0 0-11.342 5.984l-4.84 28.325a8.084 8.084 0 0 0 4.732 8.77c9.985 4.363 26.288 7.264 41.536 7.391h.068c19.474 0 36.143-4.586 48.203-13.262a52.267 52.267 0 0 0 3.03-2.375l-1.091 2.469a8.081 8.081 0 0 0 .62 7.679zm65.341-116.992c1.694-3.831 3.721-5.655 10.647-5.655h20.112l24.331 110.15h-15.394c-.988-4.514-2.242-10.193-2.838-12.719a8.084 8.084 0 0 0-7.869-6.228c-2.659 0-13.792-.013-24.251-.023-9.275-.011-18.023-.021-19.874-.021a8.082 8.082 0 0 0-7.527 5.136c-.849 2.169-3.435 8.984-5.279 13.855h-18.216l46.158-104.495zM280.214 313.13c-11.338-.098-21.985-1.897-29.281-3.989l1.965-11.503c9.408 3.565 17.411 5.273 30.615 5.273 16.762 0 28.553-8.36 28.675-20.288.178-11.699-10.554-17.616-22.506-23.119-17.768-8.236-25.637-16.537-25.514-26.943.175-19.836 20.796-33.691 50.145-33.691 8.934 0 16.371 1.346 21.736 2.77l-1.817 10.65c-5.83-1.826-13.228-3.335-22.662-3.198-19.02.022-27.709 9.786-27.748 18.881-.128 11.371 11.009 16.759 23.9 22.998l.17.08c21.584 9.827 24.275 19.542 24.207 26.901-.213 21.691-20.094 35.169-51.885 35.178z"/><path d="M391.057 282.623h28.595a8.084 8.084 0 0 0 7.896-9.816c-1.384-6.313-7.952-36.476-7.953-36.477l-2.337-10.901a8.082 8.082 0 0 0-7.348-6.37 8.088 8.088 0 0 0-8.154 5.302c-1.057 2.911-2.663 7.061-3.623 9.54-.316.818-.622 1.61-.872 2.389l-.032-.013c-.109.28-10.881 28.138-13.698 35.304a8.088 8.088 0 0 0 .843 7.51 8.096 8.096 0 0 0 6.683 3.532zm16.134-27.284l2.422 11.115h-6.731c1.392-3.587 2.908-7.498 4.309-11.115z"/></svg>