  <svg xmlns="http://www.w3.org/2000/svg" width="32" height="160" viewBox="0 0 32 160" style="display: none">
    <svg viewBox="0 0 512 512" width="32" height="32" id="amex" y="0"><path d="m226.44 232.64h-26.26v-9.431h25.589v-9.426h-25.59v-8.754h26.264v-10.099h-37.709v47.808h37.709zm59.27-37.71h11.448v47.137h-11.448zm113.79 98.98h-6.061c-1.347 0-2.69 0-4.04-0.675-1.347-0.668-2.69-1.342-2.69-3.363 0-1.345 0-2.694 1.343-3.368 1.347-0.674 2.697-0.674 4.716-0.674h20.871v-11.446h-22.219c-12.124 0-16.162 7.408-16.162 14.143 0 14.812 12.794 14.139 23.568 14.812 2.019 0 3.368 0.675 4.042 1.347 0.674 0.675 1.343 2.016 1.343 3.365 0 1.348-0.669 2.693-1.343 3.367-1.347 1.348-2.699 1.348-4.714 1.348h-21.551v10.1h21.551c11.444 0 17.507-4.717 17.507-14.816 0-4.713-1.347-8.08-3.368-10.101-2.694-2.692-6.734-4.039-12.793-4.039zm50.98 1.08c-2.038-0.716-4.263-1.079-7.207-1.079h-6.06c-1.349 0-2.697 0-4.04-0.675-2.023-0.668-2.699-1.342-2.699-3.363 0-1.345 0.676-2.694 1.352-3.368 1.347-0.674 2.69-0.674 4.714-0.674h20.874v-11.446h-22.221c-1.248 0-2.39 0.097-3.472 0.246-9.032 1.717-12.69 7.497-12.69 13.898 0 14.812 12.796 14.139 23.568 14.812 2.019 0 3.364 0.675 4.038 1.347 0.674 0.675 1.347 2.016 1.347 3.365 0 1.348-0.674 2.693-1.347 3.367-1.343 1.348-2.693 1.348-4.716 1.348h-21.54v10.1h21.541c6.739 0 11.455-2.02 14.145-4.717 2.693-2.69 4.038-6.057 4.038-10.099 0-0.874-0.086-1.661-0.206-2.417-1.384-7.207-7.558-9.971-9.422-10.645zm-118.31 27.88h37.709v-10.1h-26.265v-9.428h25.59v-9.429h-25.59v-8.755h26.265v-10.098h-37.709z"/><path d="m503.92 153.88a8.082 8.082 0 0 0 8.084 -8.084v-31.459c0-20.619-16.774-37.394-37.393-37.394h-437.22c-20.615-0.004-37.39 16.77-37.39 37.394v283.33c0 20.62 16.775 37.395 37.393 37.395h437.21c20.619 0 37.393-16.775 37.393-37.395v-225.63a8.082 8.082 0 0 0 -8.084 -8.084 8.082 8.082 0 0 0 -8.084 8.084v225.64c0 11.705-9.522 21.227-21.225 21.227h-437.21c-11.704 0-21.225-9.522-21.225-21.227v-283.33c0-11.704 9.521-21.226 21.225-21.226h437.21c11.703 0 21.225 9.522 21.225 21.226v31.459a8.082 8.082 0 0 0 8.084 8.084z"/><path d="m148.77 242.06v0.001h4.09l15.665-35.511v0.018l0.675-1.545v37.038h10.78v-47.138h-18.183l-13.467 32.321-0.216 0.698-6.101-13.854-8.496-18.491h-0.025l-0.317-0.675h-17.84v45.115l-18.853-45.114h-16.839l-19.922 47.138h11.836l2.478-5.311 2.236-4.79h22.898l4.714 10.101h22.893v-37.039l16.16 37.038h5.827zm-68.45-20.203l7.409-18.854 7.406 18.854h-14.817zm244.43 20.87h12.796l4.04-10.771h23.57l1.962 4.906 2.078 5.195h11.446v0.028h11.377v-6.161l0.069 0.07v-29.629l21.547 35.691h14.817v-46.46h-11.45v32.994l-19.54-32.99h-16.833v45.115l-4.964-11.879-13.893-33.237h-16.834l-13.903 33.247-1.586 3.79h-4.714c-3.364 0-6.057-0.674-8.08-2.697-2.69-2.693-3.366-6.059-3.366-11.447 0-4.713 1.347-8.753 3.366-10.771 2.697-2.023 4.716-2.695 8.756-2.695h10.775v-10.1h-10.775c-7.405 0.002-13.468 1.345-16.833 5.388-4.716 5.385-6.059 12.123-6.059 18.857 0 8.753 2.017 14.14 6.059 18.18 4.039 4.038 10.776 5.383 16.159 5.383zm28.956-39.728l7.411 18.854h-15.49l8.079-18.854zm-108.42 28.97v-6.741h12.123c3.174 0 5.091 0.011 6.099 0.664a6.136 6.136 0 0 1 1.979 1.354c0.848 1.129 1.328 2.495 1.615 3.899v0.002c0.296 1.457 0.382 2.946 0.4 4.264v0.019c0.006 0.434 0.009 0.856 0.009 1.243v5.389h10.099v-9.427c0-0.41-0.011-0.788-0.025-1.159l0.002-0.058c0-0.037-0.004-0.069-0.004-0.107-0.004-0.064-0.009-0.127-0.011-0.191a18.854 18.854 0 0 0 -0.083 -1.474c-0.012-0.127-0.03-0.245-0.045-0.37-0.04-0.346-0.086-0.686-0.146-1.008-0.021-0.111-0.044-0.217-0.065-0.326-0.07-0.337-0.148-0.662-0.236-0.972-0.019-0.068-0.037-0.135-0.057-0.202-0.111-0.37-0.232-0.723-0.364-1.055a10.576 10.576 0 0 0 -1.392 -2.489 7.599 7.599 0 0 0 -0.659 -0.798c-0.019-0.015-0.042-0.026-0.059-0.041-2.017-2.096-4.261-2.549-4.261-2.549 3.307-1.326 7.907-5.258 8.064-12.424-0.078-5.203-2.07-8.49-5.37-10.471-3.368-2.02-7.411-2.02-13.467-2.02h-25.59v47.139h11.445v-10.091zm0-26.946h13.47c2.019 0 4.04 0 5.387 0.672 0.857 0.431 1.712 1.139 2.046 2.293l0.004-0.001c0.017 0.055 0.015 0.102 0.027 0.156 0.046 0.196 0.084 0.397 0.101 0.614 0.377 2.374-0.324 4.111-0.935 5.078-0.15 0.273-0.331 0.511-0.526 0.721-0.091 0.105-0.157 0.177-0.157 0.177l-0.004-0.009a2.48 2.48 0 0 1 -0.556 0.4c-1.347 0.675-3.368 0.675-5.387 0.675h-13.47v-10.776z"/><path d="m480.99 292.84v-26.53c0-0.335-0.011-0.67-0.029-1.001v-1.022c0-8.929-7.24-16.168-16.168-16.168h-10.065v-62.617c0-8.929-7.238-16.168-16.168-16.168h-30.304c-0.687 0-1.362 0.043-2.025 0.125a16.198 16.198 0 0 0 -2.015 -0.125h-31.646c-0.687 0-1.362 0.043-2.025 0.125a16.437 16.437 0 0 0 -2.017 -0.125h-43.07c-4.501 0-8.733 0.395-12.741 1.195a16.115 16.115 0 0 0 -6.114 -1.195h-30.303c-1.686 0-3.313 0.259-4.844 0.737-2.529-0.49-5.181-0.737-7.949-0.737h-108.42c-2.631 0-5.162 0.639-7.408 1.797a16.141 16.141 0 0 0 -7.408 -1.797h-34.343c-0.57 0-1.133 0.029-1.688 0.087a16.133 16.133 0 0 0 -1.679 -0.087h-29.628a16.168 16.168 0 0 0 -14.877 9.837l-13.401 31.491-15.415 34.185c-0.056 0.122-0.11 0.247-0.162 0.371l-0.285 0.675a16.168 16.168 0 0 0 14.9 22.444h35.058c3.091 0 6.033-0.879 8.539-2.439a16.15 16.15 0 0 0 8.539 2.439h25.581v63.967c0 8.929 7.238 16.168 16.168 16.168h59.257c3.264 0 6.426-0.987 9.089-2.796a16.17 16.17 0 0 0 9.089 2.796h37.711c3.315 0 6.396-0.997 8.961-2.709a16.097 16.097 0 0 0 9.895 3.381h30.305c0.568 0 1.129-0.029 1.683-0.086a16.4 16.4 0 0 0 1.682 0.086h91.579c2.596 0 6.185-0.184 10.086-0.924a16.15 16.15 0 0 0 5.402 0.924h28.955c6.779 0 16.676-0.613 24.789-5.859 10.476-6.42 17.065-17.377 18.15-30.173 0.038-0.304 0.071-0.608 0.099-0.916a16.25 16.25 0 0 0 0.055 -1.996c0.005-0.251 0.01-0.515 0.01-0.792 0-5.652-1.2-11.465-3.366-16.568zm-346.13-48.753v8.08h-39.052l-4.04-10.774h-8.754l-4.041 10.099-0.244 0.675h-35.057l0.285-0.675 15.486-34.342 13.469-31.648h29.628l3.367 8.081v-8.081h34.343l7.406 16.835 7.411-16.835h108.41c5.389 0 9.427 1.348 12.794 4.041v-4.041h30.303v4.041c5.385-2.693 11.448-4.041 18.855-4.041h43.094l4.042 8.081v-8.081h31.646l4.04 8.081v-8.081h30.303v65.991h-31.646l-6.063-10.099v10.099h-39.04l-4.04-10.771h-9.425l-4.04 10.771h-20.202c-8.082 0-14.139-2.017-18.181-4.04v4.04h-48.484v-14.814c0-2.021 0-2.021-1.345-2.021h-1.347v17.51h-93.61v-8.08l-3.366 8.08h-19.526l-3.371-8.081zm333.24 67.361c-0.581 7.854-4.488 14.436-10.688 18.157-4.038 2.696-10.103 3.368-16.162 3.368h-28.957v-4.05c-3.368 2.694-9.425 4.043-15.488 4.043h-91.579v-15.49c0-2.02 0-2.02-2.021-2.02h-1.343v17.509h-30.305v-18.183c-4.711 2.023-10.775 2.023-15.486 2.023h-3.37v15.488h-37.71l-8.44-9.74-9.738 9.74h-59.257v-68.015h60.61l8.755 10.102 9.429-10.102h40.398c3.758 0 11.008 0.586 14.711 3.374h0.001c0.279 0.21 0.542 0.429 0.778 0.665v-4.039h36.364c3.364 0 10.775 0.675 14.815 4.039v-4.038h55.213v4.039c2.699-2.69 8.756-4.039 13.469-4.039h30.977v4.039s0.02-0.017 0.061-0.047l0.006-0.005c0.124-0.095 0.417-0.316 0.838-0.608l0.006-0.004c1.651-1.146 5.262-3.374 8.383-3.374h32.425v2.023h0.029v30.301c2.021 3.366 3.366 8.081 3.366 12.795 0 0.44-0.019 0.872-0.04 1.306l0.041 0.039c-0.021 0.233-0.054 0.465-0.083 0.697z"/><path d="m257.42 275.73h-35.688l-14.142 15.486-0.342 0.354-2.514-2.742-11.958-13.098h-43.77v47.136h43.096l14.813-15.49 0.628 0.724 0.045-0.05 12.882 14.816h22.133v-7.408h0.001v-10.099h13.469c10.097 0 19.526-2.696 19.526-16.163 0-1.762-0.206-3.313-0.558-4.709-2.936-7.047-10.692-8.757-17.621-8.757zm-70.703 37.71h-27.607v-10.103h24.915v-9.429h-24.915v-8.755h28.281l12.121 14.143-12.795 14.144zm44.445 5.382l-17.51-19.526 17.509-18.856v38.382zm26.259-21.548h-14.815v-12.121h14.139c4.042 0 6.737 2.023 7.411 6.063 0 4.039-2.695 6.058-6.735 6.058zm68.01-9.41c0-5.387-2.693-8.755-6.059-10.777-3.371-2.018-8.084-2.018-13.469-2.018h-25.587v47.811h11.446v-17.51h12.12c4.04 0 6.737 0 8.08 2.016 2.023 2.023 2.023 6.734 2.023 9.432v6.059h11.446v-9.425c0-0.457-0.013-0.891-0.029-1.315l-0.026-0.45a23.775 23.775 0 0 0 -0.053 -0.752c-0.017-0.181-0.033-0.359-0.053-0.534-0.022-0.189-0.046-0.37-0.071-0.551-0.027-0.196-0.054-0.395-0.086-0.582-0.015-0.091-0.036-0.175-0.053-0.263a13.504 13.504 0 0 0 -0.594 -2.191c-0.012-0.031-0.023-0.065-0.036-0.096a11.404 11.404 0 0 0 -0.28 -0.673c-0.221-0.48-0.462-0.933-0.738-1.35-0.674-1.347-2.695-2.698-6.063-4.04 3.369-1.348 8.082-5.389 8.082-12.794zm-12.122 3.365c0 2.017-0.674 4.039-2.021 4.714-1.343 0.674-3.366 0.674-5.385 0.674h-13.469v-10.776h13.469c2.019 0 4.042 0 5.385 0.674 1.348 0.674 2.696 2.023 2.021 4.714z"/></svg><svg viewBox="0 0 511.999 511.999" width="32" height="32" id="jcb" y="32"><path d="m503.92 153.88a8.083 8.083 0 0 0 8.084 -8.084v-31.459c0-20.619-16.774-37.394-37.393-37.394h-437.22c-20.615-0.004-37.39 16.77-37.39 37.394v283.32c0 20.62 16.775 37.395 37.393 37.395h437.21c20.619 0 37.393-16.775 37.392-37.395v-225.64c0-4.466-3.619-8.084-8.084-8.084s-8.084 3.618-8.084 8.084v225.64c0 11.705-9.522 21.227-21.225 21.227h-437.21c-11.703 0-21.225-9.522-21.225-21.227v-283.32c0-11.704 9.522-21.226 21.225-21.225h437.21c11.703 0 21.225 9.522 21.225 21.226v31.459a8.084 8.084 0 0 0 8.085 8.084z"/><path d="m87.754 365.56c0 9.213 7.495 16.707 16.707 16.707h53.432c12.155 0 24.739-4.786 35.133-13.231 1.605 7.55 8.318 13.231 16.338 13.231h52.938c12.663 0 25.798-5.18 36.43-14.294 1.176 8.07 8.122 14.294 16.512 14.294h52.943c13.487 0 27.508-5.875 38.47-16.119 11.886-11.108 18.433-25.59 18.433-40.782v-178.92c0.001-9.213-7.494-16.707-16.706-16.707h-50.982c-15.004 0-28.452 4.561-38.637 12.947-1.712-7.404-8.346-12.947-16.264-12.947h-51.46c-14.379 0-27.035 4.014-37.023 11.646-2.149-6.744-8.47-11.646-15.918-11.646h-51.961c-16.527 0-31.444 5.814-42.001 16.371-10.557 10.558-16.371 25.474-16.371 42.001v75.493c0 1.125 0.114 2.257 0.342 3.362l0.016 0.078a33.925 33.925 0 0 0 2.066 6.493 16.661 16.661 0 0 0 -2.424 8.692v83.331zm226.95-18.879v-61.017c0-0.298 0.241-0.539 0.539-0.539h61.766c9.753 0 17.107-6.513 17.107-15.149 0-0.51-0.03-1.011-0.083-1.507-0.018-0.17-0.054-0.335-0.078-0.503-0.046-0.321-0.092-0.642-0.16-0.955-0.043-0.203-0.102-0.398-0.155-0.596-0.07-0.271-0.141-0.541-0.229-0.805-0.07-0.215-0.154-0.424-0.235-0.634a13.082 13.082 0 0 0 -0.286 -0.703 12.664 12.664 0 0 0 -0.318 -0.652c-0.106-0.206-0.212-0.412-0.329-0.612a13.06 13.06 0 0 0 -0.409 -0.666 14 14 0 0 0 -0.862 -1.196c-0.113-0.142-0.232-0.28-0.349-0.417-0.204-0.237-0.411-0.47-0.63-0.695-0.1-0.102-0.205-0.201-0.308-0.301-0.253-0.245-0.51-0.487-0.78-0.717-0.064-0.054-0.129-0.102-0.193-0.155-2.504-2.058-5.724-3.449-9.337-3.876a19.814 19.814 0 0 0 -2.369 -0.156 0.539 0.539 0 1 1 0 -1.078c1.044 0 2.067-0.11 3.06-0.317 0.232-0.049 0.456-0.117 0.684-0.176 0.252-0.066 0.508-0.122 0.755-0.201 0.234-0.072 0.46-0.164 0.689-0.248 0.234-0.085 0.47-0.165 0.698-0.261 0.225-0.095 0.443-0.206 0.663-0.31 0.223-0.106 0.447-0.208 0.664-0.326 0.213-0.114 0.42-0.241 0.628-0.365 0.212-0.126 0.426-0.251 0.632-0.388 0.202-0.133 0.396-0.275 0.591-0.417 0.199-0.147 0.4-0.292 0.594-0.447 0.186-0.15 0.368-0.306 0.548-0.464a14.76 14.76 0 0 0 1.054 -1.01 16.856 16.856 0 0 0 0.96 -1.099c0.158-0.201 0.313-0.407 0.464-0.615 0.135-0.188 0.267-0.375 0.393-0.568 0.143-0.218 0.278-0.442 0.411-0.667 0.115-0.196 0.231-0.391 0.337-0.592 0.126-0.237 0.241-0.479 0.355-0.722 0.094-0.202 0.191-0.4 0.276-0.606 0.107-0.255 0.199-0.518 0.292-0.781 0.072-0.203 0.15-0.402 0.212-0.607 0.086-0.281 0.156-0.568 0.225-0.856 0.049-0.195 0.106-0.388 0.146-0.586 0.066-0.324 0.111-0.654 0.156-0.984 0.023-0.168 0.057-0.333 0.073-0.502 0.052-0.503 0.08-1.011 0.08-1.524 0-8.477-7.16-15.639-15.638-15.639h-61.77a0.539 0.539 0 0 1 -0.539 -0.539v-35.658c0-8.293 2.48-15.011 5.054-19.756l0.005-0.011c2.037-3.753 4.127-6.267 5.098-7.342l0.008-0.008a23.684 23.684 0 0 1 0.238 -0.26l0.164-0.174 0.01-0.01c0.043-0.044 0.075-0.078 0.1-0.102l0.01-0.009 0.035-0.036v0.001c7.377-8.078 18.404-12.667 31.975-12.667h50.982a0.54 0.54 0 0 1 0.539 0.539v178.93h-0.002c0 22.94-21.896 40.733-40.735 40.733h-52.943a0.54 0.54 0 0 1 -0.539 -0.539v-18.882zm16.717-90.97h23.038c6.184 0 11.816 5.631 11.816 11.813 0 0.297-0.022 0.593-0.05 0.886a9.914 9.914 0 0 1 -0.063 0.543v0.003c-0.783 5.592-6.002 10.382-11.704 10.382h-23.038a0.54 0.54 0 0 1 -0.539 -0.539v-22.55a0.539 0.539 0 0 1 0.54 -0.537zm-0.539-4.853v-22.06a0.54 0.54 0 0 1 0.539 -0.539h22.551c5.885 0 11.258 5.104 11.762 10.929 0.028 0.293 0.05 0.589 0.05 0.885 0 0.329-0.019 0.652-0.052 0.973a10.39 10.39 0 0 1 -0.125 0.906v0.001c-0.927 5.278-5.649 9.443-11.148 9.443h-23.038a0.537 0.537 0 0 1 -0.539 -0.538zm-122.05 98.93v-72.468a0.54 0.54 0 0 1 0.919 -0.382 26.381 26.381 0 0 0 5.053 3.928 28.668 28.668 0 0 0 3.514 1.796l0.105 0.043c1.194 0.507 2.434 0.937 3.704 1.288 0.074 0.019 0.15 0.038 0.225 0.059 0.552 0.148 1.109 0.28 1.674 0.397 0.094 0.021 0.186 0.042 0.281 0.06 0.621 0.124 1.249 0.231 1.882 0.317 0.087 0.012 0.177 0.02 0.265 0.031a30.715 30.715 0 0 0 2.104 0.195c0.627 0.038 1.257 0.064 1.891 0.064h55.345v-9.087c-12.04 2.618-24.601 3.792-31.816 3.792-14.083 0-25.54-11.457-25.54-25.54l0.004-0.334-0.004-0.156c0-14.083 11.457-25.54 25.54-25.54 5.948 0 18.378 1.341 31.816 4.282v-10.068h-55.344c-0.691 0-1.367 0.035-2.036 0.085-0.194 0.014-0.383 0.033-0.575 0.052-0.508 0.05-1.009 0.112-1.504 0.187-0.166 0.025-0.335 0.047-0.5 0.074-0.638 0.11-1.268 0.235-1.882 0.383-0.081 0.019-0.16 0.043-0.24 0.064a30.517 30.517 0 0 0 -3.541 1.121c-0.089 0.033-0.18 0.066-0.268 0.1-0.579 0.229-1.146 0.471-1.697 0.725-0.07 0.032-0.139 0.068-0.21 0.1-0.482 0.226-0.954 0.462-1.413 0.703l-0.295 0.157c-0.509 0.274-1.007 0.553-1.485 0.84a40.405 40.405 0 0 0 -5.086 3.62 0.537 0.537 0 0 1 -0.883 -0.414v-42.646c0-9.021 2.109-16.898 5.969-23.313l0.003-0.004a35.811 35.811 0 0 1 6.228 -7.712c0.036-0.032 0.07-0.067 0.107-0.1a36.411 36.411 0 0 1 5.85 -4.412c0.096-0.058 0.192-0.113 0.288-0.17 0.613-0.367 1.24-0.716 1.881-1.05 0.1-0.052 0.197-0.106 0.296-0.156a40.303 40.303 0 0 1 4.56 -1.979c0.153-0.056 0.307-0.107 0.461-0.16a43.537 43.537 0 0 1 2.543 -0.804c0.669-0.19 1.349-0.364 2.039-0.526 0.148-0.033 0.292-0.072 0.44-0.107 0.839-0.188 1.69-0.354 2.557-0.498 0.167-0.028 0.338-0.05 0.507-0.076a52.084 52.084 0 0 1 2.101 -0.286 58.38 58.38 0 0 1 2.786 -0.241c0.273-0.017 0.544-0.037 0.819-0.051a58.782 58.782 0 0 1 2.771 -0.071h51.471a0.54 0.54 0 0 1 0.539 0.539v17.635h-0.003v161.29c0 7.354-2.258 14.173-5.937 20.053l-0.117 0.183a41.091 41.091 0 0 1 -1.503 2.218l-0.098 0.138a43.297 43.297 0 0 1 -1.752 2.245l-0.048 0.057a44.92 44.92 0 0 1 -1.787 2.006l-0.207 0.222a46.344 46.344 0 0 1 -4.324 3.982 46.356 46.356 0 0 1 -4.33 3.122c-0.133 0.085-0.266 0.167-0.4 0.25-0.691 0.429-1.387 0.843-2.094 1.233-0.057 0.031-0.112 0.066-0.168 0.096-0.759 0.414-1.525 0.8-2.298 1.165l-0.451 0.206c-0.656 0.301-1.317 0.584-1.98 0.849-0.141 0.056-0.281 0.115-0.422 0.169-0.769 0.298-1.54 0.57-2.315 0.817-0.147 0.047-0.294 0.087-0.44 0.133-0.65 0.199-1.3 0.379-1.952 0.541-0.186 0.046-0.373 0.095-0.558 0.138-0.772 0.18-1.544 0.337-2.313 0.466-0.108 0.018-0.213 0.028-0.32 0.045-0.675 0.104-1.347 0.185-2.019 0.248-0.203 0.018-0.406 0.037-0.608 0.053a31.07 31.07 0 0 1 -2.294 0.096h-52.94a0.54 0.54 0 0 1 -0.539 -0.539v-15.75zm-104.9-67.565a0.539 0.539 0 0 1 0.538 -0.539h0.002a0.538 0.538 0 0 1 0.244 0.059 0.534 0.534 0 0 1 0.245 -0.059c0.009 0 0.015 0.008 0.023 0.008a0.526 0.526 0 0 1 0.3 0.1c7.736 5.803 18.433 9.157 29.349 9.202 18.456-0.087 45.77-10.102 45.77-31.32v-37.208h-31.764v37.699c0 11.484-9.294 20.145-21.618 20.145-11.164 0-21.086-7.137-23.077-16.602a0.51 0.51 0 0 1 -0.012 -0.111v-75.493c0-25.243 16.961-42.204 42.204-42.204h51.961c0.298 0 0.539 0.241 0.539 0.539v13.753h0.001v165.17c0 7.376-2.272 14.213-5.969 20.105l-0.002 0.002c-0.48 0.764-0.983 1.51-1.508 2.241l-0.043 0.061a44.591 44.591 0 0 1 -3.429 4.183l-0.074 0.08a45.684 45.684 0 0 1 -1.839 1.869l-0.047 0.046a46.837 46.837 0 0 1 -4.015 3.426l-0.233 0.175a46.54 46.54 0 0 1 -1.979 1.411l-0.117 0.081c-0.728 0.485-1.464 0.951-2.212 1.391l-0.071 0.04c-0.677 0.398-1.364 0.773-2.054 1.132l-0.429 0.22c-0.658 0.333-1.32 0.649-1.988 0.944-0.071 0.032-0.143 0.068-0.214 0.099a43.3 43.3 0 0 1 -2.236 0.9c-0.136 0.051-0.272 0.095-0.409 0.144a41.055 41.055 0 0 1 -2.397 0.777c-0.665 0.193-1.33 0.368-1.997 0.521-0.074 0.018-0.15 0.039-0.225 0.056-0.733 0.164-1.466 0.3-2.199 0.416-0.195 0.031-0.388 0.055-0.582 0.082a32.93 32.93 0 0 1 -1.669 0.193c-0.209 0.019-0.418 0.04-0.627 0.055-0.725 0.051-1.449 0.085-2.167 0.085h-53.433a0.54 0.54 0 0 1 -0.539 -0.539v-83.333z"/></svg><svg viewBox="0 0 511.999 511.999" width="32" height="32" id="paypal" y="64"><path d="m503.92 153.88a8.084 8.084 0 0 0 8.084 -8.084v-31.459c0-20.619-16.774-37.394-37.393-37.394h-437.22c-20.615-0.004-37.39 16.77-37.39 37.394v283.32c0 20.62 16.775 37.395 37.393 37.395h437.21c20.619 0 37.393-16.775 37.392-37.395v-225.64a8.084 8.084 0 0 0 -8.084 -8.084 8.082 8.082 0 0 0 -8.084 8.084v225.64c0 11.705-9.522 21.227-21.225 21.227h-437.21c-11.704 0-21.225-9.522-21.225-21.227v-283.32c0-11.704 9.521-21.226 21.225-21.225h437.21c11.703 0 21.225 9.522 21.225 21.226v31.459a8.084 8.084 0 0 0 8.085 8.084z"/><path d="m194.03 376.38c0 8.411 5.877 14.285 14.29 14.285h38.69c9.418 0 16.644-5.974 18.859-15.589 0.04-0.172 0.073-0.347 0.102-0.522l7.759-48.115c0.03-0.189 0.055-0.378 0.071-0.568 0.115-1.307 0.728-3.499 3.516-3.499h3.96c22.575 0 41.128-5.076 55.144-15.085 16.179-11.556 26.42-29.64 30.439-53.756 2.543-15.282 1.976-28.421-1.687-39.051a5.914 5.914 0 0 0 -0.043 -0.122c-2.932-8.091-7.909-15.172-14.5-20.723 0.835-20.04-3.447-33.256-14.676-46.094-12.415-14.192-34.306-21.388-65.065-21.388h-77.613c-8.818 0-16.13 7.641-18.532 14.832a8.026 8.026 0 0 0 -0.324 1.342l-31.044 203.34a8.165 8.165 0 0 0 -0.093 1.22c0 8.737 6.409 15.845 14.289 15.845h38.589l-2.023 12.342a8.105 8.105 0 0 0 -0.108 1.31zm142.08-135.78c0.397-0.633 0.779-1.283 1.163-1.93 0.287-0.484 0.581-0.961 0.86-1.454 0.412-0.725 0.806-1.471 1.202-2.215 0.233-0.437 0.474-0.863 0.702-1.307 0.59-1.149 1.16-2.32 1.712-3.51 0.112-0.243 0.218-0.493 0.329-0.736 0.475-1.048 0.943-2.105 1.39-3.185 0.197-0.475 0.379-0.967 0.571-1.448 0.329-0.827 0.66-1.651 0.972-2.496 0.203-0.549 0.393-1.112 0.59-1.669 0.282-0.8 0.566-1.599 0.833-2.414 0.194-0.591 0.377-1.195 0.564-1.795 0.181-0.581 0.373-1.151 0.547-1.74a32.959 32.959 0 0 1 2.366 5.108c2.719 7.944 3.068 18.686 1.008 31.073-6.204 37.228-28.981 55.326-69.634 55.326h-3.96c-13.006 0-18.794 10.58-19.589 17.901l-7.67 47.566c-0.713 2.825-1.952 2.825-3.049 2.825h-36.39l2.97-18.118c0.031-0.142 0.058-0.286 0.082-0.429l11.516-70.341c0.018-0.033 0.033-0.07 0.051-0.104 0.027-0.05 0.05-0.102 0.075-0.153 0.023-0.044 0.044-0.089 0.067-0.135 0.04-0.083 0.085-0.163 0.122-0.247 0.102-0.232 0.196-0.47 0.277-0.714 0.645-1.933 2.487-3.583 3.283-3.787h23.201c1.636 0 3.251-0.026 4.848-0.072 0.534-0.015 1.055-0.046 1.584-0.068 1.056-0.042 2.113-0.083 3.152-0.146 0.62-0.037 1.227-0.089 1.84-0.134 0.93-0.068 1.86-0.134 2.777-0.219 0.648-0.059 1.285-0.133 1.925-0.201 0.863-0.092 1.727-0.184 2.577-0.291 0.653-0.082 1.298-0.176 1.945-0.267 0.818-0.115 1.635-0.234 2.441-0.364 0.65-0.105 1.291-0.219 1.934-0.333 0.785-0.14 1.565-0.285 2.338-0.439a112.28 112.28 0 0 0 4.159 -0.913c0.622-0.149 1.242-0.302 1.856-0.46 0.736-0.19 1.465-0.39 2.19-0.594 0.604-0.17 1.206-0.341 1.801-0.52 0.718-0.217 1.426-0.445 2.132-0.675 0.582-0.19 1.166-0.378 1.741-0.578a90.736 90.736 0 0 0 2.091 -0.764c0.554-0.207 1.111-0.41 1.657-0.626 0.705-0.279 1.395-0.576 2.086-0.87 0.515-0.22 1.037-0.431 1.545-0.66 0.733-0.329 1.448-0.677 2.166-1.024 0.447-0.216 0.903-0.422 1.345-0.645a83.788 83.788 0 0 0 4.006 -2.172 83.549 83.549 0 0 0 2.611 -1.555c0.429-0.269 0.844-0.555 1.266-0.832 0.632-0.413 1.267-0.822 1.884-1.253 0.455-0.316 0.896-0.649 1.343-0.974 0.567-0.413 1.135-0.822 1.69-1.249 0.454-0.349 0.897-0.714 1.343-1.073 0.528-0.426 1.055-0.85 1.572-1.289 0.444-0.377 0.878-0.766 1.314-1.154 0.499-0.444 0.996-0.889 1.483-1.346 0.43-0.403 0.852-0.815 1.273-1.229 0.473-0.465 0.943-0.933 1.406-1.411 0.413-0.427 0.82-0.859 1.224-1.297a78.917 78.917 0 0 0 2.507 -2.841c0.432-0.514 0.857-1.038 1.277-1.566 0.373-0.467 0.744-0.935 1.108-1.411 0.416-0.545 0.821-1.102 1.226-1.66 0.348-0.481 0.698-0.96 1.038-1.451 0.403-0.582 0.793-1.178 1.185-1.774 0.319-0.488 0.644-0.973 0.958-1.472zm-107.62 23.714l9.95-64.654c0.628-2.798 2.01-2.966 3.08-3.011h47.33c0.181 0 0.36-0.006 0.539-0.018h21.537c0.115 0.009 0.233 0.014 0.349 0.017 3.393 0.084 12.169 0.654 20.545 4.095 0.623 0.276 1.397 0.646 2.268 1.112 0.017 0.031 0.03 0.066 0.048 0.097-0.108 0.486-0.227 0.958-0.34 1.439-0.089 0.385-0.18 0.768-0.273 1.15-0.094 0.385-0.179 0.779-0.276 1.16-0.136 0.533-0.285 1.048-0.427 1.572-0.085 0.316-0.17 0.632-0.259 0.945-0.114 0.41-0.22 0.829-0.337 1.233-0.157 0.539-0.329 1.061-0.493 1.592l-0.197 0.635c-0.147 0.465-0.285 0.94-0.435 1.398-0.18 0.545-0.375 1.071-0.563 1.608-0.044 0.126-0.088 0.252-0.134 0.378-0.178 0.503-0.348 1.016-0.534 1.512-0.205 0.55-0.425 1.08-0.638 1.62l-0.077 0.193c-0.206 0.52-0.404 1.048-0.618 1.559-0.231 0.551-0.476 1.083-0.716 1.624-0.24 0.542-0.473 1.093-0.721 1.625-0.249 0.532-0.514 1.047-0.772 1.569-0.255 0.518-0.504 1.046-0.769 1.553-0.271 0.52-0.557 1.021-0.838 1.53-0.269 0.489-0.53 0.988-0.808 1.468-0.292 0.504-0.599 0.988-0.901 1.482-0.284 0.465-0.558 0.938-0.85 1.392-0.315 0.49-0.647 0.961-0.971 1.441-0.295 0.435-0.582 0.881-0.885 1.306-0.34 0.479-0.697 0.937-1.047 1.403-0.305 0.406-0.602 0.822-0.914 1.22-0.362 0.46-0.742 0.901-1.113 1.349-0.318 0.384-0.628 0.776-0.954 1.151-0.385 0.442-0.786 0.865-1.181 1.294-0.331 0.36-0.654 0.731-0.993 1.082-0.41 0.426-0.838 0.832-1.258 1.245-0.341 0.335-0.674 0.68-1.022 1.007-0.433 0.406-0.884 0.792-1.327 1.186-0.354 0.314-0.7 0.638-1.061 0.943-0.456 0.386-0.929 0.752-1.397 1.125-0.366 0.292-0.723 0.595-1.096 0.88-0.483 0.369-0.983 0.716-1.477 1.07-0.375 0.269-0.742 0.55-1.124 0.812-0.508 0.348-1.034 0.676-1.553 1.01-0.386 0.249-0.763 0.508-1.156 0.749-0.539 0.331-1.096 0.641-1.647 0.958-0.39 0.224-0.772 0.46-1.168 0.678-0.57 0.313-1.159 0.605-1.742 0.903-0.396 0.203-0.781 0.415-1.182 0.611-0.589 0.287-1.196 0.553-1.798 0.826-0.414 0.188-0.817 0.386-1.236 0.567-0.609 0.262-1.236 0.503-1.857 0.751-0.429 0.171-0.849 0.354-1.284 0.518-0.63 0.238-1.277 0.455-1.919 0.679-0.445 0.155-0.881 0.321-1.332 0.47-0.642 0.211-1.305 0.402-1.961 0.599-0.468 0.141-0.926 0.293-1.4 0.427-0.661 0.187-1.34 0.352-2.012 0.525-0.487 0.125-0.964 0.261-1.457 0.379-0.697 0.167-1.414 0.313-2.125 0.466-0.486 0.105-0.961 0.22-1.454 0.318-0.723 0.143-1.466 0.266-2.202 0.396-0.497 0.087-0.985 0.185-1.489 0.266-0.744 0.12-1.507 0.218-2.265 0.323-0.513 0.071-1.015 0.154-1.535 0.219-0.773 0.096-1.565 0.171-2.352 0.253-0.521 0.054-1.031 0.12-1.559 0.167-0.785 0.071-1.589 0.121-2.386 0.178-0.547 0.039-1.082 0.089-1.635 0.122-0.873 0.052-1.767 0.081-2.656 0.115-0.494 0.019-0.977 0.05-1.475 0.065-1.396 0.04-2.81 0.06-4.243 0.06h-23.285l-0.485 0.013zm-68.891 82.254l30.679-200.95c0.763-1.707 2.361-3.099 3.089-3.288h77.525c25.526 0 43.816 5.486 52.896 15.864 6.761 7.731 10.003 15.356 10.656 26.275-8.893-3.046-17.37-3.808-22.212-3.967a8.041 8.041 0 0 0 -0.778 -0.038h-22.636c-0.181 0-0.36 0.006-0.539 0.018h-46.914a9.49 9.49 0 0 0 -0.293 0.005c-9.441 0.343-16.533 6.505-18.505 16.081a7.869 7.869 0 0 0 -0.072 0.402l-12.365 80.35-11.307 69.248h-39.224z"/></svg><svg viewBox="0 0 511.998 511.998" width="32" height="32" id="transfer" y="96"><path d="m503.91 153.88a8.082 8.082 0 0 0 8.084 -8.084v-31.459c0-20.619-16.774-37.394-37.393-37.394h-437.21c-20.616-0.004-37.39 16.77-37.39 37.394v283.33c0 20.62 16.774 37.395 37.393 37.395h437.21c20.619 0 37.393-16.775 37.391-37.395v-225.64a8.082 8.082 0 0 0 -8.084 -8.084 8.082 8.082 0 0 0 -8.084 8.084v225.64c0 11.705-9.522 21.227-21.225 21.227h-437.21c-11.703 0-21.225-9.522-21.225-21.227v-283.32c0-11.704 9.522-21.226 21.225-21.226h437.21c11.703 0 21.225 9.522 21.225 21.226v31.459a8.082 8.082 0 0 0 8.084 8.083z"/><path d="m186.58 226.04h-16.436v18.088h16.436v0.002c6.507 0 11.029-2.315 11.029-8.824 0-6.949-4.853-9.266-11.029-9.266zm-0.55-28.35h-15.886v15.11h15.886c3.529 0 8.381-1.876 8.381-7.5 0-5.735-4.082-7.61-8.381-7.61zm75.11 5.96h-0.22l-8.934 27.576h17.868zm-131.5 84.65h-11.24v12.229h11.846c4.254 0 6.533-2.278 6.533-6.378 0-4.025-3.19-5.851-7.139-5.851zm51.42 3.72h-0.151l-6.152 18.99h12.305zm262.29-3.72h-11.24v12.229h11.85c4.252 0 6.529-2.278 6.529-6.378 0.001-4.025-3.188-5.851-7.139-5.851z"/><path d="m480.6 323.68c-0.139-0.995-0.269-2.554-0.387-4.656-0.025-0.448-0.046-0.833-0.068-1.135a8.56 8.56 0 0 0 -0.025 -0.319c-0.387-4.411-1.277-8.12-2.493-11.241 2.043-4.231 3.163-9.025 3.163-14.082 0-7.425-2.33-13.947-6.45-19.1a16.168 16.168 0 0 0 3.187 -21.733l-25.399-37.028 20.084-21.379a16.11 16.11 0 0 0 4.512 -11.203c0-8.929-7.236-16.168-16.166-16.168h-25.49c-4.718 0-9.2 2.061-12.272 5.642l-0.711 0.829a16.14 16.14 0 0 0 -12.937 -6.471h-20.516c-2.511 0-4.88 0.59-7 1.611a16.067 16.067 0 0 0 -7 -1.611h-19.305c-5.831 0-10.943 3.088-13.787 7.72a16.17 16.17 0 0 0 -13.785 -7.72h-21.07c-8.928 0-16.168 7.239-16.168 16.168v4.676l-3.865-10.339a16.171 16.171 0 0 0 -15.146 -10.505h-20.844a16.174 16.174 0 0 0 -15.146 10.505l-5.732 15.331c-2.309-8.461-7.619-15.333-15.537-19.839-7.002-3.985-15.956-6.006-26.614-6.006h-0.002c-0.427 0-0.855 0.003-1.281 0.01h-36.717c-2.224 0-4.341 0.449-6.269 1.261a16.143 16.143 0 0 0 -6.293 -1.27h-85.502c-8.93 0-16.168 7.239-16.168 16.168v17.123c0 2.451 0.56 4.766 1.537 6.849a16.099 16.099 0 0 0 -1.537 6.849v17.123c0 2.451 0.56 4.766 1.537 6.849a16.102 16.102 0 0 0 -1.537 6.849v17.122c0 3.001 0.831 5.802 2.257 8.21a16.065 16.065 0 0 0 -2.257 8.21v12.153c0 8.929 7.238 16.168 16.168 16.168h0.011v25.912c0 8.929 7.24 16.168 16.168 16.168h14.126c4.354 0 8.298-1.73 11.205-4.528a16.1 16.1 0 0 0 11.205 4.528h14.13c3.821 0 7.333-1.326 10.101-3.543a16.159 16.159 0 0 0 10.101 3.543h13.979c0.204 0 0.407-0.015 0.611-0.024 0.125 0.003 0.247 0.024 0.374 0.024h14.51c5.124 0 9.831-2.416 12.836-6.335a16.164 16.164 0 0 0 12.833 6.335h14.737c0.678 0 1.347-0.044 2.01-0.127a16.14 16.14 0 0 0 1.941 0.127h13.293a16.1 16.1 0 0 0 9.496 -3.081 16.164 16.164 0 0 0 9.495 3.081h14.507c3.609 0 6.931-1.196 9.621-3.196 5.807 2.8 12.716 4.335 20.457 4.335 7.793 0 14.868-1.458 20.787-4.204a16.07 16.07 0 0 0 9.444 3.064h14.13c8.745 0 15.853-6.95 16.141-15.626 0.289 8.676 7.393 15.626 16.141 15.626h43.979c1.394 0 2.737-0.195 4.026-0.526 1.289 0.332 2.632 0.526 4.026 0.526h14.128c3.823 0 7.335-1.326 10.103-3.544a16.16 16.16 0 0 0 10.101 3.544h13.977c6.48 0 12.334-3.871 14.876-9.834a16.154 16.154 0 0 0 -0.568 -13.866zm-429.04-127.23v-14.652h85.514v17.123h-85.512v-2.471zm0 30.82v-14.652h85.514v17.123h-85.512v-2.471zm0 18.638v-2.472h85.514v17.122h-85.512v-14.65zm46.486 43.226h-16.181v42.08h-14.126v-42.08h-16.179v-12.153h46.486v12.153zm40.56 42.082v-0.001c-0.415-0.621-0.711-1.651-0.932-2.796 0-0.003 0-0.008-0.002-0.011-0.375-1.957-0.524-4.245-0.623-5.44l-0.036-0.413c-0.382-5.469-1.29-11.089-7.899-11.089h-10.71v19.748h-14.131v-54.234h27.649c0.598 0 1.193 0.017 1.787 0.052 0.402 0.024 0.8 0.066 1.198 0.106 0.19 0.018 0.383 0.027 0.572 0.05 0.485 0.058 0.965 0.136 1.442 0.219 0.098 0.017 0.198 0.027 0.294 0.044 7.472 1.382 13.695 5.907 13.695 14.797 0 4.025-1.33 7.905-4.015 10.653l-0.001 0.001-0.023 0.022c-0.272 0.276-0.559 0.537-0.857 0.788-0.097 0.081-0.198 0.157-0.297 0.236a12.078 12.078 0 0 1 -1.792 1.185c-0.115 0.064-0.23 0.129-0.348 0.19-0.378 0.19-0.765 0.369-1.172 0.526v0.15c0.324 0.077 0.631 0.175 0.929 0.282 0.096 0.036 0.189 0.074 0.283 0.112 0.203 0.082 0.4 0.17 0.592 0.266 0.095 0.047 0.19 0.094 0.282 0.144 0.219 0.121 0.429 0.251 0.634 0.389 0.043 0.029 0.089 0.055 0.131 0.084l0.001 0.001c3.507 2.486 4.676 7.52 5.047 11.709 0.152 2.278 0.382 10.253 2.28 12.23h-13.978zm57.663-0.001h-2.52l-3.339-9.724h-18.914l-2.848 8.107-0.568 1.617h-14.51l20.279-54.234h14.355l20.281 54.234h-12.216zm9.11-73.804l-0.006 0.002a30.623 30.623 0 0 1 -3.949 1.426l-0.069 0.021a39.635 39.635 0 0 1 -4.232 0.951l-0.154 0.026c-0.711 0.117-1.432 0.222-2.167 0.309-0.068 0.009-0.137 0.015-0.204 0.023-0.687 0.079-1.381 0.147-2.085 0.2l-0.205 0.017a60.95 60.95 0 0 1 -2.168 0.119c-0.152 0.005-0.303 0.011-0.455 0.015-0.734 0.023-1.471 0.039-2.218 0.039h-37.832v-78.752h36.841c0.383-0.006 0.771-0.01 1.156-0.01l0.061 0.001c0.172 0 0.346 0.002 0.52 0.004 0.247 0.002 0.495 0.003 0.743 0.009 0.18 0.003 0.36 0.011 0.54 0.015 0.241 0.008 0.482 0.013 0.723 0.023 0.185 0.006 0.371 0.017 0.556 0.026 0.236 0.012 0.472 0.023 0.707 0.037l0.556 0.039c0.236 0.017 0.472 0.032 0.705 0.053 0.188 0.016 0.372 0.034 0.558 0.053 0.232 0.023 0.464 0.043 0.695 0.068a96.08 96.08 0 0 1 1.245 0.152c0.187 0.025 0.373 0.055 0.558 0.082 0.225 0.032 0.45 0.067 0.673 0.103 0.186 0.03 0.372 0.064 0.557 0.097a36.383 36.383 0 0 1 3.037 0.668c0.179 0.047 0.356 0.098 0.532 0.149 0.208 0.059 0.415 0.12 0.621 0.183 0.175 0.054 0.347 0.11 0.52 0.166 0.204 0.066 0.407 0.135 0.608 0.205 0.17 0.06 0.338 0.123 0.508 0.187 0.198 0.073 0.393 0.15 0.59 0.227l0.495 0.206c0.192 0.082 0.383 0.166 0.57 0.252 0.162 0.073 0.322 0.15 0.48 0.226a20.313 20.313 0 0 1 1.543 0.828c0.15 0.088 0.299 0.178 0.445 0.269a22.042 22.042 0 0 1 0.933 0.622c0.164 0.116 0.324 0.237 0.483 0.358 0.136 0.105 0.273 0.208 0.405 0.316 0.155 0.125 0.305 0.255 0.456 0.386 0.129 0.112 0.258 0.224 0.383 0.34 0.147 0.136 0.288 0.276 0.429 0.416 0.121 0.12 0.241 0.24 0.359 0.364 0.137 0.146 0.269 0.296 0.4 0.447 0.113 0.128 0.227 0.257 0.335 0.389 0.128 0.156 0.248 0.318 0.371 0.479 0.103 0.137 0.208 0.273 0.307 0.415 0.117 0.166 0.23 0.34 0.341 0.514 0.093 0.146 0.19 0.289 0.279 0.439 0.107 0.178 0.205 0.364 0.306 0.549 0.084 0.154 0.17 0.306 0.25 0.466 0.097 0.192 0.184 0.39 0.274 0.589 0.073 0.162 0.15 0.321 0.219 0.486 0.084 0.205 0.16 0.419 0.238 0.631 0.063 0.169 0.128 0.336 0.185 0.51 0.073 0.219 0.135 0.447 0.201 0.673 0.053 0.178 0.108 0.351 0.154 0.534 0.061 0.237 0.111 0.484 0.163 0.729 0.039 0.181 0.083 0.358 0.116 0.543 0.049 0.261 0.084 0.534 0.124 0.804 0.025 0.179 0.058 0.354 0.08 0.537 0.036 0.307 0.059 0.628 0.084 0.947 0.013 0.155 0.031 0.304 0.04 0.462 0.027 0.482 0.042 0.976 0.042 1.483 0 7.059-4.192 12.794-10.368 15.882 0.619 0.179 1.216 0.393 1.8 0.625 0.17 0.067 0.334 0.141 0.501 0.212 0.428 0.184 0.847 0.382 1.255 0.592 0.154 0.08 0.307 0.157 0.457 0.241 0.51 0.282 1.006 0.581 1.48 0.905 0.019 0.013 0.038 0.023 0.057 0.037 0.529 0.364 1.033 0.757 1.516 1.171 0.04 0.034 0.077 0.071 0.116 0.108 0.437 0.382 0.852 0.785 1.247 1.204 0.048 0.051 0.097 0.102 0.143 0.154a18.263 18.263 0 0 1 3.181 4.805c1.173 2.575 1.815 5.477 1.815 8.588-0.003 11.331-5.045 17.904-12.756 21.334zm53.848 73.804h-14.5l-18.841-33.801h-0.152v33.801h-13.293v-54.235h14.507l18.837 33.421h0.154v-33.421h13.28v54.235zm-11.986-84.773l-4.964 14.117h-21.06l29.451-78.753h20.844l19.011 50.836 10.44 27.917h-21.399l-4.853-14.117h-27.465zm51.237 84.899l-0.053 0.013a31.53 31.53 0 0 1 -1.714 0.363l-0.066 0.012a37.581 37.581 0 0 1 -3.464 0.458l-0.243 0.022a42.836 42.836 0 0 1 -1.93 0.113c-0.566 0.021-1.133 0.033-1.701 0.033-0.572 0-1.139-0.016-1.703-0.039l-0.329-0.014a41.219 41.219 0 0 1 -1.632 -0.114l-0.276-0.028a35.22 35.22 0 0 1 -1.582 -0.193l-0.098-0.013a32.26 32.26 0 0 1 -1.617 -0.287l-0.265-0.054a29.865 29.865 0 0 1 -1.568 -0.372l-0.13-0.038a26.343 26.343 0 0 1 -1.499 -0.456c-0.039-0.013-0.078-0.024-0.115-0.037-0.501-0.171-0.99-0.359-1.469-0.558l-0.203-0.086c-0.484-0.206-0.96-0.425-1.421-0.661l-0.002-0.001c-5.727-2.937-9.591-8.206-9.637-16.42h14.127c0.305 6.38 4.254 8.429 10.255 8.429 4.252 0 8.659-1.518 8.659-5.544 0-4.786-7.748-5.697-15.57-7.901a67.657 67.657 0 0 1 -1.84 -0.554l-0.349-0.111c-1.953-0.628-3.874-1.373-5.637-2.312l-0.006-0.003c-4.566-2.43-8.042-6.166-8.042-12.666 0-6.905 4.053-11.356 9.449-13.871 0.055-0.025 0.108-0.052 0.162-0.077 0.464-0.211 0.937-0.407 1.419-0.591 0.068-0.026 0.135-0.053 0.203-0.078 0.486-0.181 0.98-0.348 1.48-0.501 0.053-0.017 0.106-0.031 0.157-0.047 2.991-0.898 6.191-1.317 9.235-1.317 2.522 0 5.047 0.29 7.438 0.886h0.001c7.834 1.952 14.224 7.213 14.285 16.583h-14.128c0.227-4.937-4.406-6.532-8.736-6.532-3.037 0-6.836 1.063-6.836 4.634 0 4.177 7.823 4.936 15.722 7.14 0.521 0.147 1.042 0.301 1.56 0.461l0.088 0.028c7.247 2.258 14.076 6.046 14.076 15.155-0.003 10.13-6.349 15.184-14.455 17.146zm61.018-43.043h-25.826v11.091h22.33v10.935h-22.33v20.891h-14.13v-54.234h39.956v11.317zm-5.931-27.737v-0.001l-27.354-49.082h-0.219v49.082h-19.31v-78.753h21.07l27.354 48.532h0.219v-48.532h19.305v78.754h-21.069zm56.366 70.654h-43.98v-54.24h43.22v11.32h-29.09v9.495h26.58v10.937h-26.58v10.332h29.85v12.152zm7.601-103.74l-8.383 8.824v24.264h-20.52v-78.753h20.517v30.223l25.92-30.223h25.48l-29.12 30.995 32.76 47.759h-25.48l-21.18-33.089zm34.784 103.74c-1.217-1.824-1.442-7.141-1.595-8.66-0.379-5.469-1.29-11.089-7.899-11.089h-10.709v19.748h-14.128v-54.234h27.65c9.571 0 18.987 4.331 18.987 15.266 0 5.85-2.808 11.394-8.506 13.599v0.15c5.772 1.369 7.444 7.823 7.899 12.99 0.154 2.278 0.379 10.253 2.28 12.23h-13.977z"/></svg><svg viewBox="0 0 512 512" width="32" height="32" id="visa" y="128"><path d="m512 145.8v-31.459c0-20.619-16.775-37.394-37.395-37.394h-437.2c-20.625-0.003-37.4 16.772-37.4 37.394v283.32c0 20.62 16.775 37.395 37.395 37.395h437.21c20.62 0 37.395-16.776 37.395-37.395v-225.63c0-4.465-3.618-8.084-8.084-8.084s-8.084 3.62-8.084 8.084v185.77h-479.67v-203.92h487.75a8.083 8.083 0 0 0 8.085 -8.084zm-16.168 228.17v23.693c0 11.705-9.522 21.227-21.227 21.227h-437.2c-11.705 0-21.227-9.522-21.227-21.227v-23.693h479.66zm-479.66-236.26v-23.375c0-11.704 9.522-21.226 21.227-21.226h437.21c11.705 0 21.227 9.522 21.227 21.226v23.375h-479.66z"/><path d="m179.61 324.57a8.085 8.085 0 0 0 6.177 2.869h34.431c3.94 0 7.305-2.84 7.969-6.723l21.597-126.4a8.082 8.082 0 0 0 -7.969 -9.446h-34.488a8.086 8.086 0 0 0 -7 4.038c-0.061-0.103-0.113-0.212-0.18-0.315a8.084 8.084 0 0 0 -6.752 -3.638h-36.501a8.084 8.084 0 0 0 -7.528 5.138l-24.222 61.892-10.738-51.509a7.726 7.726 0 0 0 -0.087 -0.372c-1.836-7.107-7.231-15.711-22.504-16.352a9.483 9.483 0 0 0 -0.338 -0.006h-53.379a8.083 8.083 0 0 0 -7.947 6.602l-0.475 2.551a8.085 8.085 0 0 0 6.043 9.339c10.152 2.461 19.59 5.898 28.17 10.187a8.067 8.067 0 0 0 0.196 3.694l30.844 105.42a8.084 8.084 0 0 0 7.759 5.814h0.01l36.469-0.042a8.085 8.085 0 0 0 7.418 -4.891l50.504-117.5-19.27 113.07a8.086 8.086 0 0 0 1.791 6.573zm-88.311-124.66c6.153 0.29 6.83 2.176 7.321 4.053l3.25 15.591c-7.757-7.554-16.819-14.157-26.984-19.643h16.413zm42.529 111.24l-25.086 0.028-22.052-75.38c12.059 11.415 21.261 24.052 25.218 33.117l3.455 12.49a8.086 8.086 0 0 0 15.32 0.79l31.731-81.079h18.709l-47.293 110.03zm80.323-110.12h18.083l-18.83 110.24h-18.032l18.783-110.24zm116.79 122.78a8.083 8.083 0 0 0 6.773 3.671h36.211a8.086 8.086 0 0 0 7.563 -5.228c0.042-0.112 3.037-8.039 5.215-13.759l14.3 0.016 17.807 0.018c1.254 5.65 2.737 12.484 2.759 12.583a8.082 8.082 0 0 0 7.9 6.369h31.99a8.082 8.082 0 0 0 8.084 -8.084 8.09 8.09 0 0 0 -0.342 -2.337l-27.773-125.72a8.083 8.083 0 0 0 -7.893 -6.34h-26.607c-4.618 0-18.672 0-25.435 15.286l-33.29 75.362c-0.845-16.501-11.834-29.368-33.527-39.267-4.477-2.167-12.429-6.022-14.455-8.29 0.99-0.939 4.271-2.826 11.405-2.826l0.124-0.001c10.163-0.147 17.358 2.155 22.471 4.193l2.933 1.345a8.086 8.086 0 0 0 11.339 -5.988l4.674-27.384a8.087 8.087 0 0 0 -5.142 -8.934c-7.072-2.642-18.662-5.789-33.716-5.789-38.786 0-66.055 20.444-66.313 49.692-0.301 25.473 26.181 37.747 34.9 41.789 11.678 5.375 12.972 7.63 13.113 8.022 0 0.001 0.011 0.051 0.008 0.213-0.017 1.741-5.277 4.326-12.508 4.326-12.799 0-19.124-1.755-29.21-5.951l-4.274-1.963a8.081 8.081 0 0 0 -11.342 5.984l-4.84 28.325a8.084 8.084 0 0 0 4.732 8.77c9.985 4.363 26.288 7.264 41.536 7.391h0.068c19.474 0 36.143-4.586 48.203-13.262a52.267 52.267 0 0 0 3.03 -2.375l-1.091 2.469a8.081 8.081 0 0 0 0.62 7.679zm65.341-116.99c1.694-3.831 3.721-5.655 10.647-5.655h20.112l24.331 110.15h-15.394c-0.988-4.514-2.242-10.193-2.838-12.719a8.084 8.084 0 0 0 -7.869 -6.228c-2.659 0-13.792-0.013-24.251-0.023-9.275-0.011-18.023-0.021-19.874-0.021a8.082 8.082 0 0 0 -7.527 5.136c-0.849 2.169-3.435 8.984-5.279 13.855h-18.216l46.158-104.5zm-116.07 106.31c-11.338-0.098-21.985-1.897-29.281-3.989l1.965-11.503c9.408 3.565 17.411 5.273 30.615 5.273 16.762 0 28.553-8.36 28.675-20.288 0.178-11.699-10.554-17.616-22.506-23.119-17.768-8.236-25.637-16.537-25.514-26.943 0.175-19.836 20.796-33.691 50.145-33.691 8.934 0 16.371 1.346 21.736 2.77l-1.817 10.65c-5.83-1.826-13.228-3.335-22.662-3.198-19.02 0.022-27.709 9.786-27.748 18.881-0.128 11.371 11.009 16.759 23.9 22.998l0.17 0.08c21.584 9.827 24.275 19.542 24.207 26.901-0.213 21.691-20.094 35.169-51.885 35.178z"/><path d="m391.06 282.62h28.595a8.084 8.084 0 0 0 7.896 -9.816c-1.384-6.313-7.952-36.476-7.953-36.477l-2.337-10.901a8.082 8.082 0 0 0 -7.348 -6.37 8.088 8.088 0 0 0 -8.154 5.302c-1.057 2.911-2.663 7.061-3.623 9.54-0.316 0.818-0.622 1.61-0.872 2.389l-0.032-0.013c-0.109 0.28-10.881 28.138-13.698 35.304a8.088 8.088 0 0 0 0.843 7.51 8.096 8.096 0 0 0 6.683 3.532zm16.134-27.284l2.422 11.115h-6.731c1.392-3.587 2.908-7.498 4.309-11.115z"/></svg>
  </svg>