<?xml version="1.0" encoding="iso-8859-1"?>
<!-- Generator: Adobe Illustrator 19.0.0, SVG Export Plug-In . SVG Version: 6.00 Build 0)  -->
<svg version="1.1" id="Layer_1" xmlns="http://www.w3.org/2000/svg" xmlns:xlink="http://www.w3.org/1999/xlink" x="0px" y="0px"
	 viewBox="0 0 512 512" style="enable-background:new 0 0 512 512;" xml:space="preserve">
<g>
	<g>
		<g>
			<path d="M512,145.796v-31.459c0-20.619-16.775-37.394-37.395-37.394H37.395C16.775,76.943,0,93.718,0,114.337v283.325
				c0,20.62,16.775,37.395,37.395,37.395h437.209c20.62,0,37.395-16.776,37.395-37.395V172.026c0-4.465-3.618-8.084-8.084-8.084
				s-8.084,3.62-8.084,8.084V357.8H16.168V153.88h487.747C508.382,153.88,512,150.261,512,145.796z M495.832,373.968v23.693
				c0,11.705-9.522,21.227-21.227,21.227H37.395c-11.705,0-21.227-9.522-21.227-21.227v-23.693H495.832z M16.168,137.712v-23.375
				c0-11.704,9.522-21.226,21.227-21.226h437.209c11.705,0,21.227,9.522,21.227,21.226v23.375H16.168z"/>
			<path d="M179.611,324.568c1.536,1.819,3.796,2.869,6.177,2.869h34.431c3.94,0,7.305-2.84,7.969-6.723l21.597-126.403
				c0.401-2.349-0.253-4.753-1.79-6.574c-1.536-1.821-3.796-2.872-6.179-2.872h-34.488c-2.956,0-5.589,1.599-7,4.038
				c-0.061-0.103-0.113-0.212-0.18-0.315c-1.496-2.271-4.032-3.638-6.752-3.638h-36.501c-3.328,0-6.315,2.039-7.528,5.138
				l-24.222,61.892l-10.738-51.509c-0.026-0.125-0.055-0.249-0.087-0.372c-1.836-7.107-7.231-15.711-22.504-16.352
				c-0.112-0.004-0.225-0.006-0.338-0.006H38.099c-3.893,0-7.234,2.774-7.947,6.602l-0.475,2.551
				c-0.787,4.224,1.867,8.327,6.043,9.339c10.152,2.461,19.59,5.898,28.17,10.187c-0.216,1.205-0.163,2.467,0.196,3.694
				l30.844,105.424c1.008,3.446,4.169,5.814,7.759,5.814c0.003,0,0.006,0,0.01,0l36.469-0.042c3.227-0.004,6.143-1.926,7.418-4.891
				l50.504-117.497L177.82,317.995C177.42,320.343,178.075,322.748,179.611,324.568z M91.299,199.909
				c6.153,0.29,6.83,2.176,7.321,4.053l3.25,15.591c-7.757-7.554-16.819-14.157-26.984-19.643H91.299z M133.828,311.148
				l-25.086,0.028L86.688,235.8c12.059,11.415,21.261,24.052,25.218,33.117l3.455,12.49c0.928,3.353,3.899,5.738,7.375,5.918
				c3.472,0.18,6.676-1.885,7.945-5.128l31.731-81.079h18.709L133.828,311.148z M214.151,201.033h18.083L213.4,311.269h-18.032
				L214.151,201.033z"/>
			<path d="M330.945,323.81c1.493,2.291,4.04,3.671,6.773,3.671h36.211c3.363,0,6.375-2.083,7.563-5.228
				c0.042-0.112,3.037-8.039,5.215-13.759c3.775,0.004,8.951,0.01,14.3,0.016c6.376,0.006,13,0.014,17.807,0.018
				c1.254,5.65,2.737,12.484,2.759,12.583c0.806,3.718,4.096,6.369,7.9,6.369h31.97c0.005,0,0.014,0,0.02,0
				c4.466,0,8.084-3.618,8.084-8.084c0-0.813-0.119-1.596-0.342-2.337l-27.773-125.725c-0.818-3.704-4.101-6.34-7.893-6.34h-26.607
				c-4.618,0-18.672,0-25.435,15.286l-33.29,75.362c-0.845-16.501-11.834-29.368-33.527-39.267
				c-4.477-2.167-12.429-6.022-14.455-8.29c0.99-0.939,4.271-2.826,11.405-2.826c0.041,0,0.083-0.001,0.124-0.001
				c10.163-0.147,17.358,2.155,22.471,4.193l2.933,1.345c2.284,1.048,4.922,0.973,7.145-0.2c2.222-1.173,3.77-3.312,4.194-5.788
				l4.674-27.384c0.652-3.825-1.505-7.575-5.142-8.934c-7.072-2.642-18.662-5.789-33.716-5.789
				c-38.786,0-66.055,20.444-66.313,49.692c-0.301,25.473,26.181,37.747,34.9,41.789c11.678,5.375,12.972,7.63,13.113,8.022
				c0,0.001,0.011,0.051,0.008,0.213c-0.017,1.741-5.277,4.326-12.508,4.326c-12.799,0-19.124-1.755-29.21-5.951l-4.274-1.963
				c-2.282-1.048-4.925-0.974-7.146,0.196c-2.223,1.173-3.773,3.311-4.196,5.788l-4.84,28.325c-0.626,3.664,1.326,7.282,4.732,8.77
				c9.985,4.363,26.288,7.264,41.536,7.391c0.023,0,0.045,0,0.068,0c19.474,0,36.143-4.586,48.203-13.262
				c1.054-0.758,2.054-1.558,3.03-2.375l-1.091,2.469C329.22,318.631,329.453,321.521,330.945,323.81z M396.286,206.818
				c1.694-3.831,3.721-5.655,10.647-5.655h20.112l24.331,110.15h-15.394c-0.988-4.514-2.242-10.193-2.838-12.719
				c-0.861-3.65-4.119-6.228-7.869-6.228c-2.659,0-13.792-0.013-24.251-0.023c-9.275-0.011-18.023-0.021-19.874-0.021
				c-3.328,0-6.314,2.038-7.527,5.136c-0.849,2.169-3.435,8.984-5.279,13.855h-18.216L396.286,206.818z M280.214,313.13
				c-11.338-0.098-21.985-1.897-29.281-3.989l1.965-11.503c9.408,3.565,17.411,5.273,30.615,5.273
				c16.762,0,28.553-8.36,28.675-20.288c0.178-11.699-10.554-17.616-22.506-23.119c-17.768-8.236-25.637-16.537-25.514-26.943
				c0.175-19.836,20.796-33.691,50.145-33.691c8.934,0,16.371,1.346,21.736,2.77l-1.817,10.65
				c-5.83-1.826-13.228-3.335-22.662-3.198c-19.02,0.022-27.709,9.786-27.748,18.881c-0.128,11.371,11.009,16.759,23.9,22.998
				c0.057,0.027,0.114,0.054,0.17,0.08c21.584,9.827,24.275,19.542,24.207,26.901C331.886,299.643,312.005,313.121,280.214,313.13z"
				/>
			<path d="M391.057,282.623h28.595c2.448,0,4.764-1.109,6.299-3.017c1.535-1.907,2.122-4.408,1.597-6.799
				c-1.384-6.313-7.952-36.476-7.953-36.477l-2.337-10.901c-0.755-3.525-3.752-6.122-7.348-6.37
				c-3.602-0.242-6.922,1.915-8.154,5.302c-1.057,2.911-2.663,7.061-3.623,9.54c-0.316,0.818-0.622,1.61-0.872,2.389l-0.032-0.013
				c-0.109,0.28-10.881,28.138-13.698,35.304c-0.978,2.488-0.662,5.299,0.843,7.51C385.883,281.3,388.384,282.623,391.057,282.623z
				 M407.191,255.339c0.813,3.733,1.664,7.641,2.422,11.115h-6.731C404.274,262.867,405.79,258.956,407.191,255.339z"/>
		</g>
	</g>
</g>
<g>
</g>
<g>
</g>
<g>
</g>
<g>
</g>
<g>
</g>
<g>
</g>
<g>
</g>
<g>
</g>
<g>
</g>
<g>
</g>
<g>
</g>
<g>
</g>
<g>
</g>
<g>
</g>
<g>
</g>
</svg>
