<?xml version="1.0" encoding="utf-8"?>
<!-- Generator: Adobe Illustrator 16.0.0, SVG Export Plug-In . SVG Version: 6.00 Build 0)  -->
<!DOCTYPE svg PUBLIC "-//W3C//DTD SVG 1.1//EN" "http://www.w3.org/Graphics/SVG/1.1/DTD/svg11.dtd">
<svg version="1.1" id="Layer_1" xmlns="http://www.w3.org/2000/svg" xmlns:xlink="http://www.w3.org/1999/xlink" x="0px" y="0px"
	 width="612px" height="792px" viewBox="0 0 612 792" enable-background="new 0 0 612 792" xml:space="preserve">
<path fill-rule="evenodd" clip-rule="evenodd" fill="#406274" d="M281.8,106.24c2.256,0.501,3.191,2.065,3.621,4.21
	c2.015,10.044,4.238,20.049,6.089,30.123c0.994,5.408,1.403,10.925,2.042,16.396c0.32,2.737,0.542,5.484,0.853,8.222
	c0.125,1.09-0.277,1.859-1.165,2.426c-2.794,1.783-5.898,0.078-6.391-3.51c-0.798-5.812-1.598-11.623-2.396-17.435
	c-0.223-1.624-0.77-2.014-2.381-2.298c-3.244-0.572-6.353,0.192-9.497,0.717c-0.953,0.159-1.363,0.66-1.37,1.625
	c-0.023,3.438-0.106,6.874-0.116,10.312c-0.003,1.042-0.339,1.809-1.332,2.168c-1.181,0.427-2.015-0.184-1.935-1.431
	c0.175-2.752,0.389-5.501,0.594-8.251c0.373-4.981,0.662-9.971,1.151-14.941c0.488-4.961,1.148-9.906,1.798-14.85
	c0.265-2.013,0.482-4.076,1.115-5.986c0.706-2.134,1.774-4.167,2.87-6.143c0.313-0.564,1.248-0.812,1.933-1.131
	c0.345-0.161,0.768-0.154,1.155-0.223C279.561,106.24,280.68,106.24,281.8,106.24z M276.67,111.31
	c-1.445,0.438-1.855,1.438-2.028,2.531c-0.46,2.905-0.732,5.845-1.315,8.723c-1.261,6.217-1.362,12.534-1.831,18.82
	c-0.118,1.583,0.193,1.83,1.782,1.577c0.235-0.037,0.463-0.115,0.696-0.169c2.694-0.632,5.388-1.073,8.177-0.574
	c1.543,0.276,1.836-0.125,1.551-1.734c-1.637-9.265-3.646-18.446-6.235-27.495C277.298,112.401,276.939,111.867,276.67,111.31z"/>
<path fill-rule="evenodd" clip-rule="evenodd" fill="#63A6C5" d="M434.783,280.466c-1.222,1.518-2.265,2.859-3.354,4.161
	c-6.072,7.256-13.62,12.093-22.972,13.94c-3.1,0.612-6.198,0.543-9.275-0.181c-3.115-0.733-5.456-2.555-7.196-5.196
	c-2.017-3.06-2.988-6.497-3.62-10.057c-0.054-0.306-0.119-0.61-0.504-1.157c-0.146,0.268-0.268,0.552-0.442,0.8
	c-2.29,3.257-5.615,4.612-9.409,4.61c-6.505-0.003-12.709-1.483-18.607-4.295c-3.01-1.435-6.13-2.639-9.206-3.933
	c-0.245-0.103-0.54-0.087-0.812-0.126c-0.141,0.153-0.28,0.305-0.421,0.458c0.384,0.191,0.851,0.298,1.14,0.584
	c6.599,6.533,12.394,13.661,16.486,22.075c4.081,8.386,5.521,17.164,4.32,26.421c-0.802,6.183-2.196,12.16-5.269,17.647
	c-1.46,2.607-3.262,4.946-5.734,6.678c-4.701,3.291-9.722,3.237-14.822,1.161c-7.577-3.084-12.855-8.62-16.425-15.865
	c-3.052-6.193-4.547-12.821-5.346-19.638c-1.219-10.396-0.575-20.749,0.693-31.088c0.078-0.631,0.127-1.266,0.193-1.943
	c-0.102,0-0.223-0.038-0.295,0.006c-3.644,2.21-7.602,2.171-11.616,1.578c-5.807-0.859-11.338-2.539-16.463-5.484
	c-2.212-1.271-4.589-2.198-7.286-2.427c0.281,0.285,0.558,0.573,0.842,0.854c6.618,6.572,12.44,13.733,16.536,22.188
	c4.044,8.351,5.471,17.098,4.273,26.314c-0.808,6.224-2.201,12.244-5.323,17.752c-2.056,3.626-4.713,6.682-8.706,8.238
	c-3.97,1.547-7.93,1.118-11.784-0.471c-8.162-3.364-13.604-9.458-17.145-17.378c-2.596-5.805-3.909-11.948-4.653-18.24
	c-0.887-7.501-0.793-15.009-0.167-22.509c0.382-4.572,1.037-9.122,1.566-13.682c0.018-0.153,0.002-0.31,0.002-0.549
	c-3.578,2.095-7.34,3.573-11.306,4.561c-4.542,1.131-9.134,1.499-13.785,0.989c-0.752-0.082-0.852,0.341-1.054,0.825
	c-1.796,4.299-3.99,8.363-7.152,11.832c-4.862,5.332-10.906,7.172-17.897,5.737c-3.606-0.74-6.146-3.119-8.027-6.195
	c-2.19-3.581-3.142-7.559-3.596-11.68c-0.116-1.057-0.203-2.116-0.315-3.296c-1.639,1.737-3.157,3.419-4.752,5.024
	c-7.043,7.09-14.873,13.076-24.144,17.003c-3.771,1.598-7.682,2.766-11.789,2.903c-6.131,0.205-11.599-1.489-15.851-6.186
	c-2.289-2.528-3.048-5.658-3.341-8.919c-0.256-2.864-0.558-5.747-0.476-8.611c0.092-3.223,0.563-6.437,0.919-9.649
	c0.532-4.802,1.094-9.627,2.886-14.146c2.643-6.669,5.227-13.393,9.516-19.251c2.245-3.066,4.991-5.576,8.824-6.393
	c1.771-0.377,3.668-0.514,5.467-0.34c2.92,0.283,4.816,2.146,5.948,4.784c1.552,3.615,1.913,7.459,1.497,11.281
	c-0.311,2.863-1.219,5.672-1.981,8.472c-0.383,1.409-1.863,2.31-3.209,2.23c-1.428-0.084-2.652-1.095-2.935-2.564
	c-0.099-0.514,0.05-1.09,0.154-1.625c0.542-2.811,1.165-5.607,1.626-8.431c0.143-0.876-0.076-1.829-0.227-2.731
	c-0.228-1.361-1.086-1.944-2.47-1.76c-1.444,0.192-2.475,1.071-3.358,2.131c-2.687,3.225-4.158,7.069-5.401,10.994
	c-3.213,10.15-4.442,20.582-4.07,31.198c0.061,1.729,0.448,3.497,0.979,5.152c1.561,4.865,5.444,7.048,10.495,5.955
	c1.587-0.343,3.177-0.817,4.66-1.47c12.721-5.602,22.618-14.473,30.318-25.988c2.644-3.954,3.733-8.404,5.12-12.797
	c2.219-7.028,5.424-13.529,10.128-19.266c3.934-4.797,10.872-6.944,16.77-5.068c3.331,1.059,5.596,3.296,7.115,6.362
	c3.426,6.913,4.976,14.155,4.23,21.912c-0.501,5.217-1.33,10.351-2.728,15.484c6.969,0.558,13.396-0.741,19.208-4.621
	c2.52-1.682,4.89-3.549,6.016-6.476c0.608-1.581,0.951-3.275,1.309-4.941c3.62-16.855,8.996-33.104,16.007-48.875
	c3.972-8.935,8.867-17.141,15.396-24.381c2.662-2.952,5.583-5.617,9.185-7.411c2.503-1.246,5.121-1.786,7.886-1.018
	c3.61,1.002,5.992,4.323,6.363,8.552c0.453,5.157-0.956,9.971-2.553,14.748c-4.228,12.648-10.992,23.882-19.277,34.25
	c-6.037,7.554-12.797,14.398-20.247,20.568c-0.529,0.438-0.98,1.184-1.112,1.857c-1.55,7.9-3.288,15.777-4.461,23.736
	c-1.25,8.479-1.293,17.047-0.41,25.599c0.686,6.652,1.887,13.189,4.381,19.423c1.532,3.829,3.617,7.307,7.062,9.77
	c4.434,3.171,10.033,2.689,14.433,0.419c0.365-0.188,0.629-0.698,0.802-1.115c1.494-3.61,2.179-7.413,2.539-11.276
	c0.545-5.846,0.477-11.651-1.344-17.32c-1.765-5.496-4.927-10.173-8.506-14.61c-3.036-3.763-6.205-7.43-9.056-11.328
	c-1.584-2.166-2.714-4.682-3.896-7.115c-0.433-0.893-0.587-1.999-0.589-3.008c-0.009-4.186,2.297-5.776,6.357-5.023
	c1.954,0.362,3.847,1.286,5.647,2.195c3.417,1.726,6.657,3.819,10.136,5.395c3.446,1.561,7.12,2.615,10.931,2.928
	c4.549,0.375,8.071-1.451,10.604-5.227c2.368-3.531,3.59-7.453,4.458-11.605c3.479-16.633,8.747-32.678,15.649-48.236
	c3.709-8.36,8.087-16.196,13.979-23.178c2.587-3.065,5.398-5.9,8.759-8.138c2.193-1.461,4.555-2.494,7.229-2.604
	c4.52-0.187,8,2.682,8.943,7.361c0.854,4.236,0.067,8.336-1.087,12.399c-3.763,13.245-10.39,25.001-18.702,35.867
	c-6.465,8.451-13.823,16.047-22.023,22.833c-0.529,0.438-0.981,1.184-1.113,1.856c-1.55,7.901-3.287,15.778-4.462,23.736
	c-1.251,8.479-1.292,17.046-0.41,25.599c0.686,6.652,1.887,13.189,4.381,19.422c1.532,3.83,3.579,7.361,7.069,9.758
	c4.682,3.216,9.553,2.771,14.425,0.434c0.365-0.175,0.631-0.695,0.803-1.112c1.494-3.61,2.181-7.413,2.54-11.276
	c0.545-5.846,0.477-11.651-1.343-17.32c-1.765-5.496-4.926-10.174-8.505-14.611c-3.036-3.763-6.204-7.43-9.056-11.328
	c-1.585-2.166-2.715-4.682-3.896-7.114c-0.434-0.893-0.589-1.999-0.591-3.008c-0.009-4.191,2.299-5.777,6.354-5.026
	c1.954,0.362,3.849,1.285,5.647,2.194c3.416,1.726,6.657,3.82,10.136,5.396c3.446,1.561,7.12,2.61,10.931,2.93
	c4.501,0.377,8.07-1.377,10.519-5.139c1.388-2.133,2.681-4.375,3.642-6.722c0.663-1.619,0.622-3.514,1.001-5.263
	c1.792-8.267,4.887-15.939,10.559-22.364c3.002-3.4,6.565-5.909,11.201-6.635c4.744-0.743,10.016,2.408,11.171,6.854
	c0.553,2.128,0.087,4.198-0.729,6.191c-1.694,4.135-4.747,7.162-8.165,9.859c-3.434,2.71-7.215,4.847-11.217,6.61
	c-0.466,0.206-1.036,0.708-1.123,1.158c-1.045,5.392-1.715,10.831-0.646,16.289c0.854,4.362,3.158,7.595,7.813,8.496
	c1.979,0.383,3.942,0.261,5.826-0.719c5.107-2.657,9.443-6.296,13.271-10.524c2.326-2.569,4.386-5.381,6.53-8.111
	c1.352-1.719,1.691-3.792,2.089-5.886c1.665-8.76,4.85-16.862,10.831-23.641c3.001-3.402,6.589-5.888,11.226-6.592
	c4.686-0.712,9.909,2.436,11.083,6.83c0.568,2.13,0.106,4.2-0.703,6.192c-1.699,4.178-4.787,7.224-8.242,9.944
	c-3.438,2.707-7.223,4.836-11.227,6.591c-0.391,0.171-0.92,0.518-0.987,0.86c-1.146,5.906-1.986,11.863-0.399,17.797
	c1.462,5.469,6.045,8.271,11.394,7.245c0.501-0.096,0.999-0.277,1.459-0.501c5.371-2.608,9.714-6.527,13.844-10.75
	c4.703-4.809,8.077-10.476,10.991-16.466c0.78-1.603,2.059-2.303,3.544-2.049c2.402,0.411,3.522,2.111,2.68,4.457
	c-0.615,1.713-1.46,3.37-2.395,4.938c-4.163,6.989-8.729,13.709-14.783,19.215c-5.323,4.843-11.555,8.086-18.704,9.363
	c-3.266,0.583-6.533,0.499-9.735-0.423c-2.854-0.822-4.97-2.634-6.575-5.098C436.753,290.067,435.594,286.45,434.783,280.466z
	 M343.415,248.424c0.354-0.321,0.483-0.415,0.584-0.534c1.471-1.739,2.977-3.45,4.399-5.228
	c8.536-10.662,15.638-22.257,22.29-34.156c2.568-4.592,4.13-9.488,5.107-14.594c0.27-1.41,0.254-2.947,0.002-4.361
	c-0.218-1.222-0.988-1.344-2.004-0.615c-3.351,2.405-6.056,5.442-8.476,8.745c-5.057,6.898-8.788,14.519-12.101,22.362
	C349.354,229.188,346.242,238.591,343.415,248.424z M282.729,248.158c0.082,0.044,0.164,0.089,0.246,0.133
	c1.561-1.863,3.156-3.698,4.676-5.594c8.821-11.003,16.147-22.978,22.911-35.317c2.604-4.75,4.004-9.885,4.753-15.202
	c0.141-1-0.163-2.119-0.488-3.108c-0.209-0.635-0.839-0.919-1.525-0.298c-0.53,0.48-1.154,0.856-1.707,1.315
	c-4.843,4.018-8.368,9.1-11.488,14.474c-6.116,10.531-10.44,21.839-14.209,33.374C284.788,241.324,283.782,244.749,282.729,248.158z
	 M234.677,278.983c0.04-0.062,0.122-0.154,0.161-0.261c0.067-0.187,0.119-0.38,0.158-0.575c1.65-8.161,2.24-16.38,1.175-24.664
	c-0.372-2.896-1.073-5.723-2.783-8.19c-0.906-1.307-2.169-2.038-3.722-2.34c0.636,0.403,1.272,0.807,2.092,1.327
	c-1.996,0.402-3.037,1.705-3.944,3.127c-0.686,1.075-1.376,2.165-1.899,3.323c-1.705,3.777-3.385,7.567-4.979,11.392
	c-1.885,4.524-1.865,4.562,1.213,8.373C225.45,274.582,229.285,277.92,234.677,278.983z M216.453,274.124
	c-0.322,0.996-0.59,1.745-0.808,2.509c-1.221,4.284-2.083,8.607-1.285,13.088c0.752,4.224,3.553,7.151,7.733,7.921
	c0.73,0.134,1.713-0.052,2.321-0.467c4.078-2.786,6.326-6.916,8.181-11.35C226.379,283.068,221.006,279.314,216.453,274.124z
	 M402.228,257.489c0.303-0.112,0.488-0.158,0.652-0.246c4.232-2.259,8.029-5.099,11.187-8.715c0.979-1.121,1.744-2.471,2.403-3.815
	c0.543-1.107,0.289-2.321-0.559-3.236c-0.848-0.917-1.963-0.719-3.021-0.378c-1.826,0.588-3.147,1.871-4.308,3.314
	c-2.887,3.594-4.734,7.737-6.231,12.054C402.253,256.749,402.274,257.071,402.228,257.489z M449.021,257.479
	c0.3-0.104,0.484-0.142,0.644-0.228c4.268-2.278,8.08-5.155,11.276-8.793c0.834-0.948,1.528-2.048,2.131-3.163
	c0.699-1.292,0.672-2.701-0.354-3.797c-1.038-1.108-2.457-0.844-3.542-0.154c-1.392,0.884-2.771,1.926-3.822,3.179
	c-2.939,3.497-4.71,7.652-6.195,11.93C449.06,256.734,449.073,257.055,449.021,257.479z"/>
<path fill-rule="evenodd" clip-rule="evenodd" fill="#406274" d="M376.944,539.914c1.201-1.009,2.149-1.844,3.137-2.629
	c7.751-6.161,16.31-10.695,26.121-12.488c6.055-1.107,12.032-0.873,17.589,2.249c3.836,2.155,6.511,5.397,8.376,9.299
	c2.357,4.929,3.419,10.166,2.878,15.613c-0.531,5.354-2.36,10.336-4.913,15.06c-3.06,5.658-6.919,10.748-11.077,15.626
	c-4.283,5.026-8.723,9.896-13.871,14.076c-4.232,3.438-8.916,6.039-14.006,7.969c-4.032,1.528-8.063,3.075-12.021,4.78
	c-3.177,1.369-6.046,3.284-8.396,5.867c-0.431,0.473-0.77,1.137-0.893,1.764c-2.229,11.279-5.293,22.313-9.927,32.853
	c-3.643,8.283-8.229,15.993-14.697,22.444c-8.711,8.688-19.213,13.228-31.527,13.195c-10.56-0.028-21.085-0.815-31.57-2.097
	c-8.224-1.005-16.321-2.568-24.273-4.945c-9.466-2.83-15.631-9.121-19.525-17.958c-3.161-7.173-5.214-14.688-6.577-22.368
	c-1.352-7.623-2.407-15.302-3.479-22.972c-1.537-10.994-2.942-22.008-4.458-33.005c-1.02-7.399-2.124-14.786-3.21-22.176
	c-1.393-9.482-2.82-18.96-4.199-28.444c-0.327-2.248-0.516-4.516-0.783-6.772c-0.032-0.268-0.112-0.556-0.255-0.78
	c-3.379-5.305-2.071-10.416,1.855-14.795c3.573-3.985,8.021-6.833,12.632-9.426c10.189-5.729,21.224-8.981,32.674-10.975
	c11.696-2.035,23.491-2.71,35.343-2.491c5.635,0.104,11.281,0.185,16.897,0.615c7.809,0.598,15.705,0.942,23.355,2.454
	c7.6,1.501,15.478,2.302,22.534,6.07c6.151,3.284,10.895,7.763,13.427,14.388c0.208,0.545,0.767,1.07,1.296,1.356
	c1.458,0.789,2.107,1.921,2.058,3.734c-0.218,7.874-0.411,15.749-0.606,23.623C376.846,538.938,376.895,539.246,376.944,539.914z
	 M224.051,532.309c0,0.336-0.019,0.491,0.002,0.64c1.025,7.115,2.041,14.232,3.086,21.345c1.388,9.444,2.81,18.883,4.198,28.326
	c1.29,8.772,2.58,17.544,3.82,26.323c1.028,7.275,1.995,14.56,2.97,21.843c0.854,6.377,1.723,12.748,3.539,18.945
	c1.335,4.555,3.149,8.88,5.867,12.805c3.861,5.573,9.429,8.432,15.781,10.137c5.886,1.581,11.883,2.518,17.925,3.155
	c5.086,0.537,10.191,0.923,15.295,1.269c5.339,0.361,10.69,0.863,16.031,0.818c7.655-0.063,14.697-2.472,21.021-6.81
	c9.286-6.371,15.168-15.41,19.748-25.444c2.827-6.192,5.038-12.609,6.727-19.193c1.015-3.957,2.463-7.842,2.449-12.019
	c-0.002-0.375,0.237-0.751,0.369-1.125c0.183-0.523,0.455-1.031,0.54-1.569c0.844-5.324,1.73-10.644,2.456-15.984
	c0.649-4.791,1.239-9.597,1.627-14.414c0.565-7.013,1.037-14.037,1.346-21.065c0.38-8.667,0.552-17.344,0.807-26.017
	c0.011-0.334-0.05-0.67-0.09-1.154c-0.272,0.187-0.411,0.249-0.507,0.353c-3.492,3.774-7.745,6.384-12.506,8.242
	c-7.02,2.74-14.4,3.646-21.827,4.049c-11.931,0.648-23.87,1.2-35.813,1.51c-13.974,0.362-27.894-0.468-41.692-2.858
	c-11.405-1.977-22.181-5.698-32.159-11.628C224.777,532.616,224.461,532.5,224.051,532.309z M358.891,530.041
	c-2.147,0.75-3.679,0.022-4.88-1.661c-0.114-0.16-0.285-0.279-0.431-0.416c-2.936-2.764-6.555-4.232-10.326-5.365
	c-8.184-2.458-16.637-3.162-25.104-3.53c-7.587-0.33-15.186-0.37-22.781-0.484c-9.643-0.145-19.248,0.277-28.79,1.84
	c-7.631,1.25-15.107,3.068-22.361,5.747c-2.919,1.078-5.777,2.321-8.678,3.451c-2.063,0.804-4.048-0.051-4.836-2.018
	c-0.815-2.033-0.09-3.779,2.011-4.673c2.462-1.046,4.92-2.111,7.429-3.038c16.582-6.126,33.783-8.715,51.389-8.489
	c12.31,0.158,24.618,0.671,36.917,1.239c6.235,0.288,12.383,1.414,18.341,3.376c4.881,1.606,9.389,3.849,12.918,7.727
	c0.109,0.12,0.31,0.157,0.671,0.332c0-0.644,0.07-1.122-0.013-1.572c-0.243-1.326,0.301-2.297,1.035-3.385
	c1.242-1.839,2.367-3.803,3.223-5.848c1.257-3.008,0.245-5.958-2.431-7.797c-0.784-0.539-1.683-0.909-2.516-1.379
	c-1.098-0.62-2.184-1.263-3.274-1.895c-1.516-0.878-2.962-1.917-4.561-2.601c-4.177-1.787-8.666-2.067-13.125-2.498
	c-2.545-0.245-5.237,0.241-7.563-1.317c-0.119-0.079-0.311-0.058-0.47-0.069c-7.414-0.553-14.821-1.312-22.245-1.608
	c-12.198-0.488-24.363,0.007-36.469,1.808c-13.165,1.958-25.82,5.599-37.996,10.938c-2.934,1.286-5.801,2.711-8.184,4.924
	c-3.353,3.112-3.99,6.791-1.944,10.859c2.02,4.018,5.051,6.791,9.403,8.156c10.184,3.196,20.416,6.148,31.04,7.553
	c12.762,1.688,25.576,2.019,38.421,1.667c6.631-0.182,13.264-0.357,19.888-0.705c5.542-0.29,11.076-0.781,16.605-1.271
	c3.299-0.293,6.589-0.701,9.867-1.169c1.41-0.201,2.836-0.545,4.157-1.069C355.892,534.744,357.804,532.841,358.891,530.041z
	 M376.513,556.788c0.801-0.679,1.485-1.263,2.173-1.843c5.576-4.712,11.411-9.034,18.149-11.979
	c2.579-1.127,5.262-1.859,8.095-1.996c4.319-0.207,7.833,2.578,9.292,7.372c1.604,5.271,0.722,10.278-1.604,15.118
	c-2.671,5.557-6.614,10.165-10.947,14.466c-6.322,6.277-13.399,11.631-20.69,16.706c-2.547,1.772-5.227,3.353-7.836,5.035
	c-0.183,0.118-0.375,0.347-0.408,0.549c-0.227,1.398-0.412,2.804-0.643,4.429c0.503-0.22,0.747-0.313,0.98-0.43
	c4.285-2.144,8.564-4.3,12.854-6.436c4.147-2.065,8.365-3.998,12.442-6.191c6.058-3.259,10.66-8.233,15.106-13.348
	c5.214-5.999,9.988-12.294,12.814-19.828c1.928-5.138,2.698-10.373,0.726-15.688c-2.597-6.996-8.48-12.118-16.696-11.751
	c-4.284,0.191-8.262,1.366-12.083,3.162c-8.344,3.92-15.516,9.351-21.165,16.696c-0.235,0.306-0.521,0.679-0.534,1.03
	C376.479,553.413,376.513,554.967,376.513,556.788z M373.923,590.232c0.101,0.063,0.201,0.124,0.302,0.186
	c0.629-0.444,1.261-0.885,1.886-1.336c8.274-5.976,16.248-12.303,22.929-20.091c3.046-3.55,5.966-7.201,7.606-11.682
	c1.379-3.77-0.052-6.417-3.903-7.492c-2.892-0.808-5.336,0.142-7.743,1.53c-6.295,3.629-11.628,8.422-16.577,13.684
	c-0.489,0.521-0.983,1.118-1.603,1.417c-0.867,0.418-1.046,1.013-1.108,1.882c-0.423,5.936-0.889,11.868-1.359,17.801
	C374.243,587.5,374.067,588.865,373.923,590.232z"/>
<path fill-rule="evenodd" clip-rule="evenodd" fill="#406274" d="M222.693,459.483c-0.023-4.559,1.026-8.961,1.855-13.39
	c2.026-10.814,4.049-21.63,6.137-32.434c1.573-8.139,3.215-16.265,4.883-24.385c1.033-5.028,2.154-10.039,3.269-15.051
	c0.434-1.954,0.973-2.268,2.953-1.827c4.707,1.048,9.422,2.061,14.108,3.192c3.821,0.923,6.739,3.193,8.908,6.447
	c0.243,0.365,0.521,0.72,0.693,1.119c2.782,6.46,5.994,12.78,6.27,20.037c0.052,1.382,0.295,2.799,0.71,4.118
	c1.125,3.579,0.839,7.146,0.38,10.784c-1.001,7.943-3.77,15.316-7.21,22.44c-1.269,2.627-2.955,5.158-4.905,7.324
	c-3.171,3.523-6.559,6.891-10.141,9.993c-4.578,3.964-10.203,5.835-16.081,6.926c-2.587,0.48-5.203,0.813-7.811,1.171
	c-2.35,0.324-3.429-0.503-3.745-2.886C222.809,461.879,222.78,460.678,222.693,459.483z M267.536,411.604
	c-0.807-6.731-1.645-12.606-3.354-18.327c-1.006-3.366-2.023-6.722-3.842-9.762c-1.269-2.121-3.066-3.538-5.519-4.073
	c-1.781-0.389-2.761,0.163-3.221,1.93c-2.459,9.451-4.693,18.938-6.311,28.589c-2.048,12.225-4.543,24.374-6.862,36.553
	c-0.708,3.719-1.494,7.423-2.188,11.145c-0.101,0.54-0.01,1.202,0.242,1.675c0.089,0.168,0.942,0.014,1.411-0.118
	c3.547-0.995,6.423-3.101,9.16-5.482c8.907-7.748,15.499-16.963,18.053-28.673C266.132,420.353,266.828,415.574,267.536,411.604z"/>
<path fill-rule="evenodd" clip-rule="evenodd" fill="#406274" d="M288.5,381.592c2.159,0,4.317-0.01,6.476,0.002
	c5.544,0.032,9.802,2.543,13.022,6.913c1.108,1.504,2.003,3.165,2.994,4.755c0.568,0.912,1.082,1.863,1.71,2.732
	c1.872,2.593,3.032,5.489,3.932,8.535c0.585,1.979,1.272,3.947,2.13,5.821c1.184,2.588,1.699,5.273,1.951,8.086
	c0.792,8.85-0.671,17.431-2.909,25.927c-0.383,1.455-0.928,2.89-1.573,4.251c-2.562,5.405-5.995,10.271-9.765,14.869
	c-4.698,5.732-11.165,8.768-17.999,11.127c-1.318,0.455-2.651,0.87-3.983,1.284c-2.284,0.709-3.647,0.16-4.146-2.187
	c-0.735-3.459-1.535-6.988-1.578-10.496c-0.226-18.556-0.233-37.113-0.291-55.67c-0.007-2.238,0.153-4.476,0.213-6.714
	c0.151-5.67,0.279-11.341,0.44-17.011c0.069-2.417,0.43-2.677,2.901-2.613c2.157,0.056,4.316,0.012,6.475,0.012
	C288.5,381.341,288.5,381.466,288.5,381.592z M292.656,431.887c-0.104,0.001-0.208,0.001-0.311,0.002c0,9.717,0,19.434,0,29.149
	c0,1.8-0.02,3.6,0.016,5.398c0.022,1.15,0.548,1.573,1.357,1.018c2.03-1.393,4.293-2.617,5.915-4.406
	c10.551-11.648,15.938-25.262,15.001-41.124c-0.181-3.058-0.393-6.144-0.984-9.139c-0.475-2.399-1.485-4.705-2.367-7.011
	c-2.172-5.679-4.717-11.174-8.369-16.084c-1.801-2.421-4.079-4.038-7.234-4.069c-1.71-0.017-2.515,0.717-2.624,2.405
	c-0.105,1.636-0.211,3.271-0.286,4.909c-0.234,5.189-0.645,10.379-0.634,15.569C292.152,416.299,292.468,424.093,292.656,431.887z"
	/>
<path fill-rule="evenodd" clip-rule="evenodd" fill="#406274" d="M191.606,448.94c0.271-1.157,0.446-2.347,0.829-3.466
	c3.012-8.822,6.064-17.632,9.101-26.445c0.156-0.452,0.302-0.908,0.429-1.369c0.504-1.832,0.111-2.805-1.385-3.941
	c-3.357-2.551-7.132-4.189-11.169-5.297c-1.383-0.379-2.741-0.848-4.121-1.237c-1.521-0.43-2.229-0.16-2.968,1.212
	c-1.306,2.423-2.576,4.865-3.834,7.313c-1.44,2.803-2.849,5.621-4.277,8.43c-0.646,1.271-2.029,1.979-3.381,1.751
	c-2.117-0.357-2.866-1.881-1.807-3.639c7.583-12.581,15.003-25.264,22.803-37.708c4.279-6.826,9.244-13.219,13.808-19.87
	c2.982-4.345,6.836-7.663,11.31-10.357c1.503-0.905,2.914-1.1,4.506-0.26c1.691,0.892,3.471,1.617,5.172,2.493
	c3.542,1.824,4.691,4.252,3.679,8.095c-2.273,8.629-4.607,17.243-6.952,25.854c-2.156,7.917-4.001,15.942-6.623,23.705
	c-4.128,12.226-8.792,24.271-13.231,36.392c-0.219,0.599-0.473,1.184-0.691,1.782c-1.077,2.967-2.992,3.964-6.09,3.164
	C193.448,454.698,191.73,452.423,191.606,448.94z M216.224,360.21c-1.088,0.405-2.435,0.506-3.128,1.231
	c-3.227,3.376-6.336,6.869-8.598,11.02c-0.778,1.428-1.722,2.771-2.64,4.118c-1.888,2.771-3.939,5.439-5.689,8.293
	c-3.17,5.169-6.146,10.458-9.247,15.67c-1.774,2.983-1.584,3.504,1.813,4.267c4.78,1.075,9.404,2.512,13.305,5.656
	c0.214,0.173,0.483,0.275,0.728,0.409c0.787,0.431,1.41,0.251,1.758-0.568c0.34-0.799,0.625-1.623,0.885-2.452
	c4.267-13.624,7.705-27.46,10.537-41.449C216.334,364.491,217.158,362.568,216.224,360.21z"/>
<path fill-rule="evenodd" clip-rule="evenodd" fill="#406274" d="M395.394,422.35c1.854-0.25,2.295,1.013,2.752,2.222
	c1.643,4.337,2.919,8.774,3.559,13.376c0.738,5.304,0.769,10.604-0.386,15.854c-1.455,6.613-6.806,10.869-13.57,11.005
	c-9.356,0.188-16.341-4.23-21.916-11.291c-4.342-5.5-6.813-11.931-9.013-18.512c-2.789-8.346-4.916-16.832-6.09-25.552
	c-0.902-6.701-1.512-13.424-1.237-20.199c0.221-5.471,0.999-10.78,3.845-15.635c2.63-4.487,6.671-6.416,11.612-6.986
	c3.695-0.426,6.83,1.234,10.085,2.529c5.738,2.283,8.326,6.914,9.448,12.608c0.291,1.477,0.459,3.043,0.297,4.526
	c-0.15,1.375-0.668,2.776-1.331,3.999c-0.266,0.488-1.397,0.798-2.062,0.7c-0.818-0.121-0.548-0.994-0.552-1.689
	c-0.017-2.789,0.158-5.633-0.323-8.354c-0.836-4.716-3.975-7.794-8.195-9.81c-1.22-0.583-2.492-1.069-3.769-1.52
	c-1.646-0.581-3.003,0.123-3.445,1.789c-1.53,5.753-2.8,11.5-2.585,17.564c0.219,6.189,0.077,12.389,0.945,18.543
	c1.01,7.157,2.623,14.186,4.521,21.155c1.85,6.793,4.101,13.415,7.811,19.465c1.745,2.846,3.709,5.491,6.18,7.753
	c1.624,1.486,3.494,2.517,5.588,3.136c1.793,0.529,2.724,0.194,3.864-1.286c2.426-3.148,4.202-6.62,4.765-10.578
	c0.466-3.278,0.836-6.582,1-9.887c0.225-4.539-0.543-8.991-1.698-13.375c-0.07-0.269-0.134-0.543-0.154-0.818
	C395.32,422.852,395.37,422.616,395.394,422.35z"/>
<path fill-rule="evenodd" clip-rule="evenodd" fill="#406274" d="M407.539,361.294c1.004,5.124,1.915,10.267,3.029,15.366
	c2.529,11.577,5.666,23.02,10.052,34.009c4.563,11.433,9.517,22.75,16.508,33.004c0.359,0.527,0.776,1.016,1.155,1.53
	c1.426,1.933,1.104,4.147-0.805,5.577c-3.636,2.725-9.055,1.766-11.457-2.078c-8.627-13.801-15.237-28.536-20.388-43.955
	c-3.993-11.957-7.042-24.17-10.042-36.398c-0.481-1.959-0.774-2.227-2.706-1.52c-4.319,1.581-8.706,1.9-13.195,1
	c-0.502-0.101-1.104-0.186-1.438-0.508c-0.369-0.357-0.691-1-0.645-1.48c0.04-0.404,0.6-1.021,0.997-1.079
	c1.652-0.24,3.332-0.433,4.997-0.405c3.493,0.058,6.548-1.227,9.478-2.9c0.428-0.244,0.668-0.955,0.823-1.499
	c0.161-0.564,0.143-1.188,0.152-1.786c0.021-1.325,0.708-2.115,1.968-2.328c2.157-0.363,4.339-0.586,6.488-0.984
	c1.986-0.367,3.968-0.808,5.912-1.356c2.483-0.701,4.897-1.674,7.403-2.266c1.235-0.291,2.621-0.081,3.918,0.076
	c1.188,0.144,1.714,1.057,1.15,2.093c-0.757,1.391-1.619,2.767-2.665,3.947c-1.164,1.313-2.617,1.394-3.945,0.224
	c-1.803-1.589-3.287-0.345-4.83,0.322C408.016,358.522,407.558,359.754,407.539,361.294z"/>
<path fill-rule="evenodd" clip-rule="evenodd" fill="#406274" d="M180.793,148.514c-0.038,0.741-0.152,1.438-0.095,2.12
	c0.477,5.646,0.945,11.294,1.515,16.931c0.139,1.372,0.674,2.699,0.973,4.06c0.503,2.3,0.142,4.525-0.695,6.69
	c-1.41,3.647-4.753,5.249-8.496,4.094c-2.688-0.83-4.476-2.646-5.756-5.084c-3.276-6.239-5.542-12.881-7.861-19.503
	c-2.329-6.651-3.56-13.561-4.816-20.464c-0.057-0.313-0.143-0.622-0.204-0.935c-0.212-1.074,0.07-1.79,1.293-1.944
	c1.578-0.199,3.142-0.554,4.724-0.667c1.424-0.102,2.194,0.456,2.561,1.84c0.345,1.302,0.534,2.658,0.663,4.003
	c0.724,7.572,2.861,14.786,5.63,21.816c1.78,4.52,3.806,8.943,5.777,13.385c0.326,0.733,0.937,1.34,1.46,2.067
	c1.415-1.397,1.549-3.079,1.585-4.676c0.094-4.198,0.081-8.4-0.013-12.598c-0.032-1.42-0.594-2.828-0.634-4.249
	c-0.072-2.507,0.089-5.02,0.113-7.531c0.008-0.793-0.129-1.587-0.168-2.382c-0.108-2.183-0.242-4.366-0.283-6.551
	c-0.032-1.678,0.06-3.358,0.103-5.038c0.039-1.516,0.324-1.842,1.832-1.889c1.117-0.035,2.237,0.011,3.354,0.055
	c1.858,0.074,2.489,0.568,2.912,2.383c0.67,2.872,1.303,5.752,1.935,8.633c1.967,8.96,4.036,17.891,7.924,26.269
	c0.688,1.48,1.496,2.907,2.299,4.33c0.682,1.208,1.066,1.256,2.08,0.253c0.908-0.899,1.718-1.899,2.637-2.785
	c0.288-0.278,0.792-0.332,1.197-0.488c0.028,0.404,0.206,0.875,0.059,1.199c-0.719,1.581-1.261,3.345-2.353,4.632
	c-2.755,3.249-7.264,3.068-10.015-0.196c-2.269-2.691-3.705-5.855-5.042-9.068c-2.334-5.607-4.041-11.416-5.498-17.302
	c-0.105-0.423-0.229-0.841-0.358-1.258C181.115,148.622,181.002,148.606,180.793,148.514z"/>
<path fill-rule="evenodd" clip-rule="evenodd" fill="#406274" d="M390.563,144.218c0.674,0.032,1.328-0.082,1.869,0.115
	c1.562,0.566,3.098,0.412,4.562-0.146c0.506-0.192,1.026-0.91,1.143-1.47c1.588-7.609,3.104-15.233,4.642-22.853
	c0.197-0.977,0.445-1.944,0.614-2.925c0.155-0.901,0.538-1.256,1.481-0.924c1.201,0.423,2.45,0.708,3.646,1.144
	c2.213,0.806,2.775,1.87,2.232,4.161c-1.248,5.274-2.543,10.538-3.764,15.818c-0.331,1.433-0.484,2.908-0.681,4.369
	c-0.113,0.848,0.293,1.161,1.166,1.244c2.532,0.238,5.06,0.546,7.577,0.912c1.532,0.223,1.552,0.238,2.055-1.31
	c1.995-6.133,3.924-12.292,6.082-18.368c0.709-1.996,1.982-3.807,3.107-5.634c0.641-1.041,1.286-1.069,2.328-0.399
	c2.042,1.313,2.444,2.472,1.444,4.506c-4.568,9.296-7.6,19.11-9.506,29.249c-1.407,7.484-2.407,15.044-3.572,22.573
	c-0.091,0.588-0.032,1.198-0.069,1.796c-0.076,1.259-0.712,1.787-1.964,1.65c-2.656-0.289-3.977-1.98-3.525-4.646
	c0.624-3.696,1.329-7.378,1.97-11.071c0.783-4.519,1.558-9.04,2.29-13.567c0.395-2.434-0.301-3.26-2.759-3.32
	c-1.878-0.046-3.759-0.007-5.638,0.023c-1.451,0.023-1.97,0.4-2.236,1.811c-0.873,4.623-1.748,9.246-2.526,13.885
	c-0.745,4.445-1.373,8.91-2.049,13.367c-0.054,0.354-0.094,0.713-0.111,1.07c-0.11,2.158-1.076,2.992-3.26,2.8
	c-2.459-0.216-4.386-2.476-4.032-5.024c0.8-5.765,1.7-11.517,2.61-17.266c0.362-2.283,0.845-4.547,1.299-6.814
	c0.199-0.999-0.075-1.448-1.18-1.532c-1.18-0.09-2.381-0.321-3.496-0.711C391.376,146.401,390.535,145.767,390.563,144.218z"/>
<path fill-rule="evenodd" clip-rule="evenodd" fill="#406274" d="M487.564,148.591c-0.292,8.5-2.706,14.606-7.569,19.659
	c-1.657,1.721-3.443,3.349-5.335,4.805c-1.142,0.878-2.578,1.395-3.926,1.974c-0.613,0.264-1.091,0.516-0.661,1.184
	c2.255,3.507,2.364,7.56,2.984,11.483c0.205,1.3,0.356,2.608,0.531,3.914c0.098,0.734,0.428,1.06,1.253,1.098
	c0.62,0.029,1.765,0.54,1.741,0.71c-0.131,0.975-0.376,2.022-0.909,2.83c-0.449,0.682-1.352,0.508-2.07,0.077
	c-1.556-0.932-2.597-2.266-2.92-4.05c-0.745-4.117-1.416-8.246-2.14-12.367c-0.145-0.821-0.284-1.673-0.626-2.42
	c-0.301-0.657-0.775-1.345-1.361-1.738c-1.081-0.725-2.312-1.225-3.459-1.854c-0.751-0.413-1.072,0.026-1.208,0.62
	c-0.852,3.727-1.682,7.458-2.485,11.195c-0.158,0.738-0.146,1.511-0.261,2.261c-0.225,1.463-1.167,2.019-2.593,1.564
	c-2.735-0.873-4.159-3.402-3.771-6.278c1.078-7.975,3.333-15.671,5.633-23.336c1.551-5.168,3.644-10.174,5.496-15.252
	c0.331-0.908,0.846-1.78-0.749-2.113c-0.845-0.176-0.74-0.996-0.458-1.693c1.061-2.621,3.126-3.799,5.822-4.135
	c4.357-0.543,8.326,0.313,11.82,3.089c0.967,0.769,2.038,1.404,3.052,2.116C486.225,143.917,487.688,146.59,487.564,148.591z
	 M474.852,141.374c-1.439-0.034-2.124,0.284-2.271,1.41c-0.07,0.539-0.338,1.06-0.565,1.567c-3.629,8.087-6.461,16.457-8.863,24.979
	c-0.097,0.343-0.199,0.699-0.206,1.05c-0.014,0.72,0.286,1.094,1.039,0.709c1.348-0.687,2.814-1.219,4.009-2.114
	c7.505-5.625,12.25-12.912,13.111-22.431c0.05-0.559-0.051-1.291-0.381-1.698C479.103,142.851,476.974,141.677,474.852,141.374z"/>
<path fill-rule="evenodd" clip-rule="evenodd" fill="#406274" d="M307.459,145.415c0.959-8.833,3.648-17.091,7.48-25.014
	c1.854-3.833,4.468-7.084,7.657-9.877c0.317-0.278,0.871-0.476,1.279-0.425c1.579,0.196,3.177,0.399,4.698,0.837
	c0.522,0.15,1.157,0.974,1.202,1.533c0.224,2.816,0.553,5.67,0.326,8.469c-0.753,9.314-2.143,18.582-1.938,27.962
	c0.104,4.794,0.232,9.583,2.2,14.1c0.322,0.739,0.376,1.633,0.389,2.458c0.021,1.315-0.802,2.123-2.066,1.801
	c-1.062-0.27-2.242-0.782-2.959-1.563c-2.115-2.304-2.799-5.34-3.569-8.258c-1.278-4.841-1.285-9.828-1.053-14.769
	c0.295-6.3,0.93-12.583,1.401-18.875c0.224-2.988,0.427-5.979,0.602-8.97c0.065-1.118-0.645-1.52-1.607-0.893
	c-0.522,0.34-0.989,0.815-1.37,1.313c-2.986,3.908-5.174,8.255-6.609,12.935c-1.541,5.021-3.32,9.981-4.021,15.237
	c-0.677,5.084-1.106,10.165-0.668,15.292c0.081,0.955,0.084,1.917,0.09,2.877c0.016,2.665-1.485,3.714-4.071,2.861
	c-1.545-0.51-2.502-1.857-2.643-3.641c-1.102-13.98-0.669-27.97-0.213-41.958c0.059-1.787,0.44-3.563,0.685-5.343
	c0.111-0.803,0.663-1.123,1.375-0.939c1.424,0.368,2.833,0.803,4.226,1.278c0.818,0.279,1.154,0.973,1.076,1.81
	c-0.358,3.85-0.723,7.7-1.116,11.546c-0.341,3.331-0.833,6.651-1.05,9.989c-0.152,2.346,0.037,4.714,0.093,7.072
	C307.295,144.646,307.399,145.03,307.459,145.415z"/>
<path fill-rule="evenodd" clip-rule="evenodd" fill="#406274" d="M332.908,393.616c1.47,0.119,2.96,0.125,4.404,0.385
	c1.966,0.353,2.947,1.675,2.829,3.67c-0.235,3.985-0.688,7.965-0.761,11.953c-0.099,5.509,0.057,11.024,0.136,16.536
	c0.026,1.797,0.143,3.593,0.242,5.388c0.438,7.948,2.208,15.698,3.518,23.517c0.672,4.014-1.677,6.307-5.737,5.565
	c-3.926-0.717-5.888-3.029-6.492-7.591c-0.498-3.756-1.107-7.497-1.534-11.26c-0.612-5.393-1.164-10.793-1.632-16.2
	c-0.666-7.691-0.822-15.401-0.469-23.116c0.11-2.394,0.283-4.785,0.483-7.173c0.118-1.411,0.596-1.784,2.015-1.767
	c0.52,0.006,1.04,0.022,1.559,0.048c0.479,0.024,0.957,0.066,1.436,0.101C332.905,393.653,332.907,393.634,332.908,393.616z"/>
<path fill-rule="evenodd" clip-rule="evenodd" fill="#406274" d="M365.495,126.229c-0.35,0.583-0.56,1.202-0.983,1.585
	c-0.823,0.745-1.817,1.302-2.637,2.05c-0.377,0.344-0.833,1.075-0.703,1.425c1.018,2.74,0.854,5.604,0.934,8.417
	c0.142,4.986,0.285,9.98-0.602,14.938c-0.725,4.049-2.8,7.399-5.49,10.32c-3.253,3.531-9.994,2.847-13.231-1.129
	c-2.074-2.547-2.884-5.55-3.139-8.754c-0.656-8.245,0.299-16.33,2.379-24.305c0.521-1.999,1.088-3.988,1.525-6.005
	c0.165-0.759,0.113-1.595,0.011-2.377c-0.684-5.244,3.535-8.676,8.544-6.851c2.185,0.796,4.213,1.816,5.117,4.288
	c0.763,2.086,1.816,4.065,2.684,6.116c0.53,1.254,0.834,1.406,2.048,0.802C362.962,126.245,363.917,125.44,365.495,126.229z
	 M346.634,150.969c0,1-0.064,2.004,0.012,2.999c0.195,2.545,0.354,5.098,1.648,7.413c0.981,1.756,1.187,1.825,2.705,0.581
	c3.204-2.623,4.852-6.151,5.4-10.114c0.546-3.951,0.754-7.953,0.984-11.94c0.142-2.46,0.055-4.935,0.058-7.402
	c0.001-0.965-0.559-1.297-1.469-1.328c-1.477-0.049-2.968-0.067-4.422-0.298c-1.297-0.207-1.766,0.327-2.112,1.463
	C347.582,138.417,346.548,144.608,346.634,150.969z M354.716,121.917c-1.112,1.783-2.127,3.354-3.082,4.959
	c-0.524,0.882-0.284,1.525,0.713,1.648c1.093,0.135,2.227,0.088,3.323-0.043c0.361-0.043,0.945-0.596,0.945-0.915
	C356.614,125.563,356.229,123.647,354.716,121.917z M347.803,119.055c1.012-0.169,1.999-0.58,2.881-0.417
	c0.955,0.177,1.812,0.888,2.741,1.383c0.355-1.33-0.238-2.338-1.49-2.764C350.3,116.702,348.482,117.503,347.803,119.055z"/>
<path fill-rule="evenodd" clip-rule="evenodd" fill="#C2B59B" d="M249.388,196.443c-4.068,0.021-7.794,1.439-11.582,2.711
	c-5.145,1.728-9.169,5.122-13.216,8.498c-5.413,4.514-10.995,8.783-17.207,12.151c-6.719,3.644-13.846,5.985-21.528,6.361
	c-3.766,0.184-7.523,0.07-11.081-1.417c-2.338-0.978-4.179-2.455-4.953-5.016c-0.729-2.415-0.051-4.6,1.101-6.655
	c1.571-2.802,3.688-5.142,6.563-6.663c2.232-1.181,4.617-1.802,7.166-1.27c3.16,0.66,4.86,4.799,3.179,7.559
	c-1.017,1.669-2.481,2.426-4.376,2.431c-0.277,0-0.685-0.136-0.795-0.338c-0.11-0.2,0.009-0.606,0.152-0.847
	c0.198-0.334,0.467-0.773,0.788-0.859c0.936-0.251,1.659-0.759,1.457-1.72c-0.217-1.035-0.585-2.171-1.255-2.947
	c-1.023-1.186-2.615-1.169-3.904-0.562c-3.357,1.583-5.748,4.147-6.844,7.756c-0.509,1.677,0.04,3.165,1.225,4.401
	c1.852,1.933,4.257,2.788,6.795,3.289c4.479,0.885,8.917,0.456,13.289-0.69c6.728-1.764,12.839-4.89,18.403-8.985
	c4.921-3.623,9.62-7.548,14.398-11.363c4.492-3.585,9.319-6.598,14.871-8.202c5.024-1.452,10.144-1.74,14.998,0.559
	c4.37,2.069,8.363,4.64,10.122,9.613c2.261,6.393-0.827,12.83-5.608,16.096c-1.92,1.312-4.049,2-6.399,2.086
	c-3.429,0.126-5.869-1.367-7.311-4.41c-1.921-4.053-1.903-8.034,0.841-11.766c1.776-2.416,4.3-3.112,7.125-2.732
	c2.476,0.333,4.2,2.835,3.816,5.272c-0.195,1.238-1.865,2.251-2.955,1.745c-0.237-0.11-0.342-0.492-0.526-0.735
	c-0.835-1.099-1.623-2.241-2.538-3.27c-0.56-0.629-1.396-0.588-1.884,0.094c-0.635,0.887-1.362,1.853-1.559,2.878
	c-0.427,2.219-0.215,4.455,0.802,6.546c1.977,4.064,6.313,4.945,9.77,1.981c4.491-3.85,5.128-10.971,1.421-15.6
	C258.869,198.335,254.598,196.403,249.388,196.443z"/>
<path fill-rule="evenodd" clip-rule="evenodd" fill="#406274" d="M139.8,137.464c1.731,0.728,1.847,2.174,1.965,3.693
	c0.486,6.255,2.995,11.947,4.99,17.788c1.75,5.124,3.6,10.231,4.981,15.458c1.291,4.883,0.985,9.911-0.071,14.851
	c-0.534,2.5-2.533,4.085-5.248,4.334c-3.662,0.336-6.712-0.877-8.631-4.028c-3.267-5.364-4.424-11.079-1.909-17.118
	c0.992-2.383,2.751-3.766,5.476-3.665c0.967,0.036,1.213-0.34,0.857-1.345c-2.41-6.792-4.821-13.586-7.076-20.431
	c-0.604-1.832-0.673-3.841-0.973-5.771c-0.252-1.627-0.36-1.703-1.878-1.128c-1.453,0.55-2.873,1.223-4.365,1.627
	c-1.003,0.271-2.112,0.247-3.165,0.189c-0.37-0.02-0.713-0.533-1.069-0.821c0.282-0.298,0.509-0.756,0.852-0.872
	c6.262-2.11,12.502-4.296,18.831-6.188c1.961-0.586,4.168-0.378,6.265-0.451c0.326-0.011,0.668,0.422,1.002,0.65
	c-0.308,0.257-0.584,0.679-0.927,0.742c-1.682,0.312-3.4,0.447-5.071,0.803c-1.6,0.341-3.158,0.878-4.735,1.328
	C139.868,137.229,139.834,137.347,139.8,137.464z M145.513,185.492c-0.254-5.169-0.51-9.75-2.032-14.139
	c-0.602-1.735-1.609-2.263-3.318-1.52c-0.892,0.388-1.746,1.117-2.33,1.905c-1.458,1.968-1.356,4.259-0.99,6.553
	c0.75,4.688,2.621,8.76,6.414,11.792c0.981,0.785,1.48,0.687,1.722-0.546C145.276,188.018,145.391,186.464,145.513,185.492z"/>
<path fill-rule="evenodd" clip-rule="evenodd" fill="#406274" d="M219.092,169.193c0.092-5.624-2.038-10.453-5.448-14.749
	c-1.732-2.183-3.649-4.233-5.615-6.213c-3.296-3.32-6.765-6.484-8.381-11.067c-1.228-3.484-2.126-7.044-1.859-10.767
	c0.365-5.099,5.091-10.073,10.121-10.807c0.395-0.058,0.783-0.167,1.178-0.208c4.458-0.47,7.189,1.291,8.408,5.655
	c0.484,1.732,0.643,3.596-1.104,4.914c-0.231,0.174-0.652,0.422-0.783,0.334c-0.253-0.169-0.393-0.542-0.521-0.855
	c-0.07-0.173-0.056-0.401-0.02-0.594c0.473-2.475-0.768-4.396-2.152-6.188c-0.444-0.576-1.372-1.031-2.109-1.08
	c-1.94-0.127-3.579,0.662-4.759,2.263c-1.66,2.251-2.113,4.666-1.879,7.526c0.511,6.246,3.106,11.313,7.604,15.507
	c1.166,1.087,2.553,1.939,3.699,3.044c4.036,3.894,7.092,8.456,9.493,13.543c1.594,3.378,2.104,6.772,1.349,10.336
	c-0.304,1.435-0.849,2.984-1.759,4.092c-2.769,3.373-6.23,5.33-10.816,4.138c-0.886-0.23-1.786-0.414-2.657-0.688
	c-3.572-1.122-4.683-3.189-3.833-6.859c0.367-1.584,1.393-2.458,2.799-2.988c0.282-0.106,0.669,0.066,1.009,0.11
	c-0.046,0.328,0.017,0.733-0.154,0.972c-1.524,2.13-0.765,4.189,0.615,5.816c0.766,0.903,2.348,1.235,3.63,1.517
	c0.5,0.109,1.258-0.542,1.771-0.992C218.503,173.522,219.121,171.807,219.092,169.193z"/>
<path fill-rule="evenodd" clip-rule="evenodd" fill="#406274" d="M371.538,162.808c-0.049-13.399,2.566-26.398,6.122-39.247
	c0.553-1.997,1.097-3.996,1.651-5.992c0.399-1.437,0.3-1.693-1.185-1.923c-2.564-0.396-4.773-1.506-6.757-3.127
	c-0.276-0.226-0.617-0.45-0.749-0.752c-0.137-0.312-0.198-0.827-0.028-1.056c0.176-0.237,0.726-0.404,1.015-0.309
	c0.79,0.26,1.581,0.593,2.277,1.042c1.713,1.106,3.618,1.394,5.586,1.531c0.861,0.061,1.469-0.231,1.839-1.02
	c0.54-1.148,1.391-1.44,2.557-0.943c1.134,0.482,2.255,1.03,3.434,1.363c1.832,0.517,3.731,0.796,5.558,1.328
	c1.396,0.406,2.783,0.935,4.062,1.619c1.078,0.577,1.033,1.23,0.026,1.884c-0.63,0.409-1.317,0.764-2.024,1.013
	c-1.239,0.437-1.955,0.191-2.432-1.002c-0.547-1.366-1.697-1.14-2.72-1.239c-0.969-0.094-1.588,0.479-1.887,1.354
	c-1.209,3.544-2.627,7.037-3.541,10.657c-1.666,6.604-3.427,13.226-4.413,19.947c-1.082,7.375-1.735,14.854-0.948,22.352
	c0.25,2.374-0.875,3.43-3.248,3.134c-2.323-0.29-4.13-2.191-4.184-4.501C371.5,166.885,371.538,164.846,371.538,162.808z"/>
<path fill-rule="evenodd" clip-rule="evenodd" fill="#406274" d="M231.111,127.692c0-3.078,0-6.156,0-9.235
	c0-1.467-0.191-1.659-1.694-1.494c-2.653,0.291-5.179-0.169-7.554-1.338c-0.477-0.235-1.105-0.884-1.07-1.291
	c0.083-0.968,1-0.694,1.632-0.614c0.868,0.11,1.722,0.486,2.58,0.48c1.814-0.012,3.641-0.112,5.433-0.377
	c0.417-0.062,0.878-0.878,1.036-1.429c0.339-1.185,1.039-1.626,2.205-1.486c1.384,0.167,2.766,0.426,4.154,0.467
	c1.425,0.042,2.858-0.205,4.286-0.188c1.734,0.02,3.496,0.022,5.189,0.334c1.381,0.255,1.466,0.959,0.477,2.011
	c-0.383,0.406-0.785,0.803-1.224,1.147c-1.218,0.957-1.968,0.936-2.98-0.22c-0.853-0.973-1.819-0.547-2.767-0.389
	c-0.948,0.159-1.474,0.781-1.52,1.735c-0.221,4.587-0.667,9.18-0.572,13.762c0.124,5.944,0.333,11.928,1.145,17.806
	c1.045,7.563,2.337,15.131,5.29,22.272c0.639,1.544,0.065,2.772-1.499,3.336c-2.516,0.906-5.384-0.428-6.214-2.966
	c-2.486-7.599-4.267-15.366-5.065-23.322c-0.634-6.313-1.007-12.654-1.497-18.982C230.957,127.707,231.034,127.7,231.111,127.692z"
	/>
<path fill-rule="evenodd" clip-rule="evenodd" fill="#406274" d="M434.732,131.489c0.369-1.149,1.104-1.43,2.08-1.403
	c2.73,0.076,5.339,0.583,7.951,1.478c2.736,0.938,5.644,1.378,8.474,2.042c0.426,0.1,0.903,0.148,1.248,0.381
	c0.382,0.258,0.948,0.778,0.881,1.047c-0.117,0.476-0.615,1.153-1.021,1.204c-1.004,0.125-2.048-0.042-3.073-0.117
	c-1.033-0.076-2.062-0.224-3.096-0.264c-0.905-0.035-1.487,0.426-1.722,1.338c-1.358,5.284-2.735,10.563-4.095,15.847
	c-0.198,0.771-0.366,1.552-0.505,2.336c-0.283,1.602-0.142,1.721,1.435,1.745c1.316,0.021,2.633,0.126,3.946,0.235
	c0.379,0.031,0.747,0.202,1.152,0.317c-0.285,1.341-1.265,1.696-2.314,1.813c-1.067,0.12-2.153,0.096-3.231,0.091
	c-1.792-0.009-2.091,0.149-2.483,1.892c-1.255,5.559-2.488,11.124-3.681,16.696c-0.477,2.227,1.242,4.544,3.697,5.102
	c0.62,0.141,1.287,0.108,1.887,0.298c0.539,0.171,1.197,0.422,1.471,0.851c0.328,0.516,0.544,1.343,0.352,1.868
	c-0.125,0.344-1.086,0.601-1.627,0.534c-1.33-0.164-2.671-0.427-3.938-0.857c-1.581-0.537-3.104-1.255-4.63-1.942
	c-3.901-1.756-5.251-4.154-4.361-8.343c1.341-6.313,2.831-12.596,4.312-18.878c1.554-6.593,3.19-13.167,4.749-19.758
	c0.646-2.729,0.175-3.553-2.345-4.669C435.714,132.138,435.236,131.787,434.732,131.489z"/>
<path fill-rule="evenodd" clip-rule="evenodd" fill="#C2B59B" d="M485.445,356.068c-0.028,5.52-2.391,10.06-6.058,13.963
	c-4.561,4.854-9.921,8.704-15.855,11.682c-4.353,2.185-8.854,4.072-13.28,6.107c-4.139,1.902-8.14,4.039-10.697,8.004
	c-0.918,1.423-1.504,3.071-2.15,4.654c-0.271,0.662-0.507,1.234-1.324,1.005c-0.801-0.225-1.146-0.769-0.927-1.647
	c1.002-4.003,3.247-7.168,6.474-9.677c3.545-2.757,7.641-4.478,11.73-6.2c6.941-2.922,13.75-6.086,19.679-10.835
	c4.054-3.248,7.426-7.032,9.174-12.048c3.078-8.835-2.71-19.66-11.714-21.918c-3.173-0.796-6.252-0.344-9.111,1.025
	c-7.427,3.559-12.185,9.308-13.614,17.537c-0.519,2.985-0.034,5.905,1.328,8.633c1.984,3.973,5.869,5.314,9.891,3.422
	c2.025-0.953,3.534-2.467,4.499-4.482c0.795-1.658,0.482-3.232-1.027-4.232c-2.213-1.465-4.599-2.5-7.385-2.198
	c-0.379,0.041-1.11-0.409-1.157-0.711c-0.074-0.482,0.139-1.195,0.494-1.525c2.139-1.981,5.829-2.278,8.402-0.772
	c2.988,1.75,4.366,5.145,3.474,8.561c-1.52,5.82-7.717,9.716-13.145,8.2c-3.164-0.884-5.097-3.171-6.426-6.04
	c-1.686-3.635-1.927-7.445-0.895-11.254c2.322-8.563,7.709-14.593,15.921-17.801c7.069-2.762,13.994-0.472,19.022,5.744
	C483.803,347.016,485.453,351.526,485.445,356.068z"/>
<path fill-rule="evenodd" clip-rule="evenodd" fill="#C2B59B" d="M161.279,351.689c-0.132,3.556-1.037,6.81-3.273,9.61
	c-2.549,3.192-6.355,4.27-10.228,2.935c-4.837-1.667-8.078-6.312-7.542-10.993c0.322-2.815,1.889-4.82,4.561-5.801
	c2.667-0.98,5.208-0.621,7.403,1.246c0.344,0.293,0.57,1.13,0.396,1.506c-0.16,0.347-0.923,0.442-1.438,0.583
	c-0.207,0.057-0.491-0.149-0.687-0.081c-2.06,0.719-4.216,1.266-6.13,2.27c-1.739,0.912-2.043,2.633-1.114,4.359
	c1.699,3.156,4.323,5.036,7.963,5.119c2.479,0.057,4.345-1.25,5.636-3.309c1.992-3.178,2.486-6.7,1.687-10.279
	c-1.857-8.314-6.859-14.096-14.854-16.993c-5.985-2.169-11.973,0.04-16.07,5.442c-5.396,7.115-4.876,15.796,1.376,23.045
	c4.455,5.164,10.113,8.676,16.152,11.613c3.665,1.783,7.443,3.331,11.165,4.997c3.846,1.722,7.592,3.602,10.588,6.677
	c1.934,1.985,3.316,4.291,4.088,6.954c0.121,0.417,0.335,0.927,0.198,1.271c-0.177,0.444-0.612,0.953-1.038,1.072
	c-0.287,0.081-0.869-0.385-1.104-0.746c-0.292-0.452-0.343-1.054-0.534-1.579c-1.266-3.482-3.526-6.238-6.68-8.063
	c-3.166-1.831-6.491-3.417-9.844-4.888c-6.528-2.864-12.911-5.965-18.545-10.399c-3.178-2.501-6.189-5.168-8.521-8.541
	c-5.539-8.01-3.925-17.664,1.86-24.07c2.681-2.968,5.833-5.096,9.833-5.749c3.191-0.521,6.325-0.155,9.256,1.203
	c7.566,3.506,12.652,9.19,14.783,17.336C160.984,348.82,161.068,350.271,161.279,351.689z"/>
<path fill-rule="evenodd" clip-rule="evenodd" fill="#C2B59B" d="M235.305,323.233c-5.409,0.409-10.975,1.597-16.046,4.794
	c-5.951,3.751-12.08,7.202-18.853,9.333c-5.56,1.749-11.2,2.457-17.014,1.682c-2.683-0.357-5.254-0.963-7.598-2.363
	c-3.195-1.909-4.068-5.087-2.279-8.322c2.303-4.167,7.301-6.784,11.618-6.085c2.246,0.364,3.552,2.202,3.303,4.649
	c-0.204,2.01-1.87,3.469-3.929,3.367c-0.417-0.02-0.821-0.294-1.231-0.452c0.314-0.39,0.581-1.057,0.952-1.121
	c1.494-0.257,1.635-1.198,1.412-2.375c-0.256-1.351-1.221-2.254-2.575-2.198c-0.927,0.039-2.013,0.152-2.724,0.66
	c-1.506,1.074-3.01,2.271-4.15,3.707c-1.389,1.75-1.036,3.723,0.583,5.282c2.485,2.393,5.609,3.286,8.928,3.614
	c8.466,0.835,16.084-1.892,23.354-5.806c3.97-2.138,7.679-4.77,11.691-6.814c5.292-2.695,10.808-4.921,16.973-4.155
	c2.923,0.362,5.582,1.342,7.938,3.29c2.039,1.685,3.92,3.372,4.936,5.883c2.467,6.1-1.702,13.524-8.21,14.565
	c-3.945,0.631-6.555-0.444-7.805-3.48c-1.356-3.298-1.096-6.487,1.264-9.332c1.564-1.885,3.623-2.417,5.939-1.994
	c2.007,0.366,3.258,2.246,2.971,4.274c-0.183,1.291-1.314,2.011-2.51,1.535c-0.223-0.089-0.339-0.473-0.481-0.734
	c-0.489-0.901-0.905-1.85-1.472-2.699c-0.451-0.678-1.129-0.669-1.771-0.164c-0.188,0.147-0.39,0.285-0.549,0.46
	c-1.878,2.068-1.715,7.091,0.287,9.028c1.525,1.475,3.341,1.751,5.426,0.827c4.49-1.993,6.271-7.993,3.681-12.505
	C244.791,325.099,240.685,323.392,235.305,323.233z"/>
<path fill-rule="evenodd" clip-rule="evenodd" fill="#C2B59B" d="M440.471,328.208c-2.152,0.807-3.841,0.085-4.538-1.663
	c-0.711-1.781,0.051-3.889,1.703-4.583c1.631-0.686,3.308-0.54,4.934-0.012c2.525,0.818,4.498,2.427,5.959,4.615
	c1.863,2.789,1.274,5.913-1.68,7.489c-1.86,0.992-3.986,1.685-6.072,2.022c-10.125,1.643-19.024-1.919-27.566-6.813
	c-2.255-1.292-4.491-2.614-6.747-3.901c-2.907-1.659-6.145-2.176-9.386-2.68c-2.702-0.42-5.344-0.243-7.886,0.803
	c-3.675,1.513-7.365,6.024-5.647,10.958c0.778,2.237,2.171,3.904,4.476,4.658c2.096,0.686,4.09-0.16,4.961-2.183
	c0.919-2.136,0.886-4.308-0.357-6.32c-0.854-1.381-1.905-1.327-2.771,0.046c-0.274,0.437-0.604,0.913-0.658,1.399
	c-0.116,1.034-0.828,1.183-1.499,0.94c-0.486-0.176-1.042-0.768-1.153-1.266c-0.394-1.765,0.74-3.317,2.544-3.721
	c3.284-0.735,6.494,1.768,6.86,5.504c0.118,1.202-0.007,2.501-0.349,3.66c-1.022,3.468-4.609,4.87-8.448,3.317
	c-3.469-1.403-5.782-3.945-6.321-7.687c-0.552-3.827,1.2-6.74,4.125-9.16c6.065-5.017,12.567-4.222,19.029-1.301
	c4.384,1.981,8.505,4.552,12.716,6.908c5.395,3.017,11.056,5.21,17.276,5.661c3.686,0.267,7.277-0.145,10.515-2.121
	c0.702-0.429,1.35-1.014,1.88-1.646c0.97-1.158,1.08-2.487,0.294-3.792c-1.154-1.917-2.815-3.271-4.927-4
	c-1.78-0.615-3.414,0.308-3.627,2.014c-0.101,0.808-0.041,1.584,1.055,1.83C439.587,327.277,439.923,327.76,440.471,328.208z"/>
<path fill-rule="evenodd" clip-rule="evenodd" fill="#C2B59B" d="M449.011,214.747c-2.58,0.438-4.088-0.587-4.404-2.635
	c-0.302-1.955,1.09-3.898,3.081-3.941c1.323-0.029,2.747,0.18,3.965,0.677c2.364,0.966,4.098,2.771,5.275,5.032
	c1.572,3.018,0.512,5.9-2.606,7.317c-2.502,1.136-5.165,1.292-7.849,1.25c-9.182-0.143-16.805-4.271-24.005-9.452
	c-2.108-1.516-4.081-3.256-6.311-4.56c-5.011-2.929-10.346-5.054-16.271-3.521c-3.797,0.982-6.26,3.586-6.899,7.612
	c-0.42,2.642,1.074,5.727,3.357,7.084c2.42,1.439,4.92,0.665,6.014-1.93c0.757-1.795,0.866-3.656,0.011-5.455
	c-0.705-1.483-1.739-1.57-2.737-0.285c-0.316,0.408-0.695,0.847-0.799,1.325c-0.202,0.934-0.823,1.063-1.444,0.735
	c-0.463-0.244-0.968-0.833-1.034-1.325c-0.253-1.856,1.075-3.292,3.001-3.43c2.639-0.19,5.005,1.619,5.702,4.343
	c0.431,1.686,0.285,3.34-0.336,4.938c-1.503,3.862-5.125,4.416-8.699,2.665c-3.239-1.586-5.189-4.364-5.352-7.98
	c-0.172-3.838,1.839-6.557,5.03-8.668c5.814-3.846,11.523-2.759,17.262-0.001c3.983,1.915,7.399,4.699,10.905,7.33
	c4.896,3.674,10.094,6.769,16.087,8.246c4.165,1.026,8.365,1.346,12.425-0.562c3.349-1.573,3.908-4.087,1.48-6.908
	c-1.199-1.392-2.476-2.768-4.54-2.788c-1.267-0.012-2.143,0.679-2.379,1.918c-0.148,0.782-0.125,1.488,0.872,1.818
	C448.214,213.728,448.491,214.229,449.011,214.747z"/>
<path fill-rule="evenodd" clip-rule="evenodd" fill="#406274" d="M247.516,565.375c0.733,6.063,1.23,12.167,2.257,18.181
	c1.491,8.735,3.525,17.378,5.014,26.113c0.876,5.147,1.117,10.4,1.698,15.601c0.639,5.717,1.268,11.453,3.062,16.946
	c0.724,2.218,1.824,4.337,2.966,6.381c0.519,0.93,1.476,1.681,2.374,2.316c1.724,1.222,2.253,2.73,1.345,4.391
	c-1.055,1.928-3.281,2.759-5.094,1.828c-3.36-1.725-5.77-4.388-7.38-7.771c-2.188-4.598-2.786-9.549-3.15-14.55
	c-0.375-5.139-0.479-10.322-1.267-15.398c-1.059-6.82-2.657-13.558-4.03-20.329c-2-9.867-3.923-19.747-4.502-29.826
	c-0.163-2.83-0.24-5.665-0.302-8.5c-0.046-2.119,1.075-3.415,2.925-3.511c2.257-0.117,3.997,1.161,4.24,3.188
	c0.1,0.828,0.029,1.676,0.058,2.514c0.027,0.798,0.082,1.594,0.125,2.39C247.741,565.35,247.628,565.362,247.516,565.375z"/>
</svg>
