<svg xmlns="http://www.w3.org/2000/svg" viewBox="0 0 511.998 511.998"><path d="M503.914 153.878a8.082 8.082 0 0 0 8.084-8.084v-31.459c0-20.619-16.774-37.394-37.393-37.394H37.393C16.774 76.942 0 93.716 0 114.336v283.326c0 20.62 16.774 37.395 37.393 37.395h437.214c20.619 0 37.393-16.775 37.391-37.395V172.024a8.082 8.082 0 0 0-8.084-8.084 8.082 8.082 0 0 0-8.084 8.084v225.637c0 11.705-9.522 21.227-21.225 21.227H37.393c-11.703 0-21.225-9.522-21.225-21.227V114.336c0-11.704 9.522-21.226 21.225-21.226h437.212c11.703 0 21.225 9.522 21.225 21.226v31.459a8.082 8.082 0 0 0 8.084 8.083z"/><path d="M186.584 226.037h-16.436v18.088h16.436v.002c6.507 0 11.029-2.315 11.029-8.824 0-6.949-4.853-9.266-11.029-9.266zM186.033 197.693h-15.886v15.11h15.886c3.529 0 8.381-1.876 8.381-7.5 0-5.735-4.082-7.61-8.381-7.61zM261.137 203.648h-.22l-8.934 27.576h17.868zM129.642 288.299h-11.24v12.229h11.846c4.254 0 6.533-2.278 6.533-6.378 0-4.025-3.19-5.851-7.139-5.851zM181.063 292.021h-.151l-6.152 18.99h12.305zM443.349 288.299h-11.24v12.229h11.85c4.252 0 6.529-2.278 6.529-6.378.001-4.025-3.188-5.851-7.139-5.851z"/><path d="M480.596 323.682c-.139-.995-.269-2.554-.387-4.656-.025-.448-.046-.833-.068-1.135a8.56 8.56 0 0 0-.025-.319c-.387-4.411-1.277-8.12-2.493-11.241 2.043-4.231 3.163-9.025 3.163-14.082 0-7.425-2.33-13.947-6.45-19.1a16.168 16.168 0 0 0 3.187-21.733l-25.399-37.028 20.084-21.379a16.11 16.11 0 0 0 4.512-11.203c0-8.929-7.236-16.168-16.166-16.168H435.07c-4.718 0-9.2 2.061-12.272 5.642l-.711.829a16.14 16.14 0 0 0-12.937-6.471h-20.516c-2.511 0-4.88.59-7 1.611a16.067 16.067 0 0 0-7-1.611h-19.305c-5.831 0-10.943 3.088-13.787 7.72a16.17 16.17 0 0 0-13.785-7.72h-21.07c-8.928 0-16.168 7.239-16.168 16.168v4.676l-3.865-10.339a16.171 16.171 0 0 0-15.146-10.505h-20.844a16.174 16.174 0 0 0-15.146 10.505l-5.732 15.331c-2.309-8.461-7.619-15.333-15.537-19.839-7.002-3.985-15.956-6.006-26.614-6.006h-.002c-.427 0-.855.003-1.281.01h-36.717c-2.224 0-4.341.449-6.269 1.261a16.143 16.143 0 0 0-6.293-1.27H51.558c-8.93 0-16.168 7.239-16.168 16.168v17.123c0 2.451.56 4.766 1.537 6.849a16.099 16.099 0 0 0-1.537 6.849v17.123c0 2.451.56 4.766 1.537 6.849a16.102 16.102 0 0 0-1.537 6.849v17.122c0 3.001.831 5.802 2.257 8.21a16.065 16.065 0 0 0-2.257 8.21v12.153c0 8.929 7.238 16.168 16.168 16.168h.011v25.912c0 8.929 7.24 16.168 16.168 16.168h14.126c4.354 0 8.298-1.73 11.205-4.528a16.1 16.1 0 0 0 11.205 4.528h14.13c3.821 0 7.333-1.326 10.101-3.543a16.159 16.159 0 0 0 10.101 3.543h13.979c.204 0 .407-.015.611-.024.125.003.247.024.374.024h14.51c5.124 0 9.831-2.416 12.836-6.335a16.164 16.164 0 0 0 12.833 6.335h14.737c.678 0 1.347-.044 2.01-.127a16.14 16.14 0 0 0 1.941.127h13.293a16.1 16.1 0 0 0 9.496-3.081 16.164 16.164 0 0 0 9.495 3.081h14.507c3.609 0 6.931-1.196 9.621-3.196 5.807 2.8 12.716 4.335 20.457 4.335 7.793 0 14.868-1.458 20.787-4.204a16.07 16.07 0 0 0 9.444 3.064h14.13c8.745 0 15.853-6.95 16.141-15.626.289 8.676 7.393 15.626 16.141 15.626h43.979c1.394 0 2.737-.195 4.026-.526 1.289.332 2.632.526 4.026.526h14.128c3.823 0 7.335-1.326 10.103-3.544a16.16 16.16 0 0 0 10.101 3.544h13.977c6.48 0 12.334-3.871 14.876-9.834a16.154 16.154 0 0 0-.568-13.866zM51.558 196.451v-14.652h85.514v17.123H51.558v-2.471zm0 30.82v-14.652h85.514v17.123H51.558v-2.471zm0 18.638v-2.472h85.514v17.122H51.558v-14.65zm46.486 43.226H81.863v42.08H67.737v-42.08H51.558v-12.153H98.044v12.153zm40.56 42.082v-.001c-.415-.621-.711-1.651-.932-2.796 0-.003 0-.008-.002-.011-.375-1.957-.524-4.245-.623-5.44l-.036-.413c-.382-5.469-1.29-11.089-7.899-11.089h-10.71v19.748h-14.131v-54.234h27.649c.598 0 1.193.017 1.787.052.402.024.8.066 1.198.106.19.018.383.027.572.05.485.058.965.136 1.442.219.098.017.198.027.294.044 7.472 1.382 13.695 5.907 13.695 14.797 0 4.025-1.33 7.905-4.015 10.653l-.001.001-.023.022c-.272.276-.559.537-.857.788-.097.081-.198.157-.297.236a12.078 12.078 0 0 1-1.792 1.185c-.115.064-.23.129-.348.19-.378.19-.765.369-1.172.526v.15c.324.077.631.175.929.282.096.036.189.074.283.112.203.082.4.17.592.266.095.047.19.094.282.144.219.121.429.251.634.389.043.029.089.055.131.084l.001.001c3.507 2.486 4.676 7.52 5.047 11.709.152 2.278.382 10.253 2.28 12.23h-13.978zm57.663-.001h-2.52l-3.339-9.724h-18.914l-2.848 8.107-.568 1.617h-14.51l20.279-54.234h14.355l20.281 54.234h-12.216zm9.11-73.804l-.006.002a30.623 30.623 0 0 1-3.949 1.426l-.069.021a39.635 39.635 0 0 1-4.232.951l-.154.026c-.711.117-1.432.222-2.167.309-.068.009-.137.015-.204.023-.687.079-1.381.147-2.085.2l-.205.017a60.95 60.95 0 0 1-2.168.119c-.152.005-.303.011-.455.015-.734.023-1.471.039-2.218.039h-37.832v-78.752h36.841c.383-.006.771-.01 1.156-.01l.061.001c.172 0 .346.002.52.004.247.002.495.003.743.009.18.003.36.011.54.015.241.008.482.013.723.023.185.006.371.017.556.026.236.012.472.023.707.037l.556.039c.236.017.472.032.705.053.188.016.372.034.558.053.232.023.464.043.695.068a96.08 96.08 0 0 1 1.245.152c.187.025.373.055.558.082.225.032.45.067.673.103.186.03.372.064.557.097a36.383 36.383 0 0 1 3.037.668c.179.047.356.098.532.149.208.059.415.12.621.183.175.054.347.11.52.166.204.066.407.135.608.205.17.06.338.123.508.187.198.073.393.15.59.227l.495.206c.192.082.383.166.57.252.162.073.322.15.48.226a20.313 20.313 0 0 1 1.543.828c.15.088.299.178.445.269a22.042 22.042 0 0 1 .933.622c.164.116.324.237.483.358.136.105.273.208.405.316.155.125.305.255.456.386.129.112.258.224.383.34.147.136.288.276.429.416.121.12.241.24.359.364.137.146.269.296.4.447.113.128.227.257.335.389.128.156.248.318.371.479.103.137.208.273.307.415.117.166.23.34.341.514.093.146.19.289.279.439.107.178.205.364.306.549.084.154.17.306.25.466.097.192.184.39.274.589.073.162.15.321.219.486.084.205.16.419.238.631.063.169.128.336.185.51.073.219.135.447.201.673.053.178.108.351.154.534.061.237.111.484.163.729.039.181.083.358.116.543.049.261.084.534.124.804.025.179.058.354.08.537.036.307.059.628.084.947.013.155.031.304.04.462.027.482.042.976.042 1.483 0 7.059-4.192 12.794-10.368 15.882.619.179 1.216.393 1.8.625.17.067.334.141.501.212.428.184.847.382 1.255.592.154.08.307.157.457.241.51.282 1.006.581 1.48.905.019.013.038.023.057.037.529.364 1.033.757 1.516 1.171.04.034.077.071.116.108.437.382.852.785 1.247 1.204.048.051.097.102.143.154a18.263 18.263 0 0 1 3.181 4.805c1.173 2.575 1.815 5.477 1.815 8.588-.003 11.331-5.045 17.904-12.756 21.334zm53.848 73.804H244.72l-18.841-33.801h-.152v33.801h-13.293v-54.235h14.507l18.837 33.421h.154v-33.421H259.225v54.235zm-11.986-84.773l-4.964 14.117H221.21l29.451-78.753h20.844l19.011 50.836 10.44 27.917h-21.399l-4.853-14.117h-27.465zm51.237 84.899l-.053.013a31.53 31.53 0 0 1-1.714.363l-.066.012a37.581 37.581 0 0 1-3.464.458l-.243.022a42.836 42.836 0 0 1-1.93.113c-.566.021-1.133.033-1.701.033-.572 0-1.139-.016-1.703-.039l-.329-.014a41.219 41.219 0 0 1-1.632-.114l-.276-.028a35.22 35.22 0 0 1-1.582-.193l-.098-.013a32.26 32.26 0 0 1-1.617-.287l-.265-.054a29.865 29.865 0 0 1-1.568-.372l-.13-.038a26.343 26.343 0 0 1-1.499-.456c-.039-.013-.078-.024-.115-.037-.501-.171-.99-.359-1.469-.558l-.203-.086c-.484-.206-.96-.425-1.421-.661l-.002-.001c-5.727-2.937-9.591-8.206-9.637-16.42h14.127c.305 6.38 4.254 8.429 10.255 8.429 4.252 0 8.659-1.518 8.659-5.544 0-4.786-7.748-5.697-15.57-7.901a67.657 67.657 0 0 1-1.84-.554l-.349-.111c-1.953-.628-3.874-1.373-5.637-2.312l-.006-.003c-4.566-2.43-8.042-6.166-8.042-12.666 0-6.905 4.053-11.356 9.449-13.871.055-.025.108-.052.162-.077.464-.211.937-.407 1.419-.591.068-.026.135-.053.203-.078.486-.181.98-.348 1.48-.501.053-.017.106-.031.157-.047 2.991-.898 6.191-1.317 9.235-1.317 2.522 0 5.047.29 7.438.886h.001c7.834 1.952 14.224 7.213 14.285 16.583h-14.128c.227-4.937-4.406-6.532-8.736-6.532-3.037 0-6.836 1.063-6.836 4.634 0 4.177 7.823 4.936 15.722 7.14.521.147 1.042.301 1.56.461l.088.028c7.247 2.258 14.076 6.046 14.076 15.155-.003 10.13-6.349 15.184-14.455 17.146zm61.018-43.043h-25.826v11.091h22.33v10.935h-22.33v20.891h-14.13v-54.234h39.956v11.317zm-5.931-27.737v-.001l-27.354-49.082h-.219v49.082H306.684v-78.753h21.07l27.354 48.532h.219v-48.532h19.305v78.754h-21.069zm56.366 70.654H365.95V276.983H409.17V288.3H380.077v9.495H406.662v10.937H380.077v10.332H409.929v12.152zm7.601-103.743l-8.383 8.824v24.264H388.63v-78.753h20.517v30.223l25.92-30.223h25.48l-29.12 30.995 32.76 47.759H438.71l-21.18-33.089zm34.784 103.743c-1.217-1.824-1.442-7.141-1.595-8.66-.379-5.469-1.29-11.089-7.899-11.089h-10.709v19.748h-14.128v-54.234H445.631c9.571 0 18.987 4.331 18.987 15.266 0 5.85-2.808 11.394-8.506 13.599v.15c5.772 1.369 7.444 7.823 7.899 12.99.154 2.278.379 10.253 2.28 12.23h-13.977z"/></svg>