<svg xmlns="http://www.w3.org/2000/svg" xmlns:xlink="http://www.w3.org/1999/xlink"><symbol viewBox="0 0 512 512" id="american-express" xmlns="http://www.w3.org/2000/svg"><path d="M226.444 232.637H200.18v-9.431h25.589v-9.426H200.18v-8.754h26.264v-10.099h-37.709v47.808h37.709zM285.707 194.927h11.448v47.137h-11.448zM399.501 293.912h-6.061c-1.347 0-2.69 0-4.04-.675-1.347-.668-2.69-1.342-2.69-3.363 0-1.345 0-2.694 1.343-3.368 1.347-.674 2.697-.674 4.716-.674h20.871v-11.446h-22.219c-12.124 0-16.162 7.408-16.162 14.143 0 14.812 12.794 14.139 23.568 14.812 2.019 0 3.368.675 4.042 1.347.674.675 1.343 2.016 1.343 3.365 0 1.348-.669 2.693-1.343 3.367-1.347 1.348-2.699 1.348-4.714 1.348h-21.551v10.1h21.551c11.444 0 17.507-4.717 17.507-14.816 0-4.713-1.347-8.08-3.368-10.101-2.694-2.692-6.734-4.039-12.793-4.039zM450.476 294.991c-2.038-.716-4.263-1.079-7.207-1.079H437.213c-1.349 0-2.697 0-4.04-.675-2.023-.668-2.699-1.342-2.699-3.363 0-1.345.676-2.694 1.352-3.368 1.347-.674 2.69-.674 4.714-.674h20.874v-11.446h-22.221c-1.248 0-2.39.097-3.472.246-9.032 1.717-12.69 7.497-12.69 13.898 0 14.812 12.796 14.139 23.568 14.812 2.019 0 3.364.675 4.038 1.347.674.675 1.347 2.016 1.347 3.365 0 1.348-.674 2.693-1.347 3.367-1.343 1.348-2.693 1.348-4.716 1.348H420.38v10.1h21.541c6.739 0 11.455-2.02 14.145-4.717 2.693-2.69 4.038-6.057 4.038-10.099 0-.874-.086-1.661-.206-2.417-1.384-7.207-7.558-9.971-9.422-10.645zM332.167 322.869h37.709v-10.1h-26.265v-9.428h25.59v-9.429h-25.59v-8.755h26.265v-10.098h-37.709z"/><path d="M503.916 153.88a8.082 8.082 0 0 0 8.084-8.084v-31.459c0-20.619-16.774-37.394-37.393-37.394H37.393C16.775 76.942 0 93.716 0 114.337v283.326c0 20.62 16.775 37.395 37.393 37.395h437.214c20.619 0 37.393-16.775 37.393-37.395V172.026a8.082 8.082 0 0 0-8.084-8.084 8.082 8.082 0 0 0-8.084 8.084v225.637c0 11.705-9.522 21.227-21.225 21.227H37.393c-11.704 0-21.225-9.522-21.225-21.227V114.337c0-11.704 9.521-21.226 21.225-21.226h437.214c11.703 0 21.225 9.522 21.225 21.226v31.459a8.082 8.082 0 0 0 8.084 8.084z"/><path d="M148.768 242.064v.001H152.865l15.665-35.511v.018l.675-1.545v37.038H179.98v-47.138h-18.183l-13.467 32.321-.216.698-6.101-13.854-8.496-18.491h-.025l-.317-.675h-17.84v45.115l-18.853-45.114H79.648l-19.922 47.138h11.836l2.478-5.311 2.236-4.79h22.898l4.714 10.101h22.893v-37.039l16.16 37.038h5.827zm-68.45-20.203l7.409-18.854 7.406 18.854H80.318zM324.754 242.734h12.796l4.04-10.771h23.57l1.962 4.906 2.078 5.195h11.446v.028h11.377v-6.161l.069.07v-29.629l21.547 35.691h14.817V195.6h-11.45v32.994L397.479 195.6h-16.833v45.115l-4.964-11.879-13.893-33.237h-16.834l-13.903 33.247-1.586 3.79h-4.714c-3.364 0-6.057-.674-8.08-2.697-2.69-2.693-3.366-6.059-3.366-11.447 0-4.713 1.347-8.753 3.366-10.771 2.697-2.023 4.716-2.695 8.756-2.695h10.775v-10.1h-10.775c-7.405.002-13.468 1.345-16.833 5.388-4.716 5.385-6.059 12.123-6.059 18.857 0 8.753 2.017 14.14 6.059 18.18 4.039 4.038 10.776 5.383 16.159 5.383zm28.956-39.728l7.411 18.854h-15.49l8.079-18.854zM245.294 231.972v-6.741h12.123c3.174 0 5.091.011 6.099.664a6.136 6.136 0 0 1 1.979 1.354c.848 1.129 1.328 2.495 1.615 3.899v.002c.296 1.457.382 2.946.4 4.264v.019c.006.434.009.856.009 1.243v5.389h10.099v-9.427c0-.41-.011-.788-.025-1.159l.002-.058c0-.037-.004-.069-.004-.107-.004-.064-.009-.127-.011-.191a18.854 18.854 0 0 0-.083-1.474c-.012-.127-.03-.245-.045-.37-.04-.346-.086-.686-.146-1.008-.021-.111-.044-.217-.065-.326-.07-.337-.148-.662-.236-.972-.019-.068-.037-.135-.057-.202-.111-.37-.232-.723-.364-1.055a10.576 10.576 0 0 0-1.392-2.489 7.599 7.599 0 0 0-.659-.798c-.019-.015-.042-.026-.059-.041-2.017-2.096-4.261-2.549-4.261-2.549 3.307-1.326 7.907-5.258 8.064-12.424-.078-5.203-2.07-8.49-5.37-10.471-3.368-2.02-7.411-2.02-13.467-2.02h-25.59v47.139h11.445v-10.091zm0-26.946h13.47c2.019 0 4.04 0 5.387.672.857.431 1.712 1.139 2.046 2.293l.004-.001c.017.055.015.102.027.156.046.196.084.397.101.614.377 2.374-.324 4.111-.935 5.078-.15.273-.331.511-.526.721-.091.105-.157.177-.157.177l-.004-.009a2.48 2.48 0 0 1-.556.4c-1.347.675-3.368.675-5.387.675h-13.47v-10.776z"/><path d="M480.988 292.837v-26.53c0-.335-.011-.67-.029-1.001v-1.022c0-8.929-7.24-16.168-16.168-16.168h-10.065v-62.617c0-8.929-7.238-16.168-16.168-16.168h-30.304c-.687 0-1.362.043-2.025.125a16.198 16.198 0 0 0-2.015-.125h-31.646c-.687 0-1.362.043-2.025.125a16.437 16.437 0 0 0-2.017-.125H325.43c-4.501 0-8.733.395-12.741 1.195a16.115 16.115 0 0 0-6.114-1.195h-30.303c-1.686 0-3.313.259-4.844.737-2.529-.49-5.181-.737-7.949-.737H155.066c-2.631 0-5.162.639-7.408 1.797a16.141 16.141 0 0 0-7.408-1.797h-34.343c-.57 0-1.133.029-1.688.087a16.133 16.133 0 0 0-1.679-.087H72.912a16.168 16.168 0 0 0-14.877 9.837l-13.401 31.491-15.415 34.185c-.056.122-.11.247-.162.371l-.285.675a16.168 16.168 0 0 0 14.9 22.444H78.73c3.091 0 6.033-.879 8.539-2.439a16.15 16.15 0 0 0 8.539 2.439h25.581v63.967c0 8.929 7.238 16.168 16.168 16.168h59.257c3.264 0 6.426-.987 9.089-2.796a16.17 16.17 0 0 0 9.089 2.796h37.711c3.315 0 6.396-.997 8.961-2.709a16.097 16.097 0 0 0 9.895 3.381h30.305c.568 0 1.129-.029 1.683-.086a16.4 16.4 0 0 0 1.682.086h91.579c2.596 0 6.185-.184 10.086-.924a16.15 16.15 0 0 0 5.402.924h28.955c6.779 0 16.676-.613 24.789-5.859 10.476-6.42 17.065-17.377 18.15-30.173.038-.304.071-.608.099-.916a16.25 16.25 0 0 0 .055-1.996c.005-.251.01-.515.01-.792 0-5.652-1.2-11.465-3.366-16.568zm-346.127-48.753v8.08H95.808l-4.04-10.774h-8.754l-4.041 10.099-.244.675H43.672l.285-.675 15.486-34.342 13.469-31.648h29.628l3.367 8.081v-8.081h34.343l7.406 16.835 7.411-16.835H263.48c5.389 0 9.427 1.348 12.794 4.041v-4.041h30.303v4.041c5.385-2.693 11.448-4.041 18.855-4.041h43.094l4.042 8.081v-8.081h31.646l4.04 8.081v-8.081h30.303v65.991h-31.646l-6.063-10.099v10.099H361.79l-4.04-10.771h-9.425l-4.04 10.771h-20.202c-8.082 0-14.139-2.017-18.181-4.04v4.04h-48.484v-14.814c0-2.021 0-2.021-1.345-2.021h-1.347v17.51H161.124v-8.08l-3.366 8.08h-19.526l-3.371-8.081zm333.241 67.361c-.581 7.854-4.488 14.436-10.688 18.157-4.038 2.696-10.103 3.368-16.162 3.368h-28.957V328.926c-3.368 2.694-9.425 4.043-15.488 4.043h-91.579V317.48c0-2.02 0-2.02-2.021-2.02h-1.343v17.509h-30.305v-18.183c-4.711 2.023-10.775 2.023-15.486 2.023h-3.37v15.488H214.993l-8.44-9.74-9.738 9.74h-59.257v-68.015H198.16l8.755 10.102 9.429-10.102h40.398c3.758 0 11.008.586 14.711 3.374h.001c.279.21.542.429.778.665v-4.039h36.364c3.364 0 10.775.675 14.815 4.039v-4.038h55.213v4.039c2.699-2.69 8.756-4.039 13.469-4.039h30.977v4.039s.02-.017.061-.047l.006-.005c.124-.095.417-.316.838-.608l.006-.004c1.651-1.146 5.262-3.374 8.383-3.374h32.425v2.023h.029v30.301c2.021 3.366 3.366 8.081 3.366 12.795 0 .44-.019.872-.04 1.306l.041.039c-.021.233-.054.465-.083.697z"/><path d="M257.416 275.734h-35.688l-14.142 15.486-.342.354-2.514-2.742-11.958-13.098h-43.77v47.136h43.096l14.813-15.49.628.724.045-.05 12.882 14.816h22.133v-7.408h.001v-10.099h13.469c10.097 0 19.526-2.696 19.526-16.163 0-1.762-.206-3.313-.558-4.709-2.936-7.047-10.692-8.757-17.621-8.757zm-70.703 37.71h-27.607v-10.103h24.915v-9.429h-24.915v-8.755h28.281l12.121 14.143-12.795 14.144zm44.445 5.382l-17.51-19.526 17.509-18.856v38.382zm26.259-21.548h-14.815v-12.121h14.139c4.042 0 6.737 2.023 7.411 6.063 0 4.039-2.695 6.058-6.735 6.058zM325.43 287.855c0-5.387-2.693-8.755-6.059-10.777-3.371-2.018-8.084-2.018-13.469-2.018h-25.587v47.811h11.446V305.364h12.12c4.04 0 6.737 0 8.08 2.016 2.023 2.023 2.023 6.734 2.023 9.432v6.059h11.446v-9.425c0-.457-.013-.891-.029-1.315l-.026-.45a23.775 23.775 0 0 0-.053-.752c-.017-.181-.033-.359-.053-.534-.022-.189-.046-.37-.071-.551-.027-.196-.054-.395-.086-.582-.015-.091-.036-.175-.053-.263a13.504 13.504 0 0 0-.594-2.191c-.012-.031-.023-.065-.036-.096a11.404 11.404 0 0 0-.28-.673c-.221-.48-.462-.933-.738-1.35-.674-1.347-2.695-2.698-6.063-4.04 3.369-1.348 8.082-5.389 8.082-12.794zm-12.122 3.365c0 2.017-.674 4.039-2.021 4.714-1.343.674-3.366.674-5.385.674h-13.469v-10.776h13.469c2.019 0 4.042 0 5.385.674 1.348.674 2.696 2.023 2.021 4.714z"/></symbol><symbol viewBox="0 0 511.998 511.998" id="bank-transfer" xmlns="http://www.w3.org/2000/svg"><path d="M503.914 153.878a8.082 8.082 0 0 0 8.084-8.084v-31.459c0-20.619-16.774-37.394-37.393-37.394H37.393C16.774 76.942 0 93.716 0 114.336v283.326c0 20.62 16.774 37.395 37.393 37.395h437.214c20.619 0 37.393-16.775 37.391-37.395V172.024a8.082 8.082 0 0 0-8.084-8.084 8.082 8.082 0 0 0-8.084 8.084v225.637c0 11.705-9.522 21.227-21.225 21.227H37.393c-11.703 0-21.225-9.522-21.225-21.227V114.336c0-11.704 9.522-21.226 21.225-21.226h437.212c11.703 0 21.225 9.522 21.225 21.226v31.459a8.082 8.082 0 0 0 8.084 8.083z"/><path d="M186.584 226.037h-16.436v18.088h16.436v.002c6.507 0 11.029-2.315 11.029-8.824 0-6.949-4.853-9.266-11.029-9.266zM186.033 197.693h-15.886v15.11h15.886c3.529 0 8.381-1.876 8.381-7.5 0-5.735-4.082-7.61-8.381-7.61zM261.137 203.648h-.22l-8.934 27.576h17.868zM129.642 288.299h-11.24v12.229h11.846c4.254 0 6.533-2.278 6.533-6.378 0-4.025-3.19-5.851-7.139-5.851zM181.063 292.021h-.151l-6.152 18.99h12.305zM443.349 288.299h-11.24v12.229h11.85c4.252 0 6.529-2.278 6.529-6.378.001-4.025-3.188-5.851-7.139-5.851z"/><path d="M480.596 323.682c-.139-.995-.269-2.554-.387-4.656-.025-.448-.046-.833-.068-1.135a8.56 8.56 0 0 0-.025-.319c-.387-4.411-1.277-8.12-2.493-11.241 2.043-4.231 3.163-9.025 3.163-14.082 0-7.425-2.33-13.947-6.45-19.1a16.168 16.168 0 0 0 3.187-21.733l-25.399-37.028 20.084-21.379a16.11 16.11 0 0 0 4.512-11.203c0-8.929-7.236-16.168-16.166-16.168H435.07c-4.718 0-9.2 2.061-12.272 5.642l-.711.829a16.14 16.14 0 0 0-12.937-6.471h-20.516c-2.511 0-4.88.59-7 1.611a16.067 16.067 0 0 0-7-1.611h-19.305c-5.831 0-10.943 3.088-13.787 7.72a16.17 16.17 0 0 0-13.785-7.72h-21.07c-8.928 0-16.168 7.239-16.168 16.168v4.676l-3.865-10.339a16.171 16.171 0 0 0-15.146-10.505h-20.844a16.174 16.174 0 0 0-15.146 10.505l-5.732 15.331c-2.309-8.461-7.619-15.333-15.537-19.839-7.002-3.985-15.956-6.006-26.614-6.006h-.002c-.427 0-.855.003-1.281.01h-36.717c-2.224 0-4.341.449-6.269 1.261a16.143 16.143 0 0 0-6.293-1.27H51.558c-8.93 0-16.168 7.239-16.168 16.168v17.123c0 2.451.56 4.766 1.537 6.849a16.099 16.099 0 0 0-1.537 6.849v17.123c0 2.451.56 4.766 1.537 6.849a16.102 16.102 0 0 0-1.537 6.849v17.122c0 3.001.831 5.802 2.257 8.21a16.065 16.065 0 0 0-2.257 8.21v12.153c0 8.929 7.238 16.168 16.168 16.168h.011v25.912c0 8.929 7.24 16.168 16.168 16.168h14.126c4.354 0 8.298-1.73 11.205-4.528a16.1 16.1 0 0 0 11.205 4.528h14.13c3.821 0 7.333-1.326 10.101-3.543a16.159 16.159 0 0 0 10.101 3.543h13.979c.204 0 .407-.015.611-.024.125.003.247.024.374.024h14.51c5.124 0 9.831-2.416 12.836-6.335a16.164 16.164 0 0 0 12.833 6.335h14.737c.678 0 1.347-.044 2.01-.127a16.14 16.14 0 0 0 1.941.127h13.293a16.1 16.1 0 0 0 9.496-3.081 16.164 16.164 0 0 0 9.495 3.081h14.507c3.609 0 6.931-1.196 9.621-3.196 5.807 2.8 12.716 4.335 20.457 4.335 7.793 0 14.868-1.458 20.787-4.204a16.07 16.07 0 0 0 9.444 3.064h14.13c8.745 0 15.853-6.95 16.141-15.626.289 8.676 7.393 15.626 16.141 15.626h43.979c1.394 0 2.737-.195 4.026-.526 1.289.332 2.632.526 4.026.526h14.128c3.823 0 7.335-1.326 10.103-3.544a16.16 16.16 0 0 0 10.101 3.544h13.977c6.48 0 12.334-3.871 14.876-9.834a16.154 16.154 0 0 0-.568-13.866zM51.558 196.451v-14.652h85.514v17.123H51.558v-2.471zm0 30.82v-14.652h85.514v17.123H51.558v-2.471zm0 18.638v-2.472h85.514v17.122H51.558v-14.65zm46.486 43.226H81.863v42.08H67.737v-42.08H51.558v-12.153H98.044v12.153zm40.56 42.082v-.001c-.415-.621-.711-1.651-.932-2.796 0-.003 0-.008-.002-.011-.375-1.957-.524-4.245-.623-5.44l-.036-.413c-.382-5.469-1.29-11.089-7.899-11.089h-10.71v19.748h-14.131v-54.234h27.649c.598 0 1.193.017 1.787.052.402.024.8.066 1.198.106.19.018.383.027.572.05.485.058.965.136 1.442.219.098.017.198.027.294.044 7.472 1.382 13.695 5.907 13.695 14.797 0 4.025-1.33 7.905-4.015 10.653l-.001.001-.023.022c-.272.276-.559.537-.857.788-.097.081-.198.157-.297.236a12.078 12.078 0 0 1-1.792 1.185c-.115.064-.23.129-.348.19-.378.19-.765.369-1.172.526v.15c.324.077.631.175.929.282.096.036.189.074.283.112.203.082.4.17.592.266.095.047.19.094.282.144.219.121.429.251.634.389.043.029.089.055.131.084l.001.001c3.507 2.486 4.676 7.52 5.047 11.709.152 2.278.382 10.253 2.28 12.23h-13.978zm57.663-.001h-2.52l-3.339-9.724h-18.914l-2.848 8.107-.568 1.617h-14.51l20.279-54.234h14.355l20.281 54.234h-12.216zm9.11-73.804l-.006.002a30.623 30.623 0 0 1-3.949 1.426l-.069.021a39.635 39.635 0 0 1-4.232.951l-.154.026c-.711.117-1.432.222-2.167.309-.068.009-.137.015-.204.023-.687.079-1.381.147-2.085.2l-.205.017a60.95 60.95 0 0 1-2.168.119c-.152.005-.303.011-.455.015-.734.023-1.471.039-2.218.039h-37.832v-78.752h36.841c.383-.006.771-.01 1.156-.01l.061.001c.172 0 .346.002.52.004.247.002.495.003.743.009.18.003.36.011.54.015.241.008.482.013.723.023.185.006.371.017.556.026.236.012.472.023.707.037l.556.039c.236.017.472.032.705.053.188.016.372.034.558.053.232.023.464.043.695.068a96.08 96.08 0 0 1 1.245.152c.187.025.373.055.558.082.225.032.45.067.673.103.186.03.372.064.557.097a36.383 36.383 0 0 1 3.037.668c.179.047.356.098.532.149.208.059.415.12.621.183.175.054.347.11.52.166.204.066.407.135.608.205.17.06.338.123.508.187.198.073.393.15.59.227l.495.206c.192.082.383.166.57.252.162.073.322.15.48.226a20.313 20.313 0 0 1 1.543.828c.15.088.299.178.445.269a22.042 22.042 0 0 1 .933.622c.164.116.324.237.483.358.136.105.273.208.405.316.155.125.305.255.456.386.129.112.258.224.383.34.147.136.288.276.429.416.121.12.241.24.359.364.137.146.269.296.4.447.113.128.227.257.335.389.128.156.248.318.371.479.103.137.208.273.307.415.117.166.23.34.341.514.093.146.19.289.279.439.107.178.205.364.306.549.084.154.17.306.25.466.097.192.184.39.274.589.073.162.15.321.219.486.084.205.16.419.238.631.063.169.128.336.185.51.073.219.135.447.201.673.053.178.108.351.154.534.061.237.111.484.163.729.039.181.083.358.116.543.049.261.084.534.124.804.025.179.058.354.08.537.036.307.059.628.084.947.013.155.031.304.04.462.027.482.042.976.042 1.483 0 7.059-4.192 12.794-10.368 15.882.619.179 1.216.393 1.8.625.17.067.334.141.501.212.428.184.847.382 1.255.592.154.08.307.157.457.241.51.282 1.006.581 1.48.905.019.013.038.023.057.037.529.364 1.033.757 1.516 1.171.04.034.077.071.116.108.437.382.852.785 1.247 1.204.048.051.097.102.143.154a18.263 18.263 0 0 1 3.181 4.805c1.173 2.575 1.815 5.477 1.815 8.588-.003 11.331-5.045 17.904-12.756 21.334zm53.848 73.804H244.72l-18.841-33.801h-.152v33.801h-13.293v-54.235h14.507l18.837 33.421h.154v-33.421H259.225v54.235zm-11.986-84.773l-4.964 14.117H221.21l29.451-78.753h20.844l19.011 50.836 10.44 27.917h-21.399l-4.853-14.117h-27.465zm51.237 84.899l-.053.013a31.53 31.53 0 0 1-1.714.363l-.066.012a37.581 37.581 0 0 1-3.464.458l-.243.022a42.836 42.836 0 0 1-1.93.113c-.566.021-1.133.033-1.701.033-.572 0-1.139-.016-1.703-.039l-.329-.014a41.219 41.219 0 0 1-1.632-.114l-.276-.028a35.22 35.22 0 0 1-1.582-.193l-.098-.013a32.26 32.26 0 0 1-1.617-.287l-.265-.054a29.865 29.865 0 0 1-1.568-.372l-.13-.038a26.343 26.343 0 0 1-1.499-.456c-.039-.013-.078-.024-.115-.037-.501-.171-.99-.359-1.469-.558l-.203-.086c-.484-.206-.96-.425-1.421-.661l-.002-.001c-5.727-2.937-9.591-8.206-9.637-16.42h14.127c.305 6.38 4.254 8.429 10.255 8.429 4.252 0 8.659-1.518 8.659-5.544 0-4.786-7.748-5.697-15.57-7.901a67.657 67.657 0 0 1-1.84-.554l-.349-.111c-1.953-.628-3.874-1.373-5.637-2.312l-.006-.003c-4.566-2.43-8.042-6.166-8.042-12.666 0-6.905 4.053-11.356 9.449-13.871.055-.025.108-.052.162-.077.464-.211.937-.407 1.419-.591.068-.026.135-.053.203-.078.486-.181.98-.348 1.48-.501.053-.017.106-.031.157-.047 2.991-.898 6.191-1.317 9.235-1.317 2.522 0 5.047.29 7.438.886h.001c7.834 1.952 14.224 7.213 14.285 16.583h-14.128c.227-4.937-4.406-6.532-8.736-6.532-3.037 0-6.836 1.063-6.836 4.634 0 4.177 7.823 4.936 15.722 7.14.521.147 1.042.301 1.56.461l.088.028c7.247 2.258 14.076 6.046 14.076 15.155-.003 10.13-6.349 15.184-14.455 17.146zm61.018-43.043h-25.826v11.091h22.33v10.935h-22.33v20.891h-14.13v-54.234h39.956v11.317zm-5.931-27.737v-.001l-27.354-49.082h-.219v49.082H306.684v-78.753h21.07l27.354 48.532h.219v-48.532h19.305v78.754h-21.069zm56.366 70.654H365.95V276.983H409.17V288.3H380.077v9.495H406.662v10.937H380.077v10.332H409.929v12.152zm7.601-103.743l-8.383 8.824v24.264H388.63v-78.753h20.517v30.223l25.92-30.223h25.48l-29.12 30.995 32.76 47.759H438.71l-21.18-33.089zm34.784 103.743c-1.217-1.824-1.442-7.141-1.595-8.66-.379-5.469-1.29-11.089-7.899-11.089h-10.709v19.748h-14.128v-54.234H445.631c9.571 0 18.987 4.331 18.987 15.266 0 5.85-2.808 11.394-8.506 13.599v.15c5.772 1.369 7.444 7.823 7.899 12.99.154 2.278.379 10.253 2.28 12.23h-13.977z"/></symbol><symbol viewBox="0 0 511.999 511.999" id="jcb" xmlns="http://www.w3.org/2000/svg"><path d="M503.915 153.88a8.083 8.083 0 0 0 8.084-8.084v-31.459c0-20.619-16.774-37.394-37.393-37.394H37.393C16.775 76.942 0 93.716 0 114.337v283.325c0 20.62 16.775 37.395 37.393 37.395h437.214c20.619 0 37.393-16.775 37.392-37.395V172.024c0-4.466-3.619-8.084-8.084-8.084s-8.084 3.618-8.084 8.084V397.66c0 11.705-9.522 21.227-21.225 21.227H37.393c-11.703 0-21.225-9.522-21.225-21.227V114.336c0-11.704 9.522-21.226 21.225-21.225h437.212c11.703 0 21.225 9.522 21.225 21.226v31.459a8.084 8.084 0 0 0 8.085 8.084z"/><path d="M87.754 365.555c0 9.213 7.495 16.707 16.707 16.707h53.432c12.155 0 24.739-4.786 35.133-13.231 1.605 7.55 8.318 13.231 16.338 13.231h52.938c12.663 0 25.798-5.18 36.43-14.294 1.176 8.07 8.122 14.294 16.512 14.294h52.943c13.487 0 27.508-5.875 38.47-16.119 11.886-11.108 18.433-25.59 18.433-40.782v-178.92c.001-9.213-7.494-16.707-16.706-16.707h-50.982c-15.004 0-28.452 4.561-38.637 12.947-1.712-7.404-8.346-12.947-16.264-12.947H251.03c-14.379 0-27.035 4.014-37.023 11.646-2.149-6.744-8.47-11.646-15.918-11.646h-51.961c-16.527 0-31.444 5.814-42.001 16.371-10.557 10.558-16.371 25.474-16.371 42.001v75.493c0 1.125.114 2.257.342 3.362l.016.078a33.925 33.925 0 0 0 2.066 6.493 16.661 16.661 0 0 0-2.424 8.692v83.331zm226.951-18.879v-61.017c0-.298.241-.539.539-.539h61.766c9.753 0 17.107-6.513 17.107-15.149 0-.51-.03-1.011-.083-1.507-.018-.17-.054-.335-.078-.503-.046-.321-.092-.642-.16-.955-.043-.203-.102-.398-.155-.596-.07-.271-.141-.541-.229-.805-.07-.215-.154-.424-.235-.634a13.082 13.082 0 0 0-.286-.703 12.664 12.664 0 0 0-.318-.652c-.106-.206-.212-.412-.329-.612a13.06 13.06 0 0 0-.409-.666 14 14 0 0 0-.862-1.196c-.113-.142-.232-.28-.349-.417-.204-.237-.411-.47-.63-.695-.1-.102-.205-.201-.308-.301-.253-.245-.51-.487-.78-.717-.064-.054-.129-.102-.193-.155-2.504-2.058-5.724-3.449-9.337-3.876a19.814 19.814 0 0 0-2.369-.156.539.539 0 1 1 0-1.078c1.044 0 2.067-.11 3.06-.317.232-.049.456-.117.684-.176.252-.066.508-.122.755-.201.234-.072.46-.164.689-.248.234-.085.47-.165.698-.261.225-.095.443-.206.663-.31.223-.106.447-.208.664-.326.213-.114.42-.241.628-.365.212-.126.426-.251.632-.388.202-.133.396-.275.591-.417.199-.147.4-.292.594-.447.186-.15.368-.306.548-.464a14.76 14.76 0 0 0 1.054-1.01 16.856 16.856 0 0 0 .96-1.099c.158-.201.313-.407.464-.615.135-.188.267-.375.393-.568.143-.218.278-.442.411-.667.115-.196.231-.391.337-.592.126-.237.241-.479.355-.722.094-.202.191-.4.276-.606.107-.255.199-.518.292-.781.072-.203.15-.402.212-.607.086-.281.156-.568.225-.856.049-.195.106-.388.146-.586.066-.324.111-.654.156-.984.023-.168.057-.333.073-.502.052-.503.08-1.011.08-1.524 0-8.477-7.16-15.639-15.638-15.639H315.242a.539.539 0 0 1-.539-.539v-33.823-1.835c0-8.293 2.48-15.011 5.054-19.756l.005-.011c2.037-3.753 4.127-6.267 5.098-7.342l.008-.008a23.684 23.684 0 0 1 .238-.26l.164-.174.01-.01c.043-.044.075-.078.1-.102l.01-.009.035-.036v.001c7.377-8.078 18.404-12.667 31.975-12.667h50.982a.54.54 0 0 1 .539.539v178.927h-.002c0 22.94-21.896 40.733-40.735 40.733h-52.943a.54.54 0 0 1-.539-.539v-18.882zm16.717-90.97h23.038c6.184 0 11.816 5.631 11.816 11.813 0 .297-.022.593-.05.886a9.914 9.914 0 0 1-.063.543v.003c-.783 5.592-6.002 10.382-11.704 10.382h-23.038a.54.54 0 0 1-.539-.539V256.243a.539.539 0 0 1 .54-.537zm-.539-4.853v-22.06a.54.54 0 0 1 .539-.539h22.551c5.885 0 11.258 5.104 11.762 10.929.028.293.05.589.05.885 0 .329-.019.652-.052.973a10.39 10.39 0 0 1-.125.906v.001c-.927 5.278-5.649 9.443-11.148 9.443h-23.038a.537.537 0 0 1-.539-.538zM208.827 349.79v-72.468a.54.54 0 0 1 .919-.382 26.381 26.381 0 0 0 5.053 3.928 28.668 28.668 0 0 0 3.514 1.796l.105.043c1.194.507 2.434.937 3.704 1.288.074.019.15.038.225.059.552.148 1.109.28 1.674.397.094.021.186.042.281.06.621.124 1.249.231 1.882.317.087.012.177.02.265.031a30.715 30.715 0 0 0 2.104.195c.627.038 1.257.064 1.891.064h55.345v-9.087c-12.04 2.618-24.601 3.792-31.816 3.792-14.083 0-25.54-11.457-25.54-25.54l.004-.334-.004-.156c0-14.083 11.457-25.54 25.54-25.54 5.948 0 18.378 1.341 31.816 4.282v-10.068h-55.344c-.691 0-1.367.035-2.036.085-.194.014-.383.033-.575.052-.508.05-1.009.112-1.504.187-.166.025-.335.047-.5.074-.638.11-1.268.235-1.882.383-.081.019-.16.043-.24.064a30.517 30.517 0 0 0-3.541 1.121c-.089.033-.18.066-.268.1-.579.229-1.146.471-1.697.725-.07.032-.139.068-.21.1-.482.226-.954.462-1.413.703l-.295.157c-.509.274-1.007.553-1.485.84a40.405 40.405 0 0 0-5.086 3.62.537.537 0 0 1-.883-.414v-42.646c0-9.021 2.109-16.898 5.969-23.313l.003-.004a35.811 35.811 0 0 1 6.228-7.712c.036-.032.07-.067.107-.1a36.411 36.411 0 0 1 5.85-4.412c.096-.058.192-.113.288-.17.613-.367 1.24-.716 1.881-1.05.1-.052.197-.106.296-.156a40.303 40.303 0 0 1 4.56-1.979c.153-.056.307-.107.461-.16a43.537 43.537 0 0 1 2.543-.804c.669-.19 1.349-.364 2.039-.526.148-.033.292-.072.44-.107.839-.188 1.69-.354 2.557-.498.167-.028.338-.05.507-.076a52.084 52.084 0 0 1 2.101-.286 58.38 58.38 0 0 1 2.786-.241c.273-.017.544-.037.819-.051a58.782 58.782 0 0 1 2.771-.071h51.471a.54.54 0 0 1 .539.539v17.635h-.003v161.286c0 7.354-2.258 14.173-5.937 20.053l-.117.183a41.091 41.091 0 0 1-1.503 2.218l-.098.138a43.297 43.297 0 0 1-1.752 2.245l-.048.057a44.92 44.92 0 0 1-1.787 2.006l-.207.222a46.344 46.344 0 0 1-4.324 3.982 46.356 46.356 0 0 1-4.33 3.122c-.133.085-.266.167-.4.25-.691.429-1.387.843-2.094 1.233-.057.031-.112.066-.168.096-.759.414-1.525.8-2.298 1.165l-.451.206c-.656.301-1.317.584-1.98.849-.141.056-.281.115-.422.169-.769.298-1.54.57-2.315.817-.147.047-.294.087-.44.133-.65.199-1.3.379-1.952.541-.186.046-.373.095-.558.138-.772.18-1.544.337-2.313.466-.108.018-.213.028-.32.045-.675.104-1.347.185-2.019.248-.203.018-.406.037-.608.053a31.07 31.07 0 0 1-2.294.096H209.37a.54.54 0 0 1-.539-.539V349.79zm-104.905-67.565a.539.539 0 0 1 .538-.539h.002a.538.538 0 0 1 .244.059.534.534 0 0 1 .245-.059c.009 0 .015.008.023.008a.526.526 0 0 1 .3.1c7.736 5.803 18.433 9.157 29.349 9.202 18.456-.087 45.77-10.102 45.77-31.32v-37.208h-31.764v37.699c0 11.484-9.294 20.145-21.618 20.145-11.164 0-21.086-7.137-23.077-16.602a.51.51 0 0 1-.012-.111v-75.493c0-25.243 16.961-42.204 42.204-42.204h51.961c.298 0 .539.241.539.539v13.753h.001v165.168c0 7.376-2.272 14.213-5.969 20.105l-.002.002c-.48.764-.983 1.51-1.508 2.241l-.043.061a44.591 44.591 0 0 1-3.429 4.183l-.074.08a45.684 45.684 0 0 1-1.839 1.869l-.047.046a46.837 46.837 0 0 1-4.015 3.426l-.233.175a46.54 46.54 0 0 1-1.979 1.411l-.117.081c-.728.485-1.464.951-2.212 1.391l-.071.04c-.677.398-1.364.773-2.054 1.132l-.429.22c-.658.333-1.32.649-1.988.944-.071.032-.143.068-.214.099a43.3 43.3 0 0 1-2.236.9c-.136.051-.272.095-.409.144a41.055 41.055 0 0 1-2.397.777c-.665.193-1.33.368-1.997.521-.074.018-.15.039-.225.056-.733.164-1.466.3-2.199.416-.195.031-.388.055-.582.082a32.93 32.93 0 0 1-1.669.193c-.209.019-.418.04-.627.055-.725.051-1.449.085-2.167.085h-53.433a.54.54 0 0 1-.539-.539v-83.333z"/></symbol><symbol viewBox="0 0 511.999 511.999" id="paypal" xmlns="http://www.w3.org/2000/svg"><path d="M503.915 153.88a8.084 8.084 0 0 0 8.084-8.084v-31.459c0-20.619-16.774-37.394-37.393-37.394H37.393C16.775 76.942 0 93.716 0 114.337v283.325c0 20.62 16.775 37.395 37.393 37.395h437.214c20.619 0 37.393-16.775 37.392-37.395V172.024a8.084 8.084 0 0 0-8.084-8.084 8.082 8.082 0 0 0-8.084 8.084V397.66c0 11.705-9.522 21.227-21.225 21.227H37.393c-11.704 0-21.225-9.522-21.225-21.227V114.336c0-11.704 9.521-21.226 21.225-21.225h437.212c11.703 0 21.225 9.522 21.225 21.226v31.459a8.084 8.084 0 0 0 8.085 8.084z"/><path d="M194.033 376.384c0 8.411 5.877 14.285 14.29 14.285h38.69c9.418 0 16.644-5.974 18.859-15.589.04-.172.073-.347.102-.522l7.759-48.115c.03-.189.055-.378.071-.568.115-1.307.728-3.499 3.516-3.499h3.96c22.575 0 41.128-5.076 55.144-15.085 16.179-11.556 26.42-29.64 30.439-53.756 2.543-15.282 1.976-28.421-1.687-39.051a5.914 5.914 0 0 0-.043-.122c-2.932-8.091-7.909-15.172-14.5-20.723.835-20.04-3.447-33.256-14.676-46.094-12.415-14.192-34.306-21.388-65.065-21.388h-77.613c-8.818 0-16.13 7.641-18.532 14.832a8.026 8.026 0 0 0-.324 1.342l-31.044 203.336a8.165 8.165 0 0 0-.093 1.22c0 8.737 6.409 15.845 14.289 15.845h38.589l-2.023 12.342a8.105 8.105 0 0 0-.108 1.31zm142.075-135.785c.397-.633.779-1.283 1.163-1.93.287-.484.581-.961.86-1.454.412-.725.806-1.471 1.202-2.215.233-.437.474-.863.702-1.307.59-1.149 1.16-2.32 1.712-3.51.112-.243.218-.493.329-.736.475-1.048.943-2.105 1.39-3.185.197-.475.379-.967.571-1.448.329-.827.66-1.651.972-2.496.203-.549.393-1.112.59-1.669.282-.8.566-1.599.833-2.414.194-.591.377-1.195.564-1.795.181-.581.373-1.151.547-1.74a32.959 32.959 0 0 1 2.366 5.108c2.719 7.944 3.068 18.686 1.008 31.073-6.204 37.228-28.981 55.326-69.634 55.326h-3.96c-13.006 0-18.794 10.58-19.589 17.901l-7.67 47.566c-.713 2.825-1.952 2.825-3.049 2.825H210.62l2.97-18.118c.031-.142.058-.286.082-.429l11.516-70.341c.018-.033.033-.07.051-.104.027-.05.05-.102.075-.153.023-.044.044-.089.067-.135.04-.083.085-.163.122-.247.102-.232.196-.47.277-.714.645-1.933 2.487-3.583 3.283-3.787h23.201c1.636 0 3.251-.026 4.848-.072.534-.015 1.055-.046 1.584-.068 1.056-.042 2.113-.083 3.152-.146.62-.037 1.227-.089 1.84-.134.93-.068 1.86-.134 2.777-.219.648-.059 1.285-.133 1.925-.201.863-.092 1.727-.184 2.577-.291.653-.082 1.298-.176 1.945-.267.818-.115 1.635-.234 2.441-.364.65-.105 1.291-.219 1.934-.333.785-.14 1.565-.285 2.338-.439a112.283 112.283 0 0 0 4.159-.913c.622-.149 1.242-.302 1.856-.46.736-.19 1.465-.39 2.19-.594.604-.17 1.206-.341 1.801-.52.718-.217 1.426-.445 2.132-.675.582-.19 1.166-.378 1.741-.578a90.736 90.736 0 0 0 2.091-.764c.554-.207 1.111-.41 1.657-.626.705-.279 1.395-.576 2.086-.87.515-.22 1.037-.431 1.545-.66.733-.329 1.448-.677 2.166-1.024.447-.216.903-.422 1.345-.645a83.788 83.788 0 0 0 4.006-2.172 83.549 83.549 0 0 0 2.611-1.555c.429-.269.844-.555 1.266-.832.632-.413 1.267-.822 1.884-1.253.455-.316.896-.649 1.343-.974.567-.413 1.135-.822 1.69-1.249.454-.349.897-.714 1.343-1.073.528-.426 1.055-.85 1.572-1.289.444-.377.878-.766 1.314-1.154.499-.444.996-.889 1.483-1.346.43-.403.852-.815 1.273-1.229.473-.465.943-.933 1.406-1.411.413-.427.82-.859 1.224-1.297a78.917 78.917 0 0 0 2.507-2.841c.432-.514.857-1.038 1.277-1.566.373-.467.744-.935 1.108-1.411.416-.545.821-1.102 1.226-1.66.348-.481.698-.96 1.038-1.451.403-.582.793-1.178 1.185-1.774.319-.488.644-.973.958-1.472zm-107.619 23.714l9.95-64.654c.628-2.798 2.01-2.966 3.08-3.011h47.33c.181 0 .36-.006.539-.018h21.537c.115.009.233.014.349.017 3.393.084 12.169.654 20.545 4.095.623.276 1.397.646 2.268 1.112.017.031.03.066.048.097-.108.486-.227.958-.34 1.439-.089.385-.18.768-.273 1.15-.094.385-.179.779-.276 1.16-.136.533-.285 1.048-.427 1.572-.085.316-.17.632-.259.945-.114.41-.22.829-.337 1.233-.157.539-.329 1.061-.493 1.592l-.197.635c-.147.465-.285.94-.435 1.398-.18.545-.375 1.071-.563 1.608-.044.126-.088.252-.134.378-.178.503-.348 1.016-.534 1.512-.205.55-.425 1.08-.638 1.62l-.077.193c-.206.52-.404 1.048-.618 1.559-.231.551-.476 1.083-.716 1.624-.24.542-.473 1.093-.721 1.625-.249.532-.514 1.047-.772 1.569-.255.518-.504 1.046-.769 1.553-.271.52-.557 1.021-.838 1.53-.269.489-.53.988-.808 1.468-.292.504-.599.988-.901 1.482-.284.465-.558.938-.85 1.392-.315.49-.647.961-.971 1.441-.295.435-.582.881-.885 1.306-.34.479-.697.937-1.047 1.403-.305.406-.602.822-.914 1.22-.362.46-.742.901-1.113 1.349-.318.384-.628.776-.954 1.151-.385.442-.786.865-1.181 1.294-.331.36-.654.731-.993 1.082-.41.426-.838.832-1.258 1.245-.341.335-.674.68-1.022 1.007-.433.406-.884.792-1.327 1.186-.354.314-.7.638-1.061.943-.456.386-.929.752-1.397 1.125-.366.292-.723.595-1.096.88-.483.369-.983.716-1.477 1.07-.375.269-.742.55-1.124.812-.508.348-1.034.676-1.553 1.01-.386.249-.763.508-1.156.749-.539.331-1.096.641-1.647.958-.39.224-.772.46-1.168.678-.57.313-1.159.605-1.742.903-.396.203-.781.415-1.182.611-.589.287-1.196.553-1.798.826-.414.188-.817.386-1.236.567-.609.262-1.236.503-1.857.751-.429.171-.849.354-1.284.518-.63.238-1.277.455-1.919.679-.445.155-.881.321-1.332.47-.642.211-1.305.402-1.961.599-.468.141-.926.293-1.4.427-.661.187-1.34.352-2.012.525-.487.125-.964.261-1.457.379-.697.167-1.414.313-2.125.466-.486.105-.961.22-1.454.318-.723.143-1.466.266-2.202.396-.497.087-.985.185-1.489.266-.744.12-1.507.218-2.265.323-.513.071-1.015.154-1.535.219-.773.096-1.565.171-2.352.253-.521.054-1.031.12-1.559.167-.785.071-1.589.121-2.386.178-.547.039-1.082.089-1.635.122-.873.052-1.767.081-2.656.115-.494.019-.977.05-1.475.065-1.396.04-2.81.06-4.243.06h-23.285l-.485.013zm-68.891 82.254l30.679-200.952c.763-1.707 2.361-3.099 3.089-3.288h77.525c25.526 0 43.816 5.486 52.896 15.864 6.761 7.731 10.003 15.356 10.656 26.275-8.893-3.046-17.37-3.808-22.212-3.967a8.041 8.041 0 0 0-.778-.038h-22.636c-.181 0-.36.006-.539.018h-46.914a9.49 9.49 0 0 0-.293.005c-9.441.343-16.533 6.505-18.505 16.081a7.869 7.869 0 0 0-.072.402l-12.365 80.35-11.307 69.248h-39.224z"/></symbol><symbol viewBox="0 0 512 512" id="visa" xmlns="http://www.w3.org/2000/svg"><path d="M512 145.796v-31.459c0-20.619-16.775-37.394-37.395-37.394H37.395C16.775 76.943 0 93.718 0 114.337v283.325c0 20.62 16.775 37.395 37.395 37.395h437.209c20.62 0 37.395-16.776 37.395-37.395V172.026c0-4.465-3.618-8.084-8.084-8.084s-8.084 3.62-8.084 8.084V357.8H16.168V153.88h487.747a8.083 8.083 0 0 0 8.085-8.084zm-16.168 228.172v23.693c0 11.705-9.522 21.227-21.227 21.227H37.395c-11.705 0-21.227-9.522-21.227-21.227v-23.693h479.664zM16.168 137.712v-23.375c0-11.704 9.522-21.226 21.227-21.226h437.209c11.705 0 21.227 9.522 21.227 21.226v23.375H16.168z"/><path d="M179.611 324.568a8.085 8.085 0 0 0 6.177 2.869h34.431c3.94 0 7.305-2.84 7.969-6.723l21.597-126.403a8.082 8.082 0 0 0-7.969-9.446h-34.488a8.086 8.086 0 0 0-7 4.038c-.061-.103-.113-.212-.18-.315a8.084 8.084 0 0 0-6.752-3.638h-36.501a8.084 8.084 0 0 0-7.528 5.138l-24.222 61.892-10.738-51.509a7.726 7.726 0 0 0-.087-.372c-1.836-7.107-7.231-15.711-22.504-16.352a9.483 9.483 0 0 0-.338-.006H38.099a8.083 8.083 0 0 0-7.947 6.602l-.475 2.551a8.085 8.085 0 0 0 6.043 9.339c10.152 2.461 19.59 5.898 28.17 10.187a8.067 8.067 0 0 0 .196 3.694L94.93 321.538a8.084 8.084 0 0 0 7.759 5.814h.01l36.469-.042a8.085 8.085 0 0 0 7.418-4.891l50.504-117.497-19.27 113.073a8.086 8.086 0 0 0 1.791 6.573zM91.299 199.909c6.153.29 6.83 2.176 7.321 4.053l3.25 15.591c-7.757-7.554-16.819-14.157-26.984-19.643h16.413zm42.529 111.239l-25.086.028L86.688 235.8c12.059 11.415 21.261 24.052 25.218 33.117l3.455 12.49a8.086 8.086 0 0 0 15.32.79l31.731-81.079h18.709l-47.293 110.03zm80.323-110.115h18.083L213.4 311.269h-18.032l18.783-110.236zM330.945 323.81a8.083 8.083 0 0 0 6.773 3.671h36.211a8.086 8.086 0 0 0 7.563-5.228c.042-.112 3.037-8.039 5.215-13.759l14.3.016 17.807.018c1.254 5.65 2.737 12.484 2.759 12.583a8.082 8.082 0 0 0 7.9 6.369h31.99a8.082 8.082 0 0 0 8.084-8.084 8.09 8.09 0 0 0-.342-2.337l-27.773-125.725a8.083 8.083 0 0 0-7.893-6.34h-26.607c-4.618 0-18.672 0-25.435 15.286l-33.29 75.362c-.845-16.501-11.834-29.368-33.527-39.267-4.477-2.167-12.429-6.022-14.455-8.29.99-.939 4.271-2.826 11.405-2.826l.124-.001c10.163-.147 17.358 2.155 22.471 4.193l2.933 1.345a8.086 8.086 0 0 0 11.339-5.988l4.674-27.384a8.087 8.087 0 0 0-5.142-8.934c-7.072-2.642-18.662-5.789-33.716-5.789-38.786 0-66.055 20.444-66.313 49.692-.301 25.473 26.181 37.747 34.9 41.789 11.678 5.375 12.972 7.63 13.113 8.022 0 .001.011.051.008.213-.017 1.741-5.277 4.326-12.508 4.326-12.799 0-19.124-1.755-29.21-5.951l-4.274-1.963a8.081 8.081 0 0 0-11.342 5.984l-4.84 28.325a8.084 8.084 0 0 0 4.732 8.77c9.985 4.363 26.288 7.264 41.536 7.391h.068c19.474 0 36.143-4.586 48.203-13.262a52.267 52.267 0 0 0 3.03-2.375l-1.091 2.469a8.081 8.081 0 0 0 .62 7.679zm65.341-116.992c1.694-3.831 3.721-5.655 10.647-5.655h20.112l24.331 110.15h-15.394c-.988-4.514-2.242-10.193-2.838-12.719a8.084 8.084 0 0 0-7.869-6.228c-2.659 0-13.792-.013-24.251-.023-9.275-.011-18.023-.021-19.874-.021a8.082 8.082 0 0 0-7.527 5.136c-.849 2.169-3.435 8.984-5.279 13.855h-18.216l46.158-104.495zM280.214 313.13c-11.338-.098-21.985-1.897-29.281-3.989l1.965-11.503c9.408 3.565 17.411 5.273 30.615 5.273 16.762 0 28.553-8.36 28.675-20.288.178-11.699-10.554-17.616-22.506-23.119-17.768-8.236-25.637-16.537-25.514-26.943.175-19.836 20.796-33.691 50.145-33.691 8.934 0 16.371 1.346 21.736 2.77l-1.817 10.65c-5.83-1.826-13.228-3.335-22.662-3.198-19.02.022-27.709 9.786-27.748 18.881-.128 11.371 11.009 16.759 23.9 22.998l.17.08c21.584 9.827 24.275 19.542 24.207 26.901-.213 21.691-20.094 35.169-51.885 35.178z"/><path d="M391.057 282.623h28.595a8.084 8.084 0 0 0 7.896-9.816c-1.384-6.313-7.952-36.476-7.953-36.477l-2.337-10.901a8.082 8.082 0 0 0-7.348-6.37 8.088 8.088 0 0 0-8.154 5.302c-1.057 2.911-2.663 7.061-3.623 9.54-.316.818-.622 1.61-.872 2.389l-.032-.013c-.109.28-10.881 28.138-13.698 35.304a8.088 8.088 0 0 0 .843 7.51 8.096 8.096 0 0 0 6.683 3.532zm16.134-27.284l2.422 11.115h-6.731c1.392-3.587 2.908-7.498 4.309-11.115z"/></symbol></svg>