<?xml version="1.0" encoding="iso-8859-1"?>
<!-- Generator: Adobe Illustrator 19.0.0, SVG Export Plug-In . SVG Version: 6.00 Build 0)  -->
<svg version="1.1" id="Layer_1" xmlns="http://www.w3.org/2000/svg" xmlns:xlink="http://www.w3.org/1999/xlink" x="0px" y="0px"
	 viewBox="0 0 511.999 511.999" style="enable-background:new 0 0 511.999 511.999;" xml:space="preserve">
<g>
	<g>
		<g>
			<path d="M503.915,153.88c4.466,0,8.084-3.619,8.084-8.084v-31.459c0-20.619-16.774-37.394-37.393-37.394H37.393
				C16.775,76.942,0,93.716,0,114.337v283.325c0,20.62,16.775,37.395,37.393,37.395h437.214c20.619,0,37.393-16.775,37.392-37.395
				V172.024c0-4.466-3.619-8.084-8.084-8.084s-8.084,3.618-8.084,8.084V397.66c0,11.705-9.522,21.227-21.225,21.227H37.393
				c-11.703,0-21.225-9.522-21.225-21.227V114.336c0-11.704,9.522-21.226,21.225-21.225h437.212
				c11.703,0,21.225,9.522,21.225,21.226v31.459C495.831,150.262,499.449,153.88,503.915,153.88z"/>
			<path d="M87.754,365.555c0,9.213,7.495,16.707,16.707,16.707h53.432c12.155,0,24.739-4.786,35.133-13.231
				c1.605,7.55,8.318,13.231,16.338,13.231h52.938c12.663,0,25.798-5.18,36.43-14.294c1.176,8.07,8.122,14.294,16.512,14.294h52.943
				c13.487,0,27.508-5.875,38.47-16.119c11.886-11.108,18.433-25.59,18.433-40.782V146.441c0.001-9.213-7.494-16.707-16.706-16.707
				h-50.982c-15.004,0-28.452,4.561-38.637,12.947c-1.712-7.404-8.346-12.947-16.264-12.947h-51.471
				c-14.379,0-27.035,4.014-37.023,11.646c-2.149-6.744-8.47-11.646-15.918-11.646h-51.961c-16.527,0-31.444,5.814-42.001,16.371
				c-10.557,10.558-16.371,25.474-16.371,42.001v75.493c0,1.125,0.114,2.257,0.342,3.362c0.005,0.025,0.011,0.052,0.016,0.078
				c0.473,2.252,1.171,4.423,2.066,6.493c-1.562,2.564-2.424,5.55-2.424,8.692V365.555z M314.705,346.676v-61.017
				c0-0.298,0.241-0.539,0.539-0.539h60.781h0.985c9.753,0,17.107-6.513,17.107-15.149c0-0.51-0.03-1.011-0.083-1.507
				c-0.018-0.17-0.054-0.335-0.078-0.503c-0.046-0.321-0.092-0.642-0.16-0.955c-0.043-0.203-0.102-0.398-0.155-0.596
				c-0.07-0.271-0.141-0.541-0.229-0.805c-0.07-0.215-0.154-0.424-0.235-0.634c-0.091-0.237-0.182-0.473-0.286-0.703
				c-0.099-0.221-0.207-0.438-0.318-0.652c-0.106-0.206-0.212-0.412-0.329-0.612c-0.129-0.226-0.266-0.447-0.409-0.666
				c-0.112-0.175-0.231-0.347-0.351-0.517c-0.164-0.231-0.333-0.458-0.511-0.679c-0.113-0.142-0.232-0.28-0.349-0.417
				c-0.204-0.237-0.411-0.47-0.63-0.695c-0.1-0.102-0.205-0.201-0.308-0.301c-0.253-0.245-0.51-0.487-0.78-0.717
				c-0.064-0.054-0.129-0.102-0.193-0.155c-2.504-2.058-5.724-3.449-9.337-3.876c-0.776-0.093-1.561-0.156-2.369-0.156
				c-0.298,0-0.539-0.241-0.539-0.539c0-0.297,0.241-0.539,0.539-0.539c1.044,0,2.067-0.11,3.06-0.317
				c0.232-0.049,0.456-0.117,0.684-0.176c0.252-0.066,0.508-0.122,0.755-0.201c0.234-0.072,0.46-0.164,0.689-0.248
				c0.234-0.085,0.47-0.165,0.698-0.261c0.225-0.095,0.443-0.206,0.663-0.31c0.223-0.106,0.447-0.208,0.664-0.326
				c0.213-0.114,0.42-0.241,0.628-0.365c0.212-0.126,0.426-0.251,0.632-0.388c0.202-0.133,0.396-0.275,0.591-0.417
				c0.199-0.147,0.4-0.292,0.594-0.447c0.186-0.15,0.368-0.306,0.548-0.464c0.189-0.165,0.374-0.332,0.554-0.506
				c0.17-0.164,0.337-0.333,0.5-0.504c0.175-0.183,0.345-0.37,0.511-0.56c0.153-0.177,0.303-0.356,0.449-0.539
				c0.158-0.201,0.313-0.407,0.464-0.615c0.135-0.188,0.267-0.375,0.393-0.568c0.143-0.218,0.278-0.442,0.411-0.667
				c0.115-0.196,0.231-0.391,0.337-0.592c0.126-0.237,0.241-0.479,0.355-0.722c0.094-0.202,0.191-0.4,0.276-0.606
				c0.107-0.255,0.199-0.518,0.292-0.781c0.072-0.203,0.15-0.402,0.212-0.607c0.086-0.281,0.156-0.568,0.225-0.856
				c0.049-0.195,0.106-0.388,0.146-0.586c0.066-0.324,0.111-0.654,0.156-0.984c0.023-0.168,0.057-0.333,0.073-0.502
				c0.052-0.503,0.08-1.011,0.08-1.524c0-8.477-7.16-15.639-15.638-15.639h-1.476h-60.291c-0.298,0-0.539-0.241-0.539-0.539v-18.411
				v-15.412c0-0.592,0-1.198,0-1.835c0-8.293,2.48-15.011,5.054-19.756c0.001-0.004,0.003-0.006,0.005-0.011
				c2.037-3.753,4.127-6.267,5.098-7.342c0.003-0.002,0.005-0.005,0.008-0.008c0.084-0.093,0.16-0.176,0.226-0.247
				c0.004-0.004,0.009-0.009,0.012-0.013c0.065-0.068,0.119-0.126,0.164-0.174c0.003-0.003,0.006-0.006,0.01-0.01
				c0.043-0.044,0.075-0.078,0.1-0.102c0.003-0.003,0.006-0.006,0.01-0.009c0.023-0.023,0.035-0.036,0.035-0.036v0.001
				c7.377-8.078,18.404-12.667,31.975-12.667h50.982c0.297,0,0.539,0.241,0.539,0.539v178.927h-0.002
				c0,22.94-21.896,40.733-40.735,40.733h-52.943c-0.297,0-0.539-0.241-0.539-0.539V346.676z M331.422,255.706h23.038
				c6.184,0,11.816,5.631,11.816,11.813c0,0.297-0.022,0.593-0.05,0.886c-0.016,0.182-0.037,0.362-0.063,0.543c0,0,0,0.002,0,0.003
				c-0.783,5.592-6.002,10.382-11.704,10.382h-23.038c-0.297,0-0.539-0.241-0.539-0.539v-9.843v-1.419v-11.289
				C330.883,255.946,331.124,255.706,331.422,255.706z M330.883,250.853v-11.289v-0.927v-9.844c0-0.297,0.241-0.539,0.539-0.539
				h22.551c5.885,0,11.258,5.104,11.762,10.929c0.028,0.293,0.05,0.589,0.05,0.885c0,0.329-0.019,0.652-0.052,0.973
				c-0.027,0.306-0.072,0.608-0.125,0.906c0,0.001,0,0.001,0,0.001c-0.927,5.278-5.649,9.443-11.148,9.443h-23.038
				C331.124,251.392,330.883,251.151,330.883,250.853z M208.827,349.79v-72.468c0-0.218,0.132-0.415,0.333-0.498
				c0.199-0.083,0.431-0.038,0.586,0.116c1.501,1.504,3.206,2.813,5.053,3.928c1.12,0.675,2.295,1.274,3.514,1.796
				c0.034,0.015,0.069,0.028,0.105,0.043c1.194,0.507,2.434,0.937,3.704,1.288c0.074,0.019,0.15,0.038,0.225,0.059
				c0.552,0.148,1.109,0.28,1.674,0.397c0.094,0.021,0.186,0.042,0.281,0.06c0.621,0.124,1.249,0.231,1.882,0.317
				c0.087,0.012,0.177,0.02,0.265,0.031c0.535,0.068,1.072,0.121,1.614,0.161c0.164,0.013,0.327,0.025,0.49,0.034
				c0.627,0.038,1.257,0.064,1.891,0.064h55.345v-9.087c-12.04,2.618-24.601,3.792-31.816,3.792c-14.083,0-25.54-11.457-25.54-25.54
				l0.004-0.334l-0.004-0.156c0-14.083,11.457-25.54,25.54-25.54c5.948,0,18.378,1.341,31.816,4.282v-10.068h-55.344
				c-0.691,0-1.367,0.035-2.036,0.085c-0.194,0.014-0.383,0.033-0.575,0.052c-0.508,0.05-1.009,0.112-1.504,0.187
				c-0.166,0.025-0.335,0.047-0.5,0.074c-0.638,0.11-1.268,0.235-1.882,0.383c-0.081,0.019-0.16,0.043-0.24,0.064
				c-0.543,0.136-1.076,0.286-1.6,0.448c-0.156,0.049-0.314,0.099-0.471,0.151c-0.499,0.163-0.99,0.337-1.47,0.522
				c-0.089,0.033-0.18,0.066-0.268,0.1c-0.579,0.229-1.146,0.471-1.697,0.725c-0.07,0.032-0.139,0.068-0.21,0.1
				c-0.482,0.226-0.954,0.462-1.413,0.703c-0.099,0.053-0.198,0.105-0.295,0.157c-0.509,0.274-1.007,0.553-1.485,0.84
				c-1.951,1.168-3.658,2.43-5.086,3.62c-0.161,0.134-0.385,0.163-0.573,0.074c-0.19-0.089-0.31-0.279-0.31-0.488v-42.646
				c0-9.021,2.109-16.898,5.969-23.313c0.001-0.001,0.002-0.003,0.003-0.004c1.731-2.877,3.818-5.457,6.228-7.712
				c0.036-0.032,0.07-0.067,0.107-0.1c1.78-1.65,3.733-3.125,5.85-4.412c0.096-0.058,0.192-0.113,0.288-0.17
				c0.613-0.367,1.24-0.716,1.881-1.05c0.1-0.052,0.197-0.106,0.296-0.156c1.455-0.743,2.976-1.403,4.56-1.979
				c0.153-0.056,0.307-0.107,0.461-0.16c0.627-0.219,1.264-0.426,1.911-0.619c0.209-0.064,0.42-0.126,0.632-0.185
				c0.669-0.19,1.349-0.364,2.039-0.526c0.148-0.033,0.292-0.072,0.44-0.107c0.839-0.188,1.69-0.354,2.557-0.498
				c0.167-0.028,0.338-0.05,0.507-0.076c0.693-0.109,1.393-0.204,2.101-0.286c0.279-0.031,0.561-0.06,0.841-0.087
				c0.642-0.064,1.289-0.113,1.945-0.154c0.273-0.017,0.544-0.037,0.819-0.051c0.913-0.043,1.835-0.071,2.771-0.071h51.471
				c0.297,0,0.539,0.241,0.539,0.539v17.635h-0.003v69.224v40.985v51.077c0,7.354-2.258,14.173-5.937,20.053
				c-0.039,0.061-0.079,0.122-0.117,0.183c-0.477,0.756-0.978,1.495-1.503,2.218c-0.032,0.045-0.065,0.093-0.098,0.138
				c-0.56,0.768-1.144,1.517-1.752,2.245c-0.016,0.019-0.032,0.038-0.048,0.057c-0.576,0.689-1.174,1.356-1.787,2.006
				c-0.069,0.073-0.138,0.149-0.207,0.222c-1.267,1.325-2.607,2.568-4.01,3.725c-0.104,0.086-0.208,0.171-0.314,0.257
				c-1.391,1.13-2.838,2.172-4.33,3.122c-0.133,0.085-0.266,0.167-0.4,0.25c-0.691,0.429-1.387,0.843-2.094,1.233
				c-0.057,0.031-0.112,0.066-0.168,0.096c-0.759,0.414-1.525,0.8-2.298,1.165c-0.151,0.07-0.3,0.137-0.451,0.206
				c-0.656,0.301-1.317,0.584-1.98,0.849c-0.141,0.056-0.281,0.115-0.422,0.169c-0.769,0.298-1.54,0.57-2.315,0.817
				c-0.147,0.047-0.294,0.087-0.44,0.133c-0.65,0.199-1.3,0.379-1.952,0.541c-0.186,0.046-0.373,0.095-0.558,0.138
				c-0.772,0.18-1.544,0.337-2.313,0.466c-0.108,0.018-0.213,0.028-0.32,0.045c-0.675,0.104-1.347,0.185-2.019,0.248
				c-0.203,0.018-0.406,0.037-0.608,0.053c-0.769,0.057-1.534,0.096-2.294,0.096h-52.938c-0.297,0-0.539-0.241-0.539-0.539V349.79z
				 M103.922,282.225c0-0.205,0.115-0.39,0.297-0.482c0.076-0.038,0.157-0.057,0.241-0.057c0.001,0,0.001,0,0.002,0
				c0.084,0.001,0.167,0.019,0.244,0.059c0.001-0.001,0.004-0.002,0.004-0.002c0.075-0.038,0.158-0.057,0.241-0.057
				c0.009,0,0.015,0.008,0.023,0.008c0.108,0.005,0.211,0.033,0.3,0.1c7.736,5.803,18.433,9.157,29.349,9.202
				c18.456-0.087,45.77-10.102,45.77-31.32v-37.208h-31.764v37.699c0,11.484-9.294,20.145-21.618,20.145
				c-11.164,0-21.086-7.137-23.077-16.602c-0.008-0.036-0.012-0.073-0.012-0.111v-75.493c0-25.243,16.961-42.204,42.204-42.204
				h51.961c0.298,0,0.539,0.241,0.539,0.539v13.753h0.001v82.849v21.473v60.846c0,7.376-2.272,14.213-5.969,20.105
				c-0.001,0.001-0.002,0.002-0.002,0.002c-0.48,0.764-0.983,1.51-1.508,2.241c-0.015,0.02-0.028,0.04-0.043,0.061
				c-1.059,1.465-2.205,2.862-3.429,4.183c-0.025,0.027-0.051,0.054-0.074,0.08c-0.597,0.642-1.209,1.265-1.839,1.869
				c-0.016,0.015-0.031,0.03-0.047,0.046c-1.278,1.222-2.62,2.365-4.015,3.426c-0.077,0.059-0.155,0.116-0.233,0.175
				c-0.649,0.488-1.309,0.96-1.979,1.411c-0.039,0.027-0.078,0.055-0.117,0.081c-0.728,0.485-1.464,0.951-2.212,1.391
				c-0.023,0.014-0.047,0.026-0.071,0.04c-0.677,0.398-1.364,0.773-2.054,1.132c-0.143,0.073-0.287,0.148-0.429,0.22
				c-0.658,0.333-1.32,0.649-1.988,0.944c-0.071,0.032-0.143,0.068-0.214,0.099c-0.742,0.323-1.486,0.622-2.236,0.9
				c-0.136,0.051-0.272,0.095-0.409,0.144c-0.604,0.216-1.208,0.417-1.816,0.603c-0.194,0.059-0.387,0.117-0.581,0.174
				c-0.665,0.193-1.33,0.368-1.997,0.521c-0.074,0.018-0.15,0.039-0.225,0.056c-0.733,0.164-1.466,0.3-2.199,0.416
				c-0.195,0.031-0.388,0.055-0.582,0.082c-0.558,0.079-1.113,0.143-1.669,0.193c-0.209,0.019-0.418,0.04-0.627,0.055
				c-0.725,0.051-1.449,0.085-2.167,0.085h-53.433c-0.297,0-0.539-0.241-0.539-0.539V282.225z"/>
		</g>
	</g>
</g>
<g>
</g>
<g>
</g>
<g>
</g>
<g>
</g>
<g>
</g>
<g>
</g>
<g>
</g>
<g>
</g>
<g>
</g>
<g>
</g>
<g>
</g>
<g>
</g>
<g>
</g>
<g>
</g>
<g>
</g>
</svg>
