<svg xmlns="http://www.w3.org/2000/svg" width="612" height="792" viewBox="0 0 612 792"><path fill-rule="evenodd" clip-rule="evenodd" fill="#406274" d="M281.8 106.24c2.256.501 3.191 2.065 3.621 4.21 2.015 10.044 4.238 20.049 6.089 30.123.994 5.408 1.403 10.925 2.042 16.396.32 2.737.542 5.484.853 8.222.125 1.09-.277 1.859-1.165 2.426-2.794 1.783-5.898.078-6.391-3.51l-2.396-17.435c-.223-1.624-.77-2.014-2.381-2.298-3.244-.572-6.353.192-9.497.717-.953.159-1.363.66-1.37 1.625-.023 3.438-.106 6.874-.116 10.312-.003 1.042-.339 1.809-1.332 2.168-1.181.427-2.015-.184-1.935-1.431.175-2.752.389-5.501.594-8.251.373-4.981.662-9.971 1.151-14.941.488-4.961 1.148-9.906 1.798-14.85.265-2.013.482-4.076 1.115-5.986.706-2.134 1.774-4.167 2.87-6.143.313-.564 1.248-.812 1.933-1.131.345-.161.768-.154 1.155-.223h3.362zm-5.13 5.07c-1.445.438-1.855 1.438-2.028 2.531-.46 2.905-.732 5.845-1.315 8.723-1.261 6.217-1.362 12.534-1.831 18.82-.118 1.583.193 1.83 1.782 1.577.235-.037.463-.115.696-.169 2.694-.632 5.388-1.073 8.177-.574 1.543.276 1.836-.125 1.551-1.734-1.637-9.265-3.646-18.446-6.235-27.495-.169-.588-.528-1.122-.797-1.679z"/><path fill-rule="evenodd" clip-rule="evenodd" fill="#63A6C5" d="M434.783 280.466c-1.222 1.518-2.265 2.859-3.354 4.161-6.072 7.256-13.62 12.093-22.972 13.94a21.72 21.72 0 0 1-9.275-.181c-3.115-.733-5.456-2.555-7.196-5.196-2.017-3.06-2.988-6.497-3.62-10.057-.054-.306-.119-.61-.504-1.157-.146.268-.268.552-.442.8-2.29 3.257-5.615 4.612-9.409 4.61-6.505-.003-12.709-1.483-18.607-4.295-3.01-1.435-6.13-2.639-9.206-3.933-.245-.103-.54-.087-.812-.126l-.421.458c.384.191.851.298 1.14.584 6.599 6.533 12.394 13.661 16.486 22.075 4.081 8.386 5.521 17.164 4.32 26.421-.802 6.183-2.196 12.16-5.269 17.647-1.46 2.607-3.262 4.946-5.734 6.678-4.701 3.291-9.722 3.237-14.822 1.161-7.577-3.084-12.855-8.62-16.425-15.865-3.052-6.193-4.547-12.821-5.346-19.638-1.219-10.396-.575-20.749.693-31.088.078-.631.127-1.266.193-1.943-.102 0-.223-.038-.295.006-3.644 2.21-7.602 2.171-11.616 1.578-5.807-.859-11.338-2.539-16.463-5.484-2.212-1.271-4.589-2.198-7.286-2.427.281.285.558.573.842.854 6.618 6.572 12.44 13.733 16.536 22.188 4.044 8.351 5.471 17.098 4.273 26.314-.808 6.224-2.201 12.244-5.323 17.752-2.056 3.626-4.713 6.682-8.706 8.238-3.97 1.547-7.93 1.118-11.784-.471-8.162-3.364-13.604-9.458-17.145-17.378-2.596-5.805-3.909-11.948-4.653-18.24-.887-7.501-.793-15.009-.167-22.509.382-4.572 1.037-9.122 1.566-13.682.018-.153.002-.31.002-.549-3.578 2.095-7.34 3.573-11.306 4.561-4.542 1.131-9.134 1.499-13.785.989-.752-.082-.852.341-1.054.825-1.796 4.299-3.99 8.363-7.152 11.832-4.862 5.332-10.906 7.172-17.897 5.737-3.606-.74-6.146-3.119-8.027-6.195-2.19-3.581-3.142-7.559-3.596-11.68-.116-1.057-.203-2.116-.315-3.296-1.639 1.737-3.157 3.419-4.752 5.024-7.043 7.09-14.873 13.076-24.144 17.003-3.771 1.598-7.682 2.766-11.789 2.903-6.131.205-11.599-1.489-15.851-6.186-2.289-2.528-3.048-5.658-3.341-8.919-.256-2.864-.558-5.747-.476-8.611.092-3.223.563-6.437.919-9.649.532-4.802 1.094-9.627 2.886-14.146 2.643-6.669 5.227-13.393 9.516-19.251 2.245-3.066 4.991-5.576 8.824-6.393 1.771-.377 3.668-.514 5.467-.34 2.92.283 4.816 2.146 5.948 4.784 1.552 3.615 1.913 7.459 1.497 11.281-.311 2.863-1.219 5.672-1.981 8.472-.383 1.409-1.863 2.31-3.209 2.23a3.155 3.155 0 0 1-2.935-2.564c-.099-.514.05-1.09.154-1.625.542-2.811 1.165-5.607 1.626-8.431.143-.876-.076-1.829-.227-2.731-.228-1.361-1.086-1.944-2.47-1.76-1.444.192-2.475 1.071-3.358 2.131-2.687 3.225-4.158 7.069-5.401 10.994-3.213 10.15-4.442 20.582-4.07 31.198.061 1.729.448 3.497.979 5.152 1.561 4.865 5.444 7.048 10.495 5.955 1.587-.343 3.177-.817 4.66-1.47 12.721-5.602 22.618-14.473 30.318-25.988 2.644-3.954 3.733-8.404 5.12-12.797 2.219-7.028 5.424-13.529 10.128-19.266 3.934-4.797 10.872-6.944 16.77-5.068 3.331 1.059 5.596 3.296 7.115 6.362 3.426 6.913 4.976 14.155 4.23 21.912-.501 5.217-1.33 10.351-2.728 15.484 6.969.558 13.396-.741 19.208-4.621 2.52-1.682 4.89-3.549 6.016-6.476.608-1.581.951-3.275 1.309-4.941 3.62-16.855 8.996-33.104 16.007-48.875 3.972-8.935 8.867-17.141 15.396-24.381 2.662-2.952 5.583-5.617 9.185-7.411 2.503-1.246 5.121-1.786 7.886-1.018 3.61 1.002 5.992 4.323 6.363 8.552.453 5.157-.956 9.971-2.553 14.748-4.228 12.648-10.992 23.882-19.277 34.25-6.037 7.554-12.797 14.398-20.247 20.568-.529.438-.98 1.184-1.112 1.857-1.55 7.9-3.288 15.777-4.461 23.736-1.25 8.479-1.293 17.047-.41 25.599.686 6.652 1.887 13.189 4.381 19.423 1.532 3.829 3.617 7.307 7.062 9.77 4.434 3.171 10.033 2.689 14.433.419.365-.188.629-.698.802-1.115 1.494-3.61 2.179-7.413 2.539-11.276.545-5.846.477-11.651-1.344-17.32-1.765-5.496-4.927-10.173-8.506-14.61-3.036-3.763-6.205-7.43-9.056-11.328-1.584-2.166-2.714-4.682-3.896-7.115-.433-.893-.587-1.999-.589-3.008-.009-4.186 2.297-5.776 6.357-5.023 1.954.362 3.847 1.286 5.647 2.195 3.417 1.726 6.657 3.819 10.136 5.395 3.446 1.561 7.12 2.615 10.931 2.928 4.549.375 8.071-1.451 10.604-5.227 2.368-3.531 3.59-7.453 4.458-11.605 3.479-16.633 8.747-32.678 15.649-48.236 3.709-8.36 8.087-16.196 13.979-23.178 2.587-3.065 5.398-5.9 8.759-8.138 2.193-1.461 4.555-2.494 7.229-2.604 4.52-.187 8 2.682 8.943 7.361.854 4.236.067 8.336-1.087 12.399-3.763 13.245-10.39 25.001-18.702 35.867-6.465 8.451-13.823 16.047-22.023 22.833-.529.438-.981 1.184-1.113 1.856-1.55 7.901-3.287 15.778-4.462 23.736-1.251 8.479-1.292 17.046-.41 25.599.686 6.652 1.887 13.189 4.381 19.422 1.532 3.83 3.579 7.361 7.069 9.758 4.682 3.216 9.553 2.771 14.425.434.365-.175.631-.695.803-1.112 1.494-3.61 2.181-7.413 2.54-11.276.545-5.846.477-11.651-1.343-17.32-1.765-5.496-4.926-10.174-8.505-14.611-3.036-3.763-6.204-7.43-9.056-11.328-1.585-2.166-2.715-4.682-3.896-7.114-.434-.893-.589-1.999-.591-3.008-.009-4.191 2.299-5.777 6.354-5.026 1.954.362 3.849 1.285 5.647 2.194 3.416 1.726 6.657 3.82 10.136 5.396 3.446 1.561 7.12 2.61 10.931 2.93 4.501.377 8.07-1.377 10.519-5.139 1.388-2.133 2.681-4.375 3.642-6.722.663-1.619.622-3.514 1.001-5.263 1.792-8.267 4.887-15.939 10.559-22.364 3.002-3.4 6.565-5.909 11.201-6.635 4.744-.743 10.016 2.408 11.171 6.854.553 2.128.087 4.198-.729 6.191-1.694 4.135-4.747 7.162-8.165 9.859-3.434 2.71-7.215 4.847-11.217 6.61-.466.206-1.036.708-1.123 1.158-1.045 5.392-1.715 10.831-.646 16.289.854 4.362 3.158 7.595 7.813 8.496 1.979.383 3.942.261 5.826-.719 5.107-2.657 9.443-6.296 13.271-10.524 2.326-2.569 4.386-5.381 6.53-8.111 1.352-1.719 1.691-3.792 2.089-5.886 1.665-8.76 4.85-16.862 10.831-23.641 3.001-3.402 6.589-5.888 11.226-6.592 4.686-.712 9.909 2.436 11.083 6.83.568 2.13.106 4.2-.703 6.192-1.699 4.178-4.787 7.224-8.242 9.944-3.438 2.707-7.223 4.836-11.227 6.591-.391.171-.92.518-.987.86-1.146 5.906-1.986 11.863-.399 17.797 1.462 5.469 6.045 8.271 11.394 7.245a5.928 5.928 0 0 0 1.459-.501c5.371-2.608 9.714-6.527 13.844-10.75 4.703-4.809 8.077-10.476 10.991-16.466.78-1.603 2.059-2.303 3.544-2.049 2.402.411 3.522 2.111 2.68 4.457-.615 1.713-1.46 3.37-2.395 4.938-4.163 6.989-8.729 13.709-14.783 19.215-5.323 4.843-11.555 8.086-18.704 9.363-3.266.583-6.533.499-9.735-.423-2.854-.822-4.97-2.634-6.575-5.098-1.987-3.038-3.146-6.655-3.957-12.639zm-91.368-32.042c.354-.321.483-.415.584-.534 1.471-1.739 2.977-3.45 4.399-5.228 8.536-10.662 15.638-22.257 22.29-34.156 2.568-4.592 4.13-9.488 5.107-14.594.27-1.41.254-2.947.002-4.361-.218-1.222-.988-1.344-2.004-.615-3.351 2.405-6.056 5.442-8.476 8.745-5.057 6.898-8.788 14.519-12.101 22.362-3.862 9.145-6.974 18.548-9.801 28.381zm-60.686-.266l.246.133c1.561-1.863 3.156-3.698 4.676-5.594 8.821-11.003 16.147-22.978 22.911-35.317 2.604-4.75 4.004-9.885 4.753-15.202.141-1-.163-2.119-.488-3.108-.209-.635-.839-.919-1.525-.298-.53.48-1.154.856-1.707 1.315-4.843 4.018-8.368 9.1-11.488 14.474-6.116 10.531-10.44 21.839-14.209 33.374-1.11 3.389-2.116 6.814-3.169 10.223zm-48.052 30.825c.04-.062.122-.154.161-.261.067-.187.119-.38.158-.575 1.65-8.161 2.24-16.38 1.175-24.664-.372-2.896-1.073-5.723-2.783-8.19-.906-1.307-2.169-2.038-3.722-2.34l2.092 1.327c-1.996.402-3.037 1.705-3.944 3.127-.686 1.075-1.376 2.165-1.899 3.323-1.705 3.777-3.385 7.567-4.979 11.392-1.885 4.524-1.865 4.562 1.213 8.373 3.301 4.087 7.136 7.425 12.528 8.488zm-18.224-4.859c-.322.996-.59 1.745-.808 2.509-1.221 4.284-2.083 8.607-1.285 13.088.752 4.224 3.553 7.151 7.733 7.921.73.134 1.713-.052 2.321-.467 4.078-2.786 6.326-6.916 8.181-11.35-6.216-2.757-11.589-6.511-16.142-11.701zm185.775-16.635c.303-.112.488-.158.652-.246 4.232-2.259 8.029-5.099 11.187-8.715.979-1.121 1.744-2.471 2.403-3.815.543-1.107.289-2.321-.559-3.236-.848-.917-1.963-.719-3.021-.378-1.826.588-3.147 1.871-4.308 3.314-2.887 3.594-4.734 7.737-6.231 12.054-.098.282-.077.604-.123 1.022zm46.793-.01c.3-.104.484-.142.644-.228 4.268-2.278 8.08-5.155 11.276-8.793.834-.948 1.528-2.048 2.131-3.163.699-1.292.672-2.701-.354-3.797-1.038-1.108-2.457-.844-3.542-.154-1.392.884-2.771 1.926-3.822 3.179-2.939 3.497-4.71 7.652-6.195 11.93-.099.281-.086.602-.138 1.026z"/><path fill-rule="evenodd" clip-rule="evenodd" fill="#406274" d="M376.944 539.914c1.201-1.009 2.149-1.844 3.137-2.629 7.751-6.161 16.31-10.695 26.121-12.488 6.055-1.107 12.032-.873 17.589 2.249 3.836 2.155 6.511 5.397 8.376 9.299 2.357 4.929 3.419 10.166 2.878 15.613-.531 5.354-2.36 10.336-4.913 15.06-3.06 5.658-6.919 10.748-11.077 15.626-4.283 5.026-8.723 9.896-13.871 14.076-4.232 3.438-8.916 6.039-14.006 7.969-4.032 1.528-8.063 3.075-12.021 4.78-3.177 1.369-6.046 3.284-8.396 5.867a3.849 3.849 0 0 0-.893 1.764c-2.229 11.279-5.293 22.313-9.927 32.853-3.643 8.283-8.229 15.993-14.697 22.444-8.711 8.688-19.213 13.228-31.527 13.195-10.56-.028-21.085-.815-31.57-2.097-8.224-1.005-16.321-2.568-24.273-4.945-9.466-2.83-15.631-9.121-19.525-17.958-3.161-7.173-5.214-14.688-6.577-22.368-1.352-7.623-2.407-15.302-3.479-22.972-1.537-10.994-2.942-22.008-4.458-33.005-1.02-7.399-2.124-14.786-3.21-22.176-1.393-9.482-2.82-18.96-4.199-28.444-.327-2.248-.516-4.516-.783-6.772a1.906 1.906 0 0 0-.255-.78c-3.379-5.305-2.071-10.416 1.855-14.795 3.573-3.985 8.021-6.833 12.632-9.426 10.189-5.729 21.224-8.981 32.674-10.975 11.696-2.035 23.491-2.71 35.343-2.491 5.635.104 11.281.185 16.897.615 7.809.598 15.705.942 23.355 2.454 7.6 1.501 15.478 2.302 22.534 6.07 6.151 3.284 10.895 7.763 13.427 14.388.208.545.767 1.07 1.296 1.356 1.458.789 2.107 1.921 2.058 3.734-.218 7.874-.411 15.749-.606 23.623-.007.31.042.618.091 1.286zm-152.893-7.605c0 .336-.019.491.002.64 1.025 7.115 2.041 14.232 3.086 21.345 1.388 9.444 2.81 18.883 4.198 28.326 1.29 8.772 2.58 17.544 3.82 26.323 1.028 7.275 1.995 14.56 2.97 21.843.854 6.377 1.723 12.748 3.539 18.945 1.335 4.555 3.149 8.88 5.867 12.805 3.861 5.573 9.429 8.432 15.781 10.137 5.886 1.581 11.883 2.518 17.925 3.155 5.086.537 10.191.923 15.295 1.269 5.339.361 10.69.863 16.031.818 7.655-.063 14.697-2.472 21.021-6.81 9.286-6.371 15.168-15.41 19.748-25.444 2.827-6.192 5.038-12.609 6.727-19.193 1.015-3.957 2.463-7.842 2.449-12.019-.002-.375.237-.751.369-1.125.183-.523.455-1.031.54-1.569.844-5.324 1.73-10.644 2.456-15.984.649-4.791 1.239-9.597 1.627-14.414.565-7.013 1.037-14.037 1.346-21.065.38-8.667.552-17.344.807-26.017.011-.334-.05-.67-.09-1.154-.272.187-.411.249-.507.353-3.492 3.774-7.745 6.384-12.506 8.242-7.02 2.74-14.4 3.646-21.827 4.049-11.931.648-23.87 1.2-35.813 1.51-13.974.362-27.894-.468-41.692-2.858-11.405-1.977-22.181-5.698-32.159-11.628-.284-.173-.6-.289-1.01-.48zm134.84-2.268c-2.147.75-3.679.022-4.88-1.661-.114-.16-.285-.279-.431-.416-2.936-2.764-6.555-4.232-10.326-5.365-8.184-2.458-16.637-3.162-25.104-3.53-7.587-.33-15.186-.37-22.781-.484-9.643-.145-19.248.277-28.79 1.84-7.631 1.25-15.107 3.068-22.361 5.747-2.919 1.078-5.777 2.321-8.678 3.451-2.063.804-4.048-.051-4.836-2.018-.815-2.033-.09-3.779 2.011-4.673 2.462-1.046 4.92-2.111 7.429-3.038 16.582-6.126 33.783-8.715 51.389-8.489 12.31.158 24.618.671 36.917 1.239a68.653 68.653 0 0 1 18.341 3.376c4.881 1.606 9.389 3.849 12.918 7.727.109.12.31.157.671.332 0-.644.07-1.122-.013-1.572-.243-1.326.301-2.297 1.035-3.385 1.242-1.839 2.367-3.803 3.223-5.848 1.257-3.008.245-5.958-2.431-7.797-.784-.539-1.683-.909-2.516-1.379-1.098-.62-2.184-1.263-3.274-1.895-1.516-.878-2.962-1.917-4.561-2.601-4.177-1.787-8.666-2.067-13.125-2.498-2.545-.245-5.237.241-7.563-1.317-.119-.079-.311-.058-.47-.069-7.414-.553-14.821-1.312-22.245-1.608-12.198-.488-24.363.007-36.469 1.808a148.592 148.592 0 0 0-37.996 10.938c-2.934 1.286-5.801 2.711-8.184 4.924-3.353 3.112-3.99 6.791-1.944 10.859 2.02 4.018 5.051 6.791 9.403 8.156 10.184 3.196 20.416 6.148 31.04 7.553 12.762 1.688 25.576 2.019 38.421 1.667 6.631-.182 13.264-.357 19.888-.705 5.542-.29 11.076-.781 16.605-1.271 3.299-.293 6.589-.701 9.867-1.169 1.41-.201 2.836-.545 4.157-1.069 2.664-1.057 4.576-2.96 5.663-5.76zm17.622 26.747c.801-.679 1.485-1.263 2.173-1.843 5.576-4.712 11.411-9.034 18.149-11.979 2.579-1.127 5.262-1.859 8.095-1.996 4.319-.207 7.833 2.578 9.292 7.372 1.604 5.271.722 10.278-1.604 15.118-2.671 5.557-6.614 10.165-10.947 14.466-6.322 6.277-13.399 11.631-20.69 16.706-2.547 1.772-5.227 3.353-7.836 5.035-.183.118-.375.347-.408.549-.227 1.398-.412 2.804-.643 4.429.503-.22.747-.313.98-.43 4.285-2.144 8.564-4.3 12.854-6.436 4.147-2.065 8.365-3.998 12.442-6.191 6.058-3.259 10.66-8.233 15.106-13.348 5.214-5.999 9.988-12.294 12.814-19.828 1.928-5.138 2.698-10.373.726-15.688-2.597-6.996-8.48-12.118-16.696-11.751-4.284.191-8.262 1.366-12.083 3.162-8.344 3.92-15.516 9.351-21.165 16.696-.235.306-.521.679-.534 1.03-.059 1.552-.025 3.106-.025 4.927zm-2.59 33.444l.302.186c.629-.444 1.261-.885 1.886-1.336 8.274-5.976 16.248-12.303 22.929-20.091 3.046-3.55 5.966-7.201 7.606-11.682 1.379-3.77-.052-6.417-3.903-7.492-2.892-.808-5.336.142-7.743 1.53-6.295 3.629-11.628 8.422-16.577 13.684-.489.521-.983 1.118-1.603 1.417-.867.418-1.046 1.013-1.108 1.882-.423 5.936-.889 11.868-1.359 17.801-.11 1.369-.286 2.734-.43 4.101zM222.693 459.483c-.023-4.559 1.026-8.961 1.855-13.39 2.026-10.814 4.049-21.63 6.137-32.434a2127.954 2127.954 0 0 1 4.883-24.385c1.033-5.028 2.154-10.039 3.269-15.051.434-1.954.973-2.268 2.953-1.827 4.707 1.048 9.422 2.061 14.108 3.192 3.821.923 6.739 3.193 8.908 6.447.243.365.521.72.693 1.119 2.782 6.46 5.994 12.78 6.27 20.037.052 1.382.295 2.799.71 4.118 1.125 3.579.839 7.146.38 10.784-1.001 7.943-3.77 15.316-7.21 22.44a31.65 31.65 0 0 1-4.905 7.324c-3.171 3.523-6.559 6.891-10.141 9.993-4.578 3.964-10.203 5.835-16.081 6.926-2.587.48-5.203.813-7.811 1.171-2.35.324-3.429-.503-3.745-2.886-.157-1.182-.186-2.383-.273-3.578zm44.843-47.879c-.807-6.731-1.645-12.606-3.354-18.327-1.006-3.366-2.023-6.722-3.842-9.762-1.269-2.121-3.066-3.538-5.519-4.073-1.781-.389-2.761.163-3.221 1.93-2.459 9.451-4.693 18.938-6.311 28.589-2.048 12.225-4.543 24.374-6.862 36.553-.708 3.719-1.494 7.423-2.188 11.145-.101.54-.01 1.202.242 1.675.089.168.942.014 1.411-.118 3.547-.995 6.423-3.101 9.16-5.482 8.907-7.748 15.499-16.963 18.053-28.673 1.027-4.708 1.723-9.487 2.431-13.457zM288.5 381.592c2.159 0 4.317-.01 6.476.002 5.544.032 9.802 2.543 13.022 6.913 1.108 1.504 2.003 3.165 2.994 4.755.568.912 1.082 1.863 1.71 2.732 1.872 2.593 3.032 5.489 3.932 8.535.585 1.979 1.272 3.947 2.13 5.821 1.184 2.588 1.699 5.273 1.951 8.086.792 8.85-.671 17.431-2.909 25.927a24.657 24.657 0 0 1-1.573 4.251c-2.562 5.405-5.995 10.271-9.765 14.869-4.698 5.732-11.165 8.768-17.999 11.127-1.318.455-2.651.87-3.983 1.284-2.284.709-3.647.16-4.146-2.187-.735-3.459-1.535-6.988-1.578-10.496-.226-18.556-.233-37.113-.291-55.67-.007-2.238.153-4.476.213-6.714.151-5.67.279-11.341.44-17.011.069-2.417.43-2.677 2.901-2.613 2.157.056 4.316.012 6.475.012v.377zm4.156 50.295l-.311.002v29.149c0 1.8-.02 3.6.016 5.398.022 1.15.548 1.573 1.357 1.018 2.03-1.393 4.293-2.617 5.915-4.406 10.551-11.648 15.938-25.262 15.001-41.124-.181-3.058-.393-6.144-.984-9.139-.475-2.399-1.485-4.705-2.367-7.011-2.172-5.679-4.717-11.174-8.369-16.084-1.801-2.421-4.079-4.038-7.234-4.069-1.71-.017-2.515.717-2.624 2.405-.105 1.636-.211 3.271-.286 4.909-.234 5.189-.645 10.379-.634 15.569.016 7.795.332 15.589.52 23.383zM191.606 448.94c.271-1.157.446-2.347.829-3.466 3.012-8.822 6.064-17.632 9.101-26.445a22.6 22.6 0 0 0 .429-1.369c.504-1.832.111-2.805-1.385-3.941-3.357-2.551-7.132-4.189-11.169-5.297-1.383-.379-2.741-.848-4.121-1.237-1.521-.43-2.229-.16-2.968 1.212a419.938 419.938 0 0 0-3.834 7.313c-1.44 2.803-2.849 5.621-4.277 8.43-.646 1.271-2.029 1.979-3.381 1.751-2.117-.357-2.866-1.881-1.807-3.639 7.583-12.581 15.003-25.264 22.803-37.708 4.279-6.826 9.244-13.219 13.808-19.87 2.982-4.345 6.836-7.663 11.31-10.357 1.503-.905 2.914-1.1 4.506-.26 1.691.892 3.471 1.617 5.172 2.493 3.542 1.824 4.691 4.252 3.679 8.095a3219.773 3219.773 0 0 1-6.952 25.854c-2.156 7.917-4.001 15.942-6.623 23.705-4.128 12.226-8.792 24.271-13.231 36.392-.219.599-.473 1.184-.691 1.782-1.077 2.967-2.992 3.964-6.09 3.164-3.266-.844-4.984-3.119-5.108-6.602zm24.618-88.73c-1.088.405-2.435.506-3.128 1.231-3.227 3.376-6.336 6.869-8.598 11.02-.778 1.428-1.722 2.771-2.64 4.118-1.888 2.771-3.939 5.439-5.689 8.293-3.17 5.169-6.146 10.458-9.247 15.67-1.774 2.983-1.584 3.504 1.813 4.267 4.78 1.075 9.404 2.512 13.305 5.656.214.173.483.275.728.409.787.431 1.41.251 1.758-.568.34-.799.625-1.623.885-2.452 4.267-13.624 7.705-27.46 10.537-41.449.386-1.914 1.21-3.837.276-6.195zM395.394 422.35c1.854-.25 2.295 1.013 2.752 2.222 1.643 4.337 2.919 8.774 3.559 13.376.738 5.304.769 10.604-.386 15.854-1.455 6.613-6.806 10.869-13.57 11.005-9.356.188-16.341-4.23-21.916-11.291-4.342-5.5-6.813-11.931-9.013-18.512-2.789-8.346-4.916-16.832-6.09-25.552-.902-6.701-1.512-13.424-1.237-20.199.221-5.471.999-10.78 3.845-15.635 2.63-4.487 6.671-6.416 11.612-6.986 3.695-.426 6.83 1.234 10.085 2.529 5.738 2.283 8.326 6.914 9.448 12.608.291 1.477.459 3.043.297 4.526-.15 1.375-.668 2.776-1.331 3.999-.266.488-1.397.798-2.062.7-.818-.121-.548-.994-.552-1.689-.017-2.789.158-5.633-.323-8.354-.836-4.716-3.975-7.794-8.195-9.81-1.22-.583-2.492-1.069-3.769-1.52-1.646-.581-3.003.123-3.445 1.789-1.53 5.753-2.8 11.5-2.585 17.564.219 6.189.077 12.389.945 18.543 1.01 7.157 2.623 14.186 4.521 21.155 1.85 6.793 4.101 13.415 7.811 19.465 1.745 2.846 3.709 5.491 6.18 7.753 1.624 1.486 3.494 2.517 5.588 3.136 1.793.529 2.724.194 3.864-1.286 2.426-3.148 4.202-6.62 4.765-10.578.466-3.278.836-6.582 1-9.887.225-4.539-.543-8.991-1.698-13.375a4.606 4.606 0 0 1-.154-.818c-.02-.23.03-.466.054-.732z"/><path fill-rule="evenodd" clip-rule="evenodd" fill="#406274" d="M407.539 361.294c1.004 5.124 1.915 10.267 3.029 15.366 2.529 11.577 5.666 23.02 10.052 34.009 4.563 11.433 9.517 22.75 16.508 33.004.359.527.776 1.016 1.155 1.53 1.426 1.933 1.104 4.147-.805 5.577-3.636 2.725-9.055 1.766-11.457-2.078-8.627-13.801-15.237-28.536-20.388-43.955-3.993-11.957-7.042-24.17-10.042-36.398-.481-1.959-.774-2.227-2.706-1.52-4.319 1.581-8.706 1.9-13.195 1-.502-.101-1.104-.186-1.438-.508-.369-.357-.691-1-.645-1.48.04-.404.6-1.021.997-1.079 1.652-.24 3.332-.433 4.997-.405 3.493.058 6.548-1.227 9.478-2.9.428-.244.668-.955.823-1.499.161-.564.143-1.188.152-1.786.021-1.325.708-2.115 1.968-2.328 2.157-.363 4.339-.586 6.488-.984a66.036 66.036 0 0 0 5.912-1.356c2.483-.701 4.897-1.674 7.403-2.266 1.235-.291 2.621-.081 3.918.076 1.188.144 1.714 1.057 1.15 2.093-.757 1.391-1.619 2.767-2.665 3.947-1.164 1.313-2.617 1.394-3.945.224-1.803-1.589-3.287-.345-4.83.322-1.437.622-1.895 1.854-1.914 3.394zM180.793 148.514c-.038.741-.152 1.438-.095 2.12.477 5.646.945 11.294 1.515 16.931.139 1.372.674 2.699.973 4.06.503 2.3.142 4.525-.695 6.69-1.41 3.647-4.753 5.249-8.496 4.094-2.688-.83-4.476-2.646-5.756-5.084-3.276-6.239-5.542-12.881-7.861-19.503-2.329-6.651-3.56-13.561-4.816-20.464-.057-.313-.143-.622-.204-.935-.212-1.074.07-1.79 1.293-1.944 1.578-.199 3.142-.554 4.724-.667 1.424-.102 2.194.456 2.561 1.84.345 1.302.534 2.658.663 4.003.724 7.572 2.861 14.786 5.63 21.816 1.78 4.52 3.806 8.943 5.777 13.385.326.733.937 1.34 1.46 2.067 1.415-1.397 1.549-3.079 1.585-4.676.094-4.198.081-8.4-.013-12.598-.032-1.42-.594-2.828-.634-4.249-.072-2.507.089-5.02.113-7.531.008-.793-.129-1.587-.168-2.382-.108-2.183-.242-4.366-.283-6.551-.032-1.678.06-3.358.103-5.038.039-1.516.324-1.842 1.832-1.889 1.117-.035 2.237.011 3.354.055 1.858.074 2.489.568 2.912 2.383.67 2.872 1.303 5.752 1.935 8.633 1.967 8.96 4.036 17.891 7.924 26.269.688 1.48 1.496 2.907 2.299 4.33.682 1.208 1.066 1.256 2.08.253.908-.899 1.718-1.899 2.637-2.785.288-.278.792-.332 1.197-.488.028.404.206.875.059 1.199-.719 1.581-1.261 3.345-2.353 4.632-2.755 3.249-7.264 3.068-10.015-.196-2.269-2.691-3.705-5.855-5.042-9.068-2.334-5.607-4.041-11.416-5.498-17.302a23.067 23.067 0 0 0-.358-1.258c-.017-.044-.13-.06-.339-.152zM390.563 144.218c.674.032 1.328-.082 1.869.115 1.562.566 3.098.412 4.562-.146.506-.192 1.026-.91 1.143-1.47 1.588-7.609 3.104-15.233 4.642-22.853.197-.977.445-1.944.614-2.925.155-.901.538-1.256 1.481-.924 1.201.423 2.45.708 3.646 1.144 2.213.806 2.775 1.87 2.232 4.161-1.248 5.274-2.543 10.538-3.764 15.818-.331 1.433-.484 2.908-.681 4.369-.113.848.293 1.161 1.166 1.244 2.532.238 5.06.546 7.577.912 1.532.223 1.552.238 2.055-1.31 1.995-6.133 3.924-12.292 6.082-18.368.709-1.996 1.982-3.807 3.107-5.634.641-1.041 1.286-1.069 2.328-.399 2.042 1.313 2.444 2.472 1.444 4.506-4.568 9.296-7.6 19.11-9.506 29.249-1.407 7.484-2.407 15.044-3.572 22.573-.091.588-.032 1.198-.069 1.796-.076 1.259-.712 1.787-1.964 1.65-2.656-.289-3.977-1.98-3.525-4.646.624-3.696 1.329-7.378 1.97-11.071.783-4.519 1.558-9.04 2.29-13.567.395-2.434-.301-3.26-2.759-3.32-1.878-.046-3.759-.007-5.638.023-1.451.023-1.97.4-2.236 1.811-.873 4.623-1.748 9.246-2.526 13.885-.745 4.445-1.373 8.91-2.049 13.367a10.4 10.4 0 0 0-.111 1.07c-.11 2.158-1.076 2.992-3.26 2.8-2.459-.216-4.386-2.476-4.032-5.024.8-5.765 1.7-11.517 2.61-17.266.362-2.283.845-4.547 1.299-6.814.199-.999-.075-1.448-1.18-1.532a13.88 13.88 0 0 1-3.496-.711c-.936-.33-1.777-.964-1.749-2.513zM487.564 148.591c-.292 8.5-2.706 14.606-7.569 19.659a48.583 48.583 0 0 1-5.335 4.805c-1.142.878-2.578 1.395-3.926 1.974-.613.264-1.091.516-.661 1.184 2.255 3.507 2.364 7.56 2.984 11.483.205 1.3.356 2.608.531 3.914.098.734.428 1.06 1.253 1.098.62.029 1.765.54 1.741.71-.131.975-.376 2.022-.909 2.83-.449.682-1.352.508-2.07.077-1.556-.932-2.597-2.266-2.92-4.05-.745-4.117-1.416-8.246-2.14-12.367-.145-.821-.284-1.673-.626-2.42-.301-.657-.775-1.345-1.361-1.738-1.081-.725-2.312-1.225-3.459-1.854-.751-.413-1.072.026-1.208.62a876.65 876.65 0 0 0-2.485 11.195c-.158.738-.146 1.511-.261 2.261-.225 1.463-1.167 2.019-2.593 1.564-2.735-.873-4.159-3.402-3.771-6.278 1.078-7.975 3.333-15.671 5.633-23.336 1.551-5.168 3.644-10.174 5.496-15.252.331-.908.846-1.78-.749-2.113-.845-.176-.74-.996-.458-1.693 1.061-2.621 3.126-3.799 5.822-4.135 4.357-.543 8.326.313 11.82 3.089.967.769 2.038 1.404 3.052 2.116 2.83 1.983 4.293 4.656 4.169 6.657zm-12.712-7.217c-1.439-.034-2.124.284-2.271 1.41-.07.539-.338 1.06-.565 1.567-3.629 8.087-6.461 16.457-8.863 24.979-.097.343-.199.699-.206 1.05-.014.72.286 1.094 1.039.709 1.348-.687 2.814-1.219 4.009-2.114 7.505-5.625 12.25-12.912 13.111-22.431.05-.559-.051-1.291-.381-1.698-1.622-1.995-3.751-3.169-5.873-3.472zM307.459 145.415c.959-8.833 3.648-17.091 7.48-25.014 1.854-3.833 4.468-7.084 7.657-9.877.317-.278.871-.476 1.279-.425 1.579.196 3.177.399 4.698.837.522.15 1.157.974 1.202 1.533.224 2.816.553 5.67.326 8.469-.753 9.314-2.143 18.582-1.938 27.962.104 4.794.232 9.583 2.2 14.1.322.739.376 1.633.389 2.458.021 1.315-.802 2.123-2.066 1.801-1.062-.27-2.242-.782-2.959-1.563-2.115-2.304-2.799-5.34-3.569-8.258-1.278-4.841-1.285-9.828-1.053-14.769.295-6.3.93-12.583 1.401-18.875.224-2.988.427-5.979.602-8.97.065-1.118-.645-1.52-1.607-.893-.522.34-.989.815-1.37 1.313-2.986 3.908-5.174 8.255-6.609 12.935-1.541 5.021-3.32 9.981-4.021 15.237-.677 5.084-1.106 10.165-.668 15.292.081.955.084 1.917.09 2.877.016 2.665-1.485 3.714-4.071 2.861-1.545-.51-2.502-1.857-2.643-3.641-1.102-13.98-.669-27.97-.213-41.958.059-1.787.44-3.563.685-5.343.111-.803.663-1.123 1.375-.939a58.35 58.35 0 0 1 4.226 1.278c.818.279 1.154.973 1.076 1.81-.358 3.85-.723 7.7-1.116 11.546-.341 3.331-.833 6.651-1.05 9.989-.152 2.346.037 4.714.093 7.072.01.386.114.77.174 1.155zM332.908 393.616c1.47.119 2.96.125 4.404.385 1.966.353 2.947 1.675 2.829 3.67-.235 3.985-.688 7.965-.761 11.953-.099 5.509.057 11.024.136 16.536.026 1.797.143 3.593.242 5.388.438 7.948 2.208 15.698 3.518 23.517.672 4.014-1.677 6.307-5.737 5.565-3.926-.717-5.888-3.029-6.492-7.591-.498-3.756-1.107-7.497-1.534-11.26a610.816 610.816 0 0 1-1.632-16.2 175.01 175.01 0 0 1-.469-23.116c.11-2.394.283-4.785.483-7.173.118-1.411.596-1.784 2.015-1.767.52.006 1.04.022 1.559.048.479.024.957.066 1.436.101 0-.019.002-.038.003-.056zM365.495 126.229c-.35.583-.56 1.202-.983 1.585-.823.745-1.817 1.302-2.637 2.05-.377.344-.833 1.075-.703 1.425 1.018 2.74.854 5.604.934 8.417.142 4.986.285 9.98-.602 14.938-.725 4.049-2.8 7.399-5.49 10.32-3.253 3.531-9.994 2.847-13.231-1.129-2.074-2.547-2.884-5.55-3.139-8.754-.656-8.245.299-16.33 2.379-24.305.521-1.999 1.088-3.988 1.525-6.005.165-.759.113-1.595.011-2.377-.684-5.244 3.535-8.676 8.544-6.851 2.185.796 4.213 1.816 5.117 4.288.763 2.086 1.816 4.065 2.684 6.116.53 1.254.834 1.406 2.048.802 1.01-.504 1.965-1.309 3.543-.52zm-18.861 24.74c0 1-.064 2.004.012 2.999.195 2.545.354 5.098 1.648 7.413.981 1.756 1.187 1.825 2.705.581 3.204-2.623 4.852-6.151 5.4-10.114.546-3.951.754-7.953.984-11.94.142-2.46.055-4.935.058-7.402.001-.965-.559-1.297-1.469-1.328-1.477-.049-2.968-.067-4.422-.298-1.297-.207-1.766.327-2.112 1.463-1.856 6.074-2.89 12.265-2.804 18.626zm8.082-29.052c-1.112 1.783-2.127 3.354-3.082 4.959-.524.882-.284 1.525.713 1.648 1.093.135 2.227.088 3.323-.043.361-.043.945-.596.945-.915-.001-2.003-.386-3.919-1.899-5.649zm-6.913-2.862c1.012-.169 1.999-.58 2.881-.417.955.177 1.812.888 2.741 1.383.355-1.33-.238-2.338-1.49-2.764-1.635-.555-3.453.246-4.132 1.798z"/><path fill-rule="evenodd" clip-rule="evenodd" fill="#C2B59B" d="M249.388 196.443c-4.068.021-7.794 1.439-11.582 2.711-5.145 1.728-9.169 5.122-13.216 8.498-5.413 4.514-10.995 8.783-17.207 12.151-6.719 3.644-13.846 5.985-21.528 6.361-3.766.184-7.523.07-11.081-1.417-2.338-.978-4.179-2.455-4.953-5.016-.729-2.415-.051-4.6 1.101-6.655 1.571-2.802 3.688-5.142 6.563-6.663 2.232-1.181 4.617-1.802 7.166-1.27 3.16.66 4.86 4.799 3.179 7.559-1.017 1.669-2.481 2.426-4.376 2.431-.277 0-.685-.136-.795-.338-.11-.2.009-.606.152-.847.198-.334.467-.773.788-.859.936-.251 1.659-.759 1.457-1.72-.217-1.035-.585-2.171-1.255-2.947-1.023-1.186-2.615-1.169-3.904-.562-3.357 1.583-5.748 4.147-6.844 7.756-.509 1.677.04 3.165 1.225 4.401 1.852 1.933 4.257 2.788 6.795 3.289 4.479.885 8.917.456 13.289-.69 6.728-1.764 12.839-4.89 18.403-8.985 4.921-3.623 9.62-7.548 14.398-11.363 4.492-3.585 9.319-6.598 14.871-8.202 5.024-1.452 10.144-1.74 14.998.559 4.37 2.069 8.363 4.64 10.122 9.613 2.261 6.393-.827 12.83-5.608 16.096-1.92 1.312-4.049 2-6.399 2.086-3.429.126-5.869-1.367-7.311-4.41-1.921-4.053-1.903-8.034.841-11.766 1.776-2.416 4.3-3.112 7.125-2.732 2.476.333 4.2 2.835 3.816 5.272-.195 1.238-1.865 2.251-2.955 1.745-.237-.11-.342-.492-.526-.735-.835-1.099-1.623-2.241-2.538-3.27-.56-.629-1.396-.588-1.884.094-.635.887-1.362 1.853-1.559 2.878-.427 2.219-.215 4.455.802 6.546 1.977 4.064 6.313 4.945 9.77 1.981 4.491-3.85 5.128-10.971 1.421-15.6-3.28-4.088-7.551-6.02-12.761-5.98z"/><path fill-rule="evenodd" clip-rule="evenodd" fill="#406274" d="M139.8 137.464c1.731.728 1.847 2.174 1.965 3.693.486 6.255 2.995 11.947 4.99 17.788 1.75 5.124 3.6 10.231 4.981 15.458 1.291 4.883.985 9.911-.071 14.851-.534 2.5-2.533 4.085-5.248 4.334-3.662.336-6.712-.877-8.631-4.028-3.267-5.364-4.424-11.079-1.909-17.118.992-2.383 2.751-3.766 5.476-3.665.967.036 1.213-.34.857-1.345-2.41-6.792-4.821-13.586-7.076-20.431-.604-1.832-.673-3.841-.973-5.771-.252-1.627-.36-1.703-1.878-1.128-1.453.55-2.873 1.223-4.365 1.627-1.003.271-2.112.247-3.165.189-.37-.02-.713-.533-1.069-.821.282-.298.509-.756.852-.872 6.262-2.11 12.502-4.296 18.831-6.188 1.961-.586 4.168-.378 6.265-.451.326-.011.668.422 1.002.65-.308.257-.584.679-.927.742-1.682.312-3.4.447-5.071.803-1.6.341-3.158.878-4.735 1.328-.033.12-.067.238-.101.355zm5.713 48.028c-.254-5.169-.51-9.75-2.032-14.139-.602-1.735-1.609-2.263-3.318-1.52-.892.388-1.746 1.117-2.33 1.905-1.458 1.968-1.356 4.259-.99 6.553.75 4.688 2.621 8.76 6.414 11.792.981.785 1.48.687 1.722-.546.297-1.519.412-3.073.534-4.045zM219.092 169.193c.092-5.624-2.038-10.453-5.448-14.749-1.732-2.183-3.649-4.233-5.615-6.213-3.296-3.32-6.765-6.484-8.381-11.067-1.228-3.484-2.126-7.044-1.859-10.767.365-5.099 5.091-10.073 10.121-10.807.395-.058.783-.167 1.178-.208 4.458-.47 7.189 1.291 8.408 5.655.484 1.732.643 3.596-1.104 4.914-.231.174-.652.422-.783.334-.253-.169-.393-.542-.521-.855-.07-.173-.056-.401-.02-.594.473-2.475-.768-4.396-2.152-6.188-.444-.576-1.372-1.031-2.109-1.08-1.94-.127-3.579.662-4.759 2.263-1.66 2.251-2.113 4.666-1.879 7.526.511 6.246 3.106 11.313 7.604 15.507 1.166 1.087 2.553 1.939 3.699 3.044 4.036 3.894 7.092 8.456 9.493 13.543 1.594 3.378 2.104 6.772 1.349 10.336-.304 1.435-.849 2.984-1.759 4.092-2.769 3.373-6.23 5.33-10.816 4.138-.886-.23-1.786-.414-2.657-.688-3.572-1.122-4.683-3.189-3.833-6.859.367-1.584 1.393-2.458 2.799-2.988.282-.106.669.066 1.009.11-.046.328.017.733-.154.972-1.524 2.13-.765 4.189.615 5.816.766.903 2.348 1.235 3.63 1.517.5.109 1.258-.542 1.771-.992 1.584-1.383 2.202-3.098 2.173-5.712zM371.538 162.808c-.049-13.399 2.566-26.398 6.122-39.247.553-1.997 1.097-3.996 1.651-5.992.399-1.437.3-1.693-1.185-1.923-2.564-.396-4.773-1.506-6.757-3.127-.276-.226-.617-.45-.749-.752-.137-.312-.198-.827-.028-1.056.176-.237.726-.404 1.015-.309.79.26 1.581.593 2.277 1.042 1.713 1.106 3.618 1.394 5.586 1.531.861.061 1.469-.231 1.839-1.02.54-1.148 1.391-1.44 2.557-.943 1.134.482 2.255 1.03 3.434 1.363 1.832.517 3.731.796 5.558 1.328 1.396.406 2.783.935 4.062 1.619 1.078.577 1.033 1.23.026 1.884a9.651 9.651 0 0 1-2.024 1.013c-1.239.437-1.955.191-2.432-1.002-.547-1.366-1.697-1.14-2.72-1.239-.969-.094-1.588.479-1.887 1.354-1.209 3.544-2.627 7.037-3.541 10.657-1.666 6.604-3.427 13.226-4.413 19.947-1.082 7.375-1.735 14.854-.948 22.352.25 2.374-.875 3.43-3.248 3.134-2.323-.29-4.13-2.191-4.184-4.501-.049-2.036-.011-4.075-.011-6.113zM231.111 127.692v-9.235c0-1.467-.191-1.659-1.694-1.494-2.653.291-5.179-.169-7.554-1.338-.477-.235-1.105-.884-1.07-1.291.083-.968 1-.694 1.632-.614.868.11 1.722.486 2.58.48 1.814-.012 3.641-.112 5.433-.377.417-.062.878-.878 1.036-1.429.339-1.185 1.039-1.626 2.205-1.486 1.384.167 2.766.426 4.154.467 1.425.042 2.858-.205 4.286-.188 1.734.02 3.496.022 5.189.334 1.381.255 1.466.959.477 2.011-.383.406-.785.803-1.224 1.147-1.218.957-1.968.936-2.98-.22-.853-.973-1.819-.547-2.767-.389-.948.159-1.474.781-1.52 1.735-.221 4.587-.667 9.18-.572 13.762.124 5.944.333 11.928 1.145 17.806 1.045 7.563 2.337 15.131 5.29 22.272.639 1.544.065 2.772-1.499 3.336-2.516.906-5.384-.428-6.214-2.966-2.486-7.599-4.267-15.366-5.065-23.322-.634-6.313-1.007-12.654-1.497-18.982.075-.004.152-.011.229-.019zM434.732 131.489c.369-1.149 1.104-1.43 2.08-1.403 2.73.076 5.339.583 7.951 1.478 2.736.938 5.644 1.378 8.474 2.042.426.1.903.148 1.248.381.382.258.948.778.881 1.047-.117.476-.615 1.153-1.021 1.204-1.004.125-2.048-.042-3.073-.117-1.033-.076-2.062-.224-3.096-.264-.905-.035-1.487.426-1.722 1.338-1.358 5.284-2.735 10.563-4.095 15.847a31.526 31.526 0 0 0-.505 2.336c-.283 1.602-.142 1.721 1.435 1.745 1.316.021 2.633.126 3.946.235.379.031.747.202 1.152.317-.285 1.341-1.265 1.696-2.314 1.813-1.067.12-2.153.096-3.231.091-1.792-.009-2.091.149-2.483 1.892a1538.185 1538.185 0 0 0-3.681 16.696c-.477 2.227 1.242 4.544 3.697 5.102.62.141 1.287.108 1.887.298.539.171 1.197.422 1.471.851.328.516.544 1.343.352 1.868-.125.344-1.086.601-1.627.534-1.33-.164-2.671-.427-3.938-.857-1.581-.537-3.104-1.255-4.63-1.942-3.901-1.756-5.251-4.154-4.361-8.343 1.341-6.313 2.831-12.596 4.312-18.878 1.554-6.593 3.19-13.167 4.749-19.758.646-2.729.175-3.553-2.345-4.669-.531-.235-1.009-.586-1.513-.884z"/><path fill-rule="evenodd" clip-rule="evenodd" fill="#C2B59B" d="M485.445 356.068c-.028 5.52-2.391 10.06-6.058 13.963-4.561 4.854-9.921 8.704-15.855 11.682-4.353 2.185-8.854 4.072-13.28 6.107-4.139 1.902-8.14 4.039-10.697 8.004-.918 1.423-1.504 3.071-2.15 4.654-.271.662-.507 1.234-1.324 1.005-.801-.225-1.146-.769-.927-1.647 1.002-4.003 3.247-7.168 6.474-9.677 3.545-2.757 7.641-4.478 11.73-6.2 6.941-2.922 13.75-6.086 19.679-10.835 4.054-3.248 7.426-7.032 9.174-12.048 3.078-8.835-2.71-19.66-11.714-21.918-3.173-.796-6.252-.344-9.111 1.025-7.427 3.559-12.185 9.308-13.614 17.537-.519 2.985-.034 5.905 1.328 8.633 1.984 3.973 5.869 5.314 9.891 3.422 2.025-.953 3.534-2.467 4.499-4.482.795-1.658.482-3.232-1.027-4.232-2.213-1.465-4.599-2.5-7.385-2.198-.379.041-1.11-.409-1.157-.711-.074-.482.139-1.195.494-1.525 2.139-1.981 5.829-2.278 8.402-.772 2.988 1.75 4.366 5.145 3.474 8.561-1.52 5.82-7.717 9.716-13.145 8.2-3.164-.884-5.097-3.171-6.426-6.04-1.686-3.635-1.927-7.445-.895-11.254 2.322-8.563 7.709-14.593 15.921-17.801 7.069-2.762 13.994-.472 19.022 5.744 3.035 3.751 4.685 8.261 4.677 12.803zM161.279 351.689c-.132 3.556-1.037 6.81-3.273 9.61-2.549 3.192-6.355 4.27-10.228 2.935-4.837-1.667-8.078-6.312-7.542-10.993.322-2.815 1.889-4.82 4.561-5.801 2.667-.98 5.208-.621 7.403 1.246.344.293.57 1.13.396 1.506-.16.347-.923.442-1.438.583-.207.057-.491-.149-.687-.081-2.06.719-4.216 1.266-6.13 2.27-1.739.912-2.043 2.633-1.114 4.359 1.699 3.156 4.323 5.036 7.963 5.119 2.479.057 4.345-1.25 5.636-3.309 1.992-3.178 2.486-6.7 1.687-10.279-1.857-8.314-6.859-14.096-14.854-16.993-5.985-2.169-11.973.04-16.07 5.442-5.396 7.115-4.876 15.796 1.376 23.045 4.455 5.164 10.113 8.676 16.152 11.613 3.665 1.783 7.443 3.331 11.165 4.997 3.846 1.722 7.592 3.602 10.588 6.677 1.934 1.985 3.316 4.291 4.088 6.954.121.417.335.927.198 1.271-.177.444-.612.953-1.038 1.072-.287.081-.869-.385-1.104-.746-.292-.452-.343-1.054-.534-1.579-1.266-3.482-3.526-6.238-6.68-8.063-3.166-1.831-6.491-3.417-9.844-4.888-6.528-2.864-12.911-5.965-18.545-10.399-3.178-2.501-6.189-5.168-8.521-8.541-5.539-8.01-3.925-17.664 1.86-24.07 2.681-2.968 5.833-5.096 9.833-5.749 3.191-.521 6.325-.155 9.256 1.203 7.566 3.506 12.652 9.19 14.783 17.336.362 1.384.446 2.835.657 4.253zM235.305 323.233c-5.409.409-10.975 1.597-16.046 4.794-5.951 3.751-12.08 7.202-18.853 9.333-5.56 1.749-11.2 2.457-17.014 1.682-2.683-.357-5.254-.963-7.598-2.363-3.195-1.909-4.068-5.087-2.279-8.322 2.303-4.167 7.301-6.784 11.618-6.085 2.246.364 3.552 2.202 3.303 4.649-.204 2.01-1.87 3.469-3.929 3.367-.417-.02-.821-.294-1.231-.452.314-.39.581-1.057.952-1.121 1.494-.257 1.635-1.198 1.412-2.375-.256-1.351-1.221-2.254-2.575-2.198-.927.039-2.013.152-2.724.66-1.506 1.074-3.01 2.271-4.15 3.707-1.389 1.75-1.036 3.723.583 5.282 2.485 2.393 5.609 3.286 8.928 3.614 8.466.835 16.084-1.892 23.354-5.806 3.97-2.138 7.679-4.77 11.691-6.814 5.292-2.695 10.808-4.921 16.973-4.155 2.923.362 5.582 1.342 7.938 3.29 2.039 1.685 3.92 3.372 4.936 5.883 2.467 6.1-1.702 13.524-8.21 14.565-3.945.631-6.555-.444-7.805-3.48-1.356-3.298-1.096-6.487 1.264-9.332 1.564-1.885 3.623-2.417 5.939-1.994 2.007.366 3.258 2.246 2.971 4.274-.183 1.291-1.314 2.011-2.51 1.535-.223-.089-.339-.473-.481-.734-.489-.901-.905-1.85-1.472-2.699-.451-.678-1.129-.669-1.771-.164-.188.147-.39.285-.549.46-1.878 2.068-1.715 7.091.287 9.028 1.525 1.475 3.341 1.751 5.426.827 4.49-1.993 6.271-7.993 3.681-12.505-2.573-4.485-6.679-6.192-12.059-6.351zM440.471 328.208c-2.152.807-3.841.085-4.538-1.663-.711-1.781.051-3.889 1.703-4.583 1.631-.686 3.308-.54 4.934-.012 2.525.818 4.498 2.427 5.959 4.615 1.863 2.789 1.274 5.913-1.68 7.489-1.86.992-3.986 1.685-6.072 2.022-10.125 1.643-19.024-1.919-27.566-6.813-2.255-1.292-4.491-2.614-6.747-3.901-2.907-1.659-6.145-2.176-9.386-2.68-2.702-.42-5.344-.243-7.886.803-3.675 1.513-7.365 6.024-5.647 10.958.778 2.237 2.171 3.904 4.476 4.658 2.096.686 4.09-.16 4.961-2.183.919-2.136.886-4.308-.357-6.32-.854-1.381-1.905-1.327-2.771.046-.274.437-.604.913-.658 1.399-.116 1.034-.828 1.183-1.499.94-.486-.176-1.042-.768-1.153-1.266-.394-1.765.74-3.317 2.544-3.721 3.284-.735 6.494 1.768 6.86 5.504a9.84 9.84 0 0 1-.349 3.66c-1.022 3.468-4.609 4.87-8.448 3.317-3.469-1.403-5.782-3.945-6.321-7.687-.552-3.827 1.2-6.74 4.125-9.16 6.065-5.017 12.567-4.222 19.029-1.301 4.384 1.981 8.505 4.552 12.716 6.908 5.395 3.017 11.056 5.21 17.276 5.661 3.686.267 7.277-.145 10.515-2.121a7.873 7.873 0 0 0 1.88-1.646c.97-1.158 1.08-2.487.294-3.792-1.154-1.917-2.815-3.271-4.927-4-1.78-.615-3.414.308-3.627 2.014-.101.808-.041 1.584 1.055 1.83.421.094.757.577 1.305 1.025zM449.011 214.747c-2.58.438-4.088-.587-4.404-2.635-.302-1.955 1.09-3.898 3.081-3.941 1.323-.029 2.747.18 3.965.677 2.364.966 4.098 2.771 5.275 5.032 1.572 3.018.512 5.9-2.606 7.317-2.502 1.136-5.165 1.292-7.849 1.25-9.182-.143-16.805-4.271-24.005-9.452-2.108-1.516-4.081-3.256-6.311-4.56-5.011-2.929-10.346-5.054-16.271-3.521-3.797.982-6.26 3.586-6.899 7.612-.42 2.642 1.074 5.727 3.357 7.084 2.42 1.439 4.92.665 6.014-1.93.757-1.795.866-3.656.011-5.455-.705-1.483-1.739-1.57-2.737-.285-.316.408-.695.847-.799 1.325-.202.934-.823 1.063-1.444.735-.463-.244-.968-.833-1.034-1.325-.253-1.856 1.075-3.292 3.001-3.43 2.639-.19 5.005 1.619 5.702 4.343.431 1.686.285 3.34-.336 4.938-1.503 3.862-5.125 4.416-8.699 2.665-3.239-1.586-5.189-4.364-5.352-7.98-.172-3.838 1.839-6.557 5.03-8.668 5.814-3.846 11.523-2.759 17.262-.001 3.983 1.915 7.399 4.699 10.905 7.33 4.896 3.674 10.094 6.769 16.087 8.246 4.165 1.026 8.365 1.346 12.425-.562 3.349-1.573 3.908-4.087 1.48-6.908-1.199-1.392-2.476-2.768-4.54-2.788-1.267-.012-2.143.679-2.379 1.918-.148.782-.125 1.488.872 1.818.401.132.678.633 1.198 1.151z"/><path fill-rule="evenodd" clip-rule="evenodd" fill="#406274" d="M247.516 565.375c.733 6.063 1.23 12.167 2.257 18.181 1.491 8.735 3.525 17.378 5.014 26.113.876 5.147 1.117 10.4 1.698 15.601.639 5.717 1.268 11.453 3.062 16.946.724 2.218 1.824 4.337 2.966 6.381.519.93 1.476 1.681 2.374 2.316 1.724 1.222 2.253 2.73 1.345 4.391-1.055 1.928-3.281 2.759-5.094 1.828-3.36-1.725-5.77-4.388-7.38-7.771-2.188-4.598-2.786-9.549-3.15-14.55-.375-5.139-.479-10.322-1.267-15.398-1.059-6.82-2.657-13.558-4.03-20.329-2-9.867-3.923-19.747-4.502-29.826-.163-2.83-.24-5.665-.302-8.5-.046-2.119 1.075-3.415 2.925-3.511 2.257-.117 3.997 1.161 4.24 3.188.1.828.029 1.676.058 2.514.027.798.082 1.594.125 2.39-.114.011-.227.023-.339.036z"/></svg>