<svg version="1" xmlns="http://www.w3.org/2000/svg" width="612" height="792"><path fill-rule="evenodd" clip-rule="evenodd" fill="#406274" d="M282 106c2 1 3 2 3 4l7 31 2 16v8c1 1 0 2-1 3-3 1-6 0-6-4l-3-17c0-2 0-2-2-3l-9 1-2 2v10l-1 2c-1 1-2 0-2-1v-8l2-15 1-15 1-6 3-6 2-2h5zm-5 5c-2 1-2 2-2 3l-2 9-2 18c0 2 1 2 2 2h1l8-1c2 0 2 0 2-2l-7-27v-2z"/><path fill-rule="evenodd" clip-rule="evenodd" fill="#63A6C5" d="M435 280l-4 5c-6 7-13 12-23 14l-9-1c-3 0-5-2-7-5l-4-10v-1l-1 1c-2 3-5 4-9 4-6 0-13-1-19-4l-9-4h-1l1 1c7 7 12 14 17 22 4 9 5 17 4 27-1 6-2 12-5 17l-6 7c-5 3-10 3-15 1-7-3-13-9-16-16-3-6-5-13-6-19-1-11 0-21 1-32v-1s0-1 0 0c-4 2-8 2-12 1-6-1-11-2-16-5-2-2-5-3-7-3v1c7 7 13 14 17 22 4 9 5 17 4 27-1 6-2 12-5 17-2 4-5 7-9 9-4 1-8 1-12-1-8-3-13-9-17-17-2-6-4-12-4-19l-1-22 2-14a42 42 0 0 1-25 5l-1 1-7 12c-5 5-11 7-18 6-4-1-6-3-8-7l-4-11v-4l-5 6c-7 7-15 13-24 17l-12 2c-6 1-11-1-16-6-2-2-3-5-3-9l-1-8 1-10 3-14 10-19a15 15 0 0 1 14-7c3 0 5 2 6 5 2 3 2 7 2 11l-2 8c-1 2-2 3-4 3l-3-3 1-2 1-8v-3c0-1-1-2-2-1l-4 2c-3 3-4 7-5 11-3 10-5 20-4 31l1 5c1 5 5 7 10 6l5-1c13-6 22-15 30-26 3-4 4-9 5-13 2-7 6-14 10-20 4-4 11-6 17-5 3 1 6 4 7 7 4 7 5 14 4 22l-2 15c7 1 13-1 19-4 2-2 5-4 6-7l1-5c4-17 9-33 16-49 4-9 9-17 16-24 2-3 5-6 9-8l8-1c3 1 6 5 6 9 1 5-1 10-2 15a141 141 0 0 1-40 55l-1 1-5 24a103 103 0 0 0 4 45c2 4 4 7 8 10s10 3 14 0l1-1 2-11c1-6 1-12-1-17-2-6-5-11-9-15l-9-11-4-7v-3c0-5 2-6 6-5l6 2 10 5c3 2 7 3 11 3 5 0 8-1 11-5l4-12c4-16 9-32 16-48 3-8 8-16 14-23l8-8c3-2 5-3 8-3 4 0 8 3 9 7l-1 13c-4 13-11 25-19 36l-22 23-1 1-5 24a103 103 0 0 0 4 45c2 4 4 8 7 10 5 3 10 3 15 0v-1c2-3 3-7 3-11 1-6 0-12-1-17-2-6-5-11-9-15l-9-11-4-7v-3c0-5 2-6 6-5l6 2 10 5c3 2 7 3 11 3s8-1 10-5l4-7 1-5c2-8 5-16 10-22 3-4 7-6 12-7 4-1 10 2 11 7l-1 6-8 10c-4 3-7 5-11 6l-1 2c-1 5-2 10-1 16 1 4 3 8 8 8h6l13-11 6-8c2-2 2-4 2-6 2-9 5-17 11-23 3-4 7-6 11-7 5-1 10 2 12 7l-1 6-8 10-12 7h-1c-1 6-2 12 0 18a9 9 0 0 0 13 7l14-11 11-16c0-2 2-3 3-2 3 0 4 2 3 4l-2 5c-5 7-9 14-15 19s-12 8-19 10l-10-1c-3-1-5-2-6-5-2-3-3-7-4-13zm-92-32h1l4-5c9-11 16-23 23-34l5-15v-4c0-2-1-2-2-1-4 2-6 5-9 9-5 7-8 14-12 22l-10 28zm-60 0l5-5c8-11 16-23 23-36 2-4 4-10 4-15v-3h-2l-1 1c-5 4-9 9-12 15-6 10-10 21-14 33l-3 10zm-48 31v-1c2-8 2-16 1-25l-3-8-3-2 2 1-4 3-2 4-5 11c-2 5-2 5 1 8 3 5 7 8 13 9zm-19-5v3c-2 4-2 8-2 13 1 4 4 7 8 8l2-1c4-3 7-7 9-11-7-3-12-7-17-12zm186-17h1l11-8 2-4v-4h-3l-4 3-7 12v1zm47 0h1c4-2 8-5 11-9l2-3v-4h-4l-4 4c-3 3-4 7-6 11v1z"/><path fill-rule="evenodd" clip-rule="evenodd" fill="#406274" d="M377 540l3-3c8-6 16-10 26-12 6-1 12-1 18 2 4 2 6 5 8 9 3 5 4 11 3 16 0 5-2 10-5 15l-11 16-14 14-14 8-12 4-8 6-1 2c-2 11-5 22-10 33-4 8-8 16-15 22-8 9-19 14-31 14a266 266 0 0 1-56-7c-10-3-16-10-20-18-3-8-5-15-6-23l-4-23-4-33-3-22-5-28v-7l-1-1c-3-5-2-10 2-15a92 92 0 0 1 46-20c11-2 23-3 35-3l17 1 23 2c8 2 16 3 23 7 6 3 11 7 13 14l1 1c2 1 3 2 2 4v25zm-153-8v1l3 21 4 29 4 26 3 22 4 19c1 4 3 9 6 13 3 5 9 8 15 10l18 3 16 1 16 1c7 0 14-3 21-7 9-6 15-15 19-25l7-20c1-3 3-7 3-12v-2l3-16a267 267 0 0 0 3-36l1-26v-1h-1c-3 4-8 7-12 9l-22 4-36 1a149 149 0 0 1-74-14l-1-1zm135-2c-2 1-4 0-5-2-3-3-7-4-11-5-8-3-16-4-25-4h-23a162 162 0 0 0-51 7l-8 4c-3 0-5 0-5-2-1-2 0-4 2-5l7-3c17-6 34-9 52-9a1109 1109 0 0 1 55 5c5 2 9 4 13 8v-1l1-4 4-6c1-3 0-6-3-8l-2-1-4-2-4-2c-4-2-9-2-13-3l-8-1-23-2c-12 0-24 0-36 2-13 2-26 6-38 11l-8 5c-4 3-4 7-2 11s5 6 9 8a185 185 0 0 0 70 9l20-1 16-1a187 187 0 0 0 14-2c3-1 5-3 6-6zm18 27l2-2c5-5 11-9 18-12l8-2c4 0 8 3 9 7 2 6 1 11-1 15-3 6-7 11-11 15l-21 17-8 5-1 5 1-1 13-6 12-6c6-4 11-9 15-14 6-6 10-12 13-20 2-5 3-10 1-15-3-7-8-12-17-12l-12 3a56 56 0 0 0-21 18v5zm-3 33l2-1c8-6 16-12 23-20 3-4 6-7 8-12 1-3 0-6-4-7-3-1-6 0-8 1l-17 14-1 1-1 2-2 18v4zM223 459l2-13 6-32 5-25 3-15c0-2 1-2 3-2l14 4c4 1 7 3 9 6v1c3 7 6 13 7 20v4c2 4 1 7 1 11-1 8-4 15-7 23l-5 7-10 10c-5 4-11 6-16 7l-8 1c-3 0-4-1-4-3v-4zm45-47l-4-19-4-9c-1-3-3-4-5-5-2 0-3 1-3 2l-7 29-7 37-2 11v1h2l9-5c9-8 16-17 18-29l3-13zm21-30h6c6 0 10 2 13 7l3 4 2 3 4 9 2 5 2 8a75 75 0 0 1-5 31c-2 5-6 10-10 14-4 6-11 9-18 12l-4 1c-2 1-3 0-4-2l-1-11-1-55 1-7v-17c0-3 1-3 3-3h7v1zm4 50h-1v34c0 2 1 2 2 1l6-4c10-12 16-25 15-41l-1-9-3-7c-2-6-4-11-8-16-2-3-4-4-7-4-2 0-3 0-3 2v5l-1 16 1 23zm-101 17v-4l10-26v-1l-1-4-12-6-4-1-3 1-4 8-4 8-3 2c-2 0-3-2-2-4l23-37 14-20c3-5 6-8 11-11h4l6 3c3 1 4 4 3 8l-7 25-6 24-14 37v1c-1 3-3 4-6 4-4-1-5-4-5-7zm24-89l-3 1-9 11-2 5-6 8-9 16c-2 3-2 3 2 4 5 1 9 2 13 5l1 1 2-1v-2c5-14 8-28 11-42v-6zm179 62c2 0 3 1 3 3l4 13-1 16c-1 6-6 11-13 11-10 0-17-4-22-11-5-6-7-12-9-19a139 139 0 0 1-8-46c1-5 1-11 4-15 3-5 7-7 12-7 4-1 7 1 10 2 6 2 8 7 9 13l1 4-2 4-2 1v-10c-1-5-4-8-9-10l-3-1c-2-1-3 0-4 1-1 6-3 12-2 18v19l5 21c2 6 4 13 8 19l6 8 6 3c1 1 2 0 3-1 3-3 5-7 5-11l1-10a44 44 0 0 0-2-14v-1z"/><path fill-rule="evenodd" clip-rule="evenodd" fill="#406274" d="M408 361c1 5 1 11 3 16a216 216 0 0 0 26 67l1 1c2 2 1 4-1 6-3 3-9 2-11-2-9-14-15-29-20-44a462 462 0 0 1-13-38c-4 1-9 2-13 1l-2-1v-1l1-1 5-1 9-3 1-1v-2l2-2 7-1 5-1 8-3h4l1 2-3 4c-1 2-2 2-4 1-2-2-3-1-5 0l-1 3zM181 149v2l1 17 1 4c1 2 0 4-1 6-1 4-4 6-8 4-3 0-4-2-6-5l-8-19-4-21-1-1 2-2h4c2 0 3 0 3 2l1 4c0 7 2 14 5 21l6 14 1 2c2-1 2-3 2-5v-12l-1-5 1-7-1-3v-11c0-2 0-2 2-2h3a668 668 0 0 1 5 11c2 9 4 18 8 26l2 5h3l2-3h1v1l-2 4c-3 4-7 4-10 0l-5-9a120 120 0 0 1-6-18zm210-5h6l1-1 5-23v-3l2-1 4 1c2 1 2 2 2 4l-4 16-1 5 1 1 8 1c2 0 2 0 2-2l6-18 3-6h3c2 1 2 2 1 4-5 10-8 20-9 30l-4 22v2l-2 2c-3-1-4-2-4-5l2-11 3-14c0-2-1-3-3-3h-6l-2 2-2 14-3 13v1c0 2-1 3-3 3s-4-2-4-5l3-17 1-7-1-2h-4l-1-3zm97 5c-1 8-3 14-8 19l-5 5-4 2-1 1 3 12 1 4 1 1h2l-1 3h-2c-2-1-3-2-3-4l-2-12-1-3-1-1-4-2c-1-1-1 0-1 1l-3 11v2l-2 2c-3-1-5-4-4-7l5-23 6-15c0-1 1-2-1-2v-2c1-3 3-4 6-4 4-1 8 0 11 3l3 2c3 2 5 5 5 7zm-13-8c-2 0-2 1-2 2l-1 1c-4 8-6 17-9 25v1l1 1 4-2c7-6 12-13 13-22v-2l-6-4zm-168 4c1-8 4-17 8-25 2-3 4-7 8-9l1-1 5 1 1 1v9l-2 28c0 5 0 9 2 14l1 2c0 2-1 3-2 2l-3-1-4-9-1-14 2-19a549 549 0 0 0-1-10l-2 1c-3 4-5 8-6 13-2 5-4 10-4 15-1 5-2 11-1 16v3c0 2-2 3-4 2-2 0-3-1-3-3v-42l1-5c0-1 0-2 1-1l4 1 1 2-1 11-1 10v8zm26 249h4c2 0 3 2 3 4l-1 12 1 16v6l3 23c1 4-1 6-5 6-4-1-6-3-7-8l-1-11a611 611 0 0 1-2-47l2-1h3zm32-268v2l-3 2-1 1 1 9v15c-1 4-3 7-6 10s-10 3-13-1l-3-9c-1-8 0-16 2-24l2-6v-3c-1-5 3-8 8-6 2 0 4 1 5 4l3 6 2 1c1-1 2-2 3-1zm-18 25v3l1 7c1 2 1 2 3 1 3-3 5-6 5-10l1-12v-7l-1-2h-4l-3 1-2 19zm8-29l-3 5v2l4-1h1l-2-6zm-7-3h3l2 1c1-1 0-2-1-3l-4 2z"/><path fill-rule="evenodd" clip-rule="evenodd" fill="#C2B59B" d="M249 196c-4 0-7 2-11 3-5 2-9 5-13 9l-18 12c-6 3-13 6-21 6l-11-1c-3-1-4-3-5-5-1-3 0-5 1-7 1-3 4-5 6-7l8-1c3 1 5 5 3 8l-5 2v-1l1-1 1-2-1-3h-4c-3 1-6 4-7 8l1 4c2 2 5 3 7 3h13c7-2 13-5 19-9l14-12c5-3 9-6 15-8 5-1 10-2 15 1 4 2 8 4 10 9 2 7-1 13-5 16-2 2-5 2-7 2-3 1-6-1-7-4-2-4-2-8 1-12 1-2 4-3 7-2 2 0 4 2 4 5l-3 2-1-1-2-3h-2l-2 2 1 7c2 4 6 5 10 2 4-4 5-11 1-16-3-4-7-6-13-6z"/><path fill-rule="evenodd" clip-rule="evenodd" fill="#406274" d="M140 137c2 1 2 3 2 4 0 6 3 12 5 18l5 15v15c-1 3-3 4-6 5-3 0-6-1-8-4-3-6-5-12-2-18 1-2 3-3 5-3 1 0 2-1 1-2l-7-20-1-6-2-1-4 2h-3l-1-1 1-1 18-6h8l-1 1-5 1-5 1zm6 48l-3-14c0-1-1-2-3-1l-2 2c-2 2-2 4-1 6 1 5 2 9 6 12h2l1-5zm73-16c0-5-2-10-5-15l-6-6c-3-3-7-6-8-11-2-3-2-7-2-11 0-5 5-10 10-10l1-1c5 0 7 2 8 6 1 2 1 4-1 5l-1-1c1-3-1-5-2-6l-2-1c-2-1-4 0-5 2-2 2-2 4-2 7 1 7 3 12 8 16l3 3c5 4 8 8 10 13 2 4 2 7 1 11l-1 4c-3 3-7 5-11 4l-3-1c-3-1-5-3-4-7l3-3 1 1v1c-2 2-1 4 1 5l3 2 2-1c2-1 2-3 2-6zm153-6c-1-14 2-27 6-39l1-6c1-2 1-2-1-2l-7-3v-2l1-1 2 1c2 2 4 2 5 2l2-1 3-1 3 1 6 2 4 1v2l-2 1c-1 1-2 0-3-1l-2-1-2 1-4 11-4 20c-1 7-2 15-1 22 0 3-1 4-3 3-3 0-4-2-4-4v-6zm-141-35v-10l-2-1-7-1-1-2h9l1-2 3-1h8l5 1c2 0 2 0 1 2l-1 1c-2 1-2 1-3-1h-3l-2 2v14l1 17c1 8 2 16 5 23 1 1 0 2-1 3-3 1-6 0-7-3l-5-23-1-19zm204 3l2-1 8 2 8 2h1l1 1-1 1h-6l-2 1-4 16v2l1 2h4l1 1-2 1-3 1-3 1-3 17c-1 2 1 5 3 5l2 1h2v2l-2 1-3-1-5-2c-4-2-5-4-4-8l4-19 5-20c0-3 0-4-3-5l-1-1z"/><path fill-rule="evenodd" clip-rule="evenodd" fill="#C2B59B" d="M485 356c0 6-2 10-6 14-4 5-10 9-15 12l-14 6c-4 2-8 4-10 8l-3 4c0 1 0 2-1 1l-1-1c1-4 3-7 7-10 3-3 7-4 11-6 7-3 14-6 20-11 4-3 7-7 9-12 3-9-2-20-12-22-3-1-6 0-9 1-7 4-12 9-13 18-1 3 0 6 1 8 2 4 6 6 10 4 2-1 4-3 4-5 1-1 1-3-1-4l-7-2-1-1v-1a7 7 0 0 1 12 7c-1 6-7 10-13 9-3-1-5-4-6-6-2-4-2-8-1-12 2-8 8-14 16-17 7-3 14-1 19 5 3 4 4 9 4 13zm-324-4l-3 9c-3 3-6 5-10 3-5-1-8-6-8-11 1-3 2-5 5-6 2-1 5 0 7 2l1 1-2 1h-1l-6 2c-1 1-2 3-1 4 2 3 5 5 8 5s5-1 6-3c2-3 2-7 2-10-2-8-7-14-15-17-6-2-12 0-16 5-6 7-5 16 1 23 4 6 10 9 16 12l11 5 11 7 4 7v1l-1 1-1-1-1-1c-1-4-3-7-6-8l-10-5c-7-3-13-6-19-11l-8-8c-6-8-4-18 2-24 2-3 6-5 10-6 3-1 6 0 9 1 7 4 12 9 15 17v5zm74-29c-5 1-11 2-16 5-6 4-12 7-19 9-5 2-11 3-17 2l-7-2c-3-2-4-5-2-9s7-6 11-6c2 1 4 2 3 5 0 2-1 3-3 3h-2l1-1c2-1 2-1 2-3l-3-2-3 1-4 4c-1 1-1 3 1 5s5 3 9 3c8 1 16-1 23-5l12-7c5-3 11-5 17-4 3 0 5 1 8 3 2 2 4 3 5 6 2 6-2 13-9 14-4 1-6 0-7-3-2-3-2-7 1-9 1-2 3-3 6-2 2 0 3 2 3 4 0 1-2 2-3 1l-2-3h-2c-2 2-2 7 0 9s4 2 6 1c4-2 6-8 3-12-2-5-6-7-12-7zm205 5c-2 1-3 0-4-1-1-2 0-4 2-5h5c2 1 4 2 6 5 1 2 1 5-2 7l-6 2c-10 2-19-2-28-7l-7-4-9-2h-8c-3 2-7 7-5 11 0 3 2 4 4 5s4 0 5-2v-6c-1-2-2-2-3 0l-1 1-1 1-1-1c-1-2 0-4 2-4 3-1 7 2 7 5v4c-1 4-5 5-9 3-3-1-6-3-6-7-1-4 1-7 4-9 6-5 13-5 19-2l13 7c5 3 11 5 17 6 4 0 7 0 10-2l2-2 1-4-5-4-4 2 1 2 1 1zm9-113c-3 0-4-1-4-3-1-2 1-4 3-4l4 1 5 5c1 3 0 6-3 7l-8 1c-9 0-16-4-24-9l-6-5c-5-2-10-5-16-3-4 1-6 4-7 8 0 2 1 5 3 7 3 1 5 0 6-2v-6h-2l-1 1-2 1-1-1c0-2 1-4 3-4 3 0 5 2 6 5v5c-2 3-5 4-9 2-3-1-5-4-5-8-1-4 2-6 5-8 6-4 11-3 17 0 4 1 7 4 11 7 5 4 10 7 16 8h12c4-2 4-5 2-7-1-2-3-3-5-3l-2 2 1 2 1 1z"/><path fill-rule="evenodd" clip-rule="evenodd" fill="#406274" d="M248 565l2 19 5 26 1 15 4 17c0 2 1 5 3 7l2 2c2 1 2 3 1 4-1 2-3 3-5 2-3-2-6-4-7-8-2-4-3-9-3-14l-2-16-4-20a211 211 0 0 1-4-38c-1-2 1-4 2-4 3 0 4 1 5 3v5z"/></svg>