<?xml version="1.0" encoding="iso-8859-1"?>
<!-- Generator: Adobe Illustrator 19.0.0, SVG Export Plug-In . SVG Version: 6.00 Build 0)  -->
<svg version="1.1" id="Layer_1" xmlns="http://www.w3.org/2000/svg" xmlns:xlink="http://www.w3.org/1999/xlink" x="0px" y="0px"
	 viewBox="0 0 512 512" style="enable-background:new 0 0 512 512;" xml:space="preserve">
<g>
	<g>
		<g>
			<polygon points="226.444,232.637 200.18,232.637 200.18,223.206 225.769,223.206 225.769,213.78 200.18,213.78 200.18,205.026 
				226.444,205.026 226.444,194.927 188.735,194.927 188.735,242.735 226.444,242.735 			"/>
			<rect x="285.707" y="194.927" width="11.448" height="47.137"/>
			<path d="M399.501,293.912h-6.061c-1.347,0-2.69,0-4.04-0.675c-1.347-0.668-2.69-1.342-2.69-3.363c0-1.345,0-2.694,1.343-3.368
				c1.347-0.674,2.697-0.674,4.716-0.674h20.871v-11.446h-22.219c-12.124,0-16.162,7.408-16.162,14.143
				c0,14.812,12.794,14.139,23.568,14.812c2.019,0,3.368,0.675,4.042,1.347c0.674,0.675,1.343,2.016,1.343,3.365
				c0,1.348-0.669,2.693-1.343,3.367c-1.347,1.348-2.699,1.348-4.714,1.348h-21.551v10.1h21.551
				c11.444,0,17.507-4.717,17.507-14.816c0-4.713-1.347-8.08-3.368-10.101C409.6,295.259,405.56,293.912,399.501,293.912z"/>
			<path d="M450.476,294.991c-2.038-0.716-4.263-1.079-7.207-1.079h-5.387h-0.669c-1.349,0-2.697,0-4.04-0.675
				c-2.023-0.668-2.699-1.342-2.699-3.363c0-1.345,0.676-2.694,1.352-3.368c1.347-0.674,2.69-0.674,4.714-0.674h0.674h5.385h14.815
				v-11.446h-22.221c-1.248,0-2.39,0.097-3.472,0.246c-9.032,1.717-12.69,7.497-12.69,13.898c0,14.812,12.796,14.139,23.568,14.812
				c2.019,0,3.364,0.675,4.038,1.347c0.674,0.675,1.347,2.016,1.347,3.365c0,1.348-0.674,2.693-1.347,3.367
				c-1.343,1.348-2.693,1.348-4.716,1.348h-21.541v10.1h21.541c6.739,0,11.455-2.02,14.145-4.717
				c2.693-2.69,4.038-6.057,4.038-10.099c0-0.874-0.086-1.661-0.206-2.417C458.514,298.429,452.34,295.665,450.476,294.991z"/>
			<polygon points="332.167,322.869 369.876,322.869 369.876,312.769 343.611,312.769 343.611,303.341 369.201,303.341 
				369.201,293.912 343.611,293.912 343.611,285.157 369.876,285.157 369.876,275.059 332.167,275.059 			"/>
			<path d="M503.916,153.88c4.466,0,8.084-3.618,8.084-8.084v-31.459c0-20.619-16.774-37.394-37.393-37.394H37.393
				C16.775,76.942,0,93.716,0,114.337v283.326c0,20.62,16.775,37.395,37.393,37.395h437.214c20.619,0,37.393-16.775,37.393-37.395
				V172.026c0-4.466-3.618-8.084-8.084-8.084c-4.466,0-8.084,3.618-8.084,8.084v225.637c0,11.705-9.522,21.227-21.225,21.227H37.393
				c-11.704,0-21.225-9.522-21.225-21.227V114.337c0-11.704,9.521-21.226,21.225-21.226h437.214
				c11.703,0,21.225,9.522,21.225,21.226v31.459C495.832,150.262,499.45,153.88,503.916,153.88z"/>
			<path d="M148.768,242.064v0.001h3.601h0.496l15.665-35.511v0.018l0.675-1.545v33v4.038h4.039h6.736v-47.138h-18.183
				l-13.467,32.321l-0.216,0.698l-6.101-13.854l-8.496-18.491h-0.025l-0.317-0.675h-13.801h-4.039v45.115l-18.853-45.114H79.648
				l-19.922,47.138h11.836l2.478-5.311l2.236-4.79h22.898l4.714,10.101h22.893v-37.039l16.16,37.038H148.768z M80.318,221.861
				l7.409-18.854l7.406,18.854H80.318z"/>
			<path d="M324.754,242.734h12.796l4.04-10.771h23.57l1.962,4.906l2.078,5.195h11.446v0.028h11.377v-6.161l0.069,0.07v-29.629
				l21.547,35.691h14.817V195.6h-11.45v32.994L397.479,195.6h-16.833v26.26v1.345v15.209v2.301l-4.964-11.879l-13.893-33.237H351.69
				h-6.735l-13.903,33.247l-1.586,3.79h-4.714c-3.364,0-6.057-0.674-8.08-2.697c-2.69-2.693-3.366-6.059-3.366-11.447
				c0-4.713,1.347-8.753,3.366-10.771c2.697-2.023,4.716-2.695,8.756-2.695h9.823h0.952v-2.22v-7.88h-10.775
				c-7.405,0.002-13.468,1.345-16.833,5.388c-4.716,5.385-6.059,12.123-6.059,18.857c0,8.753,2.017,14.14,6.059,18.18
				C312.634,241.389,319.371,242.734,324.754,242.734z M353.71,203.006l7.411,18.854h-15.49L353.71,203.006z"/>
			<path d="M245.294,231.972v-6.741h12.123c3.174,0,5.091,0.011,6.099,0.664c0.698,0.297,1.343,0.718,1.979,1.354
				c0.848,1.129,1.328,2.495,1.615,3.899c0,0.001,0,0.001,0,0.002c0.296,1.457,0.382,2.946,0.4,4.264c0,0.006,0,0.013,0,0.019
				c0.006,0.434,0.009,0.856,0.009,1.243v5.389h10.099v-9.427c0-0.41-0.011-0.788-0.025-1.159c0-0.02,0.002-0.037,0.002-0.058
				c0-0.037-0.004-0.069-0.004-0.107c-0.004-0.064-0.009-0.127-0.011-0.191c-0.009-0.516-0.038-1.004-0.083-1.474
				c-0.012-0.127-0.03-0.245-0.045-0.37c-0.04-0.346-0.086-0.686-0.146-1.008c-0.021-0.111-0.044-0.217-0.065-0.326
				c-0.07-0.337-0.148-0.662-0.236-0.972c-0.019-0.068-0.037-0.135-0.057-0.202c-0.111-0.37-0.232-0.723-0.364-1.055
				c-0.391-0.977-0.87-1.804-1.392-2.489c-0.185-0.259-0.404-0.528-0.659-0.798c-0.019-0.015-0.042-0.026-0.059-0.041
				c-2.017-2.096-4.261-2.549-4.261-2.549c3.307-1.326,7.907-5.258,8.064-12.424c-0.078-5.203-2.07-8.49-5.37-10.471
				c-3.368-2.02-7.411-2.02-13.467-2.02h-25.59v0v32.295v14.844h11.445V231.972z M245.294,205.026h13.47c2.019,0,4.04,0,5.387,0.672
				c0.857,0.431,1.712,1.139,2.046,2.293l0.004-0.001c0.017,0.055,0.015,0.102,0.027,0.156c0.046,0.196,0.084,0.397,0.101,0.614
				c0.377,2.374-0.324,4.111-0.935,5.078c-0.15,0.273-0.331,0.511-0.526,0.721c-0.091,0.105-0.157,0.177-0.157,0.177l-0.004-0.009
				c-0.17,0.157-0.354,0.298-0.556,0.4c-1.347,0.675-3.368,0.675-5.387,0.675h-13.47V205.026z"/>
			<path d="M480.988,292.837v-26.53c0-0.335-0.011-0.67-0.029-1.001v-1.022c0-8.929-7.24-16.168-16.168-16.168h-10.065v-62.617
				c0-8.929-7.238-16.168-16.168-16.168h-30.304c-0.687,0-1.362,0.043-2.025,0.125c-0.663-0.083-1.334-0.125-2.015-0.125h-31.646
				c-0.687,0-1.362,0.043-2.025,0.125c-0.663-0.082-1.337-0.125-2.017-0.125H325.43c-4.501,0-8.733,0.395-12.741,1.195
				c-1.886-0.771-3.949-1.195-6.114-1.195h-30.303c-1.686,0-3.313,0.259-4.844,0.737c-2.529-0.49-5.181-0.737-7.949-0.737H155.066
				c-2.631,0-5.162,0.639-7.408,1.797c-2.246-1.159-4.777-1.797-7.408-1.797h-24.242h-10.101c-0.57,0-1.133,0.029-1.688,0.087
				c-0.554-0.058-1.115-0.087-1.679-0.087h-0.674H72.912c-6.482,0-12.339,3.872-14.877,9.837l-13.401,31.491l-15.415,34.185
				c-0.056,0.122-0.11,0.247-0.162,0.371l-0.285,0.675c-2.103,4.992-1.566,10.706,1.43,15.219c2.995,4.512,8.053,7.225,13.47,7.225
				h0.285H78.3h0.43c3.091,0,6.033-0.879,8.539-2.439c2.508,1.56,5.45,2.439,8.539,2.439h25.581v3.294v60.673
				c0,8.929,7.238,16.168,16.168,16.168h59.257c3.264,0,6.426-0.987,9.089-2.796c2.655,1.804,5.815,2.796,9.089,2.796h0.675h34.144
				h1.548h0.674h0.67c3.315,0,6.396-0.997,8.961-2.709c2.735,2.12,6.169,3.381,9.895,3.381h30.305c0.568,0,1.129-0.029,1.683-0.086
				c0.554,0.057,1.113,0.086,1.682,0.086h91.579c2.596,0,6.185-0.184,10.086-0.924c1.688,0.598,3.507,0.924,5.402,0.924h28.955
				c6.779,0,16.676-0.613,24.789-5.859c10.476-6.42,17.065-17.377,18.15-30.173c0.038-0.304,0.071-0.608,0.099-0.916
				c0.059-0.667,0.078-1.333,0.055-1.996c0.005-0.251,0.01-0.515,0.01-0.792C484.354,303.753,483.154,297.94,480.988,292.837z
				 M134.861,244.084v4.275v3.13v0.675h-7.98H95.808l-4.04-10.774h-8.754l-4.041,10.099l-0.244,0.675h-0.43H43.957h-0.285
				l0.285-0.675l15.486-34.342l13.469-31.648h28.954h0.674l3.367,8.081v-8.081h10.101h24.242l7.406,16.835l7.411-16.835H263.48
				c5.389,0,9.427,1.348,12.794,4.041v-3.367v-0.674h30.303v4.041c5.385-2.693,11.448-4.041,18.855-4.041h43.094l4.042,8.081v-8.081
				h31.646l4.04,8.081v-8.081h30.303v62.617v3.374h-29.629h-0.674h-1.343l-6.063-10.099v3.366v3.359v3.374H361.79l-4.04-10.771
				h-9.425l-4.04,10.771h-20.202c-8.082,0-14.139-2.017-18.181-4.04v0.666v3.374h-48.484v-3.361v-11.453
				c0-2.021,0-2.021-1.345-2.021h-1.347v13.461v4.049h-0.675h-77.44h-15.487v-0.675v-3.374v-4.031l-3.366,8.08h-19.526
				L134.861,244.084z M468.102,311.445c-0.581,7.854-4.488,14.436-10.688,18.157c-4.038,2.696-10.103,3.368-16.162,3.368h-28.957
				v-1.35v-2.694c-3.368,2.694-9.425,4.043-15.488,4.043h-91.579v-1.35v-14.139c0-2.02,0-2.02-2.021-2.02h-1.343v16.159v1.35
				h-30.305v-1.35v-16.833c-4.711,2.023-10.775,2.023-15.486,2.023h-3.37v8.754v6.734h-0.67h-0.674h-1.548h-9.72h-17.836h-6.587
				h-0.675l-8.44-9.74l-9.738,9.74h-59.257v-60.673v-3.328v-1.991v-2.023h53.195h4.588h2.819l8.755,10.102l9.429-10.102h40.398
				c3.758,0,11.008,0.586,14.711,3.374c0,0,0,0,0.001,0c0.279,0.21,0.542,0.429,0.778,0.665v-0.665v-1.351v-2.023h36.364
				c3.364,0,10.775,0.675,14.815,4.039v-0.682v-1.333v-2.023h55.213v3.374v0.665c2.699-2.69,8.756-4.039,13.469-4.039h30.977v3.374
				v0.665c0,0,0.02-0.017,0.061-0.047c0.002-0.002,0.004-0.004,0.006-0.005c0.124-0.095,0.417-0.316,0.838-0.608
				c0.002-0.002,0.004-0.003,0.006-0.004c1.651-1.146,5.262-3.374,8.383-3.374c1.939,0,9.007,0,16.051,0c8.204,0,16.374,0,16.374,0
				v2.023h0.029v30.301c2.021,3.366,3.366,8.081,3.366,12.795c0,0.44-0.019,0.872-0.04,1.306l0.041,0.039
				C468.164,310.981,468.131,311.213,468.102,311.445z"/>
			<path d="M257.416,275.734h-35.688l-14.142,15.486l-0.342,0.354l-2.514-2.742l-11.958-13.098h-43.77v47.136h43.096l14.813-15.49
				l0.628,0.724l0.045-0.05l12.882,14.816h22.133v-7.408h0.001v-4.041v-4.042v-2.016h13.469c10.097,0,19.526-2.696,19.526-16.163
				c0-1.762-0.206-3.313-0.558-4.709C272.101,277.444,264.345,275.734,257.416,275.734z M186.713,313.444h-27.607v-10.103h6.066
				h18.849v-9.429h-18.849h-6.066v-8.755h28.281l12.121,14.143L186.713,313.444z M231.158,318.826L213.648,299.3l17.509-18.856
				V318.826z M257.417,297.278h-14.815v-12.121h14.139c4.042,0,6.737,2.023,7.411,6.063
				C264.152,295.259,261.457,297.278,257.417,297.278z"/>
			<path d="M325.43,287.855c0-5.387-2.693-8.755-6.059-10.777c-3.371-2.018-8.084-2.018-13.469-2.018h-25.501h-0.086v0.094v32.134
				v15.583h11.446v-10.128v-7.379h12.12c4.04,0,6.737,0,8.08,2.016c2.023,2.023,2.023,6.734,2.023,9.432v6.059h11.446v-9.425
				c0-0.457-0.013-0.891-0.029-1.315c-0.008-0.154-0.017-0.301-0.026-0.45c-0.015-0.257-0.031-0.509-0.053-0.752
				c-0.017-0.181-0.033-0.359-0.053-0.534c-0.022-0.189-0.046-0.37-0.071-0.551c-0.027-0.196-0.054-0.395-0.086-0.582
				c-0.015-0.091-0.036-0.175-0.053-0.263c-0.152-0.799-0.347-1.528-0.594-2.191c-0.012-0.031-0.023-0.065-0.036-0.096
				c-0.088-0.231-0.181-0.456-0.28-0.673c-0.221-0.48-0.462-0.933-0.738-1.35c-0.674-1.347-2.695-2.698-6.063-4.04
				C320.717,299.301,325.43,295.26,325.43,287.855z M313.308,291.22c0,2.017-0.674,4.039-2.021,4.714
				c-1.343,0.674-3.366,0.674-5.385,0.674h-13.469v-10.776h13.469c2.019,0,4.042,0,5.385,0.674
				C312.635,287.18,313.983,288.529,313.308,291.22z"/>
		</g>
	</g>
</g>
<g>
</g>
<g>
</g>
<g>
</g>
<g>
</g>
<g>
</g>
<g>
</g>
<g>
</g>
<g>
</g>
<g>
</g>
<g>
</g>
<g>
</g>
<g>
</g>
<g>
</g>
<g>
</g>
<g>
</g>
</svg>
