<svg xmlns="http://www.w3.org/2000/svg" width="350.8" height="86.4"><path fill="#faebd7" stroke="#000" d="M6.55 61.06C5.45 65.18 4.58 69 3.96 72.5c.91 0 1.85-.38 2.81-1.15.96-.77 1.68-1.92 2.16-3.45 1.01-3.46 3.57-11.69 7.7-24.7 2.02-.19 4.36-.32 7.02-.4 2.67-.07 5.92-.1 9.76-.1-1.78 5.71-3.05 10.15-3.82 13.32-1.15 4.46-1.73 8.08-1.73 10.87 0 1.87.38 3.23 1.12 4.07.74.84 2.03 1.35 3.85 1.54-.09-.86-.14-1.72-.14-2.59 0-4.08.79-9.89 2.37-17.42.48-2.45 1.23-5.74 2.24-9.87 1.24 0 2.32-.13 3.24-.39.91-.27 1.84-.9 2.8-1.91-.62 0-1.65-.05-3.09-.14-1.06-.1-1.83-.15-2.31-.15 1.35-5.13 2.7-10.05 4.07-14.76 1.37-4.7 2.53-8.33 3.49-10.87-1.48 0-2.8 1.25-3.96 3.74-.62 1.3-1.62 3.99-2.98 8.07-1.37 4.08-2.8 8.59-4.29 13.53-4.41-.43-8.49-.64-12.24-.64-1.05 0-2.45.04-4.17.14l5.61-18.29c.39-1.25.58-2.28.58-3.09 0-1.01-.25-1.84-.76-2.49-.5-.65-1.35-.97-2.55-.97-1.78 0-3.82.71-6.12 2.12a20.717 20.717 0 0 0-5.87 5.4c-1.61 2.19-2.41 4.31-2.41 6.38 0 1.24.34 2.24 1.04 2.98.7.75 1.79 1.12 3.28 1.12-.24-.72-.36-1.54-.36-2.45 0-1.63.43-3.53 1.29-5.69.87-2.16 1.98-4 3.35-5.54s2.8-2.3 4.28-2.3c.44 0 .71.07.83.21.12.15.18.41.18.79 0 .87-.15 1.76-.47 2.67-.31.91-.49 1.44-.54 1.58-2.3 6.63-4.34 12.65-6.12 18.07-3.93.82-5.92 2.28-5.97 4.4l4.75-.51c-2.45 7.49-4.22 13.3-5.33 17.43zm39.13 6.01c1.52 1.56 3.69 2.34 6.52 2.34 3.6 0 7.1-1.3 10.51-3.89s6.07-6.02 7.99-10.3l-.86-.64c-1.87 3.6-4.3 6.62-7.27 9.07-2.98 2.45-5.93 3.67-8.86 3.67-2.06 0-3.53-.58-4.39-1.73-.86-1.15-1.3-2.59-1.3-4.32 0-.91.1-1.77.29-2.59 2.79-.29 5.57-1.08 8.35-2.38 2.79-1.29 5.07-2.96 6.84-5 1.78-2.04 2.67-4.24 2.67-6.59 0-2.93-1.49-4.39-4.47-4.39-2.73 0-5.53 1.12-8.38 3.35-2.86 2.23-5.22 4.98-7.1 8.24-1.87 3.27-2.8 6.31-2.8 9.15 0 2.44.75 4.45 2.26 6.01zm9.33-12.78c-2.21 1.29-4.32 2.3-6.34 3.02.63-2.25 1.67-4.53 3.13-6.84 1.47-2.3 3.08-4.2 4.83-5.69 1.75-1.48 3.37-2.23 4.86-2.23.57 0 .97.13 1.19.4.21.26.32.68.32 1.26 0 1.92-.78 3.75-2.34 5.51-1.56 1.75-3.44 3.27-5.65 4.57zm15.01 12.09c.94 1.35 2.39 2.02 4.36 2.02 4.89 0 9.4-4.42 13.53-13.25l-1.08-.57c-1.44 3.16-3.08 5.88-4.93 8.13-1.85 2.26-3.66 3.39-5.44 3.39-2.11 0-3.16-1.85-3.16-5.55 0-2.06.31-4.49.93-7.27 3.31-2.74 6.43-6.31 9.36-10.73 2.93-4.41 5.29-8.77 7.09-13.07 1.8-4.29 2.7-7.54 2.7-9.75 0-1.2-.22-2.39-.68-3.57-.46-1.17-1.02-1.76-1.69-1.76-1.63 0-4.29 2.98-7.96 8.93-3.67 5.95-6.99 12.63-9.97 20.05-2.98 7.42-4.46 13.28-4.46 17.6 0 2.26.46 4.06 1.4 5.4zm12.6-25.52c-2.52 4.01-5.1 7.33-7.74 9.97 1.25-4.32 2.98-8.85 5.18-13.61 2.21-4.75 4.36-8.77 6.45-12.06 2.09-3.28 3.47-4.93 4.14-4.93.33 0 .5.39.5 1.15 0 1.64-.79 4.29-2.37 7.96-1.59 3.67-3.64 7.51-6.16 11.52zm4.39 25.52c.94 1.35 2.39 2.02 4.36 2.02 4.89 0 9.41-4.42 13.53-13.25l-1.08-.57c-1.44 3.16-3.08 5.88-4.93 8.13-1.85 2.26-3.66 3.39-5.43 3.39-2.12 0-3.17-1.85-3.17-5.55 0-2.06.31-4.49.93-7.27 3.32-2.74 6.44-6.31 9.36-10.73 2.93-4.41 5.3-8.77 7.1-13.07 1.8-4.29 2.7-7.54 2.7-9.75 0-1.2-.23-2.39-.69-3.57-.45-1.17-1.02-1.76-1.69-1.76-1.63 0-4.28 2.98-7.96 8.93-3.67 5.95-6.99 12.63-9.97 20.05-2.97 7.42-4.46 13.28-4.46 17.6 0 2.26.47 4.06 1.4 5.4zm12.6-25.52c-2.52 4.01-5.1 7.33-7.74 9.97 1.25-4.32 2.98-8.85 5.19-13.61 2.2-4.75 4.35-8.77 6.44-12.06 2.09-3.28 3.47-4.93 4.14-4.93.34 0 .5.39.5 1.15 0 1.64-.79 4.29-2.37 7.96-1.59 3.67-3.64 7.51-6.16 11.52zm3.42 25.88c.91 1.2 2.35 1.8 4.32 1.8 1.73 0 3.57-.69 5.51-2.08 1.94-1.4 3.78-3.22 5.51-5.48 1.01.48 2.16.72 3.45.72 1.78 0 3.51-.5 5.19-1.51 1.68-1.01 2.97-2.57 3.89-4.68l-.87-.72c-.77 1.78-1.89 3.09-3.38 3.93-1.49.84-2.93 1.26-4.32 1.26-.96 0-1.87-.24-2.74-.72 1.44-2.16 2.61-4.38 3.49-6.66.89-2.28 1.34-4.34 1.34-6.16 0-1.73-.38-3.08-1.12-4.07-.74-.98-2.03-1.47-3.85-1.47-2.16 0-3.88.88-5.15 2.66-1.27 1.78-1.91 3.91-1.91 6.41 0 1.92.37 3.77 1.12 5.54.74 1.78 1.79 3.22 3.13 4.32-1.34 1.73-2.71 3.12-4.1 4.18-1.4 1.05-2.6 1.58-3.6 1.58-1.73 0-2.6-1.37-2.6-4.1 0-1.15.3-2.65.9-4.5.6-1.85 1.31-3.59 2.13-5.22.81-1.63 1.51-2.69 2.09-3.17-.58-.24-1.08-.36-1.52-.36-1.29 0-2.59.72-3.88 2.16-1.3 1.44-2.36 3.24-3.17 5.4-.82 2.16-1.23 4.22-1.23 6.19 0 1.97.46 3.55 1.37 4.75zm17.93-14.5c-.77 1.94-1.78 3.85-3.02 5.72-.82-.96-1.43-2.12-1.84-3.49-.41-1.37-.61-2.8-.61-4.29 0-1.34.23-2.58.68-3.7.46-1.13 1.03-2.02 1.73-2.67.7-.65 1.38-.97 2.05-.97.63 0 1.14.34 1.55 1.01.41.67.61 1.68.61 3.02 0 1.63-.38 3.42-1.15 5.37zm6.98 17.67c0 1.3.41 2.19 1.23 2.67.19-.39.5-1.07.93-2.06.44-.98.96-2.01 1.59-3.09.62-1.08 1.44-2.15 2.45-3.21 0-.52-.18-.99-.54-1.4-.36-.41-.78-.61-1.26-.61-1.01 0-2 .89-2.96 2.66-.96 1.78-1.44 3.46-1.44 5.04zm42.16-3.09c.94.86 2.22 1.29 3.85 1.29 2.88 0 5.74-1.27 8.57-3.81 2.83-2.55 4.99-5.48 6.48-8.79l-.94-.72c-.62 1.44-1.63 3.01-3.02 4.72-1.39 1.7-2.92 3.13-4.57 4.28-1.66 1.15-3.21 1.73-4.65 1.73-1.44 0-2.16-.72-2.16-2.16 0-1.01.53-2.66 1.59-4.97.67-1.68 1.17-3.03 1.51-4.07a9.9 9.9 0 0 0 .5-3.13c0-1.63-.42-2.96-1.26-3.99-.84-1.04-2-2.08-3.49-3.14-.91-.62-1.57-1.14-1.98-1.54-.41-.41-.61-.86-.61-1.34.05-.24.19-.69.43-1.36.24-.68.36-1.11.36-1.3 0-1.15-.33-1.73-1.01-1.73-.28 0-.68.22-1.18.65-.51.43-.94 1.03-1.3 1.8-.36.77-.54 1.58-.54 2.45 0 .67.24 1.25.72 1.73-1.58 4.65-3.53 9.21-5.83 13.68l.65 1.22c.81-1.39 1.82-3.37 3.02-5.94 1.2-2.57 2.33-5.2 3.38-7.88.24.14.7.44 1.37.9.67.45 1.29 1.03 1.84 1.72.55.7.83 1.65.83 2.85 0 .81-.16 1.69-.47 2.63-.31.93-.78 2.19-1.41 3.78-1.39 3.07-2.08 5.42-2.08 7.05 0 1.39.46 2.52 1.4 3.39zm17.71.25c1.51 1.56 3.69 2.34 6.52 2.34 3.6 0 7.1-1.3 10.51-3.89s6.07-6.02 7.99-10.3l-.86-.64c-1.87 3.6-4.3 6.62-7.27 9.07-2.98 2.45-5.93 3.67-8.86 3.67-2.06 0-3.53-.58-4.39-1.73-.87-1.15-1.3-2.59-1.3-4.32 0-.91.1-1.77.29-2.59 2.78-.29 5.57-1.08 8.35-2.38 2.79-1.29 5.07-2.96 6.84-5 1.78-2.04 2.67-4.24 2.67-6.59 0-2.93-1.49-4.39-4.47-4.39-2.73 0-5.53 1.12-8.39 3.35-2.85 2.23-5.22 4.98-7.09 8.24-1.87 3.27-2.81 6.31-2.81 9.15 0 2.44.76 4.45 2.27 6.01zm9.33-12.78c-2.21 1.29-4.32 2.3-6.34 3.02.62-2.25 1.67-4.53 3.13-6.84 1.47-2.3 3.07-4.2 4.83-5.69 1.75-1.48 3.37-2.23 4.86-2.23.57 0 .97.13 1.18.4.22.26.33.68.33 1.26 0 1.92-.78 3.75-2.34 5.51-1.56 1.75-3.45 3.27-5.65 4.57zm12.99 13.79c.99 1.03 2.27 1.54 3.85 1.54 1.68 0 3.38-.67 5.08-2.01 1.7-1.35 3.64-3.46 5.8-6.34-.15.77-.22 1.47-.22 2.09 0 1.39.44 2.58 1.33 3.56.89.99 2.17 1.48 3.85 1.48 1.68 0 3.44-.55 5.26-1.66 1.82-1.1 3.53-2.65 5.11-4.64 1.59-1.99 2.88-4.26 3.89-6.8l-.72-.72c-2.06 3.6-4.15 6.39-6.26 8.38-2.12 2-3.87 2.99-5.26 2.99-.82 0-1.43-.32-1.84-.97-.4-.65-.61-1.38-.61-2.2 0-.91.24-1.9.72-2.98s1.13-2.32 1.95-3.71c.09-.15.37-.64.82-1.48.46-.84.69-1.45.69-1.83 0-.48-.33-.88-.97-1.19-.65-.31-1.29-.52-1.91-.61-2.98 4.36-5.76 8.07-8.35 11.12-2.6 3.05-4.85 4.57-6.77 4.57-1.3 0-1.95-.93-1.95-2.81 0-2.35.78-5.16 2.34-8.42 1.56-3.26 3.51-6.07 5.84-8.42 2.32-2.36 4.54-3.53 6.66-3.53 1.2 0 2.08.37 2.66 1.11.58.75.86 1.72.86 2.92 0 .82-.12 1.66-.36 2.52 1.11 0 1.97-.24 2.6-.72.62-.48.93-1.27.93-2.38 0-1.58-.62-2.88-1.87-3.88-1.25-1.01-2.81-1.52-4.68-1.52-2.98 0-6.02 1.23-9.14 3.68-3.12 2.44-5.7 5.42-7.74 8.92-2.04 3.51-3.06 6.68-3.06 9.51 0 1.92.49 3.39 1.47 4.43zm32.29-1.23c1.11 1.03 2.36 1.55 3.75 1.55 2.11 0 4.47-1.22 7.09-3.67s5.15-5.69 7.6-9.72c-.92 3.5-1.37 6.07-1.37 7.7 0 1.49.38 2.76 1.15 3.82.77 1.05 1.97 1.58 3.6 1.58 1.63 0 3.35-.56 5.15-1.69 1.8-1.13 3.49-2.68 5.07-4.64a23.83 23.83 0 0 0 3.75-6.56l-.87-.64c-.96 2.11-2.11 3.97-3.45 5.58-1.35 1.6-2.7 2.85-4.07 3.74-1.37.89-2.56 1.33-3.56 1.33-.77 0-1.24-.27-1.41-.83-.17-.55-.25-1.62-.25-3.2 0-4.03 1.06-8.75 3.17-14.15s4.94-11.79 8.49-19.19c1.73-3.64 2.98-6.34 3.75-8.1.77-1.75 1.15-2.98 1.15-3.7 0-.48-.14-.88-.43-1.19-.29-.31-.63-.47-1.01-.47-1.73 0-3.85 2.7-6.37 8.1-2.52 5.4-5.65 12.95-9.4 22.64-1.49 3.84-3.19 7.28-5.11 10.3-1.92 3.02-3.82 5.36-5.69 7.02-1.87 1.66-3.45 2.48-4.75 2.48-.82 0-1.45-.31-1.91-.93-.45-.63-.68-1.47-.68-2.52 0-1.97.71-4.49 2.12-7.56 1.42-3.07 3.25-5.75 5.51-8.03 2.26-2.28 4.58-3.42 6.98-3.42 1.35 0 2.26.36 2.74 1.08.1-.48.14-.82.14-1.01 0-1.49-1.05-2.23-3.16-2.23-2.84 0-5.76 1.25-8.79 3.74-3.02 2.5-5.54 5.51-7.56 9.04-2.01 3.53-3.02 6.61-3.02 9.25 0 1.97.55 3.47 1.65 4.5zm34.82.22c1.51 1.56 3.68 2.34 6.51 2.34 3.6 0 7.11-1.3 10.51-3.89 3.41-2.59 6.08-6.02 8-10.3l-.87-.64c-1.87 3.6-4.29 6.62-7.27 9.07-2.98 2.45-5.93 3.67-8.86 3.67-2.06 0-3.52-.58-4.39-1.73-.86-1.15-1.29-2.59-1.29-4.32 0-.91.09-1.77.28-2.59 2.79-.29 5.57-1.08 8.36-2.38 2.78-1.29 5.06-2.96 6.84-5 1.77-2.04 2.66-4.24 2.66-6.59 0-2.93-1.49-4.39-4.46-4.39-2.74 0-5.54 1.12-8.39 3.35-2.86 2.23-5.22 4.98-7.09 8.24-1.88 3.27-2.81 6.31-2.81 9.15 0 2.44.75 4.45 2.27 6.01zm9.32-12.78c-2.21 1.29-4.32 2.3-6.34 3.02.63-2.25 1.67-4.53 3.14-6.84 1.46-2.3 3.07-4.2 4.82-5.69 1.75-1.48 3.37-2.23 4.86-2.23.58 0 .97.13 1.19.4.21.26.32.68.32 1.26 0 1.92-.78 3.75-2.34 5.51-1.56 1.75-3.44 3.27-5.65 4.57zm22 12.53c.93.86 2.22 1.29 3.85 1.29 2.88 0 5.73-1.27 8.57-3.81 2.83-2.55 4.99-5.48 6.48-8.79l-.94-.72c-.62 1.44-1.63 3.01-3.02 4.72-1.4 1.7-2.92 3.13-4.58 4.28-1.65 1.15-3.2 1.73-4.64 1.73-1.44 0-2.16-.72-2.16-2.16 0-1.01.53-2.66 1.58-4.97.68-1.68 1.18-3.03 1.52-4.07.33-1.03.5-2.07.5-3.13 0-1.63-.42-2.96-1.26-3.99-.84-1.04-2-2.08-3.49-3.14-.91-.62-1.57-1.14-1.98-1.54-.41-.41-.61-.86-.61-1.34.04-.24.19-.69.43-1.36.24-.68.36-1.11.36-1.3 0-1.15-.34-1.73-1.01-1.73-.29 0-.68.22-1.19.65-.5.43-.93 1.03-1.29 1.8s-.54 1.58-.54 2.45c0 .67.24 1.25.72 1.73-1.59 4.65-3.53 9.21-5.84 13.68l.65 1.22c.82-1.39 1.83-3.37 3.03-5.94 1.2-2.57 2.32-5.2 3.38-7.88.24.14.7.44 1.37.9.67.45 1.28 1.03 1.83 1.72.56.7.83 1.65.83 2.85 0 .81-.15 1.69-.47 2.63-.31.93-.78 2.19-1.4 3.78-1.39 3.07-2.09 5.42-2.09 7.05 0 1.39.47 2.52 1.41 3.39zm20.41-13.61c-.72 2.25-1.08 4.13-1.08 5.61 1.77-2.54 4.39-7.06 7.85-13.57 3.45-6.5 6.54-12.68 9.25-18.54 2.71-5.85 4.07-9.41 4.07-10.65 0-.48-.15-.88-.44-1.19-.28-.31-.62-.47-1-.47-1.73 0-3.86 2.7-6.38 8.1-2.52 5.4-5.65 12.95-9.39 22.64-1.2 3.12-2.16 5.81-2.88 8.07zm-4.83 13.25c.44.33.99.5 1.66.5.91 0 1.76-.35 2.56-1.04.79-.7 1.18-1.41 1.18-2.13 0-1.15-.62-1.73-1.87-1.73-.96 0-1.89.3-2.81.9-.91.6-1.36 1.29-1.36 2.06 0 .62.21 1.1.64 1.44z" style="animation:WGQzfuSG_draw_0 10200ms linear 0ms infinite,WGQzfuSG_fade 10200ms linear 0ms infinite" stroke-dasharray="2416 2418" stroke-dashoffset="2417"/><style data-made-with="vivus-instant">@keyframes WGQzfuSG_draw{to{stroke-dashoffset:0}}@keyframes WGQzfuSG_fade{0%,96.07843137254902%{stroke-opacity:1}to{stroke-opacity:0}}@keyframes WGQzfuSG_draw_0{7.8431372549019605%{stroke-dashoffset:2417}66.66666666666666%,to{stroke-dashoffset:0}}</style></svg>