<svg xmlns="http://www.w3.org/2000/svg" xmlns:xlink="http://www.w3.org/1999/xlink" width="343.8" height="86.4"><path fill="antiquewhite" stroke="black" d="M6.55 61.06C5.45 65.18 4.58 69.00 3.96 72.50C4.87 72.50 5.81 72.12 6.77 71.35C7.73 70.58 8.45 69.43 8.93 67.90C9.94 64.44 12.50 56.21 16.63 43.20C18.65 43.01 20.99 42.88 23.65 42.80C26.32 42.73 29.57 42.70 33.41 42.70C31.63 48.41 30.36 52.85 29.59 56.02C28.44 60.48 27.86 64.10 27.86 66.89C27.86 68.76 28.24 70.12 28.98 70.96C29.72 71.80 31.01 72.31 32.83 72.50C32.74 71.64 32.69 70.78 32.69 69.91C32.69 65.83 33.48 60.02 35.06 52.49C35.54 50.04 36.29 46.75 37.30 42.62C38.54 42.62 39.62 42.49 40.54 42.23C41.45 41.96 42.38 41.33 43.34 40.32C42.72 40.32 41.69 40.27 40.25 40.18C39.19 40.08 38.42 40.03 37.94 40.03C39.29 34.90 40.64 29.98 42.01 25.27C43.38 20.57 44.54 16.94 45.50 14.40C44.02 14.40 42.70 15.65 41.54 18.14C40.92 19.44 39.92 22.13 38.56 26.21C37.19 30.29 35.76 34.80 34.27 39.74C29.86 39.31 25.78 39.10 22.03 39.10C20.98 39.10 19.58 39.14 17.86 39.24L23.47 20.95C23.86 19.70 24.05 18.67 24.05 17.86C24.05 16.85 23.80 16.02 23.29 15.37C22.79 14.72 21.94 14.40 20.74 14.40C18.96 14.40 16.92 15.11 14.62 16.52C12.31 17.94 10.36 19.74 8.75 21.92C7.14 24.11 6.34 26.23 6.34 28.30C6.34 29.54 6.68 30.54 7.38 31.28C8.08 32.03 9.17 32.40 10.66 32.40C10.42 31.68 10.30 30.86 10.30 29.95C10.30 28.32 10.73 26.42 11.59 24.26C12.46 22.10 13.57 20.26 14.94 18.72C16.31 17.18 17.74 16.42 19.22 16.42C19.66 16.42 19.93 16.49 20.05 16.63C20.17 16.78 20.23 17.04 20.23 17.42C20.23 18.29 20.08 19.18 19.76 20.09C19.45 21.00 19.27 21.53 19.22 21.67C16.92 28.30 14.88 34.32 13.10 39.74C9.17 40.56 7.18 42.02 7.13 44.14L11.88 43.63C9.43 51.12 7.66 56.93 6.55 61.06ZM45.68 67.07C47.20 68.63 49.37 69.41 52.20 69.41C55.80 69.41 59.30 68.11 62.71 65.52C66.12 62.93 68.78 59.50 70.70 55.22L69.84 54.58C67.97 58.18 65.54 61.20 62.57 63.65C59.59 66.10 56.64 67.32 53.71 67.32C51.65 67.32 50.18 66.74 49.32 65.59C48.46 64.44 48.02 63.00 48.02 61.27C48.02 60.36 48.12 59.50 48.31 58.68C51.10 58.39 53.88 57.60 56.66 56.30C59.45 55.01 61.73 53.34 63.50 51.30C65.28 49.26 66.17 47.06 66.17 44.71C66.17 41.78 64.68 40.32 61.70 40.32C58.97 40.32 56.17 41.44 53.32 43.67C50.46 45.90 48.10 48.65 46.22 51.91C44.35 55.18 43.42 58.22 43.42 61.06C43.42 63.50 44.17 65.51 45.68 67.07ZM55.01 54.29C52.80 55.58 50.69 56.59 48.67 57.31C49.30 55.06 50.34 52.78 51.80 50.47C53.27 48.17 54.88 46.27 56.63 44.78C58.38 43.30 60.00 42.55 61.49 42.55C62.06 42.55 62.46 42.68 62.68 42.95C62.89 43.21 63.00 43.63 63.00 44.21C63.00 46.13 62.22 47.96 60.66 49.72C59.10 51.47 57.22 52.99 55.01 54.29ZM70.02 66.38C70.96 67.73 72.41 68.40 74.38 68.40C79.27 68.40 83.78 63.98 87.91 55.15L86.83 54.58C85.39 57.74 83.75 60.46 81.90 62.71C80.05 64.97 78.24 66.10 76.46 66.10C74.35 66.10 73.30 64.25 73.30 60.55C73.30 58.49 73.61 56.06 74.23 53.28C77.54 50.54 80.66 46.97 83.59 42.55C86.52 38.14 88.88 33.78 90.68 29.48C92.48 25.19 93.38 21.94 93.38 19.73C93.38 18.53 93.16 17.34 92.70 16.16C92.24 14.99 91.68 14.40 91.01 14.40C89.38 14.40 86.72 17.38 83.05 23.33C79.38 29.28 76.06 35.96 73.08 43.38C70.10 50.80 68.62 56.66 68.62 60.98C68.62 63.24 69.08 65.04 70.02 66.38ZM82.62 40.86C80.10 44.87 77.52 48.19 74.88 50.83C76.13 46.51 77.86 41.98 80.06 37.22C82.27 32.47 84.42 28.45 86.51 25.16C88.60 21.88 89.98 20.23 90.65 20.23C90.98 20.23 91.15 20.62 91.15 21.38C91.15 23.02 90.36 25.67 88.78 29.34C87.19 33.01 85.14 36.85 82.62 40.86ZM87.01 66.38C87.95 67.73 89.40 68.40 91.37 68.40C96.26 68.40 100.78 63.98 104.90 55.15L103.82 54.58C102.38 57.74 100.74 60.46 98.89 62.71C97.04 64.97 95.23 66.10 93.46 66.10C91.34 66.10 90.29 64.25 90.29 60.55C90.29 58.49 90.60 56.06 91.22 53.28C94.54 50.54 97.66 46.97 100.58 42.55C103.51 38.14 105.88 33.78 107.68 29.48C109.48 25.19 110.38 21.94 110.38 19.73C110.38 18.53 110.15 17.34 109.69 16.16C109.24 14.99 108.67 14.40 108.00 14.40C106.37 14.40 103.72 17.38 100.04 23.33C96.37 29.28 93.05 35.96 90.07 43.38C87.10 50.80 85.61 56.66 85.61 60.98C85.61 63.24 86.08 65.04 87.01 66.38ZM99.61 40.86C97.09 44.87 94.51 48.19 91.87 50.83C93.12 46.51 94.85 41.98 97.06 37.22C99.26 32.47 101.41 28.45 103.50 25.16C105.59 21.88 106.97 20.23 107.64 20.23C107.98 20.23 108.14 20.62 108.14 21.38C108.14 23.02 107.35 25.67 105.77 29.34C104.18 33.01 102.13 36.85 99.61 40.86ZM103.03 66.74C103.94 67.94 105.38 68.54 107.35 68.54C109.08 68.54 110.92 67.85 112.86 66.46C114.80 65.06 116.64 63.24 118.37 60.98C119.38 61.46 120.53 61.70 121.82 61.70C123.60 61.70 125.33 61.20 127.01 60.19C128.69 59.18 129.98 57.62 130.90 55.51L130.03 54.79C129.26 56.57 128.14 57.88 126.65 58.72C125.16 59.56 123.72 59.98 122.33 59.98C121.37 59.98 120.46 59.74 119.59 59.26C121.03 57.10 122.20 54.88 123.08 52.60C123.97 50.32 124.42 48.26 124.42 46.44C124.42 44.71 124.04 43.36 123.30 42.37C122.56 41.39 121.27 40.90 119.45 40.90C117.29 40.90 115.57 41.78 114.30 43.56C113.03 45.34 112.39 47.47 112.39 49.97C112.39 51.89 112.76 53.74 113.51 55.51C114.25 57.29 115.30 58.73 116.64 59.83C115.30 61.56 113.93 62.95 112.54 64.01C111.14 65.06 109.94 65.59 108.94 65.59C107.21 65.59 106.34 64.22 106.34 61.49C106.34 60.34 106.64 58.84 107.24 56.99C107.84 55.14 108.55 53.40 109.37 51.77C110.18 50.14 110.88 49.08 111.46 48.60C110.88 48.36 110.38 48.24 109.94 48.24C108.65 48.24 107.35 48.96 106.06 50.40C104.76 51.84 103.70 53.64 102.89 55.80C102.07 57.96 101.66 60.02 101.66 61.99C101.66 63.96 102.12 65.54 103.03 66.74ZM120.96 52.24C120.19 54.18 119.18 56.09 117.94 57.96C117.12 57.00 116.51 55.84 116.10 54.47C115.69 53.10 115.49 51.67 115.49 50.18C115.49 48.84 115.72 47.60 116.17 46.48C116.63 45.35 117.20 44.46 117.90 43.81C118.60 43.16 119.28 42.84 119.95 42.84C120.58 42.84 121.09 43.18 121.50 43.85C121.91 44.52 122.11 45.53 122.11 46.87C122.11 48.50 121.73 50.29 120.96 52.24ZM127.94 69.91C127.94 71.21 128.35 72.10 129.17 72.58C129.36 72.19 129.67 71.51 130.10 70.52C130.54 69.54 131.06 68.51 131.69 67.43C132.31 66.35 133.13 65.28 134.14 64.22C134.14 63.70 133.96 63.23 133.60 62.82C133.24 62.41 132.82 62.21 132.34 62.21C131.33 62.21 130.34 63.10 129.38 64.87C128.42 66.65 127.94 68.33 127.94 69.91ZM170.10 66.82C171.04 67.68 172.32 68.11 173.95 68.11C176.83 68.11 179.69 66.84 182.52 64.30C185.35 61.75 187.51 58.82 189 55.51L188.06 54.79C187.44 56.23 186.43 57.80 185.04 59.51C183.65 61.21 182.12 62.64 180.47 63.79C178.81 64.94 177.26 65.52 175.82 65.52C174.38 65.52 173.66 64.80 173.66 63.36C173.66 62.35 174.19 60.70 175.25 58.39C175.92 56.71 176.42 55.36 176.76 54.32C177.10 53.29 177.26 52.25 177.26 51.19C177.26 49.56 176.84 48.23 176.00 47.20C175.16 46.16 174.00 45.12 172.51 44.06C171.60 43.44 170.94 42.92 170.53 42.52C170.12 42.11 169.92 41.66 169.92 41.18C169.97 40.94 170.11 40.49 170.35 39.82C170.59 39.14 170.71 38.71 170.71 38.52C170.71 37.37 170.38 36.79 169.70 36.79C169.42 36.79 169.02 37.01 168.52 37.44C168.01 37.87 167.58 38.47 167.22 39.24C166.86 40.01 166.68 40.82 166.68 41.69C166.68 42.36 166.92 42.94 167.40 43.42C165.82 48.07 163.87 52.63 161.57 57.10L162.22 58.32C163.03 56.93 164.04 54.95 165.24 52.38C166.44 49.81 167.57 47.18 168.62 44.50C168.86 44.64 169.32 44.94 169.99 45.40C170.66 45.85 171.28 46.43 171.83 47.12C172.38 47.82 172.66 48.77 172.66 49.97C172.66 50.78 172.50 51.66 172.19 52.60C171.88 53.53 171.41 54.79 170.78 56.38C169.39 59.45 168.70 61.80 168.70 63.43C168.70 64.82 169.16 65.95 170.10 66.82ZM187.81 67.07C189.32 68.63 191.50 69.41 194.33 69.41C197.93 69.41 201.43 68.11 204.84 65.52C208.25 62.93 210.91 59.50 212.83 55.22L211.97 54.58C210.10 58.18 207.67 61.20 204.70 63.65C201.72 66.10 198.77 67.32 195.84 67.32C193.78 67.32 192.31 66.74 191.45 65.59C190.58 64.44 190.15 63.00 190.15 61.27C190.15 60.36 190.25 59.50 190.44 58.68C193.22 58.39 196.01 57.60 198.79 56.30C201.58 55.01 203.86 53.34 205.63 51.30C207.41 49.26 208.30 47.06 208.30 44.71C208.30 41.78 206.81 40.32 203.83 40.32C201.10 40.32 198.30 41.44 195.44 43.67C192.59 45.90 190.22 48.65 188.35 51.91C186.48 55.18 185.54 58.22 185.54 61.06C185.54 63.50 186.30 65.51 187.81 67.07ZM197.14 54.29C194.93 55.58 192.82 56.59 190.80 57.31C191.42 55.06 192.47 52.78 193.93 50.47C195.40 48.17 197.00 46.27 198.76 44.78C200.51 43.30 202.13 42.55 203.62 42.55C204.19 42.55 204.59 42.68 204.80 42.95C205.02 43.21 205.13 43.63 205.13 44.21C205.13 46.13 204.35 47.96 202.79 49.72C201.23 51.47 199.34 52.99 197.14 54.29ZM210.13 68.08C211.12 69.11 212.40 69.62 213.98 69.62C215.66 69.62 217.36 68.95 219.06 67.61C220.76 66.26 222.70 64.15 224.86 61.27C224.71 62.04 224.64 62.74 224.64 63.36C224.64 64.75 225.08 65.94 225.97 66.92C226.86 67.91 228.14 68.40 229.82 68.40C231.50 68.40 233.26 67.85 235.08 66.74C236.90 65.64 238.61 64.09 240.19 62.10C241.78 60.11 243.07 57.84 244.08 55.30L243.36 54.58C241.30 58.18 239.21 60.97 237.10 62.96C234.98 64.96 233.23 65.95 231.84 65.95C231.02 65.95 230.41 65.63 230.00 64.98C229.60 64.33 229.39 63.60 229.39 62.78C229.39 61.87 229.63 60.88 230.11 59.80C230.59 58.72 231.24 57.48 232.06 56.09C232.15 55.94 232.43 55.45 232.88 54.61C233.34 53.77 233.57 53.16 233.57 52.78C233.57 52.30 233.24 51.90 232.60 51.59C231.95 51.28 231.31 51.07 230.69 50.98C227.71 55.34 224.93 59.05 222.34 62.10C219.74 65.15 217.49 66.67 215.57 66.67C214.27 66.67 213.62 65.74 213.62 63.86C213.62 61.51 214.40 58.70 215.96 55.44C217.52 52.18 219.47 49.37 221.80 47.02C224.12 44.66 226.34 43.49 228.46 43.49C229.66 43.49 230.54 43.86 231.12 44.60C231.70 45.35 231.98 46.32 231.98 47.52C231.98 48.34 231.86 49.18 231.62 50.04C232.73 50.04 233.59 49.80 234.22 49.32C234.84 48.84 235.15 48.05 235.15 46.94C235.15 45.36 234.53 44.06 233.28 43.06C232.03 42.05 230.47 41.54 228.60 41.54C225.62 41.54 222.58 42.77 219.46 45.22C216.34 47.66 213.76 50.64 211.72 54.14C209.68 57.65 208.66 60.82 208.66 63.65C208.66 65.57 209.15 67.04 210.13 68.08ZM242.42 66.85C243.53 67.88 244.78 68.40 246.17 68.40C248.28 68.40 250.64 67.18 253.26 64.73C255.88 62.28 258.41 59.04 260.86 55.01C259.94 58.51 259.49 61.08 259.49 62.71C259.49 64.20 259.87 65.47 260.64 66.53C261.41 67.58 262.61 68.11 264.24 68.11C265.87 68.11 267.59 67.55 269.39 66.42C271.19 65.29 272.88 63.74 274.46 61.78C276.05 59.81 277.30 57.62 278.21 55.22L277.34 54.58C276.38 56.69 275.23 58.55 273.89 60.16C272.54 61.76 271.19 63.01 269.82 63.90C268.45 64.79 267.26 65.23 266.26 65.23C265.49 65.23 265.02 64.96 264.85 64.40C264.68 63.85 264.60 62.78 264.60 61.20C264.60 57.17 265.66 52.45 267.77 47.05C269.88 41.65 272.71 35.26 276.26 27.86C277.99 24.22 279.24 21.52 280.01 19.76C280.78 18.01 281.16 16.78 281.16 16.06C281.16 15.58 281.02 15.18 280.73 14.87C280.44 14.56 280.10 14.40 279.72 14.40C277.99 14.40 275.87 17.10 273.35 22.50C270.83 27.90 267.70 35.45 263.95 45.14C262.46 48.98 260.76 52.42 258.84 55.44C256.92 58.46 255.02 60.80 253.15 62.46C251.28 64.12 249.70 64.94 248.40 64.94C247.58 64.94 246.95 64.63 246.49 64.01C246.04 63.38 245.81 62.54 245.81 61.49C245.81 59.52 246.52 57.00 247.93 53.93C249.35 50.86 251.18 48.18 253.44 45.90C255.70 43.62 258.02 42.48 260.42 42.48C261.77 42.48 262.68 42.84 263.16 43.56C263.26 43.08 263.30 42.74 263.30 42.55C263.30 41.06 262.25 40.32 260.14 40.32C257.30 40.32 254.38 41.57 251.35 44.06C248.33 46.56 245.81 49.57 243.79 53.10C241.78 56.63 240.77 59.71 240.77 62.35C240.77 64.32 241.32 65.82 242.42 66.85ZM277.24 67.07C278.75 68.63 280.92 69.41 283.75 69.41C287.35 69.41 290.86 68.11 294.26 65.52C297.67 62.93 300.34 59.50 302.26 55.22L301.39 54.58C299.52 58.18 297.10 61.20 294.12 63.65C291.14 66.10 288.19 67.32 285.26 67.32C283.20 67.32 281.74 66.74 280.87 65.59C280.01 64.44 279.58 63.00 279.58 61.27C279.58 60.36 279.67 59.50 279.86 58.68C282.65 58.39 285.43 57.60 288.22 56.30C291.00 55.01 293.28 53.34 295.06 51.30C296.83 49.26 297.72 47.06 297.72 44.71C297.72 41.78 296.23 40.32 293.26 40.32C290.52 40.32 287.72 41.44 284.87 43.67C282.01 45.90 279.65 48.65 277.78 51.91C275.90 55.18 274.97 58.22 274.97 61.06C274.97 63.50 275.72 65.51 277.24 67.07ZM286.56 54.29C284.35 55.58 282.24 56.59 280.22 57.31C280.85 55.06 281.89 52.78 283.36 50.47C284.82 48.17 286.43 46.27 288.18 44.78C289.93 43.30 291.55 42.55 293.04 42.55C293.62 42.55 294.01 42.68 294.23 42.95C294.44 43.21 294.55 43.63 294.55 44.21C294.55 46.13 293.77 47.96 292.21 49.72C290.65 51.47 288.77 52.99 286.56 54.29ZM308.56 66.82C309.49 67.68 310.78 68.11 312.41 68.11C315.29 68.11 318.14 66.84 320.98 64.30C323.81 61.75 325.97 58.82 327.46 55.51L326.52 54.79C325.90 56.23 324.89 57.80 323.50 59.51C322.10 61.21 320.58 62.64 318.92 63.79C317.27 64.94 315.72 65.52 314.28 65.52C312.84 65.52 312.12 64.80 312.12 63.36C312.12 62.35 312.65 60.70 313.70 58.39C314.38 56.71 314.88 55.36 315.22 54.32C315.55 53.29 315.72 52.25 315.72 51.19C315.72 49.56 315.30 48.23 314.46 47.20C313.62 46.16 312.46 45.12 310.97 44.06C310.06 43.44 309.40 42.92 308.99 42.52C308.58 42.11 308.38 41.66 308.38 41.18C308.42 40.94 308.57 40.49 308.81 39.82C309.05 39.14 309.17 38.71 309.17 38.52C309.17 37.37 308.83 36.79 308.16 36.79C307.87 36.79 307.48 37.01 306.97 37.44C306.47 37.87 306.04 38.47 305.68 39.24C305.32 40.01 305.14 40.82 305.14 41.69C305.14 42.36 305.38 42.94 305.86 43.42C304.27 48.07 302.33 52.63 300.02 57.10L300.67 58.32C301.49 56.93 302.50 54.95 303.70 52.38C304.90 49.81 306.02 47.18 307.08 44.50C307.32 44.64 307.78 44.94 308.45 45.40C309.12 45.85 309.73 46.43 310.28 47.12C310.84 47.82 311.11 48.77 311.11 49.97C311.11 50.78 310.96 51.66 310.64 52.60C310.33 53.53 309.86 54.79 309.24 56.38C307.85 59.45 307.15 61.80 307.15 63.43C307.15 64.82 307.62 65.95 308.56 66.82ZM328.97 53.21C328.25 55.46 327.89 57.34 327.89 58.82C329.66 56.28 332.28 51.76 335.74 45.25C339.19 38.75 342.28 32.57 344.99 26.71C347.70 20.86 349.06 17.30 349.06 16.06C349.06 15.58 348.91 15.18 348.62 14.87C348.34 14.56 348.00 14.40 347.62 14.40C345.89 14.40 343.76 17.10 341.24 22.50C338.72 27.90 335.59 35.45 331.85 45.14C330.65 48.26 329.69 50.95 328.97 53.21ZM324.14 66.46C324.58 66.79 325.13 66.96 325.80 66.96C326.71 66.96 327.56 66.61 328.36 65.92C329.15 65.22 329.54 64.51 329.54 63.79C329.54 62.64 328.92 62.06 327.67 62.06C326.71 62.06 325.78 62.36 324.86 62.96C323.95 63.56 323.50 64.25 323.50 65.02C323.50 65.64 323.71 66.12 324.14 66.46Z"/></svg>