<?xml version="1.0" encoding="iso-8859-1"?>
<!-- Generator: Adobe Illustrator 19.0.0, SVG Export Plug-In . SVG Version: 6.00 Build 0)  -->
<svg version="1.1" id="Layer_1" xmlns="http://www.w3.org/2000/svg" xmlns:xlink="http://www.w3.org/1999/xlink" x="0px" y="0px"
	 viewBox="0 0 511.998 511.998" style="enable-background:new 0 0 511.998 511.998;" xml:space="preserve">
<g>
	<g>
		<path d="M503.914,153.878c4.466,0,8.084-3.618,8.084-8.084v-31.459c0-20.619-16.774-37.394-37.393-37.394H37.393
			C16.774,76.942,0,93.716,0,114.336v283.326c0,20.62,16.774,37.395,37.393,37.395h437.214c20.619,0,37.393-16.775,37.391-37.395
			V172.024c0-4.466-3.618-8.084-8.084-8.084c-4.466,0-8.084,3.618-8.084,8.084v225.637c0,11.705-9.522,21.227-21.225,21.227H37.393
			c-11.703,0-21.225-9.522-21.225-21.227V114.336c0-11.704,9.522-21.226,21.225-21.226h437.212c11.703,0,21.225,9.522,21.225,21.226
			v31.459C495.83,150.26,499.448,153.878,503.914,153.878z"/>
	</g>
</g>
<g>
	<g>
		<path d="M186.584,226.037h-16.436v18.088h16.436v0.002c6.507,0,11.029-2.315,11.029-8.824
			C197.613,228.354,192.76,226.037,186.584,226.037z"/>
	</g>
</g>
<g>
	<g>
		<path d="M186.033,197.693h-15.886v15.11h15.886c3.529,0,8.381-1.876,8.381-7.5C194.414,199.568,190.332,197.693,186.033,197.693z"
			/>
	</g>
</g>
<g>
	<g>
		<polygon points="261.137,203.648 260.917,203.648 251.983,231.224 269.851,231.224 		"/>
	</g>
</g>
<g>
	<g>
		<path d="M129.642,288.299h-11.24v12.229h11.846c4.254,0,6.533-2.278,6.533-6.378C136.781,290.125,133.591,288.299,129.642,288.299
			z"/>
	</g>
</g>
<g>
	<g>
		<polygon points="181.063,292.021 180.912,292.021 174.76,311.011 187.065,311.011 		"/>
	</g>
</g>
<g>
	<g>
		<path d="M443.349,288.299h-11.24v12.229h11.85c4.252,0,6.529-2.278,6.529-6.378C450.489,290.125,447.3,288.299,443.349,288.299z"
			/>
	</g>
</g>
<g>
	<g>
		<path d="M480.596,323.682c-0.139-0.995-0.269-2.554-0.387-4.656c-0.025-0.448-0.046-0.833-0.068-1.135
			c-0.006-0.107-0.015-0.212-0.025-0.319c-0.387-4.411-1.277-8.12-2.493-11.241c2.043-4.231,3.163-9.025,3.163-14.082
			c0-7.425-2.33-13.947-6.45-19.1c1.687-1.36,3.113-3.068,4.157-5.053c2.798-5.31,2.423-11.732-0.97-16.68l-25.399-37.028
			l20.084-21.379c2.794-2.906,4.512-6.853,4.512-11.203c0-8.929-7.236-16.168-16.166-16.168h-0.004h-25.48
			c-4.718,0-9.2,2.061-12.272,5.642l-0.711,0.829c-2.949-3.93-7.647-6.471-12.937-6.471h-20.516c-2.511,0-4.88,0.59-7,1.611
			c-2.12-1.022-4.488-1.611-7-1.611h-19.305c-5.831,0-10.943,3.088-13.787,7.72c-2.931-4.784-8.148-7.72-13.785-7.72h-21.07
			c-8.928,0-16.168,7.239-16.168,16.168v4.676l-3.865-10.339c-2.364-6.318-8.4-10.505-15.146-10.505h-20.844
			c-6.745,0-12.781,4.188-15.146,10.505l-5.732,15.331c-2.309-8.461-7.619-15.333-15.537-19.839
			c-7.002-3.985-15.956-6.006-26.614-6.006h-0.002c-0.427,0-0.855,0.003-1.281,0.01h-36.717c-2.224,0-4.341,0.449-6.269,1.261
			c-1.935-0.817-4.062-1.27-6.293-1.27H51.558c-8.93,0-16.168,7.239-16.168,16.168v17.123c0,2.451,0.56,4.766,1.537,6.849
			c-0.975,2.082-1.537,4.397-1.537,6.849v17.123c0,2.451,0.56,4.766,1.537,6.849c-0.975,2.083-1.537,4.397-1.537,6.849v17.122
			c0,3.001,0.831,5.802,2.257,8.21c-1.425,2.408-2.257,5.209-2.257,8.21v12.153c0,8.929,7.238,16.168,16.168,16.168h0.011v25.912
			c0,8.929,7.24,16.168,16.168,16.168h14.126c4.354,0,8.298-1.73,11.205-4.528c2.907,2.799,6.85,4.528,11.205,4.528h14.13
			c3.821,0,7.333-1.326,10.101-3.543c2.829,2.265,6.381,3.543,10.101,3.543h13.979c0.204,0,0.407-0.015,0.611-0.024
			c0.125,0.003,0.247,0.024,0.374,0.024h14.51c5.124,0,9.831-2.416,12.836-6.335c3.002,3.918,7.707,6.335,12.833,6.335h14.737
			c0.678,0,1.347-0.044,2.01-0.127c0.638,0.077,1.282,0.127,1.941,0.127h13.293c3.549,0,6.83-1.144,9.496-3.081
			c2.716,1.969,6.023,3.081,9.495,3.081h14.507c3.609,0,6.931-1.196,9.621-3.196c5.807,2.8,12.716,4.335,20.457,4.335
			c7.793,0,14.868-1.458,20.787-4.204c2.659,1.92,5.913,3.064,9.444,3.064h14.13c8.745,0,15.853-6.95,16.141-15.626
			c0.289,8.676,7.393,15.626,16.141,15.626h43.979c1.394,0,2.737-0.195,4.026-0.526c1.289,0.332,2.632,0.526,4.026,0.526h14.128
			c3.823,0,7.335-1.326,10.103-3.544c2.829,2.265,6.381,3.544,10.101,3.544h13.977c6.48,0,12.334-3.871,14.876-9.834
			C483.101,333.005,482.826,327.915,480.596,323.682z M51.558,196.451v-14.652h81.907h3.607v17.123H51.558V196.451z M51.558,227.271
			v-12.18v-2.472h85.514v17.123H51.558V227.271z M51.558,245.909v-2.472h85.514v17.122h-3.607H51.558V245.909z M98.044,289.135
			h-9.941h-6.24v42.08H67.737v-42.08H51.558v-12.153h36.545h9.941V289.135z M138.604,331.217L138.604,331.217v-0.001
			c-0.415-0.621-0.711-1.651-0.932-2.796c0-0.003,0-0.008-0.002-0.011c-0.375-1.957-0.524-4.245-0.623-5.44
			c-0.013-0.156-0.026-0.297-0.036-0.413c-0.382-5.469-1.29-11.089-7.899-11.089h-10.71v19.748h-14.131v-27.158v-27.076h9.941
			h17.708c0.598,0,1.193,0.017,1.787,0.052c0.402,0.024,0.8,0.066,1.198,0.106c0.19,0.018,0.383,0.027,0.572,0.05
			c0.485,0.058,0.965,0.136,1.442,0.219c0.098,0.017,0.198,0.027,0.294,0.044c7.472,1.382,13.695,5.907,13.695,14.797
			c0,4.025-1.33,7.905-4.015,10.653l-0.001,0.001c-0.008,0.008-0.016,0.014-0.023,0.022c-0.272,0.276-0.559,0.537-0.857,0.788
			c-0.097,0.081-0.198,0.157-0.297,0.236c-0.22,0.176-0.447,0.344-0.683,0.507c-0.117,0.081-0.238,0.161-0.36,0.238
			c-0.243,0.155-0.493,0.3-0.749,0.44c-0.115,0.064-0.23,0.129-0.348,0.19c-0.378,0.19-0.765,0.369-1.172,0.526V306
			c0.324,0.077,0.631,0.175,0.929,0.282c0.096,0.036,0.189,0.074,0.283,0.112c0.203,0.082,0.4,0.17,0.592,0.266
			c0.095,0.047,0.19,0.094,0.282,0.144c0.219,0.121,0.429,0.251,0.634,0.389c0.043,0.029,0.089,0.055,0.131,0.084l0.001,0.001
			c3.507,2.486,4.676,7.52,5.047,11.709c0.152,2.278,0.382,10.253,2.28,12.23H138.604z M196.267,331.216h-2.52l-3.339-9.724h-18.914
			l-2.848,8.107l-0.568,1.617h-14.51l20.279-54.234h14.355l20.281,54.234H196.267z M205.377,257.412
			c-0.002,0.001-0.004,0.001-0.006,0.002c-1.25,0.556-2.571,1.028-3.949,1.426c-0.023,0.006-0.046,0.014-0.069,0.021
			c-1.356,0.387-2.768,0.702-4.232,0.951c-0.051,0.009-0.101,0.018-0.154,0.026c-0.711,0.117-1.432,0.222-2.167,0.309
			c-0.068,0.009-0.137,0.015-0.204,0.023c-0.687,0.079-1.381,0.147-2.085,0.2c-0.068,0.005-0.137,0.012-0.205,0.017
			c-0.715,0.053-1.438,0.091-2.168,0.119c-0.152,0.005-0.303,0.011-0.455,0.015c-0.734,0.023-1.471,0.039-2.218,0.039H153.24h-3.607
			v-78.752h3.607h33.234c0.383-0.006,0.771-0.01,1.156-0.01c0.022,0,0.041,0.001,0.061,0.001c0.172,0,0.346,0.002,0.52,0.004
			c0.247,0.002,0.495,0.003,0.743,0.009c0.18,0.003,0.36,0.011,0.54,0.015c0.241,0.008,0.482,0.013,0.723,0.023
			c0.185,0.006,0.371,0.017,0.556,0.026c0.236,0.012,0.472,0.023,0.707,0.037c0.185,0.012,0.371,0.026,0.556,0.039
			c0.236,0.017,0.472,0.032,0.705,0.053c0.188,0.016,0.372,0.034,0.558,0.053c0.232,0.023,0.464,0.043,0.695,0.068
			c0.188,0.022,0.375,0.044,0.562,0.067c0.229,0.027,0.456,0.055,0.683,0.085c0.187,0.025,0.373,0.055,0.558,0.082
			c0.225,0.032,0.45,0.067,0.673,0.103c0.186,0.03,0.372,0.064,0.557,0.097c0.22,0.039,0.44,0.079,0.659,0.122
			c0.185,0.036,0.368,0.073,0.55,0.113c0.219,0.046,0.435,0.093,0.651,0.142c0.181,0.041,0.36,0.085,0.539,0.129
			c0.212,0.053,0.427,0.107,0.638,0.162c0.179,0.047,0.356,0.098,0.532,0.149c0.208,0.059,0.415,0.12,0.621,0.183
			c0.175,0.054,0.347,0.11,0.52,0.166c0.204,0.066,0.407,0.135,0.608,0.205c0.17,0.06,0.338,0.123,0.508,0.187
			c0.198,0.073,0.393,0.15,0.59,0.227c0.166,0.068,0.331,0.137,0.495,0.206c0.192,0.082,0.383,0.166,0.57,0.252
			c0.162,0.073,0.322,0.15,0.48,0.226c0.185,0.089,0.369,0.182,0.552,0.277c0.156,0.081,0.309,0.163,0.461,0.247
			c0.179,0.099,0.356,0.202,0.53,0.304c0.15,0.088,0.299,0.178,0.445,0.269c0.171,0.108,0.34,0.218,0.507,0.33
			c0.143,0.096,0.287,0.193,0.426,0.292c0.164,0.116,0.324,0.237,0.483,0.358c0.136,0.105,0.273,0.208,0.405,0.316
			c0.155,0.125,0.305,0.255,0.456,0.386c0.129,0.112,0.258,0.224,0.383,0.34c0.147,0.136,0.288,0.276,0.429,0.416
			c0.121,0.12,0.241,0.24,0.359,0.364c0.137,0.146,0.269,0.296,0.4,0.447c0.113,0.128,0.227,0.257,0.335,0.389
			c0.128,0.156,0.248,0.318,0.371,0.479c0.103,0.137,0.208,0.273,0.307,0.415c0.117,0.166,0.23,0.34,0.341,0.514
			c0.093,0.146,0.19,0.289,0.279,0.439c0.107,0.178,0.205,0.364,0.306,0.549c0.084,0.154,0.17,0.306,0.25,0.466
			c0.097,0.192,0.184,0.39,0.274,0.589c0.073,0.162,0.15,0.321,0.219,0.486c0.084,0.205,0.16,0.419,0.238,0.631
			c0.063,0.169,0.128,0.336,0.185,0.51c0.073,0.219,0.135,0.447,0.201,0.673c0.053,0.178,0.108,0.351,0.154,0.534
			c0.061,0.237,0.111,0.484,0.163,0.729c0.039,0.181,0.083,0.358,0.116,0.543c0.049,0.261,0.084,0.534,0.124,0.804
			c0.025,0.179,0.058,0.354,0.08,0.537c0.036,0.307,0.059,0.628,0.084,0.947c0.013,0.155,0.031,0.304,0.04,0.462
			c0.027,0.482,0.042,0.976,0.042,1.483c0,7.059-4.192,12.794-10.368,15.882c0.619,0.179,1.216,0.393,1.8,0.625
			c0.17,0.067,0.334,0.141,0.501,0.212c0.428,0.184,0.847,0.382,1.255,0.592c0.154,0.08,0.307,0.157,0.457,0.241
			c0.51,0.282,1.006,0.581,1.48,0.905c0.019,0.013,0.038,0.023,0.057,0.037c0.529,0.364,1.033,0.757,1.516,1.171
			c0.04,0.034,0.077,0.071,0.116,0.108c0.437,0.382,0.852,0.785,1.247,1.204c0.048,0.051,0.097,0.102,0.143,0.154
			c1.301,1.412,2.368,3.026,3.179,4.801c0,0.001,0,0.003,0.002,0.004c1.173,2.575,1.815,5.477,1.815,8.588
			C218.13,247.409,213.088,253.982,205.377,257.412z M259.225,331.216h-4.815h-9.69l-18.841-33.801h-0.152v33.801h-1.08h-12.213
			V295.62v-18.639h14.507l18.837,33.421h0.154v-33.421h9.31h3.983V331.216z M247.239,246.443l-4.964,14.117H226.8h-5.59
			l29.451-78.753h20.844l19.011,50.836l10.44,27.917h-20.933h-0.466l-4.853-14.117H247.239z M298.476,331.342
			c-0.019,0.004-0.036,0.009-0.053,0.013c-0.564,0.136-1.135,0.257-1.714,0.363c-0.023,0.004-0.044,0.008-0.066,0.012
			c-1.133,0.205-2.291,0.357-3.464,0.458c-0.081,0.008-0.162,0.015-0.243,0.022c-0.548,0.044-1.097,0.079-1.65,0.102
			c-0.093,0.004-0.188,0.008-0.28,0.011c-0.566,0.021-1.133,0.033-1.701,0.033c-0.572,0-1.139-0.016-1.703-0.039
			c-0.11-0.004-0.219-0.009-0.329-0.014c-0.549-0.027-1.093-0.066-1.632-0.114c-0.093-0.009-0.183-0.019-0.276-0.028
			c-0.532-0.054-1.06-0.116-1.582-0.193c-0.032-0.004-0.067-0.009-0.098-0.013c-0.546-0.082-1.084-0.179-1.617-0.287
			c-0.088-0.018-0.177-0.036-0.265-0.054c-0.53-0.111-1.054-0.235-1.568-0.372c-0.044-0.013-0.086-0.025-0.13-0.038
			c-0.508-0.138-1.009-0.291-1.499-0.456c-0.039-0.013-0.078-0.024-0.115-0.037c-0.501-0.171-0.99-0.359-1.469-0.558
			c-0.068-0.028-0.135-0.057-0.203-0.086c-0.484-0.206-0.96-0.425-1.421-0.661c0,0-0.002,0-0.002-0.001
			c-5.727-2.937-9.591-8.206-9.637-16.42h9.637h4.49c0.305,6.38,4.254,8.429,10.255,8.429c4.252,0,8.659-1.518,8.659-5.544
			c0-4.786-7.748-5.697-15.57-7.901c-0.612-0.175-1.228-0.36-1.84-0.554c-0.117-0.037-0.234-0.074-0.349-0.111
			c-1.953-0.628-3.874-1.373-5.637-2.312c-0.002-0.001-0.004-0.002-0.006-0.003c-4.566-2.43-8.042-6.166-8.042-12.666
			c0-6.905,4.053-11.356,9.449-13.871c0.055-0.025,0.108-0.052,0.162-0.077c0.464-0.211,0.937-0.407,1.419-0.591
			c0.068-0.026,0.135-0.053,0.203-0.078c0.486-0.181,0.98-0.348,1.48-0.501c0.053-0.017,0.106-0.031,0.157-0.047
			c2.991-0.898,6.191-1.317,9.235-1.317c2.522,0,5.047,0.29,7.438,0.886h0.001c7.834,1.952,14.224,7.213,14.285,16.583h-7.815
			h-6.313c0.227-4.937-4.406-6.532-8.736-6.532c-3.037,0-6.836,1.063-6.836,4.634c0,4.177,7.823,4.936,15.722,7.14
			c0.521,0.147,1.042,0.301,1.56,0.461c0.029,0.01,0.059,0.019,0.088,0.028c7.247,2.258,14.076,6.046,14.076,15.155
			C312.928,324.326,306.582,329.38,298.476,331.342z M359.494,288.299L359.494,288.299h-9.713h-16.113v11.091h16.113h6.217v10.935
			h-6.217h-16.113v20.891h-8.922h-5.208v-54.234h3.542h26.702h9.712V288.299z M353.563,260.562v-0.001l-27.354-49.082h-0.219v49.082
			h-8.87h-10.436v-30.842v-47.911h21.07l27.354,48.532h0.219v-48.532h17.136h2.169v78.754h-2.169H353.563z M409.929,331.216h-8.115
			H365.95v-8.164v-46.069h9.712h26.152h7.356v11.317h-7.356h-21.737v9.495h21.737h4.848v10.937h-4.848h-21.737v10.332h21.737h8.115
			V331.216z M417.53,227.473l-8.383,8.824v24.264h-18.348h-2.169v-78.753h2.169h18.348v30.223l25.92-30.223h25.48l-29.12,30.995
			l32.76,47.759H438.71L417.53,227.473z M452.314,331.216L452.314,331.216c-1.217-1.824-1.442-7.141-1.595-8.66
			c-0.379-5.469-1.29-11.089-7.899-11.089h-10.709v19.748h-6.013h-8.115v-54.234h7.356h20.292c9.571,0,18.987,4.331,18.987,15.266
			c0,5.85-2.808,11.394-8.506,13.599v0.15c5.772,1.369,7.444,7.823,7.899,12.99c0.154,2.278,0.379,10.253,2.28,12.23H452.314z"/>
	</g>
</g>
<g>
</g>
<g>
</g>
<g>
</g>
<g>
</g>
<g>
</g>
<g>
</g>
<g>
</g>
<g>
</g>
<g>
</g>
<g>
</g>
<g>
</g>
<g>
</g>
<g>
</g>
<g>
</g>
<g>
</g>
</svg>
