<svg xmlns="http://www.w3.org/2000/svg" viewBox="0 0 442.23 482.04"><defs><linearGradient id="a" y2="230.38" gradientUnits="userSpaceOnUse" x2="343.82" y1="677.87" x1="435.95"><stop stop-color="#8c3611" offset="0"/><stop stop-color="#ec081a" offset="1"/></linearGradient><linearGradient id="b" y2="233.98" gradientUnits="userSpaceOnUse" x2="452.54" y1="347.11" x1="409.12"><stop stop-color="#703f06" offset="0"/><stop stop-color="#621e00" offset="1"/></linearGradient><linearGradient id="c" y2="201.36" gradientUnits="userSpaceOnUse" x2="158.59" y1="288.23" x1="351.64"><stop stop-color="#38822b" offset="0"/><stop stop-color="#00ce02" stop-opacity="0" offset="1"/></linearGradient></defs><path fill="url(#a)" d="M404.25 693.33c205.07 93.329 322.49-370.73 92.036-351.88-52.37 12.89-118.11 23.937-187.14 1.673-242.8-24.351-95.055 436.5 95.1 350.21z" transform="translate(-181.4 -224.71)"/><path fill="url(#b)" d="M426.79 265.96c-8.16-24.063-9-33.491-5.05-33.335 23.512-4.567 32.961 10.557 43.436 24.244-14.542.541-19.918 6.32-25.254 12.122-17.628 32.357-19.297 56.634-26.264 82.327l-27.274 2.02c20.262-19.774 29.904-59.692 40.406-87.378z" transform="translate(-181.4 -224.71)"/><path fill="url(#c)" d="M410.12 307.88c-17.615-70.003-86.197-92.056-140.92-78.287-92.792 23.349 71.872 94.905 140.92 78.287z" transform="translate(-181.4 -224.71)"/><path d="M209.53 69.53c-60.97-42.23-91.1-45.32-135.36-48.48" stroke="#3bae28" fill="none"/></svg>