<svg xmlns="http://www.w3.org/2000/svg" xmlns:xlink="http://www.w3.org/1999/xlink" viewBox="0 0 640 640" width="603" height="603"><defs><path d="M265.22 3.1H3.2v227.85h98.72l35.95 26.49 35.34-26.49h92.01V3.1z" id="a"/><path d="M203.78 171.78l.31.78.31.74.32.71.31.67.32.64.32.6.33.58.33.54.34.51.36.48.36.46.37.43.38.4.4.37.42.36.43.32.44.31.47.28.48.26.51.25.53.22.55.21.58.18.6.18.63.15.66.14.68.13.72.12.75.1.78.09.81.09.85.07.89.07.92.06.97.05 1 .05 1.04.04 1.09.04 1.13.03v8.45h-75.78v-8.45l15.07-.95.52-.04.5-.05.48-.05.45-.07.44-.08.41-.09.4-.1.37-.11.35-.12.34-.13.31-.14.29-.15.27-.16.26-.18.23-.18.22-.19.2-.2.18-.22.16-.22.14-.24.13-.24.11-.26.09-.26.07-.28.06-.28.04-.3.03-.31.01-.32-.01-.33-.02-.34-.04-.35-.05-.36-.07-.37-.08-.38-.1-.39-.11-.41-.13-.41-.14-.43-.15-.43-.17-.45-16.5-42.12H96.99l-.41 1.15-.4 1.14-.41 1.14-.41 1.14-.41 1.12-.41 1.13-.41 1.11-.4 1.12-.41 1.1-.41 1.11-.4 1.09-.41 1.1-.4 1.08-.4 1.09-.4 1.08-.4 1.07-.39 1.07-.39 1.07-.39 1.06-.39 1.06-.38 1.06-.38 1.05-.37 1.05-.37 1.04-.37 1.05-.37 1.04-.36 1.03-.35 1.04-.35 1.03-.34 1.03-.34 1.02-.34 1.03-.32 1.02-.33 1.02-.31 1.02-.31 1.02-.31 1.01-.29 1.02-.29 1.01-.28 1.01-.12.45-.12.43-.1.41-.1.41-.08.39-.08.39-.07.37-.05.36-.05.34-.04.34-.02.32-.01.32v.3l.02.29.03.28.04.27.06.26.07.24.09.24.1.23.12.22.14.2.16.2.17.18.19.18.21.16.23.16.25.15.27.13.29.13.31.12.33.11.36.1.38.09.4.08.42.07.45.06.47.06.5.04.52.04 14.05.95v8.45H41.95v-8.45l1.21-.04 1.15-.04 1.1-.06 1.04-.06 1-.07.94-.08.91-.1.85-.1.82-.11.77-.13.74-.14.69-.16.67-.17.62-.18.6-.2.57-.22.53-.24.51-.25.49-.27.46-.3.45-.31.42-.33.41-.36.38-.37.38-.41.36-.42.36-.45.34-.47.34-.5.33-.53.33-.55.33-.58.33-.61.33-.64.33-.67.34-.7.35-.73.35-.77.37-.79.38-.83.6-1.32.61-1.35.61-1.38.63-1.4.63-1.44.64-1.46.64-1.49.65-1.52.66-1.54.67-1.56.67-1.58.67-1.61.68-1.62.69-1.65.69-1.66.7-1.67.7-1.7.7-1.71.71-1.72.72-1.73.71-1.75.72-1.75.72-1.77.73-1.77.72-1.78.73-1.79.73-1.79.73-1.79.74-1.8.73-1.8.73-1.81.74-1.8.74-1.8.73-1.79.74-1.8.73-1.79.74-1.78.73-1.78.73-1.77.73-1.76 31.78-77.84h21.26l57.72 146.02.32.82zM125.82 55.51l-.2.52-.23.59-.27.66-.28.74-.32.82-.35.88-.37.97-.4 1.04-.43 1.11-.45 1.19-.48 1.26-.52 1.34-.54 1.41-.56 1.49-.6 1.56-.62 1.63-.65 1.71-.68 1.79-.7 1.86-.74 1.93-.76 2.01-.79 2.08-.81 2.16-.85 2.24-.87 2.3-.9 2.39-.93 2.45-.96 2.53-.98 2.61-1.01 2.68-1.04 2.76-1.07 2.83-1.09 2.9-1.12 2.98-1.16 3.05h48.39l-23.63-62.91H126l-.18.44z" id="b"/></defs><use xlink:href="#a" fill="#333"/><use xlink:href="#a" fill-opacity="0" stroke="#000" stroke-opacity="0"/><g><use xlink:href="#b" fill="#fc0"/><use xlink:href="#b" fill-opacity="0" stroke="#000" stroke-opacity="0"/></g></svg>